<svg width="51" height="52" viewBox="0 0 51 52" fill="none" xmlns="http://www.w3.org/2000/svg">
<path d="M20.3841 1.42578H1.30859V27.094H20.3841V1.42578Z" fill="#432918"/>
<path d="M0 27.8591H21.5691V0H0V27.8591ZM19.2231 2.45892V25.4176H2.33266V2.45892H19.2231Z" fill="#CA9E67"/>
<path d="M16.6064 2.66388H16.6849C16.6679 2.59587 16.6578 2.52786 16.6542 2.45948H16.5894C16.5963 2.52424 16.6028 2.59225 16.6064 2.66388ZM16.6064 2.66388H16.6849C16.6679 2.59587 16.6578 2.52786 16.6542 2.45948H16.5894C16.5963 2.52424 16.6028 2.59225 16.6064 2.66388ZM16.6064 2.66388H16.6849C16.6679 2.59587 16.6578 2.52786 16.6542 2.45948H16.5894C16.5963 2.52424 16.6028 2.59225 16.6064 2.66388ZM1.72852 26.103H19.8243V1.77539H1.72852V26.103ZM18.9698 2.66388V25.2141H2.58336V2.66388H18.9698ZM16.6064 2.66388H16.6849C16.6679 2.59587 16.6578 2.52786 16.6542 2.45948H16.5894C16.5963 2.52424 16.6028 2.59225 16.6064 2.66388ZM16.6064 2.66388H16.6849C16.6679 2.59587 16.6578 2.52786 16.6542 2.45948H16.5894C16.5963 2.52424 16.6028 2.59225 16.6064 2.66388ZM16.6064 2.66388H16.6849C16.6679 2.59587 16.6578 2.52786 16.6542 2.45948H16.5894C16.5963 2.52424 16.6028 2.59225 16.6064 2.66388Z" fill="#B17F4A"/>
<path opacity="0.1" d="M0 0.0175781L2.58119 2.66678V25.2134L0.00325685 27.8593H0V0.0175781Z" fill="#1D1D1B"/>
<path d="M9.97261 4.70504C9.97261 5.16773 9.5895 5.54288 9.11668 5.54288C8.64385 5.54288 8.26074 5.16773 8.26074 4.70504C8.26074 4.24234 8.64385 3.86719 9.11668 3.86719C9.5895 3.86719 9.97261 4.24234 9.97261 4.70504Z" fill="#EDEDED"/>
<path d="M10.6826 5.7441C10.6826 6.2068 10.2995 6.58195 9.82664 6.58195C9.35381 6.58195 8.9707 6.2068 8.9707 5.7441C8.9707 5.2814 9.35381 4.90625 9.82664 4.90625C10.2991 4.90661 10.6826 5.2814 10.6826 5.7441Z" fill="#EDEDED"/>
<path d="M11.0654 6.28902C11.0654 6.75172 10.6823 7.12687 10.2094 7.12687C9.73662 7.12687 9.35352 6.75172 9.35352 6.28902C9.35352 5.82633 9.73662 5.45117 10.2094 5.45117C10.6823 5.45117 11.0654 5.82669 11.0654 6.28902Z" fill="#EDEDED"/>
<path d="M12.5715 5.36939C12.5715 6.0383 12.0177 6.58058 11.3339 6.58058C10.6505 6.58058 10.0967 6.0383 10.0967 5.36939C10.0967 4.70049 10.6505 4.1582 11.3339 4.1582C12.0173 4.15856 12.5715 4.70049 12.5715 5.36939Z" fill="#EDEDED"/>
<path d="M15.594 6.92212C15.594 7.59102 15.0401 8.13331 14.3567 8.13331C13.6734 8.13331 13.1191 7.59102 13.1191 6.92212C13.1191 6.25322 13.673 5.71094 14.3567 5.71094C15.0397 5.7113 15.594 6.25358 15.594 6.92212Z" fill="#EDEDED"/>
<path d="M15.497 8.33825C15.497 8.89826 15.0332 9.35227 14.4609 9.35227C13.8889 9.35227 13.4248 8.89826 13.4248 8.33825C13.4248 7.77824 13.8886 7.32422 14.4609 7.32422C15.0328 7.32422 15.497 7.77824 15.497 8.33825Z" fill="#EDEDED"/>
<path d="M14.3563 5.71087C14.3563 6.49301 13.7084 7.12682 12.9096 7.12682C12.1104 7.12682 11.4629 6.49301 11.4629 5.71087C11.4629 4.92874 12.1108 4.29492 12.9096 4.29492C13.7087 4.29492 14.3563 4.92874 14.3563 5.71087Z" fill="#EDEDED"/>
<path d="M9.35398 7.41789C9.8267 7.41789 10.2099 7.04277 10.2099 6.58004C10.2099 6.11731 9.8267 5.74219 9.35398 5.74219C8.88126 5.74219 8.49805 6.11731 8.49805 6.58004C8.49805 7.04277 8.88126 7.41789 9.35398 7.41789Z" fill="#EDEDED"/>
<path d="M9.4355 5.7441C9.4355 6.2068 9.05239 6.58195 8.57957 6.58195C8.10674 6.58195 7.72363 6.2068 7.72363 5.7441C7.72363 5.2814 8.10674 4.90625 8.57957 4.90625C9.05239 4.90625 9.4355 5.2814 9.4355 5.7441Z" fill="#EDEDED"/>
<path d="M14.1162 9.42465C14.1162 9.42465 14.1372 9.38846 14.1766 9.32081C14.2182 9.25208 14.271 9.15586 14.3372 9.03358C14.3669 8.97172 14.3994 8.90334 14.4349 8.82882C14.449 8.7912 14.4635 8.75212 14.4787 8.71161L14.5018 8.64938L14.5076 8.63346L14.5105 8.6255L14.512 8.62153C14.513 8.61755 14.5054 8.64903 14.5087 8.63456L14.5091 8.63238L14.5174 8.59549C14.5286 8.54592 14.5398 8.49455 14.5517 8.44173C14.5633 8.38891 14.5785 8.33248 14.5767 8.2869C14.5792 8.18886 14.598 8.08974 14.5814 7.97289C14.5781 7.7428 14.5025 7.49934 14.4052 7.25261C14.2963 7.01313 14.1245 6.77038 13.9302 6.57683C13.6875 6.35833 13.4502 6.2176 13.1517 6.09822C12.8609 5.98101 12.5389 5.93144 12.2187 5.92783C12.0599 5.92059 11.8935 5.94447 11.7441 5.96545C11.582 6.00344 11.421 6.04107 11.2608 6.07869C10.9468 6.16443 10.6411 6.26753 10.3238 6.31709C10.008 6.37063 9.68493 6.3699 9.40384 6.2744C9.11877 6.17962 8.8847 5.99584 8.75555 5.76901C8.72661 5.71402 8.69369 5.65035 8.68284 5.59247C8.66909 5.53386 8.64486 5.48069 8.64703 5.41883C8.6463 5.3595 8.63509 5.30053 8.64413 5.24591C8.65318 5.19128 8.66222 5.13846 8.67091 5.08709C8.70817 4.99195 8.73855 4.89391 8.79281 4.82518C8.84671 4.75282 8.90822 4.69566 8.97008 4.65551C9.09453 4.57483 9.21572 4.55276 9.29386 4.56615C9.37128 4.57772 9.40927 4.59871 9.40999 4.59581C9.40963 4.59834 9.37019 4.57917 9.29349 4.57121C9.21644 4.56109 9.09851 4.58821 8.98094 4.67142C8.92197 4.71339 8.8659 4.76983 8.81742 4.84073C8.76496 4.91381 8.74361 5.00352 8.71033 5.09722C8.70418 5.14642 8.69768 5.19742 8.69116 5.24952C8.68465 5.30161 8.69767 5.35443 8.69984 5.40869C8.69803 5.4626 8.72516 5.51867 8.74144 5.57547C8.75591 5.63588 8.78413 5.67929 8.81452 5.73464C8.94113 5.93904 9.16941 6.1022 9.43133 6.17744C9.6994 6.25703 10.0007 6.24437 10.2967 6.18215C10.5969 6.12354 10.9026 6.00706 11.2184 5.90685C11.3769 5.86271 11.5364 5.81858 11.6967 5.77408C11.874 5.74044 12.0397 5.71113 12.2151 5.71041C12.5606 5.69992 12.9126 5.73971 13.2382 5.85475C13.5569 5.96002 13.8865 6.14887 14.1158 6.3435C14.3785 6.57973 14.5651 6.83261 14.7084 7.10936C14.8339 7.38864 14.9316 7.66937 14.9486 7.94214C14.9725 8.07418 14.9587 8.21526 14.9558 8.34514C14.9519 8.47791 14.9211 8.5698 14.9066 8.67435L14.9001 8.71161L14.8954 8.7315L14.894 8.7362L14.8907 8.74597L14.8846 8.76515C14.8762 8.79047 14.8683 8.8158 14.8603 8.8404C14.844 8.8896 14.8285 8.93699 14.8137 8.98221C14.7768 9.06831 14.7431 9.14717 14.7127 9.2188C14.6454 9.35663 14.5919 9.46372 14.555 9.53064C14.5185 9.59974 14.4989 9.63664 14.4989 9.63664L14.1162 9.42465Z" fill="#C6C6C6"/>
<path d="M11.1024 12.4271C12.9124 12.4271 14.3796 11.0858 14.3796 9.43132C14.3796 7.7768 12.9124 6.43555 11.1024 6.43555C9.29245 6.43555 7.8252 7.7768 7.8252 9.43132C7.8252 11.0858 9.29245 12.4271 11.1024 12.4271Z" fill="#111E36"/>
<path d="M11.6232 12.1544C7.91476 12.1544 3.10474 9.07936 4.67154 6.62298C4.82022 6.39145 4.95552 6.17512 5.14581 6.06587C8.13326 4.3417 8.63141 8.10477 12.1763 9.28484C15.5899 10.4255 17.0978 8.03495 17.4867 9.43787C17.4932 9.46175 17.4997 9.48381 17.5041 9.50769C17.5106 9.52722 17.5127 9.55146 17.5192 9.57317C17.7797 10.8234 15.332 12.1544 11.6232 12.1544Z" fill="#192C50"/>
<path d="M13.5528 17.5837C13.0571 17.732 12.2034 17.7754 12.1781 17.808H9.60591C9.58059 17.7754 8.7232 17.732 8.2312 17.5837C5.98103 17.1351 6.38983 15.2865 6.88183 11.951C6.8963 11.8063 6.91076 11.6652 6.93247 11.5278C7.06994 10.598 7.37383 9.90346 7.75368 9.38613C8.34336 8.58302 9.11391 8.19593 9.75062 8.00781C9.92788 8.19231 10.1088 8.3551 10.2535 8.48533C10.9481 9.11842 11.7258 9.56339 12.652 9.75513C12.7098 9.7696 12.7605 9.75513 12.8039 9.7298C12.8437 9.74427 12.8835 9.76236 12.9269 9.77321C13.3827 9.92877 13.8711 9.89983 14.3559 9.92154C14.4536 10.1097 14.5404 10.3122 14.6127 10.5365C14.7538 10.9417 14.8551 11.412 14.9021 11.951C14.9166 12.0415 14.9275 12.1319 14.9419 12.2224C15.4122 15.3878 15.7414 17.146 13.5528 17.5837Z" fill="#936037"/>
<path d="M14.1232 23.8848V25.2114H7.63281V23.8848C7.82527 24.5645 8.48296 25.0648 9.26546 25.0648C10.0237 25.0648 10.6662 24.5927 10.8782 23.9416C11.088 24.5927 11.7305 25.0648 12.491 25.0648C13.2731 25.0648 13.9311 24.5645 14.1232 23.8848Z" fill="#111E36"/>
<path d="M16.3434 21.9025V25.209H14.1222V23.885C13.9304 24.5651 13.272 25.0643 12.4906 25.0643C11.7562 25.0643 11.1267 24.6193 10.8988 24.0007C10.8916 23.9826 10.8844 23.9609 10.8771 23.9392C10.8699 23.9645 10.859 23.9935 10.8482 24.0188C10.613 24.6302 9.9908 25.0643 9.26727 25.0643C8.90189 25.0643 8.56183 24.9558 8.28327 24.7713C7.96853 24.5578 7.73339 24.2467 7.6321 23.885V25.209H5.4398V21.9025C5.4398 21.1753 5.37468 20.6616 5.70389 20.166C5.89924 20.2094 6.0946 20.2528 6.29718 20.289C6.49615 20.3288 6.69874 20.365 6.90495 20.4012C7.245 20.4554 7.58869 20.5025 7.9396 20.5423C8.00472 20.5531 8.06982 20.5603 8.13494 20.5676C8.14941 20.5676 8.16389 20.5712 8.17836 20.5712C8.2471 20.5784 8.31583 20.5857 8.38456 20.5929C8.74633 20.6291 9.11171 20.658 9.48795 20.6797C9.94739 20.7014 10.4177 20.7159 10.8916 20.7159C11.7417 20.7159 12.5702 20.6761 13.3661 20.5929H13.3697C13.4529 20.5893 13.5325 20.5784 13.6157 20.5712C13.6844 20.564 13.7532 20.5567 13.8183 20.5459C14.3537 20.4844 14.8746 20.4048 15.3775 20.3107C15.6162 20.2673 15.8514 20.2167 16.0793 20.166C16.2421 20.412 16.3072 20.6616 16.3325 20.9438C16.3615 21.226 16.3434 21.5371 16.3434 21.9025Z" fill="#192C50"/>
<path d="M16.0769 20.1676C14.5253 20.5196 12.7617 20.716 10.891 20.716C9.0203 20.716 7.25669 20.5192 5.70508 20.1676C5.9149 19.8528 6.29078 19.5446 6.95064 19.1995C7.68285 18.8149 9.50324 17.9908 9.52712 17.9843C9.52929 17.9821 9.53363 15.8535 9.53363 15.8535H12.2479C12.2479 15.8535 12.2523 17.9821 12.2545 17.9843C12.2783 17.9908 14.0991 18.8149 14.831 19.1995C15.4912 19.545 15.867 19.8528 16.0769 20.1676Z" fill="#F2C28D"/>
<path d="M10.8916 9.88102C9.76249 9.75947 8.69021 10.2667 8.26152 11.2771C8.09692 11.6493 8.01082 12.1153 7.97934 12.6923C7.88818 12.617 7.79015 12.5769 7.69319 12.5928C7.41898 12.6373 7.26305 13.0743 7.34336 13.5692C7.40812 13.9704 7.60854 14.2848 7.82704 14.3673C7.87841 14.3872 7.93196 14.394 7.98296 14.385C8.00069 14.3817 8.01733 14.3756 8.03397 14.3694C8.21992 15.1447 8.46266 15.7535 8.72928 16.0419C9.07079 16.4116 9.3092 16.6934 9.53494 16.9061C9.89634 17.2473 10.2252 17.4108 10.8916 17.469C11.5579 17.4108 11.8868 17.2473 12.2482 16.9061C12.4739 16.693 12.7123 16.4116 13.0538 16.0419C13.3204 15.7535 13.5632 15.1443 13.7491 14.3694C13.7658 14.3756 13.7828 14.3817 13.8001 14.385C13.8515 14.394 13.905 14.3872 13.9561 14.3673C14.1746 14.2848 14.3753 13.9704 14.4397 13.5692C14.52 13.0743 14.3638 12.6373 14.0899 12.5928C13.9929 12.5769 13.8949 12.617 13.8038 12.6923C13.7723 12.1153 13.6862 11.649 13.5216 11.2771C13.0929 10.2667 12.021 9.75983 10.8916 9.88102Z" fill="#FFD2A1"/>
<path d="M11.9317 9.44549C11.4726 9.18864 10.9799 8.94625 10.574 8.60547C9.60227 8.71147 8.65373 9.22698 7.72363 10.0641V11.4442C9.83561 8.98533 11.9476 13.9032 14.0596 11.4442V10.3463C13.3057 10.169 12.6154 9.82824 11.9317 9.44549Z" fill="#936037"/>
<path d="M10.9525 23.4721C10.9525 23.636 10.9265 23.7934 10.8784 23.942C10.6664 24.5932 10.0239 25.0653 9.26561 25.0653C8.48311 25.0653 7.82542 24.565 7.63296 23.8853C7.5957 23.7543 7.57617 23.6143 7.57617 23.4721C7.57617 23.33 7.5957 23.1903 7.63296 23.059C7.82542 22.3792 8.48311 21.8789 9.26561 21.8789C10.0239 21.8789 10.6664 22.351 10.8784 23.0022C10.9261 23.1509 10.9525 23.3082 10.9525 23.4721Z" fill="#192C50"/>
<path d="M14.1803 23.4721C14.1803 23.6143 14.1607 23.7539 14.1235 23.8853C13.9314 24.565 13.2733 25.0653 12.4908 25.0653C11.7304 25.0653 11.0879 24.5932 10.8781 23.942C10.8278 23.7934 10.8018 23.636 10.8018 23.4721C10.8018 23.3082 10.8278 23.1509 10.8781 23.0022C11.0879 22.351 11.7304 21.8789 12.4908 21.8789C13.2733 21.8789 13.931 22.3792 14.1235 23.059C14.1607 23.1903 14.1803 23.33 14.1803 23.4721Z" fill="#192C50"/>
<path d="M7.63262 22.8789H5.41211V25.2108H7.63262V22.8789Z" fill="#F2C28D"/>
<path d="M7.63312 22.8809H5.41406V23.3454H7.63312V22.8809Z" fill="#111E36"/>
<path d="M16.3433 22.8809H14.1221V25.2106H16.3433V22.8809Z" fill="#F2C28D"/>
<path d="M16.3433 22.8809H14.1221V23.3439H16.3433V22.8809Z" fill="#111E36"/>
<path d="M13.6139 20.5725V21.2718H8.13281V20.5703C9.01588 20.6665 9.93803 20.7168 10.8909 20.7168C11.8304 20.7168 12.7417 20.6665 13.6139 20.5725Z" fill="#111E36"/>
<path d="M6.6432 19.6621C5.54706 19.6621 4.6582 20.4652 4.6582 21.4561C4.6582 22.0378 4.96607 22.5533 5.44106 22.8811H7.84535C8.32034 22.5533 8.62821 22.0378 8.62821 21.4561C8.62821 20.4652 7.73935 19.6621 6.6432 19.6621Z" fill="#192C50"/>
<path d="M17.0955 21.4545C17.0955 22.0261 16.8025 22.5289 16.343 22.8582C16.3358 22.8654 16.3249 22.8726 16.3141 22.8799H13.9084C13.8396 22.8328 13.7745 22.7786 13.713 22.7243C13.5032 22.5362 13.3368 22.3047 13.2391 22.0442C13.1667 21.8597 13.127 21.6607 13.127 21.4545C13.127 21.393 13.1306 21.3315 13.1378 21.27C13.1631 21.0276 13.2463 20.7997 13.3657 20.5935H13.3693C13.7058 20.0364 14.3606 19.6602 15.113 19.6602C15.3084 19.6602 15.4929 19.6855 15.6702 19.7325C16.1549 19.8591 16.5601 20.1485 16.8133 20.532C16.9942 20.7997 17.0955 21.1181 17.0955 21.4545Z" fill="#192C50"/>
<path d="M17.5034 9.50475C17.0222 9.8412 16.3421 10.1415 15.4956 10.3513C14.6201 10.5756 13.571 10.7094 12.3953 10.7094C10.5575 10.7094 8.44481 9.95335 6.97605 8.88614C5.83287 8.06132 5.0804 7.04837 5.14552 6.06437C7.85152 4.50155 8.51717 7.4427 11.2485 8.88614C11.5307 9.03808 11.8382 9.17194 12.1746 9.28408C13.5891 9.75799 14.678 9.62052 15.4956 9.40346C16.646 9.09234 17.2574 8.61481 17.4853 9.43602C17.4925 9.46134 17.4998 9.48305 17.5034 9.50475Z" fill="#192C50"/>
<path d="M14.6426 7.89003L14.9135 7.89654C14.9168 7.88244 14.907 7.78114 14.9378 7.62559C14.9678 7.4722 15.0463 7.26201 15.1042 7.04712C15.1216 6.93353 15.1538 6.82645 15.1545 6.72046C15.1585 6.61446 15.1396 6.51678 15.1158 6.43792C15.1002 6.39957 15.0857 6.36448 15.0731 6.33337C15.0586 6.3037 15.0373 6.28199 15.0242 6.26245C14.9964 6.22483 14.9805 6.20312 14.9805 6.20312C14.9805 6.20312 14.9928 6.22665 15.0148 6.26825C15.0246 6.2896 15.0412 6.31238 15.0506 6.34277C15.0579 6.37388 15.0662 6.40898 15.0756 6.44732C15.0861 6.52474 15.0897 6.61663 15.0709 6.71213C15.0553 6.80764 15.008 6.90604 14.9783 7.00408C14.8922 7.19943 14.7844 7.38899 14.7211 7.56155C14.6581 7.73267 14.6473 7.87267 14.6426 7.89003Z" fill="#C6C6C6"/>
<path d="M14.4046 7.23813L14.6673 7.1712C14.6676 7.16035 14.6376 7.09487 14.63 6.97585C14.6217 6.85972 14.6456 6.68571 14.6517 6.51171C14.6438 6.4209 14.6499 6.33335 14.6293 6.25159C14.6116 6.16947 14.5754 6.09893 14.5399 6.04503C14.4998 5.99221 14.4636 5.95387 14.4292 5.9365C14.3988 5.91588 14.3818 5.9043 14.3818 5.9043C14.3818 5.9043 14.3963 5.91913 14.422 5.94518C14.4336 5.95893 14.4517 5.97159 14.4647 5.99257C14.4763 6.01428 14.4896 6.03888 14.5038 6.06528C14.5258 6.121 14.545 6.18901 14.5461 6.26317C14.5497 6.33661 14.5273 6.41837 14.5193 6.49615C14.4817 6.65641 14.4249 6.81594 14.4043 6.96318C14.3833 7.10825 14.4046 7.22366 14.4046 7.23813Z" fill="#C6C6C6"/>
<path d="M13.8057 6.37415L14.0611 6.46459C14.0633 6.44216 14.1248 6.27104 14.0998 6.0301C14.0836 5.7917 13.9573 5.49036 13.7326 5.29211C13.5062 5.10399 13.2598 4.9857 13.1281 4.82905C13.0916 4.79324 13.0674 4.75416 13.0475 4.71799C13.0247 4.68326 13.008 4.65142 13.003 4.62176C12.9863 4.56423 12.9766 4.53131 12.9766 4.53131C12.9831 4.5277 12.9715 4.67711 13.0952 4.85401C13.2124 5.03309 13.4574 5.19298 13.6382 5.38544C13.8122 5.58188 13.8842 5.84633 13.8741 6.03987C13.8705 6.23667 13.8075 6.35678 13.8057 6.37415Z" fill="#C6C6C6"/>
<path d="M13.0616 5.99217L13.3268 6.04896C13.3261 6.03883 13.3358 5.99361 13.3282 5.92741C13.3228 5.85976 13.2924 5.77692 13.2421 5.69805C13.1915 5.61919 13.1191 5.54792 13.0352 5.48642C12.9516 5.4289 12.8652 5.37681 12.7827 5.32616C12.6159 5.22885 12.4994 5.08124 12.4647 4.93871C12.4267 4.79943 12.4535 4.69922 12.4466 4.69922C12.4538 4.69958 12.4093 4.79291 12.4238 4.94594C12.4336 5.02082 12.4549 5.10982 12.5041 5.197C12.553 5.2831 12.6257 5.36161 12.702 5.43143C12.8597 5.56637 13.0015 5.68828 13.0453 5.80839C13.0938 5.9256 13.0591 5.98385 13.0616 5.99217Z" fill="#C6C6C6"/>
<path d="M12.0208 5.84061L12.2867 5.89343C12.2842 5.87425 12.3178 5.71218 12.2343 5.51574C12.1966 5.41734 12.1207 5.31822 12.0291 5.24116C11.9373 5.16302 11.832 5.10768 11.7325 5.05197C11.6323 4.99843 11.54 4.94163 11.4615 4.8776C11.3881 4.80995 11.3295 4.73542 11.3056 4.65692C11.2495 4.49846 11.3208 4.38849 11.3157 4.39066C11.3223 4.38849 11.2315 4.48653 11.2655 4.66705C11.2785 4.75532 11.3306 4.84938 11.4015 4.93656C11.476 5.01905 11.5679 5.09537 11.6598 5.16338C11.7495 5.23248 11.8396 5.29977 11.9025 5.37285C11.9655 5.44593 12.0056 5.52009 12.0208 5.59099C12.0574 5.73317 12.0186 5.82831 12.0208 5.84061Z" fill="#C6C6C6"/>
<path d="M11.3747 5.92406L11.646 5.92298C11.6435 5.91321 11.6395 5.86545 11.6167 5.80251C11.5888 5.74318 11.5407 5.67155 11.4684 5.62018C11.3233 5.51635 11.1457 5.48018 11.0144 5.37707C10.8762 5.27686 10.7727 5.12855 10.7231 5.00555C10.7011 4.94332 10.6815 4.8905 10.6761 4.85143C10.6678 4.81272 10.6631 4.79102 10.6631 4.79102C10.6631 4.79102 10.6638 4.81344 10.6645 4.85287C10.6631 4.89303 10.6725 4.94911 10.6833 5.01785C10.7112 5.15351 10.789 5.33185 10.9246 5.47547C10.989 5.55 11.0744 5.60969 11.1475 5.65708C11.1873 5.68241 11.2173 5.70556 11.2455 5.72727C11.2741 5.74897 11.3038 5.76851 11.3186 5.78949C11.3967 5.87559 11.3678 5.92153 11.3747 5.92406Z" fill="#C6C6C6"/>
<path d="M10.858 6.17877L11.0117 6.01815C11.0048 6.01236 10.8366 6.00405 10.7531 5.97728C10.6648 5.95955 10.5657 5.8919 10.4817 5.80725C10.4025 5.71681 10.3555 5.59923 10.3392 5.50698C10.3269 5.46103 10.3334 5.42124 10.3302 5.39375C10.3294 5.36589 10.3287 5.34961 10.3287 5.34961C10.3287 5.34961 10.3262 5.36516 10.3215 5.39266C10.3193 5.42015 10.3048 5.46031 10.3081 5.50915C10.3063 5.60719 10.3294 5.74248 10.4003 5.86512C10.4752 5.98161 10.5823 6.08833 10.6876 6.13355C10.7874 6.18854 10.8489 6.1719 10.858 6.17877Z" fill="#C6C6C6"/>
<path d="M10.2539 6.30353L10.5237 6.17872C10.5147 6.17112 10.2206 6.13711 10.1139 6.08972C10.0086 6.04595 9.87185 5.96166 9.78322 5.83468C9.69061 5.71168 9.65515 5.55034 9.68482 5.43421C9.71267 5.31809 9.77526 5.25803 9.77092 5.25586C9.77526 5.25875 9.70399 5.30651 9.65515 5.42517C9.60451 5.54238 9.61355 5.72977 9.69785 5.88605C9.77671 6.04595 9.91744 6.16787 10.0368 6.24059C10.1569 6.31692 10.2427 6.29412 10.2539 6.30353Z" fill="#C6C6C6"/>
<path d="M9.40751 6.30349L9.65641 6.24308C9.64737 6.23693 9.43573 6.19424 9.24002 6.05568C9.13981 5.98225 9.07397 5.78582 9.06818 5.61542C9.06058 5.44359 9.15283 5.27609 9.25159 5.18637C9.2997 5.14006 9.34783 5.1075 9.38364 5.09158C9.41982 5.07421 9.44008 5.06445 9.44008 5.06445C9.44008 5.06445 9.41837 5.07168 9.38002 5.08398C9.34131 5.0952 9.28813 5.12125 9.23133 5.16285C9.11629 5.24244 8.98823 5.40596 8.96797 5.6118C8.94626 5.8162 9.04069 6.02313 9.15717 6.13708C9.27222 6.25755 9.39449 6.29553 9.40751 6.30349Z" fill="#C6C6C6"/>
<path d="M8.89611 5.95794L8.96521 5.91671C8.95906 5.91092 8.78216 5.64683 8.71125 5.58099C8.66965 5.55205 8.62117 5.51913 8.57016 5.48368C8.51264 5.4551 8.44788 5.43339 8.38095 5.42832C8.3133 5.42471 8.24602 5.43773 8.19103 5.46776C8.13713 5.49996 8.1024 5.54626 8.08395 5.58895C8.04488 5.67794 8.08034 5.73764 8.07672 5.73619C8.07889 5.738 8.06043 5.67251 8.11108 5.60414C8.13459 5.57122 8.17258 5.53975 8.2178 5.52491C8.26375 5.51189 8.31584 5.5137 8.36468 5.52672C8.5622 5.58642 8.87911 5.95577 8.89611 5.95794Z" fill="#C6C6C6"/>
<path d="M9.97258 6.33059L9.77904 6.23327C9.76421 6.23038 9.69149 6.24594 9.53665 6.2416C9.38182 6.234 9.16151 6.21085 8.98967 6.23255C8.81783 6.25679 8.64346 6.23363 8.53638 6.15657C8.48067 6.12257 8.44811 6.07807 8.42532 6.04769C8.40759 6.01368 8.39746 5.99414 8.39746 5.99414C8.39746 5.99414 8.4047 6.01513 8.41772 6.05167C8.43617 6.08568 8.46402 6.13705 8.5172 6.18118C8.56857 6.2264 8.63985 6.26873 8.72378 6.29478C8.80807 6.31938 8.90139 6.32987 8.99401 6.33204C9.17959 6.33421 9.35794 6.31685 9.48239 6.34181C9.60828 6.3646 9.96101 6.32914 9.97258 6.33059Z" fill="#C6C6C6"/>
<path d="M14.6436 8.33025L14.8964 8.23294C14.8867 8.22643 14.8516 8.14322 14.764 8.06725C14.7192 8.02854 14.6678 7.98875 14.6063 7.97066C14.5466 7.94678 14.484 7.92146 14.4301 7.90844C14.3136 7.88022 14.213 7.83934 14.1581 7.77278C14.0984 7.71128 14.1016 7.64471 14.0987 7.64652C14.1023 7.64471 14.0788 7.70874 14.1233 7.79556C14.1602 7.88492 14.2695 7.97067 14.3733 8.02891C14.4297 8.06147 14.4706 8.0962 14.5101 8.12586C14.5549 8.15227 14.5773 8.18953 14.5962 8.21847C14.6338 8.2778 14.6367 8.32736 14.6436 8.33025Z" fill="#C6C6C6"/>
<path d="M14.4986 7.52563L14.7015 7.34584C14.6961 7.3415 14.6726 7.32305 14.6353 7.29411C14.5995 7.26372 14.5481 7.22826 14.4801 7.20149C14.4168 7.16531 14.3332 7.15338 14.2504 7.13456C14.1628 7.13239 14.0728 7.12986 13.9928 7.15338C13.8289 7.1834 13.6882 7.23405 13.5771 7.19498C13.5236 7.17942 13.4827 7.15301 13.4603 7.12805C13.4379 7.10345 13.4277 7.08609 13.4277 7.08609C13.4292 7.08175 13.4462 7.17292 13.5616 7.23333C13.6716 7.30279 13.8542 7.28144 14.004 7.28615C14.0822 7.28 14.1509 7.30026 14.2138 7.31328C14.2735 7.34331 14.3311 7.36139 14.3701 7.39866C14.4143 7.42651 14.4432 7.45871 14.462 7.48439C14.4823 7.50755 14.4957 7.52237 14.4986 7.52563Z" fill="#C6C6C6"/>
<path d="M14.1428 6.74441L14.2485 6.49479C14.234 6.49334 14.1182 6.45319 13.9724 6.47164C13.8237 6.48683 13.6743 6.56027 13.5271 6.61345C13.4558 6.63153 13.3817 6.66374 13.3129 6.67025C13.2438 6.68002 13.1784 6.67097 13.1237 6.65759C13.0973 6.64746 13.0727 6.63805 13.0514 6.62973C13.03 6.61996 13.017 6.60404 13.0029 6.59427C12.9761 6.57256 12.9609 6.56027 12.9609 6.56027C12.9609 6.56027 12.9732 6.57546 12.9949 6.60223C13.0141 6.6337 13.0535 6.66373 13.1082 6.69593C13.1632 6.72306 13.2341 6.74839 13.3136 6.75418C13.3929 6.76286 13.4736 6.74658 13.5597 6.74224C13.721 6.71873 13.8787 6.68255 13.9811 6.69702C14.086 6.70896 14.1334 6.74513 14.1428 6.74441Z" fill="#C6C6C6"/>
<path d="M13.5799 6.27009L13.4251 5.98828C13.419 5.98828 13.3918 5.98828 13.3495 5.98865C13.3072 5.9872 13.2511 5.99117 13.1878 6.00962C13.1234 6.01939 13.0565 6.05556 12.9877 6.08885C12.9226 6.13334 12.8586 6.18183 12.8101 6.2379C12.7186 6.34715 12.6216 6.42493 12.5167 6.41915C12.4169 6.41698 12.3575 6.36704 12.3564 6.37102C12.3586 6.36632 12.4009 6.42999 12.5109 6.46002C12.5641 6.47232 12.6375 6.47702 12.7055 6.44772C12.7775 6.4242 12.8376 6.37717 12.8969 6.33846C13.0084 6.25851 13.1263 6.23066 13.2193 6.2332C13.2648 6.23066 13.3582 6.22234 13.3846 6.23066C13.4121 6.23608 13.576 6.26937 13.5799 6.27009Z" fill="#C6C6C6"/>
<path d="M12.739 5.97869L12.7267 5.75729C12.7155 5.76127 12.5881 5.71713 12.4738 5.74644C12.3584 5.77248 12.2216 5.84304 12.1207 5.94578C12.0245 6.04562 11.9641 6.15596 11.879 6.18707C11.7955 6.22542 11.7307 6.18779 11.7315 6.19105C11.7307 6.18598 11.7828 6.2435 11.8899 6.22686C11.9992 6.21565 12.1026 6.10784 12.2046 6.04887C12.3059 5.9899 12.4203 5.9664 12.5042 5.97037C12.5878 5.97146 12.731 5.98158 12.739 5.97869Z" fill="#C6C6C6"/>
<path d="M9.699 18.0913C9.699 18.1976 9.61941 18.2841 9.52138 18.2841C9.42334 18.2841 9.34375 18.198 9.34375 18.0913C9.34375 17.9849 9.42334 17.8984 9.52138 17.8984C9.61978 17.8988 9.699 17.9849 9.699 18.0913Z" fill="#EDEDED"/>
<path d="M9.97244 18.3471C9.97244 18.4535 9.89285 18.5399 9.79481 18.5399C9.69677 18.5399 9.61719 18.4538 9.61719 18.3471C9.61719 18.2408 9.69677 18.1543 9.79481 18.1543C9.89285 18.1547 9.97244 18.2408 9.97244 18.3471Z" fill="#EDEDED"/>
<path d="M10.2273 18.6127C10.2273 18.7191 10.1477 18.8056 10.0497 18.8056C9.95166 18.8056 9.87207 18.7195 9.87207 18.6127C9.87207 18.5064 9.95166 18.4199 10.0497 18.4199C10.1481 18.4203 10.2273 18.5064 10.2273 18.6127Z" fill="#EDEDED"/>
<path d="M10.5555 18.7768C10.5555 18.8832 10.4759 18.9696 10.3778 18.9696C10.2798 18.9696 10.2002 18.8835 10.2002 18.7768C10.2002 18.6705 10.2798 18.584 10.3778 18.584C10.4759 18.5843 10.5555 18.6705 10.5555 18.7768Z" fill="#EDEDED"/>
<path d="M12.084 18.0913C12.084 18.1976 12.1636 18.2841 12.2616 18.2841C12.3596 18.2841 12.4392 18.198 12.4392 18.0913C12.4392 17.9849 12.3596 17.8984 12.2616 17.8984C12.1636 17.8988 12.084 17.9849 12.084 18.0913Z" fill="#EDEDED"/>
<path d="M11.8105 18.3471C11.8105 18.4535 11.8901 18.5399 11.9882 18.5399C12.0862 18.5399 12.1658 18.4538 12.1658 18.3471C12.1658 18.2408 12.0862 18.1543 11.9882 18.1543C11.8898 18.1547 11.8105 18.2408 11.8105 18.3471Z" fill="#EDEDED"/>
<path d="M11.5557 18.6127C11.5557 18.7191 11.6353 18.8056 11.7333 18.8056C11.8313 18.8056 11.9109 18.7195 11.9109 18.6127C11.9109 18.5064 11.8313 18.4199 11.7333 18.4199C11.6353 18.4203 11.5557 18.5064 11.5557 18.6127Z" fill="#EDEDED"/>
<path d="M11.4052 18.9696C11.5033 18.9696 11.5828 18.8833 11.5828 18.7768C11.5828 18.6703 11.5033 18.584 11.4052 18.584C11.3071 18.584 11.2275 18.6703 11.2275 18.7768C11.2275 18.8833 11.3071 18.9696 11.4052 18.9696Z" fill="#EDEDED"/>
<path d="M11.2271 18.8467C11.2271 19.0479 11.077 19.211 10.8914 19.211C10.7058 19.211 10.5557 19.0479 10.5557 18.8467C10.5557 18.6456 10.7058 18.4824 10.8914 18.4824C11.077 18.4824 11.2271 18.6456 11.2271 18.8467Z" fill="white"/>
<path opacity="0.1" d="M14.9509 12.223C12.556 12.4798 9.86085 12.2049 6.94141 11.5284C7.07888 10.5986 7.38275 9.90404 7.76261 9.38672C9.14455 10.1826 10.8702 10.7108 12.4041 10.7108C13.2072 10.7108 13.9524 10.6493 14.6217 10.5371C14.7628 10.9423 14.864 11.4126 14.9111 11.9516C14.9255 12.0421 14.9364 12.1325 14.9509 12.223Z" fill="#1D1D1B"/>
<path opacity="0.1" d="M17.0954 21.4557C17.0954 22.0273 16.8024 22.5301 16.3429 22.8593V25.2108H5.4502C6.19543 25.1457 6.92258 25.0444 7.63163 24.9033C7.85231 24.8635 8.06937 24.8201 8.28281 24.7731C9.17275 24.5705 10.0301 24.3173 10.8477 24.0206C10.8658 24.017 10.8803 24.0098 10.8984 24.0025C11.9005 23.6371 12.8447 23.2066 13.7129 22.7255C13.7816 22.6857 13.8467 22.6495 13.9155 22.6133C14.8054 22.1033 15.6158 21.5461 16.3321 20.9456C16.4985 20.8118 16.6577 20.6743 16.8132 20.5332C16.9941 20.8009 17.0954 21.1193 17.0954 21.4557Z" fill="#1D1D1B"/>
<path d="M12.438 26.3301H9.52148V27.5058H12.438V26.3301Z" fill="white"/>
<path d="M43.5145 5.36998C43.5145 7.16061 41.5797 8.61242 39.1928 8.61242C36.8059 8.61242 34.8711 7.16061 34.8711 5.36998C34.8711 3.57876 36.8059 2.12695 39.1928 2.12695C41.5797 2.12753 43.5145 3.57934 43.5145 5.36998Z" fill="#B2B2B2"/>
<path d="M31.1335 35.5957H27.6318V47.7663H31.1335V35.5957Z" fill="#575756"/>
<path d="M31.1324 46.0148V47.5922C31.1324 48.6546 30.2711 49.5159 29.2086 49.5159L20.4932 48.5906L20.51 45.8457L31.1324 46.0148Z" fill="#575756"/>
<path d="M50.7196 48.0294V35.7617L47.2179 37.0676V48.6565C47.0215 48.8117 46.8524 49.0076 46.7239 49.2412L45.9004 51.9995H49.2044L50.1378 50.2978C50.5197 49.6027 50.7196 48.8222 50.7196 48.0294Z" fill="#575756"/>
<path d="M39.1961 5.14258C38.4789 5.1513 31.4681 5.2501 30.7166 12.1581C29.6809 17.8328 32.08 21.3542 33.572 21.736C34.6152 21.9877 36.4268 22.0638 36.4791 22.1161H41.9143C41.9666 22.0638 43.7782 21.9877 44.8214 21.736C46.2128 21.3891 48.7119 17.8322 47.6768 12.1581C46.9242 5.2501 39.9133 5.1513 39.1961 5.14258Z" fill="#706F6F"/>
<path d="M42.0788 26.6196C42.0788 26.6144 42.0637 22.1172 42.0637 22.1172H36.3292C36.3292 22.1172 36.3135 26.6144 36.3135 26.6196C36.3135 30.3607 42.0788 30.3607 42.0788 26.6196Z" fill="#F2C28D"/>
<path d="M50.7201 34.9033V37.0723H47.4532L47.262 47.1867L47.2213 49.3894C41.7041 51.2509 36.3566 51.2033 31.1736 49.3894L31.1329 47.1867L30.9353 37.0723L27.6318 35.5955C27.6318 35.5955 27.3174 30.8821 30.4512 29.4198C30.5866 29.3564 30.7173 29.2698 30.8673 29.1879C31.2358 29.0037 31.7269 28.7584 32.279 28.4922C32.6062 28.3353 32.9474 28.165 33.2955 28.0011C33.8819 27.7216 34.455 27.4484 34.953 27.2165C35.7371 26.848 36.3171 26.5958 36.3171 26.6231C36.3578 28.2191 37.7764 29.0101 39.1951 29.024H39.2021C40.6208 29.0106 42.0394 28.2191 42.0801 26.6231C42.0801 26.5958 42.6532 26.848 43.4442 27.2165C43.9353 27.4484 44.5147 27.721 45.0948 28.0011C45.4423 28.165 45.7904 28.3353 46.1176 28.4922C46.6634 28.7584 47.1609 29.0037 47.5293 29.1879C47.6723 29.2698 47.8159 29.3448 47.9455 29.4198C51.0816 31.1796 50.7201 32.496 50.7201 34.9033Z" fill="#575756"/>
<path d="M33.6363 12.4368C33.2881 13.2237 33.1062 14.2094 33.0394 15.4299C32.847 15.2706 32.6395 15.1858 32.4344 15.2195C31.8544 15.3136 31.5242 16.2377 31.6939 17.2844C31.8305 18.133 32.2548 18.7978 32.7168 18.9722C32.8255 19.0146 32.9383 19.0286 33.0469 19.01C33.0841 19.003 33.1196 18.9896 33.155 18.9768C33.5485 20.6164 34.0617 21.9037 34.6254 22.514C35.3479 23.2957 35.8518 23.8914 36.3289 24.3418C37.0932 25.063 37.7883 25.4094 39.1976 25.5321C40.607 25.4088 41.3021 25.063 42.0664 24.3418C42.5435 23.8914 43.0474 23.2957 43.7698 22.514C44.3336 21.9037 44.8468 20.6164 45.2403 18.9768C45.2757 18.9896 45.3111 19.003 45.3483 19.01C45.457 19.0286 45.5698 19.0146 45.6785 18.9722C46.1405 18.7978 46.5648 18.133 46.7013 17.2844C46.871 16.2377 46.5409 15.3136 45.9609 15.2195C45.7558 15.1858 45.5483 15.2706 45.3559 15.4299C45.2891 14.2094 45.1072 13.2237 44.759 12.4368C42.7475 8.26848 35.1601 8.26848 33.6363 12.4368Z" fill="#FFD2A1"/>
<path d="M39.1966 29.0274L37.8843 30.5431L36.8306 31.7677L33.8311 27.7377L36.3127 26.5684L38.573 28.4956L39.1966 29.0274Z" fill="#F6F6F6"/>
<path d="M39.1992 29.0274L40.5121 30.5431L41.5658 31.7677L44.5647 27.7377L42.0831 26.5684L39.8234 28.4956L39.1992 29.0274Z" fill="#F6F6F6"/>
<path d="M39.1983 34.0505C38.9647 34.0499 38.7764 33.8604 38.7764 33.6268C38.7764 33.3932 38.9653 33.2037 39.1983 33.2031C39.4314 33.2037 39.6202 33.3932 39.6202 33.6268C39.6202 33.8604 39.4314 34.0499 39.1983 34.0505Z" fill="#F6F6F6"/>
<path d="M39.1983 31.904C38.9647 31.9034 38.7764 31.714 38.7764 31.4803C38.7764 31.2467 38.9653 31.0578 39.1983 31.0566C39.4314 31.0572 39.6202 31.2467 39.6202 31.4803C39.6202 31.714 39.4314 31.9034 39.1983 31.904Z" fill="#F6F6F6"/>
<path d="M45.5549 36.5293H41.1094V38.8878H45.5549V36.5293Z" fill="#F6F6F6"/>
<path d="M47.8937 51.9999C47.6723 51.1351 47.4468 50.2668 47.2149 49.3887H31.1741C30.9417 50.2674 30.7162 51.1351 30.4941 51.9999H47.8937Z" fill="#575756"/>
<path d="M36.5576 18.6607C35.3045 18.6607 34.2852 17.6413 34.2852 16.3877C34.2852 15.1346 35.3045 14.1152 36.5576 14.1152C37.8106 14.1152 38.83 15.1346 38.83 16.3877C38.83 17.6413 37.8106 18.6607 36.5576 18.6607ZM36.5576 14.6964C35.6254 14.6964 34.8663 15.4555 34.8663 16.3877C34.8663 17.3205 35.6254 18.0795 36.5576 18.0795C37.4904 18.0795 38.2488 17.3205 38.2488 16.3877C38.2488 15.4555 37.4904 14.6964 36.5576 14.6964Z" fill="#575756"/>
<path d="M41.8385 18.6607C40.5854 18.6607 39.5654 17.6413 39.5654 16.3877C39.5654 15.1346 40.5854 14.1152 41.8385 14.1152C43.0915 14.1152 44.1109 15.1346 44.1109 16.3877C44.1109 17.6413 43.0915 18.6607 41.8385 18.6607ZM41.8385 14.6964C40.9051 14.6964 40.1466 15.4555 40.1466 16.3877C40.1466 17.3205 40.9057 18.0795 41.8385 18.0795C42.7707 18.0795 43.5297 17.3205 43.5297 16.3877C43.5297 15.4555 42.7707 14.6964 41.8385 14.6964Z" fill="#575756"/>
<path d="M32.6817 14.5453L32.4365 15.0723L34.4527 16.0102L34.6978 15.4832L32.6817 14.5453Z" fill="#575756"/>
<path d="M45.7163 14.5484L43.7002 15.4863L43.9453 16.0133L45.9615 15.0754L45.7163 14.5484Z" fill="#575756"/>
<path d="M39.6081 16.1918C39.547 15.9872 39.3552 15.9146 39.1954 15.9146C39.1954 15.9146 39.1943 15.9146 39.1931 15.9146C39.035 15.9152 38.8461 15.9872 38.788 16.1895L38.2295 16.0285C38.351 15.6083 38.7281 15.3357 39.1908 15.334C39.1925 15.334 39.1943 15.334 39.1954 15.334C39.6522 15.334 40.0416 15.6118 40.1654 16.0262L39.6081 16.1918Z" fill="#575756"/>
<path d="M15.5377 45.4102V46.3767H12.358C12.1406 46.3767 11.9587 46.2325 11.9006 46.0338C11.8873 45.9908 11.8809 45.946 11.8809 45.8978V45.8879C11.8809 45.624 12.0947 45.4107 12.358 45.4107L15.5377 45.4102Z" fill="#FFD2A1"/>
<path d="M15.2016 46.3756V47.3404H11.7174C11.5018 47.3404 11.3199 47.1962 11.26 46.9986C11.2466 46.9556 11.2402 46.9109 11.2402 46.8626V46.8527C11.2402 46.5889 11.4541 46.375 11.718 46.375H15.2016V46.3756Z" fill="#FFD2A1"/>
<path d="M15.3924 47.3418V48.3083H12.2145C11.9977 48.3083 11.8134 48.1624 11.7571 47.9654C11.7437 47.9224 11.7373 47.8777 11.7373 47.8312V47.8213C11.7373 47.558 11.9512 47.3424 12.2145 47.3424L15.3924 47.3418Z" fill="#FFD2A1"/>
<path d="M16.2545 48.3066V49.1238H13.0022C12.7999 49.1238 12.6325 48.9744 12.6029 48.7809C12.5994 48.7611 12.5977 48.7414 12.5977 48.7199V48.7117C12.5977 48.488 12.7784 48.3072 13.0022 48.3072L16.2545 48.3066Z" fill="#FFD2A1"/>
<path opacity="0.1" d="M15.1618 46.0332V46.3761H12.3588C12.1414 46.3761 11.9595 46.232 11.9014 46.0332H15.1618Z" fill="#1D1D1B"/>
<path opacity="0.1" d="M15.1619 47V47.3417H11.7172C11.5015 47.3417 11.3196 47.1976 11.2598 47H15.1619Z" fill="#1D1D1B"/>
<path opacity="0.1" d="M15.1624 47.9648V48.3077H12.2152C11.9984 48.3077 11.8142 48.1619 11.7578 47.9648H15.1624Z" fill="#1D1D1B"/>
<path opacity="0.1" d="M15.7502 48.7812V49.1242H13.0018C12.7996 49.1242 12.6322 48.9748 12.6025 48.7812H15.7502Z" fill="#1D1D1B"/>
<path d="M20.3314 45.9637V48.4454H18.7331C18.7151 48.8987 18.1386 49.1399 17.4749 49.1399L15.328 49.1248C14.8845 47.9194 14.8543 46.7611 14.9089 45.4098H16.3421L16.3253 44.7734H16.327C16.388 44.7839 17.6963 44.9891 17.798 45.0146C18.1851 45.1134 18.5088 45.3848 18.7029 45.7481L18.7988 45.9637H20.3314Z" fill="#F0C597"/>
<path d="M19.7039 47.2894L18.6671 47.279C17.1002 47.4475 16.8282 46.0079 16.8282 46.0079L16.655 45.9777C16.5702 45.9643 16.4836 45.9881 16.4196 46.0445L16.0262 46.3845C15.8896 46.5031 15.7117 46.5606 15.531 46.5473C15.352 46.5333 15.1846 46.4484 15.0678 46.3101L14.9992 46.2299C14.8853 46.0962 14.9004 45.8946 15.0341 45.7789L15.456 45.4099L16.0843 44.8618C16.1511 44.8025 16.2377 44.7723 16.3243 44.7735H16.3261C16.3871 44.7839 17.6953 44.9891 17.797 45.0147C18.1841 45.1135 18.5078 45.3849 18.7019 45.7481L18.7978 45.9637L19.3232 45.9562L19.325 45.9637L19.7039 47.2894Z" fill="#FFD2A1"/>
<path d="M18.9242 45.8312L18.9072 48.5762L20.491 48.586L20.508 45.841L18.9242 45.8312Z" fill="#EDEDED"/>
<path d="M31.1328 34.5977L31.1741 49.3895H39.2787L32.4486 48.1364L31.1328 34.5977Z" fill="#3C3C3B"/>
<path d="M47.2214 34.5977V49.3895H39.2783L46.1724 48.2434L47.2214 34.5977Z" fill="#3C3C3B"/>
<path d="M45.9812 51.9999H47.8928C47.6713 51.1351 47.4458 50.2668 47.2139 49.3887H31.1732L30.4932 51.9999H45.9812Z" fill="#3C3C3B"/>
</svg>
