<svg width="24" height="50" viewBox="0 0 24 50" fill="none" xmlns="http://www.w3.org/2000/svg">
<path d="M11.6809 8.4043H13.4912V25.1958H11.6809V8.4043Z" fill="#575756"/>
<path d="M1.32789 26.0898H23.8447V31.9888H1.32789V26.0898Z" fill="#E94E1B"/>
<path d="M3.91519 31.9883H21.2559V49.7432H3.91519V31.9883Z" fill="#C94317"/>
<path d="M10.0598 30.8642H15.1112C15.4156 30.8642 15.6621 30.6177 15.6621 30.3133V27.7652C15.6621 27.4614 15.4156 27.2148 15.1112 27.2148H10.0598C9.75595 27.2148 9.50884 27.4614 9.50884 27.7652V30.3133C9.50944 30.6177 9.75595 30.8642 10.0598 30.8642Z" fill="white"/>
<path opacity="0.1" d="M3.91519 34.925L21.2559 37.8616V31.9883H3.91519V34.925Z" fill="#1D1D1B"/>
<path d="M8.59238 4.65498L10.1562 7.13477L8.3792 8.25546L6.81533 5.77567L8.59238 4.65498Z" fill="#F9B233"/>
<path d="M6.34151 14.147C6.09619 12.4495 6.39582 10.6964 7.29533 9.23585C7.62302 8.70402 8.04143 8.17698 8.57624 7.70126C9.89595 6.52659 11.6341 5.80078 13.5411 5.80078C17.5749 5.80078 20.8524 9.01381 20.9688 13.0219H13.6456C14.2257 14.6406 15.1796 16.106 16.4438 17.2866C16.7786 17.5994 16.8085 18.1193 16.522 18.4762C16.2277 18.8427 15.9334 19.2092 15.6392 19.5757C15.3163 19.978 14.7188 20.0191 14.3391 19.6694C13.2743 18.6875 12.379 17.5492 11.6699 16.3041C10.9136 18.6033 9.05017 20.4901 6.54028 21.1676C6.06814 21.2971 5.59004 21.3747 5.11791 21.4069C6.66801 18.5514 6.56236 15.6768 6.34151 14.147Z" fill="#E89B13"/>
<path d="M11.056 16.1019L11.2321 15.5676C11.281 15.4184 11.4135 15.3122 11.5693 15.2967C11.7257 15.2811 11.8761 15.3587 11.9537 15.4948L12.2319 15.9831C12.9195 17.1894 13.776 18.2697 14.7776 19.1925C14.8366 19.2474 14.9023 19.2588 14.9477 19.2588C14.9912 19.2588 15.0742 19.2474 15.1363 19.1692L16.0185 18.0704C16.0943 17.9755 16.0823 17.8322 15.994 17.7493C14.6755 16.5167 13.653 14.9564 13.0376 13.2398C12.9666 13.0416 12.9964 12.8214 13.1176 12.6495C13.2388 12.4776 13.4358 12.3749 13.6465 12.3749H20.2725C19.8517 9.00133 17.0129 6.44727 13.542 6.44727C11.8761 6.44727 10.2657 7.06385 9.00688 8.18479C8.56041 8.58172 8.17065 9.04908 7.84714 9.57494C7.05747 10.857 6.75007 12.4477 6.98225 14.054C7.15595 15.2567 7.27354 17.3595 6.55609 19.6557C6.4385 20.0329 6.81632 20.3714 7.17266 20.2013C8.34494 19.6414 10.28 18.4034 11.056 16.1019Z" fill="#F9B233"/>
<g opacity="0.5">
<path d="M13.4024 6.74121C16.7593 6.85999 19.4751 9.36511 19.8857 12.6581H18.0784C17.6862 9.8277 15.8484 7.56073 13.4024 6.74121Z" fill="white"/>
</g>
<path d="M13.5061 13.6039H20.9779C21.3109 12.5337 21.3843 11.3453 20.9779 9.93848H17.199C15.1594 9.93848 13.5061 11.5632 13.5061 13.5669V13.6039Z" fill="#E89B13"/>
<path d="M3.94209 12.6313L0.000267029 12.8945C0.61088 6.07809 6.15831 0.50558 13.2487 0.0316546C14.3153 -0.0399714 15.3617 0.011957 16.377 0.167147C16.377 0.167147 15.909 1.07381 15.0161 3.90961C14.5212 3.87141 14.0175 3.86783 13.5071 3.90185C8.56017 4.23312 4.6494 7.96484 3.94209 12.6313Z" fill="#E89B13"/>
<path d="M8.77058 24.3008H16.4023V26.0896H8.77058V24.3008Z" fill="#575756"/>
</svg>
