<svg width="61" height="43" viewBox="0 0 61 43" fill="none" xmlns="http://www.w3.org/2000/svg">
<path d="M47.9947 1.99219H8.90234V31.043H47.9947V1.99219Z" fill="#38E0E0"/>
<path d="M46.1054 18.6631H11.7627V28.8906H46.1054V18.6631Z" fill="#95C11F"/>
<path d="M7.73535 0V32.8493H50.1637V0H7.73535ZM46.4194 29.276H11.454V3.55262H46.4194V29.276Z" fill="#CA9E67"/>
<path d="M46.1066 25.2909V25.4099C46.2107 25.3843 46.314 25.3686 46.418 25.3636V25.2653C46.319 25.2752 46.2157 25.2859 46.1066 25.2909ZM46.1066 25.2909V25.4099C46.2107 25.3843 46.314 25.3686 46.418 25.3636V25.2653C46.319 25.2752 46.2157 25.2859 46.1066 25.2909ZM46.1066 25.2909V25.4099C46.2107 25.3843 46.314 25.3686 46.418 25.3636V25.2653C46.319 25.2752 46.2157 25.2859 46.1066 25.2909ZM10.4102 2.63281V30.1923H47.4604V2.63281H10.4102ZM46.1066 28.8906H11.7639V3.93458H46.1066V28.8906ZM46.1066 25.2909V25.4099C46.2107 25.3843 46.314 25.3686 46.418 25.3636V25.2653C46.319 25.2752 46.2157 25.2859 46.1066 25.2909ZM46.1066 25.2909V25.4099C46.2107 25.3843 46.314 25.3686 46.418 25.3636V25.2653C46.319 25.2752 46.2157 25.2859 46.1066 25.2909ZM46.1066 25.2909V25.4099C46.2107 25.3843 46.314 25.3686 46.418 25.3636V25.2653C46.319 25.2752 46.2157 25.2859 46.1066 25.2909Z" fill="#B17F4A"/>
<path opacity="0.1" d="M50.1381 0L46.1031 3.93097H11.7654L7.73535 0.00498761V0H50.1381Z" fill="#1D1D1B"/>
<path opacity="0.1" d="M50.1637 32.8499H7.73535V32.8243L7.74105 32.8186L8.56044 32.0148L8.82978 31.7555L9.51451 31.0864L10.4322 30.1943L11.2623 29.3856L11.454 29.199L11.7654 28.8926H46.108L46.1857 28.971L46.4194 29.199L46.5954 29.37L47.3735 30.1274L47.4412 30.1943L47.5445 30.2934L47.8195 30.5577L47.8402 30.5834L48.0532 30.7914L49.6657 32.3625L49.7383 32.4352L50.1637 32.8499Z" fill="#1D1D1B"/>
<path d="M42.8176 19.051L45.3812 23.8705H42.7813L40.2646 19.1379L40.6608 18.3948C40.6523 18.4589 40.6444 18.5223 40.6359 18.5857C40.8104 18.4682 40.9715 18.3307 41.1154 18.1768C41.208 18.1867 41.218 18.3143 41.2109 18.4062C41.1988 18.5537 41.2095 18.7033 41.238 18.8494C41.2465 18.895 41.2629 18.947 41.3085 18.9598C41.3569 18.9769 41.404 18.9363 41.4396 18.8993C41.5016 18.8358 41.5636 18.7717 41.6256 18.7062C41.7246 19.0553 41.8236 19.4023 41.9241 19.75C41.9612 19.8775 42.0196 20.0286 42.1507 20.0535C42.1521 19.5769 42.1557 19.1009 42.1592 18.6242C42.2697 19.0068 42.5013 19.3524 42.8119 19.6025C42.7941 19.4187 42.7977 19.2341 42.8176 19.051Z" fill="#7B6A58"/>
<path d="M40.264 19.1377L42.7806 23.8695H37.748L40.264 19.1377Z" fill="#A48A7B"/>
<path d="M42.8182 19.0506C42.7982 19.2338 42.7947 19.4183 42.8118 19.6028C42.5011 19.3527 42.2695 19.0072 42.1591 18.6245C42.1555 19.1012 42.1527 19.5772 42.1506 20.0539C42.0195 20.0289 41.961 19.8779 41.924 19.7503C41.8235 19.4033 41.7245 19.0556 41.6254 18.7065C41.5634 18.772 41.5015 18.8355 41.4395 18.8996C41.4046 18.9366 41.3575 18.9765 41.3084 18.9601C41.2635 18.9466 41.2464 18.8946 41.2378 18.8497C41.2093 18.7036 41.1993 18.5547 41.2107 18.4065C41.2172 18.3146 41.2072 18.1871 41.1153 18.1771C40.9713 18.3317 40.8096 18.4692 40.6357 18.5861C40.6443 18.5227 40.6521 18.4585 40.6607 18.3951L41.5649 16.6943L42.8182 19.0506Z" fill="white"/>
<path d="M39.2456 17.2234L40.2638 19.138L37.7472 23.8705H36.9085L34.3506 19.0596L35.2597 17.3481C35.7699 17.103 36.0264 16.5059 36.5181 16.2245C36.382 16.6876 36.2459 17.1507 36.1105 17.6139C36.154 17.6759 36.2466 17.6089 36.2865 17.5469C36.4561 17.2833 36.6271 17.0218 36.7967 16.7581C37.0061 16.9961 36.8373 17.4628 37.1102 17.6224C37.2128 17.2484 37.2933 16.8693 37.3531 16.4852C37.7087 16.9028 37.7236 17.517 38.0222 17.9765C38.0507 18.02 38.0906 18.067 38.1426 18.0656C38.2267 18.0606 38.2466 17.9481 38.2417 17.864C38.2067 17.2954 38.1732 16.7268 38.1376 16.1582C38.4248 16.5038 38.7098 16.8493 38.9962 17.1949C39.0532 17.264 39.1558 17.336 39.2178 17.274C39.232 17.259 39.2406 17.2419 39.2456 17.2234Z" fill="#A48A7B"/>
<path d="M34.3509 19.0596L36.9096 23.8705H31.793L34.3509 19.0596Z" fill="#A48A7B"/>
<path d="M38.0232 17.9754C37.7246 17.5158 37.7097 16.9016 37.3541 16.4841C37.2936 16.8681 37.213 17.2472 37.1112 17.6213C36.8375 17.4617 37.0071 16.9957 36.7976 16.757C36.6281 17.0206 36.4571 17.2821 36.2875 17.5457C36.2469 17.6077 36.155 17.6747 36.1115 17.6127C36.2476 17.1496 36.383 16.6864 36.5191 16.2233C36.0274 16.5055 35.7709 17.1026 35.2607 17.3469L37.2871 13.5371L39.2466 17.223C39.2416 17.2415 39.233 17.2579 39.2195 17.2714C39.1575 17.3334 39.0549 17.2614 38.9979 17.1923C38.7108 16.8468 38.4257 16.5012 38.1393 16.1556C38.1742 16.7242 38.2084 17.2928 38.2433 17.8614C38.2483 17.9455 38.2284 18.0573 38.1443 18.063C38.0916 18.0659 38.0517 18.0189 38.0232 17.9754Z" fill="white"/>
<path d="M33.4182 17.9111C33.5273 18.0201 33.6797 18.0821 33.8329 18.0843L34.3516 19.059L31.793 23.8699H28.3408L31.3975 18.1228C31.4446 18.0793 31.4916 18.0358 31.5386 17.9938C31.5386 18.3493 31.5386 18.7049 31.5372 19.0604C31.7232 18.6963 31.9383 18.3472 32.1799 18.0187C32.2989 18.4448 32.3174 18.9008 32.2355 19.3355C32.3224 19.3725 32.4015 19.2713 32.4449 19.1865C32.6309 18.8075 32.819 18.4284 33.0071 18.0494C33.0691 18.214 33.1432 18.3728 33.2301 18.5239C33.2536 18.5645 33.2857 18.6094 33.3327 18.6058C33.3947 18.6023 33.4132 18.5189 33.4147 18.4548C33.4147 18.2738 33.4168 18.0928 33.4182 17.9111Z" fill="#634E42"/>
<path d="M33.4186 17.9109C33.4172 18.0918 33.415 18.2735 33.4136 18.4545C33.4122 18.5186 33.3937 18.602 33.3317 18.6056C33.2847 18.6091 33.2526 18.5635 33.2291 18.5236C33.1414 18.3726 33.0681 18.213 33.0061 18.0491C32.818 18.4282 32.6306 18.8072 32.4439 19.1863C32.4004 19.2718 32.3213 19.3722 32.2344 19.3352C32.3163 18.9006 32.2985 18.4445 32.1788 18.0185C31.9373 18.3469 31.7228 18.6961 31.5361 19.0602C31.5376 18.7046 31.5376 18.3491 31.5376 17.9935C31.4905 18.0356 31.4435 18.079 31.3965 18.1225L32.6249 15.8125L33.8326 18.084C33.6801 18.0826 33.5276 18.0199 33.4186 17.9109Z" fill="white"/>
<path d="M25.0244 7.49465C24.9531 7.28659 24.7002 7.12414 24.3703 7.09279C24.3803 6.77144 24.1145 6.47361 23.7361 6.40663C23.635 6.38882 23.5352 6.38882 23.4419 6.40521C23.2958 6.25629 23.0792 6.15939 22.8341 6.15868C22.6695 6.15796 22.5163 6.20071 22.3888 6.27268C22.1551 6.05109 21.791 5.90573 21.3777 5.90431C20.6688 5.90217 20.093 6.31828 20.0916 6.83343C19.6064 6.83201 19.2117 7.11844 19.2109 7.47399C19.2109 7.48111 19.2166 7.48752 19.2166 7.49536L25.0244 7.49465Z" fill="white"/>
<path d="M32.5878 12.9004C32.5636 12.693 32.3242 12.5249 32.0092 12.4949C32.0178 12.2199 31.7905 11.9641 31.4656 11.9064C31.3787 11.8907 31.2932 11.8914 31.2134 11.905C31.088 11.7774 30.9027 11.6941 30.6925 11.6934C30.5514 11.6934 30.4203 11.729 30.3106 11.791C30.1104 11.6007 29.7983 11.476 29.4442 11.4746C28.8364 11.4725 28.3426 11.8295 28.3412 12.2712C27.9251 12.2698 27.5874 12.5156 27.5859 12.8206C27.5859 12.8484 27.6023 12.8726 27.6073 12.8997L32.5878 12.9004Z" fill="white"/>
<path d="M44.4153 12.5607C44.3512 12.2992 44.0398 12.0919 43.6301 12.0534C43.5909 11.7613 43.3173 11.5048 42.9411 11.4421C42.785 11.4164 42.6333 11.4292 42.4979 11.4698C42.3739 11.3316 42.1872 11.2276 41.9671 11.1913C41.7661 11.1578 41.5738 11.1884 41.4142 11.2611C41.2346 11.1136 41.0023 11.0203 40.7437 11.0195C40.3183 11.0181 39.9528 11.2597 39.7982 11.6045C39.672 11.4898 39.4889 11.4157 39.2823 11.415C38.9047 11.4136 38.5983 11.6544 38.5904 11.9544C38.5619 11.9529 38.5349 11.9494 38.5057 11.9487C38.0247 11.9472 37.6335 12.1817 37.6328 12.4724C37.6328 12.5037 37.6535 12.5308 37.662 12.5607H44.4153Z" fill="white"/>
<path d="M42.4685 8.28376C42.3737 7.899 41.9156 7.59262 41.3121 7.53633C41.2543 7.10668 40.8511 6.72834 40.2974 6.63642C40.0673 6.59794 39.8436 6.61718 39.6441 6.67704C39.4609 6.47326 39.1866 6.32006 38.8617 6.26663C38.566 6.21746 38.2824 6.26164 38.0473 6.36923C37.783 6.1512 37.4402 6.01511 37.0597 6.01368C36.4327 6.01154 35.8948 6.3678 35.6675 6.87512C35.4815 6.70625 35.2122 6.59652 34.9079 6.59581C34.3515 6.59438 33.8997 6.94851 33.8883 7.39027C33.8463 7.38742 33.8064 7.38243 33.7629 7.38243C33.0547 7.38029 32.479 7.72515 32.4775 8.15409C32.4775 8.2004 32.5082 8.2403 32.521 8.28448H42.4685V8.28376Z" fill="white"/>
<path d="M18.3958 12.5605C18.3025 12.3774 18.0588 12.2392 17.756 12.2107C17.7667 11.8893 17.5009 11.5915 17.1219 11.5238C17.0207 11.506 16.9209 11.5067 16.8276 11.5224C16.6815 11.3735 16.4649 11.2766 16.2191 11.2759C16.0545 11.2751 15.9013 11.3179 15.7738 11.3899C15.5401 11.1683 15.176 11.0222 14.7627 11.0215C14.0537 11.0194 13.478 11.4355 13.4766 11.9506C13.0056 11.9492 12.628 12.2207 12.6045 12.5612L18.3958 12.5605Z" fill="white"/>
<path d="M31.0656 30.707H26.834V32.2696H31.0656V30.707Z" fill="white"/>
<path d="M22.6369 5.24219H22.3975V8.73923H22.6369V5.24219Z" fill="#C69F8A"/>
<path d="M25.0929 11.4629H19.9414V27.3613H25.0929V11.4629Z" fill="#FFFFDE"/>
<path opacity="0.1" d="M19.9414 12.1875V13.0375H23.4798V23.1931H25.0929V13.0375V12.1875H19.9414Z" fill="#171715"/>
<path d="M20.5043 16.3506H14.75V27.3611H20.5043V16.3506Z" fill="#FFE9C0"/>
<path d="M21.2719 14.7715V16.5613L20.5038 17.2047H14.7495L13.9814 16.5613V14.7715H14.8073V15.432H15.933V14.7715H17.0638V15.432H18.1896V14.7715H19.3211V15.432H20.4461V14.7715H21.2719Z" fill="#FFE9C0"/>
<path d="M23.3045 21.3555H22.1787V22.016H23.3045V21.3555Z" fill="#FFE9C0"/>
<path d="M26.6619 21.3555H25.5361V22.016H26.6619V21.3555Z" fill="#FFE9C0"/>
<path d="M28.8992 21.3555H27.7734V22.016H28.8992V21.3555Z" fill="#FFE9C0"/>
<path opacity="0.1" d="M13.9814 16.5615L14.7495 17.2049H18.8914V27.3612H20.5038V17.2049L21.2719 16.5615H13.9814Z" fill="#171715"/>
<path d="M28.8994 21.9854H18.8906V27.3613H28.8994V21.9854Z" fill="#FFE9C0"/>
<path d="M21.0672 21.3555H19.9414V22.016H21.0672V21.3555Z" fill="#FFE9C0"/>
<path d="M19.4912 12.1873L22.5173 7.45117L25.5433 12.1873H19.4912Z" fill="#FF6F39"/>
<path d="M26.838 6.33435C25.3973 7.30195 23.9566 5.36675 22.5166 6.33435C22.5166 6.0415 22.5166 5.74795 22.5166 5.4551C23.9573 4.4875 25.398 6.4227 26.838 5.4551C26.1177 6.08497 25.3973 5.99021 24.677 5.89473C25.398 6.28305 26.1184 6.67137 26.838 6.33435Z" fill="#FF6F39"/>
<path d="M17.6271 20.7486H16.4678V19.0443C16.4678 18.7272 16.7243 18.4707 17.0414 18.4707H17.0528C17.3698 18.4707 17.6263 18.7272 17.6263 19.0443V20.7486H17.6271Z" fill="#8A735B"/>
<path d="M23.2738 25.446V27.3619H20.123V25.446C20.123 24.5853 20.8206 23.8877 21.6813 23.8877H21.7127C22.5763 23.887 23.2738 24.5853 23.2738 25.446Z" fill="#8A735B"/>
<path d="M22.8697 14.9025H22.165V13.8657C22.165 13.6726 22.3211 13.5166 22.5142 13.5166H22.5213C22.7144 13.5166 22.8704 13.6726 22.8704 13.8657V14.9025H22.8697Z" fill="#8A735B"/>
<path d="M22.8697 19.8566H22.165V18.8198C22.165 18.6267 22.3211 18.4707 22.5142 18.4707H22.5213C22.7144 18.4707 22.8704 18.6267 22.8704 18.8198V19.8566H22.8697Z" fill="#8A735B"/>
<path d="M31.4867 27.8352C31.5929 28.4836 31.7382 28.9866 32.0924 29.1213C32.1772 29.1534 32.2627 29.164 32.3474 29.1498C32.3489 29.1498 32.351 29.1484 32.351 29.1484C31.9955 27.7262 31.8758 26.2441 31.8758 26.2441C31.4333 26.3182 31.3592 27.0308 31.4867 27.8352Z" fill="#F2C28D"/>
<path d="M33.0234 30.9551C33.0804 31.0684 33.1438 31.171 33.208 31.2672C33.5585 31.7823 33.8378 32.1799 34.0958 32.492L34.016 31.2358C33.6825 31.1581 33.3512 31.0684 33.0234 30.9551Z" fill="#F2C28D"/>
<path d="M41.0839 29.1206C41.438 28.9859 41.5478 28.4829 41.6539 27.8345C41.7815 27.0301 41.7458 26.3182 41.3034 26.2441C41.3034 26.2441 41.1544 27.7867 40.8359 29.1491C40.9165 29.1619 41.0041 29.1519 41.0839 29.1206Z" fill="#F2C28D"/>
<path d="M39.0781 32.4985C39.3368 32.185 39.6139 31.786 39.9673 31.2673C40.0379 31.1647 40.1056 31.0478 40.169 30.9238C39.8298 31.0222 39.4928 31.1062 39.1579 31.1803L39.0781 32.4985Z" fill="#F2C28D"/>
<path d="M39.0524 32.9197L39.0781 32.4978L39.1586 31.1797C37.3837 31.5723 35.6644 31.6179 34.0156 31.2353L34.0954 32.4914L34.1225 32.9197H39.0524Z" fill="#FFD2A1"/>
<path d="M43.8987 35.944L40.5492 34.5859L40.567 34.6023H32.5875L29.2793 35.9433C28.0637 36.343 27.2422 37.4788 27.2422 38.7585V42.0938H28.0053H30.2113H30.8269H34.1878H34.4408H42.3504H42.9661H45.172H45.9351V38.7585C45.9358 37.4788 45.1143 36.3437 43.8987 35.944Z" fill="#3C3C3B"/>
<path d="M39.1586 31.1803C39.4935 31.1062 39.8305 31.0221 40.1697 30.9238C40.444 30.564 40.6642 29.8821 40.8359 29.1489C41.1551 27.7859 41.3033 26.244 41.3033 26.244L41.3026 26.2319L41.4422 24.3808C41.4786 23.4089 41.1109 22.4684 40.4454 21.7623C39.4821 20.7405 38.5188 20.4092 36.5928 20.4092C36.5914 20.4092 36.59 20.4092 36.5886 20.4092C36.5871 20.4092 36.5857 20.4092 36.5843 20.4092C34.6576 20.4092 33.695 20.7405 32.7317 21.7623C32.0655 22.4684 31.6985 23.4096 31.7349 24.3808L31.876 26.2433C31.876 26.2433 31.995 27.726 32.3512 29.1482C32.5187 29.818 32.7388 30.4742 33.0238 30.9559C33.3516 31.0692 33.6822 31.159 34.0157 31.2359C35.6644 31.6185 37.383 31.5729 39.1586 31.1803Z" fill="#683C11"/>
<path d="M39.0876 33.274V32.9199H39.0534H34.1235H34.1035V33.274H39.0876Z" fill="#EDEDED"/>
<path d="M40.5672 34.6042L40.5494 34.5878L39.1522 33.2754H39.0873H34.1033H34.0249L32.582 34.6042H32.5877H40.5672Z" fill="#575756"/>
<path opacity="0.2" d="M45.9361 38.7598C42.4262 40.1321 35.0217 41.8621 27.2432 42.0951H45.9361V38.7598Z" fill="#1D1D1B"/>
<path d="M15.2344 40.4218C15.2315 40.5009 15.2315 40.5835 15.2315 40.6662V42.0948H0.00926309V40.6662C0.00926309 40.5835 0.00926466 40.5016 0.00641458 40.4218C0.00641458 40.2173 0 40.0249 0 39.839C0 38.731 0.158887 37.9771 1.86822 37.0281C1.94731 36.9825 2.02997 36.9362 2.11832 36.8906C2.56721 36.6583 3.30893 36.3013 4.00435 35.9778C4.53233 35.7306 5.03323 35.5019 5.35315 35.3551C5.35315 35.3551 5.35315 35.3551 5.356 35.3551C5.57261 35.2546 5.70728 35.1962 5.71298 35.1933C5.71583 35.1933 5.71583 34.4366 5.71868 33.6856C5.72153 32.9468 5.72153 32.2207 5.72153 32.2207H9.51284C9.51284 32.2207 9.51284 32.9475 9.51569 33.6856C9.51854 34.4366 9.51854 35.1933 9.5221 35.1933C9.53136 35.1962 9.64394 35.2453 9.83062 35.3273H9.83347C10.1513 35.4741 10.6792 35.7149 11.2378 35.9771C11.9304 36.3006 12.6721 36.6576 13.121 36.8898C13.2094 36.9354 13.292 36.9818 13.3711 37.0238C14.5767 37.6985 15.0099 38.2721 15.1631 38.944C15.2614 39.378 15.2401 39.8546 15.2344 40.4218Z" fill="#F2C28D"/>
<path d="M7.61801 23.8782C6.0412 23.7087 4.54349 24.4169 3.94497 25.8277C3.71483 26.3478 3.59441 26.9984 3.55094 27.8042C3.42411 27.6988 3.28661 27.6432 3.15123 27.6653C2.76789 27.7273 2.54986 28.3379 2.66244 29.029C2.75293 29.5898 3.03294 30.0287 3.3379 30.1434C3.40987 30.1712 3.48397 30.1805 3.55593 30.1684C3.58087 30.1641 3.60368 30.1548 3.62719 30.147C3.88726 31.23 4.2257 32.0801 4.59835 32.4833C5.07502 32.9999 5.40849 33.3932 5.72342 33.6903C6.2286 34.167 6.68746 34.395 7.61801 34.4763C8.54927 34.395 9.00813 34.1663 9.51259 33.6903C9.82753 33.3932 10.161 32.9992 10.6377 32.4833C11.0103 32.0808 11.3488 31.23 11.6088 30.147C11.6323 30.1555 11.6559 30.1641 11.6801 30.1684C11.752 30.1812 11.8261 30.1712 11.8981 30.1434C12.2031 30.028 12.4838 29.5891 12.5736 29.029C12.6854 28.3379 12.4674 27.7273 12.0848 27.6653C11.9494 27.6432 11.8126 27.6988 11.6851 27.8042C11.6409 26.9984 11.5205 26.3471 11.291 25.8277C10.6925 24.4169 9.19552 23.7087 7.61801 23.8782Z" fill="#FFD2A1"/>
<path d="M7.6376 21.9349C8.28314 21.9021 13.0542 21.8686 12.3324 27.8652C11.9141 31.3209 12.1493 32.5158 13.3121 33.7C10.3765 36.228 4.52674 36.1767 1.92676 33.7C3.08959 32.5158 3.32187 31.3209 2.90647 27.8652C2.17044 21.7625 7.12744 21.905 7.63048 21.9349C7.63261 21.932 7.63475 21.932 7.6376 21.9349Z" fill="#F9B233"/>
<path d="M15.2344 40.4225H12.9116V42.0955H2.32922V40.4225H0V39.8397C0 38.7317 0.158887 37.9778 1.86822 37.0288C1.94731 36.9832 2.02997 36.9369 2.11832 36.8913C2.56721 36.659 3.30893 36.302 4.00435 35.9785H11.2386C11.9311 36.302 12.6729 36.659 13.1217 36.8913C13.2101 36.9369 13.2928 36.9832 13.3718 37.0252C14.5774 37.7 15.0106 38.2735 15.1638 38.9454C15.2614 39.3787 15.2401 39.8553 15.2344 40.4225Z" fill="#00A19A"/>
<path opacity="0.1" d="M15.2339 40.4224C15.231 40.5015 15.231 40.5841 15.231 40.6668V42.0954H0.00878906V41.9308C0.793272 41.8695 1.56849 41.7932 2.32875 41.7077C7.67335 41.1064 12.3924 39.9528 15.1641 38.9453C15.261 39.3785 15.2396 39.8552 15.2339 40.4224Z" fill="#1D1D1B"/>
<path d="M60.9924 40.6662V42.0948H45.7701V40.6662C45.7701 39.0666 45.5293 38.1937 47.6291 37.0281C47.7082 36.9825 47.7908 36.9362 47.8792 36.8906C48.3281 36.6583 49.0698 36.3013 49.7659 35.9778C50.6509 35.5624 51.4567 35.1997 51.4752 35.1933C51.4752 35.1933 51.4781 35.0893 51.4752 34.9219C51.4781 34.6347 51.4781 34.1588 51.4817 33.6856C51.4845 32.9468 51.4845 32.2207 51.4845 32.2207H55.2758C55.2758 32.2207 55.2758 32.9475 55.2787 33.6856C55.2815 34.1588 55.2815 34.6383 55.2815 34.9247C55.2815 35.0929 55.2844 35.1933 55.2844 35.1933C55.3057 35.1997 56.1145 35.5624 57.0001 35.9778C57.6927 36.3013 58.4344 36.6583 58.8833 36.8906C58.9717 36.9362 59.0543 36.9825 59.1334 37.0245C60.3974 37.7299 60.8121 38.3277 60.9432 39.0424C61.0287 39.5098 60.9924 40.0313 60.9924 40.6662Z" fill="#F2C28D"/>
<path d="M53.3807 23.8782C51.8039 23.7087 50.3062 24.4169 49.7077 25.8277C49.4775 26.3478 49.3571 26.9984 49.3136 27.8042C49.1868 27.6988 49.0493 27.6432 48.9139 27.6653C48.5306 27.7273 48.3126 28.3379 48.4251 29.029C48.5156 29.5898 48.7956 30.0287 49.1006 30.1434C49.1726 30.1712 49.2467 30.1805 49.3186 30.1684C49.3436 30.1641 49.3664 30.1548 49.3899 30.147C49.65 31.23 49.9884 32.0801 50.361 32.4833C50.8377 32.9999 51.1712 33.3932 51.4861 33.6903C51.9913 34.167 52.4502 34.395 53.3807 34.4763C54.312 34.395 54.7708 34.1663 55.2753 33.6903C55.5902 33.3932 55.9237 32.9992 56.4004 32.4833C56.7723 32.0808 57.1114 31.23 57.3715 30.147C57.395 30.1555 57.4185 30.1641 57.4428 30.1684C57.5147 30.1812 57.5888 30.1712 57.6608 30.1434C57.9658 30.028 58.2465 29.5891 58.3363 29.029C58.4481 28.3379 58.2301 27.7273 57.8475 27.6653C57.7121 27.6432 57.5753 27.6988 57.4478 27.8042C57.4036 26.9984 57.2832 26.3471 57.0537 25.8277C56.4552 24.4169 54.9575 23.7087 53.3807 23.8782Z" fill="#FFD2A1"/>
<path d="M58.9806 26.7698C58.4861 21.0953 53.8497 21.0162 53.3795 21.0098C52.9128 21.0162 48.2757 21.0953 47.7784 26.7698C47.0943 31.4304 46.5208 34.0097 49.6644 34.636C50.2351 34.807 51.1571 34.8804 51.4742 34.9231C51.5383 34.9324 51.5782 34.9417 51.5839 34.9474H55.1764C55.1828 34.9409 55.2192 34.9324 55.2805 34.926C55.589 34.8804 56.5195 34.8098 57.0967 34.636C60.2382 34.0097 59.6639 31.4304 58.9806 26.7698Z" fill="#936037"/>
<path d="M59.1332 37.0247L58.6722 38.0806V42.0942H48.0899V38.0806L47.6289 37.0275C47.708 36.9819 47.7907 36.9356 47.879 36.89C48.3279 36.6577 49.0696 36.3008 49.7658 35.9773L49.7871 36.0257C50.3429 37.2741 51.5848 38.0799 52.9521 38.0799H53.8129C55.1923 38.0799 56.4406 37.2619 56.99 35.9979L56.9992 35.9766C57.6918 36.3 58.4335 36.657 58.8824 36.8893C58.9715 36.9363 59.0542 36.9826 59.1332 37.0247Z" fill="#E94E1B"/>
<path opacity="0.1" d="M60.9928 40.6668V42.0954H45.7705V42.0035C46.3719 41.9543 46.9668 41.8938 47.5532 41.8268C47.7335 41.8054 47.913 41.7869 48.0905 41.7627C52.129 41.2803 55.8192 40.5172 58.6728 39.7298C59.5064 39.5011 60.266 39.2688 60.9436 39.043C61.0291 39.5104 60.9928 40.0319 60.9928 40.6668Z" fill="#1D1D1B"/>
</svg>
