<svg width="71" height="51" viewBox="0 0 71 51" fill="none" xmlns="http://www.w3.org/2000/svg">
<path d="M70.355 0H0V50.828H70.355V0Z" fill="#FFE4B5"/>
<path d="M65.5899 37.7793H47.3379V45.9323H65.5899V37.7793Z" fill="#F6F6F6"/>
<path d="M66.1859 46.53H4.16895V4.04102H66.1859V46.53ZM5.36095 45.338H64.9949V5.23099H5.36095V45.338Z" fill="#7B6A58"/>
<path d="M62.8236 15.6387H49.0586V16.8297H62.8236V15.6387Z" fill="#7B6A58"/>
<path d="M62.8236 19.2598H49.0586V20.4508H62.8236V19.2598Z" fill="#7B6A58"/>
<path d="M62.8236 22.8809H49.0586V24.0719H62.8236V22.8809Z" fill="#7B6A58"/>
<path d="M62.8236 26.498H49.0586V27.6891H62.8236V26.498Z" fill="#7B6A58"/>
<path d="M62.8236 30.1191H49.0586V31.3102H62.8236V30.1191Z" fill="#7B6A58"/>
<path d="M62.8236 33.7383H49.0586V34.9293H62.8236V33.7383Z" fill="#7B6A58"/>
<path d="M39.7931 14.2969H35.9551V25.4149H39.7931V14.2969Z" fill="#DBC49C"/>
<path d="M21.9264 8.51367H8.69043V19.9427H21.9264V8.51367Z" fill="#DBC49C"/>
<path d="M27.4194 22.252H8.69043V33.6809H27.4194V22.252Z" fill="#DBC49C"/>
<path d="M44.1624 36.1445H8.69043V42.8985H44.1624V36.1445Z" fill="#DBC49C"/>
<path d="M44.1623 22.252H30.8604V33.6809H44.1623V22.252Z" fill="#DBC49C"/>
<path d="M44.1626 8.51367H25.4336V19.9427H44.1626V8.51367Z" fill="#DBC49C"/>
<path d="M17.2931 18.2715H13.4551V37.7815H17.2931V18.2715Z" fill="#DBC49C"/>
<path d="M30.3963 12.3105H19.2783V16.1486H30.3963V12.3105Z" fill="#DBC49C"/>
<path d="M34.7977 26.0469H23.6797V29.8849H34.7977V26.0469Z" fill="#DBC49C"/>
<path d="M50.2088 8.51367C50.6358 8.51367 50.9768 8.63566 51.2298 8.87866C51.4838 9.12066 51.6107 9.45367 51.6107 9.87567C51.6107 10.2987 51.4497 10.6597 51.1297 10.9607C50.8097 11.2607 50.4177 11.4117 49.9547 11.4117H49.5748L49.6548 13.1207H48.7607L48.8407 11.4987L48.7607 8.51468H50.2088V8.51367ZM49.9688 9.18866H49.6427L49.5957 10.7637H50.0497C50.2717 10.7637 50.4448 10.6897 50.5668 10.5437C50.6888 10.3967 50.7498 10.1877 50.7498 9.91568C50.7498 9.43168 50.4898 9.18866 49.9688 9.18866Z" fill="#7B6A58"/>
<path d="M52.1592 13.1205L52.2392 11.4985L52.1592 8.64847L53.1072 8.48047L53.0132 11.3845L53.0602 12.4665L54.4292 12.3595L54.3552 13.1205H52.1592Z" fill="#7B6A58"/>
<path d="M57.6984 13.1536L57.3714 11.8526H55.7764L55.4224 13.1206L54.5674 13.0536L55.1544 11.4316L56.0494 8.56161L57.2434 8.47461L58.1054 11.3306L58.6594 13.0066L57.6984 13.1536ZM56.6434 9.34262H56.5564L55.9824 11.1446H57.1704L56.6434 9.34262Z" fill="#7B6A58"/>
<path d="M62.8239 8.50015L62.737 11.3831L62.8109 12.9722L62.0239 13.1392L60.0349 9.92114V11.3831L60.1279 13.1191H59.2939L59.3739 11.4972L59.2939 8.53314L60.0939 8.49414L62.0759 11.7571L62.0089 8.60016L62.8239 8.50015Z" fill="#7B6A58"/>
<path opacity="0.5" d="M17.6868 15.2178C17.6868 14.2478 17.1058 13.4148 16.2738 13.0448V11.1248C16.3338 11.0908 16.3768 11.0288 16.3768 10.9548C16.3768 10.8458 16.2888 10.7578 16.1798 10.7578H14.4348C14.3258 10.7578 14.2378 10.8458 14.2378 10.9548C14.2378 11.0288 14.2808 11.0908 14.3408 11.1248V13.0448C13.5088 13.4158 12.9268 14.2478 12.9268 15.2178C12.9268 16.1638 13.4808 16.9788 14.2808 17.3628V17.6978H16.3328V17.3618C17.1338 16.9788 17.6868 16.1638 17.6868 15.2178Z" fill="#1D1D1B"/>
<path opacity="0.5" d="M39.4327 24.8887H35.5877C35.1777 24.8887 34.8447 25.2207 34.8447 25.6317C34.8447 26.0417 35.1777 26.3747 35.5877 26.3747C35.9377 26.3747 36.2307 26.1327 36.3087 25.8067H36.4807C36.3977 25.8067 36.3307 25.8737 36.3307 25.9567V25.9597C36.3307 26.0397 36.3937 26.1047 36.4727 26.1087V26.1097C36.4287 26.1107 36.3947 26.1467 36.3947 26.1907V26.1927C36.3947 26.2367 36.4297 26.2717 36.4727 26.2737V29.9017C36.4287 29.9037 36.3947 29.9387 36.3947 29.9827V29.9847C36.3947 30.0287 36.4297 30.0637 36.4727 30.0657V30.0667C36.3937 30.0707 36.3307 30.1357 36.3307 30.2157V30.2187C36.3307 30.2677 36.3537 30.3097 36.3897 30.3377L35.7357 30.6767V31.0437H39.2847V30.6767L38.6307 30.3377C38.6397 30.3307 38.6467 30.3237 38.6537 30.3157L38.6557 30.3127C38.6617 30.3057 38.6667 30.2977 38.6707 30.2897C38.6717 30.2877 38.6727 30.2857 38.6737 30.2837C38.6777 30.2757 38.6807 30.2677 38.6827 30.2597C38.6837 30.2567 38.6847 30.2547 38.6847 30.2517C38.6867 30.2407 38.6887 30.2297 38.6887 30.2187V30.2157C38.6887 30.2057 38.6877 30.1957 38.6857 30.1857C38.6847 30.1817 38.6827 30.1767 38.6817 30.1727C38.6807 30.1677 38.6787 30.1627 38.6767 30.1577C38.6747 30.1517 38.6707 30.1467 38.6677 30.1407C38.6657 30.1377 38.6647 30.1357 38.6637 30.1327C38.6597 30.1257 38.6537 30.1197 38.6487 30.1137L38.6467 30.1107C38.6207 30.0837 38.5857 30.0667 38.5457 30.0647V30.0637C38.5677 30.0627 38.5867 30.0537 38.6007 30.0387L38.6027 30.0347C38.6087 30.0277 38.6137 30.0217 38.6167 30.0127C38.6207 30.0037 38.6227 29.9937 38.6227 29.9837V29.9817V29.9797V29.9777C38.6227 29.9677 38.6207 29.9577 38.6167 29.9487C38.6137 29.9407 38.6087 29.9337 38.6027 29.9277C38.6027 29.9277 38.6017 29.9247 38.5997 29.9237C38.5857 29.9087 38.5657 29.8997 38.5447 29.8987V26.7597V26.2707C38.5887 26.2687 38.6237 26.2337 38.6237 26.1897V26.1877C38.6237 26.1437 38.5887 26.1087 38.5447 26.1067V26.1057C38.6237 26.1017 38.6867 26.0367 38.6867 25.9567V25.9537C38.6867 25.8707 38.6197 25.8037 38.5367 25.8037H38.7087C38.7877 26.1297 39.0797 26.3717 39.4297 26.3717C39.8397 26.3717 40.1727 26.0387 40.1727 25.6287C40.1757 25.2207 39.8427 24.8887 39.4327 24.8887Z" fill="#1D1D1B"/>
<path opacity="0.5" d="M36.182 13.7161C35.924 13.5811 35.286 13.2921 35.276 13.2891V13.2781L35.275 12.9021C35.324 12.8541 35.376 12.7961 35.439 12.7261C35.92 12.4531 36.252 11.8971 36.252 11.3231C36.252 10.7761 35.951 10.3561 35.506 10.1421C35.506 10.1371 35.508 10.1331 35.508 10.1281C35.508 9.82608 35.19 9.58008 34.798 9.58008C34.406 9.58008 34.088 9.82508 34.088 10.1281C34.088 10.1331 34.09 10.1371 34.09 10.1421C33.645 10.3561 33.344 10.7761 33.344 11.3231C33.344 11.8961 33.675 12.4521 34.156 12.7261C34.219 12.7961 34.271 12.8541 34.321 12.9021C34.321 12.9721 34.32 13.0431 34.319 13.1051C34.32 13.2111 34.32 13.2891 34.319 13.2891C34.311 13.2921 33.671 13.5811 33.413 13.7161C32.817 14.0281 32.882 14.2481 32.882 14.6671V15.0261H33.355H33.455C33.464 15.2101 33.545 15.3751 33.673 15.4921L33.698 15.6411L33.807 16.3161C33.849 16.5811 33.788 16.8511 33.639 17.0731C33.37 17.4711 33.218 17.8231 33.118 18.3161C33.073 18.3241 33.029 18.3341 32.986 18.3421C32.959 18.3471 32.929 18.3561 32.912 18.3771C32.889 18.4111 32.908 18.4561 32.923 18.4941C32.935 18.5211 32.943 18.5501 32.95 18.5791C32.96 18.6131 32.965 18.6491 32.966 18.6841C32.971 18.7401 32.967 18.7971 32.955 18.8531C32.954 18.8611 32.951 18.8681 32.95 18.8761H33.911H35.184H35.509H36.652C36.665 18.8401 36.674 18.8031 36.678 18.7651C36.69 18.6801 36.681 18.5931 36.651 18.5131C36.637 18.4761 36.618 18.4391 36.611 18.4001C36.599 18.3301 36.622 18.2611 36.648 18.1941C36.649 18.1891 36.652 18.1841 36.653 18.1791C36.679 18.1141 36.702 18.0411 36.69 17.9731C36.69 17.9681 36.689 17.9621 36.687 17.9571C36.669 17.8831 36.585 17.8221 36.516 17.8551C36.526 17.8171 36.535 17.7771 36.542 17.7361C36.55 17.6911 36.556 17.6451 36.556 17.6011V17.6001C36.556 17.5191 36.54 17.4431 36.491 17.3831C36.483 17.3731 36.473 17.3641 36.464 17.3541C36.419 17.3121 36.359 17.2901 36.308 17.2531C36.298 17.2461 36.29 17.2391 36.282 17.2311C36.268 17.2201 36.256 17.2051 36.247 17.1901C36.244 17.1861 36.242 17.1821 36.24 17.1781C36.226 17.1531 36.221 17.1261 36.226 17.0991C36.233 17.0661 36.253 17.0381 36.264 17.0081C36.267 17.0001 36.269 16.9931 36.271 16.9851C36.285 16.8881 36.162 16.8351 36.065 16.8161C36.023 16.8081 35.98 16.8001 35.938 16.7911C35.92 16.7871 35.9 16.7831 35.882 16.7901C35.862 16.7981 35.85 16.8151 35.84 16.8321C35.782 16.6681 35.76 16.4911 35.788 16.3161L35.897 15.6421L35.921 15.4961C35.921 15.4961 35.922 15.4961 35.922 15.4951C36.05 15.3771 36.132 15.2111 36.14 15.0251H36.261H36.712V14.6661C36.713 14.2471 36.778 14.0281 36.182 13.7161ZM33.862 15.6141C33.862 15.6151 33.863 15.6141 33.862 15.6141V15.6141Z" fill="#1D1D1B"/>
<path opacity="0.5" d="M20.734 31.5857H15.374V24.3457H20.734V31.5857ZM16.386 30.5737H19.722V25.3577H16.386V30.5737Z" fill="#1D1D1B"/>
<path opacity="0.5" d="M23.7783 39.5194L27.0353 41.5124V40.5254H31.0583V38.5134H27.0353V37.5254L23.7783 39.5194Z" fill="#1D1D1B"/>
</svg>
