<svg width="39" height="32" viewBox="0 0 39 32" fill="none" xmlns="http://www.w3.org/2000/svg">
<path fill-rule="evenodd" clip-rule="evenodd" d="M19.4141 19.2037L19.546 19.0717H19.942V19.3357L21.2618 19.4677L21.3938 19.8636L21.864 20.0863L22.3177 20.2596V20.7875H22.0537V21.1834L21.9217 20.7875L21.6841 20.7101C21.5372 20.6871 21.4643 20.6756 21.3938 20.6555C21.3244 20.6357 21.2573 20.6074 21.1242 20.5514C20.3581 20.2527 19.8267 20.2503 19.0181 20.3915V20.6555H18.7542V20.9195C18.4983 21.2119 18.2697 21.4232 17.9293 21.6124L17.6983 21.7114C17.5696 22.232 17.5696 22.232 17.1704 22.6352H16.9064V23.0312C16.5373 23.501 16.3345 23.6724 15.7433 23.7983L15.3226 23.8231V24.0871L15.0586 24.219C14.0651 24.3793 12.6853 24.5502 11.7591 24.0871V23.8231C11.2581 23.8231 11.0161 23.7569 10.5712 23.5591V23.2952H10.3072L10.4392 22.7672C10.772 22.6917 11.085 22.6358 11.4264 22.6224L11.7652 22.627L12.1359 22.6301C12.2269 22.6313 12.3179 22.6325 12.4089 22.6338C12.5746 22.636 12.7404 22.6382 12.9062 22.6404L13.2748 22.6435C13.4735 22.6462 13.6723 22.6451 13.8708 22.6352C14.0206 22.4604 14.0206 22.4604 14.407 22.429L14.7947 22.3713V22.1073L15.1906 21.8433C15.2133 21.8191 15.2354 21.7955 15.2569 21.7724C15.4931 21.519 15.6666 21.3327 16.0155 21.2164L16.2465 21.1834V20.7875L16.7744 20.6555C16.7571 20.4568 16.748 20.352 16.7749 20.2575C16.805 20.1521 16.8799 20.0595 17.0384 19.8636H17.3023V19.5996C17.5888 19.5002 17.7332 19.4501 17.8815 19.4171C18.0321 19.3836 18.1867 19.3677 18.4984 19.3357C18.8042 19.2959 19.1097 19.2529 19.4141 19.2037ZM22.4497 22.2393V21.0514C22.6749 20.9845 22.7916 20.9499 22.9032 20.9622C23.0231 20.9755 23.1371 21.0431 23.3736 21.1834C23.399 21.8201 23.3415 22.3048 23.1096 22.8992L22.9776 22.5033L22.4497 22.2393ZM6.21578 21.8433V21.7114H8.06354V21.8433H6.21578ZM5.02793 22.5033L5.2919 22.2393C5.46803 22.261 5.55385 22.2715 5.63832 22.2888C5.71859 22.3052 5.79764 22.3276 5.95181 22.3713L5.55586 22.6352C5.27174 22.5945 5.27174 22.5945 5.02793 22.5033ZM9.96079 22.858C9.37555 22.8208 9.37555 22.8208 8.85544 22.5033C9.05634 22.3396 9.14576 22.2667 9.2473 22.2401C9.32873 22.2188 9.41796 22.2272 9.57876 22.2424L9.93605 22.2888C10.1479 22.3149 10.3597 22.3419 10.5712 22.3713L10.1753 22.5033V22.7672L9.96079 22.858Z" fill="#CDAA7F"/>
<path fill-rule="evenodd" clip-rule="evenodd" d="M16.2465 0.726087C16.5167 0.804934 16.7892 0.875769 17.0631 0.940559L17.4977 1.0447L17.8303 1.12204V1.386L18.2675 1.4025C18.922 1.48215 19.4054 1.77928 19.9693 2.1052C20.5072 2.40385 21.0688 2.61567 21.6431 2.83228L21.6578 2.83781C21.8779 2.92533 22.0979 3.01332 22.3177 3.10178L22.6425 3.2317L24.2974 3.89368V4.15764L24.6604 4.24013C25.1272 4.37109 25.5277 4.57429 25.9555 4.80106C27.6655 5.67973 29.5619 6.06795 31.4694 5.79557C33.328 5.53684 34.7475 5.6574 36.3491 6.73956L36.5718 6.92928V7.19325H36.8358V7.45721H37.0998V7.72118H37.3637V8.11713H37.6277V8.64506H37.8917V9.30497H38.1556V10.2289H38.4196L38.4254 10.4665C38.4354 10.8273 38.4481 11.188 38.4608 11.5487L38.4699 11.9225C38.5007 12.7233 38.6445 13.3167 38.9475 14.0564C39.0001 14.4054 39.0001 14.4054 38.997 14.6915L39.0001 14.9828C38.9475 15.2442 38.9475 15.2442 38.8099 15.4752C38.4088 15.7314 37.9961 15.6816 37.537 15.6649L37.2562 15.6595C37.0281 15.6548 36.7999 15.6477 36.5718 15.6402L36.4564 15.951C36.2895 16.3433 36.104 16.5546 35.7799 16.828H35.516L35.483 17.059C35.3546 17.4442 35.1542 17.6112 34.8561 17.8839L34.6168 18.1726C33.8463 18.811 32.3732 18.5835 31.4245 18.5438C30.933 18.4887 30.4448 18.4309 29.9727 18.2798L29.8407 18.0158C29.4994 17.954 29.4994 17.954 29.1066 17.9334L28.7018 17.9035L28.3889 17.8839L28.2569 18.1478L27.861 18.2798C27.7102 18.6438 27.7102 18.6438 27.597 19.0717L27.333 19.8636H27.0691V20.5235H26.8051V21.0514H26.5411L26.4834 21.2907C26.424 21.5215 26.3525 21.7492 26.2772 21.9753H26.0132V22.6352H25.7492V22.8992C25.5018 23.1384 25.5018 23.1384 25.0893 23.2952C24.6316 23.2099 24.2044 23.0639 23.7695 22.8992L23.9015 23.1384C24.0335 23.4271 24.0335 23.4271 24.0335 23.8231H24.2974V24.219C25.0106 24.5342 25.5025 24.4585 26.2359 24.3015C27.3056 24.0871 27.3056 24.0871 27.729 24.0871V23.8231L28.029 23.7885C28.9067 23.6681 29.5999 23.4676 30.3738 23.0343C30.6326 22.8992 30.6326 22.8992 30.8966 22.8992V22.6352L31.3255 22.4785C31.8118 22.274 32.0285 21.9986 32.3484 21.5794C32.6453 21.4721 32.6453 21.4721 32.8763 21.4474V21.1834H33.1403L33.4042 20.6555H33.6682V20.3915C34.4534 19.6917 34.7666 19.5833 35.7799 19.5996C35.9713 19.9086 36.0496 20.0721 36.0119 20.439L35.9284 20.7545L35.847 21.0741L35.7799 21.3154H35.516L35.5407 21.7691C35.5398 22.2993 35.4215 22.7047 35.2422 23.1993C34.7929 24.5225 34.5372 25.8652 34.406 27.2531C34.3221 27.6815 34.2503 27.7721 33.9322 28.0465C33.8111 28.2968 33.8111 28.2968 33.726 28.5662C33.5965 28.9363 33.4595 29.2846 33.2723 29.6303H33.0083V29.8943H32.7443L32.4804 30.4222H32.2164V30.6862C30.6701 31.7331 28.8887 31.6481 27.0938 31.6266C26.8982 31.6252 26.7025 31.624 26.5069 31.623C26.0343 31.6201 25.5618 31.6156 25.0893 31.6101L24.9573 31.874C21.5544 31.9247 21.5544 31.9247 19.9801 31.6853C19.0726 31.553 18.1528 31.5092 17.2381 31.4498L16.8265 31.4203L16.4588 31.3961C16.0896 31.3425 15.7969 31.2274 15.4546 31.0821C15.1108 31.0045 14.7696 30.9326 14.4235 30.8677L14.1464 30.8141C13.9226 30.7708 13.6987 30.7284 13.4748 30.6862V30.4222L13.2325 30.3923C12.4189 30.2646 11.8471 30.0092 11.1564 29.5674C10.3578 29.0675 9.57812 28.8015 8.65437 28.6399C8.23067 28.5551 7.83492 28.4179 7.42786 28.2749C6.99274 28.1294 6.55108 28.025 6.10488 27.9195L6.0838 27.9146V27.6506L5.70744 27.6021L5.20941 27.5351L4.71757 27.4701C4.23604 27.3866 4.23604 27.3866 3.80709 27.2423C3.37234 27.099 2.82834 27.0179 2.38828 27.1227L2.35528 26.6442C2.52026 26.1988 2.52026 26.1988 2.83063 26.0266C3.10581 25.9178 3.38284 25.8136 3.66119 25.7131C4.40705 25.4196 5.20428 24.9889 5.75899 24.399C6.70768 23.5137 9.09811 23.9343 10.3072 23.9551C9.57086 23.1698 8.66384 22.5003 7.58046 22.3094C5.99675 22.3682 4.14246 23.2606 2.91621 24.2273C2.59807 24.4733 2.38551 24.6159 2.00058 24.747L1.72836 24.8789C1.6098 25.2819 1.6098 25.2819 1.59638 25.6708H1.20043L1.06845 25.1429L0.804482 25.2749L0.0785763 23.8396C-0.0769346 22.7332 0.0268926 21.6288 0.144568 20.5235H0.276551L0.408533 19.8636H0.672499L0.647752 19.5914C0.679409 19.0954 0.872295 18.7349 1.06845 18.2798C1.12195 17.9734 1.16885 17.6654 1.20043 17.3559H1.4644L1.45615 16.9022C1.4644 16.432 1.4644 16.432 1.59638 16.3001C1.61729 16.0267 1.62954 15.7528 1.63814 15.4788L1.65489 14.9748C1.66015 14.7979 1.66539 14.621 1.67062 14.4441C1.67632 14.2666 1.68207 14.0892 1.68789 13.9117C1.70195 13.476 1.71541 13.0403 1.72836 12.6045H1.4644L1.33241 11.9446H1.20043L1.14269 11.4909C1.11969 11.0461 1.11969 11.0461 0.936465 10.8888C0.908237 10.6034 0.887602 10.3172 0.870473 10.0309C0.835215 9.47243 0.794365 8.91945 0.721993 8.36459C0.677355 7.90334 0.696753 7.7456 0.804482 7.32523C0.833495 7.02865 0.857914 6.73161 0.878722 6.43435L0.912234 5.96622L0.936465 5.60945H1.20043L1.18393 5.23825C1.20043 4.81756 1.20043 4.81756 1.4644 4.42161H1.72836V4.15764H1.99233L2.12431 3.76169C2.3829 3.61947 2.64853 3.49002 2.91621 3.36574C3.97273 2.80199 5.03084 2.21275 6.03224 1.55614C6.34776 1.386 6.34776 1.386 6.87569 1.386V1.12204L7.23246 1.0447L7.70059 0.940559L8.16459 0.838479C8.57295 0.748806 8.57295 0.748806 8.84409 0.58998C9.2734 0.390603 9.72604 0.361938 10.1918 0.313641L10.5085 0.280258C14.9349 -0.148265 14.9349 -0.148265 16.2465 0.726087ZM7.27164 8.38109C7.40706 8.06589 7.55033 7.76759 7.72069 7.46959C8.50892 6.4366 10.0753 6.42293 11.1816 6.89629C11.9039 7.22458 11.9039 7.22458 13.6903 7.62425L14.1348 7.72118V7.98514L14.5307 8.11713C14.8685 8.46456 15.0481 8.6591 15.0916 9.14824L15.0586 9.43696H15.3226C15.3131 9.84255 15.2816 10.2288 15.1906 10.6248C14.492 11.2064 14.492 11.2064 13.5795 11.3775L13.3429 11.4167V11.6807C12.6283 12.0052 11.8498 12.4738 11.0497 12.2746L10.5712 12.0766L10.1175 11.8951L9.64733 11.6807L9.33027 11.5518L9.00392 11.4167C8.70406 11.3031 8.70406 11.3031 8.45949 11.1527L8.32751 10.7568C7.74754 10.6905 7.40049 10.5346 7.00768 10.0969C6.95007 9.57841 6.95839 9.21575 7.09841 8.7193L7.27164 8.38109ZM19.4141 19.2037L19.546 19.0717H19.942V19.3357L21.2618 19.4677L21.3938 19.8636L21.864 20.0863L22.3177 20.2596V20.7875H22.0537V21.1834L21.9217 20.7875L21.6841 20.7101C21.5372 20.6871 21.4643 20.6756 21.3938 20.6555C21.3244 20.6357 21.2573 20.6074 21.1242 20.5514C20.3581 20.2527 19.8267 20.2503 19.0181 20.3915V20.6555H18.7542V20.9195C18.4983 21.2119 18.2697 21.4232 17.9293 21.6124L17.6983 21.7114C17.5696 22.232 17.5696 22.232 17.1704 22.6352H16.9064V23.0312C16.5373 23.501 16.3345 23.6724 15.7433 23.7983L15.3226 23.8231V24.0871L15.0586 24.219C14.0651 24.3793 12.6853 24.5502 11.7591 24.0871V23.8231C11.2581 23.8231 11.0161 23.7569 10.5712 23.5591V23.2952H10.3072L10.4392 22.7672C10.772 22.6917 11.085 22.6358 11.4264 22.6224L11.7652 22.627L12.1359 22.6301C12.2269 22.6313 12.3179 22.6325 12.4089 22.6338C12.5746 22.636 12.7404 22.6382 12.9062 22.6404L13.2748 22.6435C13.4735 22.6462 13.6723 22.6451 13.8708 22.6352C14.0206 22.4604 14.0206 22.4604 14.407 22.429L14.7947 22.3713V22.1073L15.1906 21.8433C15.2133 21.8191 15.2354 21.7955 15.2569 21.7724C15.4931 21.519 15.6666 21.3327 16.0155 21.2164L16.2465 21.1834V20.7875L16.7744 20.6555C16.7571 20.4568 16.748 20.352 16.7749 20.2575C16.805 20.1521 16.8799 20.0595 17.0384 19.8636H17.3023V19.5996C17.5888 19.5002 17.7332 19.4501 17.8815 19.4171C18.0321 19.3836 18.1867 19.3677 18.4984 19.3357C18.8042 19.2959 19.1097 19.2529 19.4141 19.2037ZM22.4497 22.2393V21.0514C22.6749 20.9845 22.7916 20.9499 22.9032 20.9622C23.0231 20.9755 23.1371 21.0431 23.3736 21.1834C23.399 21.8201 23.3415 22.3048 23.1096 22.8992L22.9776 22.5033L22.4497 22.2393ZM6.21578 21.8433V21.7114H8.06354V21.8433H6.21578ZM5.02793 22.5033L5.2919 22.2393C5.46803 22.261 5.55385 22.2715 5.63832 22.2888C5.71859 22.3052 5.79764 22.3276 5.95181 22.3713L5.55586 22.6352C5.27174 22.5945 5.27174 22.5945 5.02793 22.5033ZM9.96079 22.858C9.37555 22.8208 9.37555 22.8208 8.85544 22.5033C9.05634 22.3396 9.14576 22.2667 9.2473 22.2401C9.32873 22.2188 9.41796 22.2272 9.57876 22.2424L9.93605 22.2888C10.1479 22.3149 10.3597 22.3419 10.5712 22.3713L10.1753 22.5033V22.7672L9.96079 22.858Z" fill="#CDAA7F"/>
<path fill-rule="evenodd" clip-rule="evenodd" d="M19.546 19.0717L19.4141 19.2037C19.1097 19.2529 18.8042 19.2959 18.4984 19.3357C18.1867 19.3677 18.0321 19.3836 17.8815 19.4171C17.7332 19.4501 17.5888 19.5002 17.3023 19.5996V19.8636H17.0384C16.8799 20.0595 16.805 20.1521 16.7749 20.2575C16.748 20.352 16.7571 20.4568 16.7744 20.6555L16.2465 20.7875V21.1834L16.0155 21.2164C15.6666 21.3327 15.4931 21.519 15.2569 21.7724C15.2354 21.7955 15.2133 21.8191 15.1906 21.8433L14.7947 22.1073V22.3713L14.407 22.429C14.0206 22.4604 14.0206 22.4604 13.8708 22.6352C13.6723 22.6451 13.4735 22.6462 13.2748 22.6435L12.9062 22.6404C12.7404 22.6382 12.5746 22.636 12.4089 22.6338L12.1359 22.6301L11.7652 22.627L11.4264 22.6224C11.085 22.6358 10.772 22.6917 10.4392 22.7672L10.3072 23.2952H10.5712V23.5591C11.0161 23.7569 11.2581 23.8231 11.7591 23.8231V24.0871C12.6853 24.5502 14.0651 24.3793 15.0586 24.219L15.3226 24.0871V23.8231L15.7433 23.7983C16.3345 23.6724 16.5373 23.501 16.9064 23.0312V22.6352H17.1704C17.5696 22.232 17.5696 22.232 17.6983 21.7114L17.9293 21.6124C18.2697 21.4232 18.4983 21.2119 18.7542 20.9195V20.6555H19.0181V20.3915C19.8267 20.2503 20.3581 20.2527 21.1242 20.5514C21.2573 20.6074 21.3244 20.6357 21.3938 20.6555C21.4643 20.6756 21.5372 20.6871 21.6841 20.7101L21.9217 20.7875L22.0537 21.1834V20.7875H22.3177V20.2596L21.864 20.0863L21.3938 19.8636L21.2618 19.4677L19.942 19.3357V19.0717H19.546ZM22.4497 21.0514V22.2393L22.9776 22.5033L23.1096 22.8992C23.3415 22.3048 23.399 21.8201 23.3736 21.1834C23.1371 21.0431 23.0231 20.9755 22.9032 20.9622C22.7916 20.9499 22.6749 20.9845 22.4497 21.0514ZM6.21578 21.7114V21.8433H8.06354V21.7114H6.21578ZM5.2919 22.2393L5.02793 22.5033C5.27174 22.5945 5.27174 22.5945 5.55586 22.6352L5.95181 22.3713C5.79764 22.3276 5.71859 22.3052 5.63832 22.2888C5.55385 22.2715 5.46803 22.261 5.2919 22.2393ZM8.85544 22.5033C9.37555 22.8208 9.37555 22.8208 9.96079 22.858L10.1753 22.7672V22.5033L10.5712 22.3713C10.3597 22.3419 10.1479 22.3149 9.93605 22.2888L9.57876 22.2424C9.41796 22.2272 9.32873 22.2188 9.2473 22.2401C9.14576 22.2667 9.05634 22.3396 8.85544 22.5033Z" fill="#CDAA7F"/>
<path d="M11.4946 5.60939C11.8112 5.68353 12.1307 5.74598 12.4515 5.79912C13.5879 6.00617 14.5749 6.25919 15.3221 7.19319C15.78 7.88398 16.061 8.47448 16.114 9.30491C15.9834 9.39202 15.8527 9.47913 15.7181 9.56888C15.6075 9.33269 15.4976 9.09616 15.3881 8.85947C15.2962 8.66195 15.2962 8.66195 15.2025 8.46043C15.0582 8.11707 15.0582 8.11707 15.0582 7.8531C14.805 7.81227 14.805 7.81227 14.5467 7.77061C13.7397 7.61198 12.9741 7.34633 12.1987 7.07712C11.353 6.78498 10.6237 6.64317 9.7211 6.63226C9.5525 6.62886 9.38389 6.62546 9.21018 6.62195C8.55918 6.67982 8.12511 6.87859 7.65062 7.32517C7.03722 8.30661 6.79299 9.34602 6.74324 10.4928C6.61257 10.4928 6.48191 10.4928 6.34729 10.4928C5.96831 9.23739 5.9332 8.13513 6.47927 6.92922C6.56638 6.92922 6.65349 6.92922 6.74324 6.92922C6.7759 6.85572 6.80857 6.78223 6.84222 6.7065C7.27636 5.90336 7.70219 5.59367 8.56212 5.30934C9.62253 5.06998 10.5645 5.03701 11.4946 5.60939Z" fill="#B78B55"/>
<path d="M8.79767 22.6683C8.94212 22.7479 9.08656 22.8275 9.23538 22.9095C9.62181 23.1475 9.97015 23.3873 10.3072 23.6911C10.3072 23.7782 10.3072 23.8653 10.3072 23.9551C10.2269 23.9577 10.1465 23.9603 10.0637 23.963C7.31746 23.9356 7.31746 23.9356 4.97636 25.1373C4.29162 25.6734 3.40253 26.0924 2.52024 26.1246C2.15248 26.0709 1.90773 26.0021 1.59636 25.8029C1.57986 25.3574 1.57986 25.3574 1.59636 24.879C1.86032 24.615 1.86032 24.615 2.17688 24.4928C2.5328 24.3459 2.71917 24.1902 2.99868 23.9303C4.4116 22.7895 7.15697 21.7462 8.79767 22.6683Z" fill="#B17D42"/>
<path d="M35.5157 20.1275C35.4767 20.3484 35.4313 20.5682 35.3837 20.7874C35.3619 20.9154 35.3401 21.0433 35.3177 21.1751C35.0975 21.6247 34.9757 21.6939 34.5588 21.9423C33.9302 22.3214 33.6649 22.7381 33.3488 23.3915C32.9369 23.9823 32.348 24.1004 31.6727 24.2272C31.4196 24.2697 31.1663 24.3109 30.9128 24.351C30.0222 24.4928 29.2236 24.6665 28.3886 25.0109C27.1188 25.4922 26.2429 25.4455 24.957 25.0109C24.957 24.9673 24.957 24.9238 24.957 24.8789C25.1503 24.8332 25.1503 24.8332 25.3476 24.7866C25.8372 24.6701 26.326 24.5502 26.8147 24.4294C27.024 24.3781 27.2337 24.3276 27.4435 24.2782C30.0321 23.6667 32.0371 22.6303 33.8844 20.6864C34.4242 20.1752 34.7769 19.8953 35.5157 20.1275Z" fill="#BE8F57"/>
<path d="M21.0142 20.5309C21.6175 20.774 21.7885 21.1437 22.0536 21.7105C22.2254 21.9771 22.402 22.2408 22.5815 22.5024C22.6542 22.6094 22.7268 22.7164 22.8017 22.8267C22.9213 23.001 22.9213 23.001 23.0435 23.1788C23.1183 23.288 23.1932 23.3972 23.2703 23.5098C23.7204 24.1079 24.1423 24.4357 24.8252 24.7461C24.8252 24.7896 24.8252 24.8332 24.8252 24.8781C23.7286 24.8604 23.1711 24.4787 22.3175 23.8222C22.1645 23.7272 22.0107 23.6334 21.8556 23.5417C21.4871 23.2654 21.3835 23.0728 21.2617 22.6343C21.1746 22.6343 21.0875 22.6343 20.9977 22.6343C20.9106 22.5037 20.8235 22.373 20.7338 22.2384C19.875 22.1464 19.1666 22.356 18.3581 22.6343C18.3581 22.7215 18.3581 22.8086 18.3581 22.8983C17.5992 23.2943 17.5992 23.2943 17.3022 23.2943C17.2586 23.4249 17.2151 23.5556 17.1702 23.6902C17.0831 23.6467 16.996 23.6031 16.9062 23.5582C17.3143 22.6919 17.8681 22.0308 18.622 21.4465C18.8345 21.2092 19.0374 20.9663 19.2381 20.7191C19.7126 20.1889 20.3958 20.3428 21.0142 20.5309Z" fill="#B98A53"/>
<path d="M35.3843 21.8438C35.5534 22.3636 35.4292 22.6718 35.2472 23.1811C34.8007 24.5133 34.5383 25.8575 34.4063 27.2535C34.3224 27.6819 34.2506 27.7725 33.9325 28.0469C33.8114 28.2972 33.8114 28.2972 33.7263 28.5666C33.5968 28.9367 33.4599 29.285 33.2726 29.6307C33.1855 29.6307 33.0984 29.6307 33.0086 29.6307C33.0086 29.7178 33.0086 29.805 33.0086 29.8947C32.9215 29.8947 32.8344 29.8947 32.7447 29.8947C32.6576 30.0689 32.5705 30.2431 32.4807 30.4226C32.3936 30.4226 32.3065 30.4226 32.2167 30.4226C32.2167 30.5097 32.2167 30.5969 32.2167 30.6866C30.6704 31.7335 28.889 31.6485 27.0942 31.627C26.8985 31.6257 26.7028 31.6244 26.5072 31.6234C26.0347 31.6205 25.5622 31.616 25.0897 31.6105C25.0461 31.6976 25.0026 31.7847 24.9577 31.8744C24.3995 31.8783 23.8413 31.8806 23.2831 31.8827C23.125 31.8838 22.9669 31.8849 22.8039 31.886C22.6512 31.8865 22.4985 31.8869 22.3412 31.8873C22.2009 31.888 22.0606 31.8887 21.916 31.8894C21.5507 31.8754 21.2215 31.8255 20.8662 31.7425C20.8662 31.6989 20.8662 31.6554 20.8662 31.6105C21.0459 31.6066 21.0459 31.6066 21.2292 31.6026C21.6764 31.5922 22.1236 31.5808 22.5708 31.5686C22.7638 31.5636 22.9568 31.559 23.1499 31.5548C23.4284 31.5487 23.7069 31.5411 23.9853 31.5331C24.1526 31.529 24.3199 31.5249 24.4922 31.5206C24.9543 31.4968 24.9543 31.4968 25.3604 31.3441C25.8024 31.197 26.1484 31.1884 26.6131 31.198C26.7767 31.2001 26.9403 31.2021 27.1088 31.2042C27.4484 31.211 27.788 31.2179 28.1276 31.2248C29.597 31.2474 29.597 31.2474 31.0289 30.9506C31.294 30.6374 31.294 30.6374 31.4248 30.2907C31.7136 30.1174 31.7136 30.1174 31.9528 30.0267C31.9528 29.9396 31.9528 29.8525 31.9528 29.7627C32.0535 29.7056 32.1542 29.6484 32.258 29.5895C32.8979 29.1877 33.0511 28.6089 33.2726 27.915C33.3606 27.739 33.4486 27.563 33.5366 27.387C33.5857 27.2124 33.6298 27.0363 33.6685 26.8591C33.6966 26.7478 33.6966 26.7478 33.7253 26.6343C33.8238 26.2374 33.9151 25.8389 34.0068 25.4403C34.0423 25.2858 34.0779 25.1313 34.1145 24.9722C34.1416 24.8544 34.1686 24.7367 34.1965 24.6154C34.2836 24.6154 34.3707 24.6154 34.4604 24.6154C34.4741 24.5065 34.4877 24.3976 34.5017 24.2854C34.67 23.4286 35.0356 22.6409 35.3843 21.8438Z" fill="#C8B18E"/>
<path d="M11.1922 5.40531C11.2921 5.47268 11.3919 5.54006 11.4948 5.60947C11.7568 5.70337 12.0204 5.79292 12.2867 5.87344C12.1561 6.0041 12.0254 6.13476 11.8908 6.26939C11.9561 6.40005 11.9561 6.40005 12.0228 6.53335C11.8165 6.62409 11.8165 6.62409 11.4948 6.66533C11.2948 6.56734 11.2948 6.56734 11.0906 6.46736C10.4955 6.20051 9.96279 6.25259 9.32537 6.31063C9.16166 6.32275 9.16166 6.32275 8.99464 6.33512C8.72802 6.35515 8.46162 6.37798 8.19527 6.40137C8.15172 6.53203 8.10816 6.66269 8.06329 6.79732C7.95984 6.83543 7.8564 6.87354 7.74983 6.9128C7.31306 7.09999 7.24337 7.32112 7.00742 7.7212C6.71871 7.82843 6.71871 7.82843 6.47949 7.85318C6.47949 7.5483 6.47949 7.24342 6.47949 6.9293C6.5666 6.9293 6.65371 6.9293 6.74346 6.9293C6.77612 6.8558 6.80879 6.7823 6.84245 6.70658C7.27658 5.90343 7.70241 5.59375 8.56235 5.30942C9.40295 5.11967 10.4118 4.98641 11.1922 5.40531Z" fill="#B48248"/>
<path d="M20.3374 21.4473C20.4245 21.4908 20.5116 21.5344 20.6014 21.5792C20.8042 21.6089 21.0078 21.6331 21.2118 21.6535C21.3197 21.6645 21.4275 21.6756 21.5387 21.687C21.6213 21.695 21.704 21.703 21.7892 21.7112C21.8328 21.929 21.8763 22.1468 21.9212 22.3711C22.0204 22.3798 22.1196 22.3885 22.2218 22.3974C22.6937 22.5362 22.792 22.7274 23.0513 23.1383C23.5475 23.9142 23.978 24.3619 24.8248 24.7468C24.8248 24.7904 24.8248 24.8339 24.8248 24.8788C23.7282 24.8611 23.1707 24.4794 22.3171 23.823C22.1641 23.728 22.0103 23.6342 21.8552 23.5425C21.4867 23.2661 21.3831 23.0736 21.2613 22.6351C21.1742 22.6351 21.0871 22.6351 20.9973 22.6351C20.9102 22.5044 20.8231 22.3738 20.7334 22.2392C20.3511 22.191 20.3511 22.191 19.925 22.2144C19.7803 22.218 19.6357 22.2216 19.4867 22.2252C19.3198 22.2321 19.3198 22.2321 19.1496 22.2392C19.106 22.0649 19.0625 21.8907 19.0176 21.7112C19.4096 21.7548 19.8016 21.7983 20.2054 21.8432C20.249 21.7126 20.2925 21.5819 20.3374 21.4473Z" fill="#B28248"/>
<path d="M35.5156 20.127C35.4767 20.3479 35.4313 20.5677 35.3837 20.7869C35.3619 20.9148 35.3401 21.0427 35.3177 21.1746C35.0975 21.6241 34.9757 21.6934 34.5588 21.9417C33.9226 22.3255 33.6734 22.7569 33.3245 23.3987C33.0063 23.9019 32.5973 24.0269 32.0418 24.1596C31.6614 24.2229 31.3063 24.2313 30.921 24.2267C30.7278 24.2249 30.7278 24.2249 30.5307 24.2231C30.385 24.2208 30.385 24.2208 30.2363 24.2184C30.2363 24.1749 30.2363 24.1313 30.2363 24.0864C30.3746 24.0624 30.513 24.0385 30.6555 24.0137C30.8375 23.9803 31.0195 23.9468 31.2015 23.9132C31.2926 23.8976 31.3837 23.8821 31.4775 23.866C32.1424 23.7447 32.1424 23.7447 32.612 23.2945C32.7063 23.0169 32.7063 23.0169 32.744 22.7666C32.8311 22.7666 32.9182 22.7666 33.008 22.7666C32.9916 22.6468 32.9753 22.5271 32.9585 22.4037C32.983 22.1913 32.983 22.1913 33.008 21.9747C33.3709 21.7107 33.3709 21.7107 33.7999 21.4468C33.9387 21.2385 33.9387 21.2385 34.0803 21.0261C34.3278 20.6549 34.3278 20.6549 34.6248 20.5394C34.701 20.534 34.7772 20.5285 34.8557 20.5229C34.8557 20.4358 34.8557 20.3487 34.8557 20.2589C35.1197 20.127 35.1197 20.127 35.5156 20.127Z" fill="#BD8A4D"/>
<path d="M10.8346 6.2696C10.8346 6.31316 10.8346 6.35671 10.8346 6.40159C10.6914 6.41605 10.5481 6.43051 10.4005 6.44541C10.2098 6.46647 10.019 6.48761 9.82826 6.50882C9.73417 6.51809 9.64009 6.52737 9.54315 6.53692C8.80137 6.62199 8.20868 6.80015 7.65054 7.32547C7.03714 8.3069 6.79291 9.34632 6.74316 10.4931C6.61249 10.4931 6.48183 10.4931 6.34721 10.4931C6.02651 9.43073 5.8766 8.36191 6.34721 7.32547C6.47787 7.45613 6.60853 7.58679 6.74316 7.72141C7.14914 7.50312 7.14914 7.50312 7.25459 7.18523C7.40307 6.92952 7.40307 6.92952 7.74953 6.83053C7.90469 6.8142 7.90469 6.8142 8.06298 6.79753C8.10654 6.62332 8.15009 6.4491 8.19497 6.2696C9.99432 6.09373 9.99432 6.09373 10.8346 6.2696Z" fill="#B08858"/>
<path d="M33.4043 8.90852C33.535 8.99563 33.6656 9.08274 33.8003 9.17248C33.8003 9.25959 33.8003 9.3467 33.8003 9.43645C33.8874 9.43645 33.9745 9.43645 34.0642 9.43645C34.0642 9.69778 34.0642 9.9591 34.0642 10.2283C33.9336 10.2719 33.8029 10.3155 33.6683 10.3603C33.5866 10.2759 33.5049 10.1916 33.4208 10.1046C33.0337 9.72886 32.8244 9.68003 32.2989 9.67567C32.1972 9.6738 32.0955 9.67193 31.9906 9.67C31.6578 9.70351 31.4546 9.81132 31.1606 9.96438C31.0299 9.96438 30.8993 9.96438 30.7646 9.96438C30.7646 9.70306 30.7646 9.44173 30.7646 9.17248C31.6687 8.83204 32.4508 8.67584 33.4043 8.90852Z" fill="#BD8F59"/>
<path d="M28.5205 6.00563C28.6507 6.02707 28.7808 6.04851 28.9149 6.0706C29.4533 6.14729 29.9819 6.15717 30.525 6.15412C30.6171 6.15463 30.7093 6.15514 30.8042 6.15566C31.2555 6.1548 31.6496 6.11876 32.084 6.00563C33.6447 5.88261 34.9141 5.9912 36.1951 6.98932C37.1822 7.83779 37.1822 7.83779 37.3634 8.38133C37.102 8.33777 36.8407 8.29422 36.5715 8.24934C36.5715 8.11868 36.5715 7.98802 36.5715 7.85339C36.0875 7.20262 35.5285 7.02286 34.767 6.78361C34.4597 6.66555 34.4597 6.66555 34.3278 6.40158C34.1706 6.40227 34.0134 6.40297 33.8515 6.40368C33.2681 6.40607 32.6846 6.40758 32.1012 6.40883C31.8487 6.4095 31.5963 6.4104 31.3438 6.41154C30.9808 6.41314 30.6178 6.41389 30.2548 6.41447C30.1421 6.41515 30.0293 6.41583 29.9132 6.41654C29.7547 6.41655 29.7547 6.41655 29.593 6.41657C29.5004 6.41686 29.4078 6.41715 29.3123 6.41745C29.0345 6.40074 28.7879 6.34525 28.5205 6.2696C28.5205 6.18249 28.5205 6.09538 28.5205 6.00563Z" fill="#CBB597"/>
<path d="M20.3374 21.4473C20.4245 21.4908 20.5116 21.5344 20.6014 21.5792C20.8042 21.6089 21.0078 21.6331 21.2118 21.6535C21.3197 21.6645 21.4275 21.6756 21.5387 21.687C21.6213 21.695 21.704 21.703 21.7892 21.7112C21.8557 21.9035 21.9216 22.0961 21.9872 22.2887C22.0239 22.3958 22.0607 22.503 22.0986 22.6135C22.1852 22.8991 22.1852 22.8991 22.1852 23.163C21.9674 23.163 21.7496 23.163 21.5253 23.163C21.4381 22.9888 21.351 22.8146 21.2613 22.6351C21.1742 22.6351 21.0871 22.6351 20.9973 22.6351C20.9102 22.5044 20.8231 22.3738 20.7334 22.2392C20.3511 22.191 20.3511 22.191 19.925 22.2144C19.7803 22.218 19.6357 22.2216 19.4867 22.2252C19.3198 22.2321 19.3198 22.2321 19.1496 22.2392C19.106 22.0649 19.0625 21.8907 19.0176 21.7112C19.4096 21.7548 19.8016 21.7983 20.2054 21.8432C20.249 21.7126 20.2925 21.5819 20.3374 21.4473Z" fill="#B48044"/>
<path d="M20.8662 20.7878C21.2621 20.9528 21.2621 20.9528 21.5261 21.1838C21.5261 21.358 21.5261 21.5322 21.5261 21.7117C20.6352 21.7282 20.6352 21.7282 20.3382 21.5797C20.2947 21.6669 20.2511 21.754 20.2063 21.8437C19.4474 21.8602 19.4474 21.8602 19.1504 21.7117C19.1966 21.3766 19.2613 21.2074 19.4886 20.9528C19.9451 20.7187 20.369 20.715 20.8662 20.7878Z" fill="#BF8D52"/>
<path d="M35.2517 21.448C35.1656 21.4994 35.0795 21.5507 34.9908 21.6037C34.1912 22.1155 33.7678 22.5731 33.3199 23.4045C33.0056 23.9062 32.5933 24.029 32.0418 24.1609C31.6614 24.2241 31.3063 24.2325 30.921 24.2279C30.7278 24.2261 30.7278 24.2261 30.5307 24.2243C30.385 24.222 30.385 24.222 30.2363 24.2196C30.2363 24.1761 30.2363 24.1325 30.2363 24.0876C30.3746 24.0637 30.513 24.0397 30.6555 24.015C30.8375 23.9815 31.0195 23.948 31.2015 23.9144C31.2926 23.8988 31.3837 23.8833 31.4775 23.8672C32.1407 23.7432 32.1407 23.7432 32.612 23.2957C32.6991 23.1651 32.7862 23.0344 32.876 22.8998C33.0066 22.8562 33.1373 22.8127 33.2719 22.7678C33.3155 22.6372 33.359 22.5065 33.4039 22.3719C33.491 22.3719 33.5781 22.3719 33.6679 22.3719C33.6679 22.2848 33.6679 22.1976 33.6679 22.1079C33.755 22.1079 33.8421 22.1079 33.9318 22.1079C33.9754 21.9772 34.019 21.8466 34.0638 21.712C34.7644 21.2855 34.7644 21.2855 35.2517 21.448Z" fill="#B3844A"/>
<path d="M34.8563 19.9961C34.9434 20.0832 35.0305 20.1703 35.1202 20.2601C35.0331 20.2601 34.946 20.2601 34.8563 20.2601C34.8563 20.3472 34.8563 20.4343 34.8563 20.524C34.7338 20.5404 34.7338 20.5404 34.6088 20.557C34.3106 20.6268 34.3106 20.6268 34.2046 20.887C34.1352 21.034 34.1352 21.034 34.0644 21.1839C33.4177 21.9157 33.4177 21.9157 32.8765 21.9758C32.8765 22.0629 32.8765 22.1501 32.8765 22.2398C32.7023 22.2834 32.5281 22.3269 32.3486 22.3718C32.305 22.5896 32.2615 22.8073 32.2166 23.0317C32.0968 23.048 31.9771 23.0644 31.8537 23.0812C31.4789 23.1533 31.2233 23.2393 30.8968 23.4276C30.8097 23.3405 30.7226 23.2534 30.6328 23.1637C30.7223 23.1203 30.8118 23.0769 30.904 23.0322C31.8769 22.535 32.6177 21.9353 33.4045 21.1839C33.6235 20.985 33.8435 20.7869 34.0644 20.59C34.2073 20.4614 34.2073 20.4614 34.3531 20.3302C34.5923 20.1281 34.5923 20.1281 34.8563 19.9961Z" fill="#B38E5D"/>
<path d="M38.6832 14.4531C38.7268 14.4531 38.7703 14.4531 38.8152 14.4531C38.8152 14.8016 38.8152 15.15 38.8152 15.509C38.3387 15.6588 37.8934 15.6542 37.3964 15.6492C37.2419 15.648 37.0874 15.6468 36.9283 15.6456C36.8105 15.6441 36.6928 15.6425 36.5715 15.641C36.5337 15.7436 36.4959 15.8462 36.457 15.9519C36.291 16.3395 36.0905 16.549 35.7796 16.8288C35.6925 16.7853 35.6054 16.7417 35.5156 16.6968C35.6723 15.9705 35.8269 15.5888 36.4395 15.113C36.8097 15.0359 37.1606 15.05 37.5366 15.0718C37.6344 15.0748 37.7321 15.0777 37.8328 15.0808C38.0724 15.0885 38.3118 15.1004 38.5512 15.113C38.5948 14.8953 38.6383 14.6775 38.6832 14.4531Z" fill="#E3D5BE"/>
<path d="M35.9117 19.8635C36.0784 20.4301 35.9948 20.7713 35.7797 21.3153C35.6926 21.3153 35.6055 21.3153 35.5158 21.3153C35.5021 21.4242 35.4885 21.5331 35.4745 21.6453C35.3684 22.1855 35.1906 22.6517 34.9878 23.1631C34.7239 22.8991 34.7239 22.8991 34.6826 22.5774C34.7239 22.2392 34.7239 22.2392 34.9136 22.066C35.1988 21.7579 35.1829 21.4576 35.2188 21.0524C35.2607 20.7161 35.3725 20.4331 35.5158 20.1275C35.3415 20.1275 35.1673 20.1275 34.9878 20.1275C34.9878 20.0404 34.9878 19.9532 34.9878 19.8635C35.3398 19.6875 35.5378 19.7749 35.9117 19.8635Z" fill="#C7AB85"/>
<path d="M21.0143 20.5314C21.629 20.779 21.7871 21.1166 22.0536 21.711C22.1464 21.929 22.2366 22.1483 22.3176 22.3709C22.1869 22.3709 22.0563 22.3709 21.9216 22.3709C21.9053 22.2866 21.889 22.2022 21.8721 22.1152C21.8449 22.0254 21.8177 21.9356 21.7897 21.843C21.7025 21.7995 21.6154 21.7559 21.5257 21.711C21.5094 21.6266 21.493 21.5423 21.4762 21.4553C21.418 21.1706 21.418 21.1706 21.1875 21.0181C20.7216 20.8748 20.2871 20.8235 19.8099 20.9191C19.5165 21.1134 19.2799 21.3416 19.018 21.579C18.8874 21.5355 18.7567 21.4919 18.6221 21.4471C18.748 21.2954 18.8746 21.1443 19.0015 20.9934C19.072 20.9092 19.1424 20.8249 19.215 20.7382C19.7116 20.2016 20.3695 20.3354 21.0143 20.5314Z" fill="#BA976D"/>
<path d="M32.2579 9.53613C32.6529 9.54116 32.8549 9.55855 33.2148 9.73411C33.4045 9.96508 33.4045 9.96508 33.4045 10.493C32.6894 10.5228 32.1144 10.4226 31.4248 10.229C31.5625 9.61909 31.628 9.54851 32.2579 9.53613Z" fill="#F8EEDA"/>
<path d="M1.72833 4.68555C1.90255 4.68555 2.07676 4.68555 2.25626 4.68555C2.06868 5.18575 1.83828 5.64792 1.58346 6.11622C1.27197 6.86189 1.29473 7.69993 1.25814 8.49655C1.25244 8.61258 1.24674 8.72861 1.24087 8.84816C1.22697 9.13239 1.21363 9.41664 1.2004 9.7009C1.15684 9.7009 1.11329 9.7009 1.06841 9.7009C1.06062 9.26646 1.05602 8.83205 1.05192 8.39756C1.04971 8.27643 1.04749 8.15529 1.04521 8.03049C1.03677 6.83132 1.20963 5.7701 1.72833 4.68555Z" fill="#CEB89A"/>
<path d="M18.6221 31.2141C18.9053 31.2105 19.1885 31.2079 19.4717 31.2058C19.6294 31.2043 19.7871 31.2027 19.9496 31.2012C20.3378 31.2141 20.3378 31.2141 20.4698 31.346C20.8023 31.3671 21.1315 31.3803 21.4643 31.3878C21.6135 31.3919 21.6135 31.3919 21.7656 31.3961C22.0843 31.4048 22.403 31.4125 22.7218 31.4203C22.9374 31.426 23.153 31.4317 23.3686 31.4376C23.8981 31.4517 24.4277 31.4651 24.9572 31.478C24.9572 31.5216 24.9572 31.5651 24.9572 31.61C23.128 31.61 21.2987 31.61 19.414 31.61C19.414 31.5229 19.414 31.4358 19.414 31.346C19.1526 31.346 18.8913 31.346 18.6221 31.346C18.6221 31.3025 18.6221 31.2589 18.6221 31.2141Z" fill="#D1B99C"/>
<path d="M30.7641 30.8188C30.8512 30.9059 30.9383 30.993 31.028 31.0828C29.9018 31.3488 28.8551 31.3593 27.7037 31.2972C27.4586 31.286 27.4586 31.286 27.2085 31.2745C26.8098 31.2561 26.4113 31.2361 26.0127 31.2147C26.0127 31.1712 26.0127 31.1276 26.0127 31.0828C26.1052 31.0795 26.1977 31.0761 26.293 31.0727C26.7138 31.0574 27.1345 31.0412 27.5552 31.025C27.7736 31.0172 27.7736 31.0172 27.9963 31.0093C28.2075 31.001 28.2075 31.001 28.4229 30.9925C28.6168 30.9853 28.6168 30.9853 28.8146 30.9779C29.4825 30.9284 30.0854 30.7804 30.7641 30.8188Z" fill="#CCB798"/>
<path d="M6.34775 8.38086C6.43486 8.38086 6.52197 8.38086 6.61172 8.38086C6.76228 8.83255 6.75666 9.1842 6.75195 9.65944C6.75076 9.81512 6.74957 9.97079 6.74834 10.1312C6.74681 10.2504 6.74528 10.3697 6.7437 10.4926C6.61304 10.4926 6.48238 10.4926 6.34775 10.4926C6.21814 10.0595 6.19807 9.66508 6.19927 9.214C6.19893 9.08555 6.19859 8.9571 6.19824 8.82475C6.21577 8.51284 6.21577 8.51284 6.34775 8.38086Z" fill="#AD844E"/>
<path d="M9.11914 6.53278C10.3277 6.45439 11.2821 6.66579 12.4187 7.06071C12.674 7.13904 12.9297 7.21617 13.1859 7.29168C13.3464 7.33966 13.3464 7.33966 13.5101 7.38861C13.5855 7.41106 13.6609 7.43352 13.7385 7.45666C13.7385 7.50021 13.7385 7.54377 13.7385 7.58864C12.8552 7.54232 12.158 7.45047 11.3628 7.06071C10.6309 6.76128 9.90055 6.7176 9.11914 6.66476C9.11914 6.62121 9.11914 6.57765 9.11914 6.53278Z" fill="#FBF1DD"/>
<path d="M8.72349 22.6349C8.63639 22.722 8.54928 22.8091 8.45953 22.8989C8.37242 22.8553 8.28531 22.8118 8.19556 22.7669C8.19556 22.854 8.19556 22.9411 8.19556 23.0308C8.02135 23.0308 7.84713 23.0308 7.66763 23.0308C7.58597 22.9329 7.58597 22.9329 7.50265 22.8329C7.11887 22.5039 6.70704 22.6107 6.21582 22.6349C6.91344 21.9373 7.9544 22.1954 8.72349 22.6349Z" fill="#B68F64"/>
<path d="M24.0332 21.5801C24.1639 21.5801 24.2945 21.5801 24.4292 21.5801C24.5163 21.885 24.6034 22.1898 24.6931 22.504C24.8673 22.5475 25.0416 22.5911 25.221 22.6359C25.2564 22.5298 25.2918 22.4236 25.3283 22.3142C25.38 22.2026 25.4317 22.091 25.485 21.976C25.6157 21.9325 25.7463 21.8889 25.881 21.844C25.7325 22.2363 25.5876 22.5481 25.353 22.8999C24.9736 22.9741 24.9736 22.9741 24.5611 22.8999C24.1523 22.4266 24.0332 22.2122 24.0332 21.5801Z" fill="#C3AA87"/>
<path d="M26.0235 30.9378C26.1766 30.9382 26.3297 30.9386 26.4875 30.9391C26.7264 30.9407 26.7264 30.9407 26.9701 30.9424C27.212 30.9433 27.212 30.9433 27.4588 30.9442C27.8568 30.9458 28.2548 30.9479 28.6528 30.9507C28.6528 30.9942 28.6528 31.0378 28.6528 31.0826C28.5381 31.0866 28.5381 31.0866 28.421 31.0906C28.072 31.1032 27.7232 31.1176 27.3743 31.1321C27.2539 31.1362 27.1335 31.1403 27.0095 31.1445C26.3997 31.1711 25.9122 31.212 25.3533 31.4786C24.9821 31.4951 24.9821 31.4951 24.6934 31.4786C24.6934 31.3479 24.6934 31.2173 24.6934 31.0826C25.1435 30.9454 25.5542 30.9355 26.0235 30.9378Z" fill="#C0A683"/>
<path d="M16.6421 22.8984C16.7292 22.942 16.8163 22.9855 16.906 23.0304C16.7001 23.5864 16.3141 23.8679 15.8502 24.2183C15.3802 24.3749 15.0004 24.363 14.5056 24.3585C14.3377 24.3573 14.1697 24.3561 13.9967 24.3549C13.8035 24.3526 13.8035 24.3526 13.6064 24.3502C13.6064 24.3067 13.6064 24.2631 13.6064 24.2183C14.4558 24.1529 14.4558 24.1529 15.3222 24.0863C15.3222 23.9992 15.3222 23.9121 15.3222 23.8223C15.4665 23.7924 15.6108 23.7624 15.7594 23.7316C16.2626 23.6036 16.2626 23.6036 16.5018 23.2119C16.5712 23.0567 16.5712 23.0567 16.6421 22.8984Z" fill="#FBF7E9"/>
<path d="M23.1094 23.4277C23.4143 23.4277 23.7191 23.4277 24.0333 23.4277C24.0333 23.5584 24.0333 23.6891 24.0333 23.8237C24.1204 23.8237 24.2075 23.8237 24.2972 23.8237C24.2972 23.9543 24.2972 24.085 24.2972 24.2196C24.6239 24.3503 24.6239 24.3503 24.9571 24.4836C24.9571 24.5707 24.9571 24.6578 24.9571 24.7476C24.108 24.5916 23.6563 24.223 23.1094 23.5597C23.1094 23.5162 23.1094 23.4726 23.1094 23.4277Z" fill="#F4EBDB"/>
<path d="M15.1906 7.85352C15.2341 7.94062 15.2777 8.02773 15.3226 8.11748C15.4532 8.07393 15.5839 8.03037 15.7185 7.9855C16.1213 8.82322 16.1213 8.82322 16.0897 9.22284C15.9825 9.43731 15.9825 9.43731 15.7185 9.56929C15.5007 9.04664 15.283 8.52399 15.0586 7.9855C15.1021 7.94194 15.1457 7.89839 15.1906 7.85352Z" fill="#BB9567"/>
<path d="M26.3841 24.7389C26.5129 24.7401 26.6417 24.7413 26.7744 24.7426C26.8715 24.7441 26.9687 24.7456 27.0688 24.7472C27.0688 24.8779 27.0688 25.0085 27.0688 25.1431C26.6728 25.4071 26.6728 25.4071 26.3929 25.3844C26.292 25.3592 26.1911 25.3341 26.0871 25.3081C25.9866 25.2843 25.886 25.2605 25.7824 25.2359C25.4872 25.1438 25.229 25.0254 24.957 24.8792C25.4419 24.7666 25.8868 24.733 26.3841 24.7389Z" fill="#B78853"/>
<path d="M30.5248 24.3335C30.7739 24.3417 30.7739 24.3417 31.028 24.35C31.0715 24.4807 31.1151 24.6114 31.16 24.746C30.896 25.01 30.896 25.01 30.6393 25.0357C30.3729 25.0271 30.1065 25.0185 29.8401 25.01C29.8401 24.9228 29.8401 24.8357 29.8401 24.746C29.753 24.7024 29.6659 24.6589 29.5762 24.614C29.9839 24.3422 30.0657 24.3185 30.5248 24.3335Z" fill="#D4AE84"/>
<path d="M19.5459 20.127C20.4523 20.1866 21.1097 20.3809 21.9216 20.7869C21.9753 21.0933 22.0198 21.4015 22.0536 21.7107C21.5256 21.0838 21.5256 21.0838 21.5256 20.7869C21.3759 20.7678 21.2262 20.7488 21.072 20.7291C20.6018 20.6549 20.6018 20.6549 20.4698 20.5229C20.1619 20.5175 19.8538 20.5173 19.5459 20.5229C19.5459 20.3922 19.5459 20.2616 19.5459 20.127Z" fill="#F5E7D2"/>
<path d="M34.7244 23.6914C34.8768 24.1384 34.8337 24.3949 34.6831 24.838C34.4807 25.463 34.3312 26.0841 34.1964 26.727C34.0429 26.2585 34.0745 25.8614 34.1222 25.3742C34.1356 25.232 34.1491 25.0897 34.1629 24.9432C34.174 24.835 34.185 24.7268 34.1964 24.6153C34.2835 24.6153 34.3707 24.6153 34.4604 24.6153C34.4795 24.4873 34.4985 24.3594 34.5181 24.2276C34.5924 23.8234 34.5924 23.8234 34.7244 23.6914Z" fill="#CBB798"/>
<path d="M35.3836 16.8281C35.4272 16.9588 35.4707 17.0895 35.5156 17.2241C35.1046 17.6703 34.7843 17.9776 34.1958 18.148C34.0651 18.148 33.9344 18.148 33.7998 18.148C33.9518 17.8222 34.0701 17.6137 34.3277 17.3561C34.4339 17.3615 34.5401 17.3669 34.6494 17.3726C34.8169 17.3644 34.8169 17.3644 34.9877 17.3561C35.2309 17.1052 35.2309 17.1052 35.3836 16.8281Z" fill="#DCCCB3"/>
<path d="M28.9172 17.0918C28.9172 17.1789 28.9172 17.266 28.9172 17.3558C29.2656 17.3993 29.6141 17.4429 29.9731 17.4877C29.9731 17.6184 29.9731 17.7491 29.9731 17.8837C29.8744 17.8631 29.7757 17.8425 29.674 17.8213C29.544 17.7956 29.4141 17.7699 29.2801 17.7435C29.1515 17.7174 29.0229 17.6914 28.8904 17.6646C28.5386 17.6218 28.3248 17.6389 27.9933 17.7517C27.9498 17.621 27.9062 17.4904 27.8613 17.3558C28.2689 17.1229 28.42 17.0918 28.9172 17.0918Z" fill="#CBB390"/>
<path d="M38.1557 11.5488C38.1992 11.5488 38.2428 11.5488 38.2877 11.5488C38.2941 11.662 38.3006 11.7751 38.3072 11.8917C38.3552 12.8469 38.3552 12.8469 38.5599 13.776C38.6985 14.2382 38.7032 14.6325 38.6836 15.1124C38.5965 15.1559 38.5094 15.1995 38.4196 15.2443C38.3756 14.9364 38.3316 14.6284 38.2877 14.3205C38.2632 14.1871 38.2387 14.0537 38.2134 13.9163C38.1258 13.128 38.1458 12.3411 38.1557 11.5488Z" fill="#D0BFA1"/>
<path d="M8.45898 11.417C9.05992 11.4986 9.55241 11.7427 10.084 12.0192C10.2118 12.0844 10.2118 12.0844 10.3421 12.1509C10.5506 12.2575 10.7587 12.3651 10.9667 12.4729C10.7274 12.5553 10.7274 12.5553 10.4387 12.6048C10.3081 12.5177 10.1774 12.4306 10.0428 12.3409C9.82428 12.2901 9.6043 12.2448 9.38286 12.2089C9.38286 12.1218 9.38286 12.0347 9.38286 11.9449C9.27942 11.9313 9.17598 11.9177 9.06941 11.9037C8.72295 11.8129 8.72295 11.8129 8.45898 11.417Z" fill="#C2AA89"/>
<path d="M37.3631 8.5127C37.8672 9.10842 38.0689 9.71341 38.0231 10.4924C37.8924 10.4489 37.7617 10.4053 37.6271 10.3605C37.4226 9.7255 37.3296 9.18317 37.3631 8.5127Z" fill="#CDB899"/>
<path d="M30.7646 9.17285C30.8953 9.21641 31.026 9.25996 31.1606 9.30483C31.4993 9.33482 31.8359 9.35975 32.1752 9.37907C32.3142 9.38762 32.3142 9.38762 32.4559 9.39635C32.684 9.41031 32.9122 9.42363 33.1403 9.43682C33.1403 9.52393 33.1403 9.61103 33.1403 9.70078C32.9923 9.69619 32.9923 9.69619 32.8413 9.6915C32.7113 9.68912 32.5814 9.68674 32.4474 9.68429C32.3188 9.68122 32.1902 9.67816 32.0577 9.67501C31.6804 9.70135 31.4872 9.78749 31.1606 9.96475C31.0299 9.96475 30.8993 9.96475 30.7646 9.96475C30.7646 9.70342 30.7646 9.4421 30.7646 9.17285Z" fill="#B79365"/>
<path d="M1.86032 24.6152C2.14079 24.6647 2.14079 24.6647 2.38825 24.7472C2.25759 24.965 2.12693 25.1828 1.99231 25.4071C2.16652 25.5813 2.34074 25.7556 2.52024 25.9351C2.21536 25.8915 1.91048 25.848 1.59636 25.8031C1.57986 25.3576 1.57986 25.3576 1.59636 24.8792C1.68347 24.7921 1.77058 24.705 1.86032 24.6152Z" fill="#AA814B"/>
<path d="M30.6325 23.2949C30.5005 23.6909 30.5005 23.6909 30.1045 23.9548C30.1045 24.0419 30.1045 24.1291 30.1045 24.2188C29.7911 24.4415 29.7911 24.4415 29.4446 24.6148C29.3575 24.5712 29.2704 24.5276 29.1807 24.4828C29.2242 24.3521 29.2678 24.2214 29.3126 24.0868C29.2691 23.9997 29.2255 23.9126 29.1807 23.8229C29.3729 23.7343 29.5654 23.6464 29.7581 23.5589C29.8653 23.5099 29.9725 23.4609 30.0829 23.4104C30.3685 23.2949 30.3685 23.2949 30.6325 23.2949Z" fill="#BE9057"/>
<path d="M1.72813 16.8281C1.77168 16.8281 1.81524 16.8281 1.86011 16.8281C2.05309 17.7126 1.9448 18.2957 1.46416 19.0718C1.37705 19.1154 1.28994 19.1589 1.2002 19.2038C1.29101 18.3865 1.50118 17.6174 1.72813 16.8281Z" fill="#C5AF8D"/>
<path d="M32.2166 22.2402C32.3651 22.7352 32.3651 22.7352 32.2166 23.0321C31.9531 23.079 31.6891 23.1226 31.4247 23.1641C31.1232 23.2926 31.1232 23.2926 30.8968 23.4281C30.8097 23.341 30.7226 23.2539 30.6328 23.1641C30.7361 23.1085 30.8394 23.0528 30.9458 22.9955C31.0793 22.9232 31.2129 22.8509 31.3505 22.7764C31.4837 22.7044 31.6169 22.6325 31.7542 22.5583C32.067 22.4017 32.067 22.4017 32.2166 22.2402Z" fill="#BC9A6B"/>
<path d="M1.0688 19.8633C1.15591 19.9068 1.24302 19.9504 1.33277 19.9953C1.43175 20.317 1.43175 20.317 1.46475 20.6552C1.37764 20.7423 1.29053 20.8294 1.20078 20.9191C1.24434 21.0498 1.28789 21.1805 1.33277 21.3151C1.24566 21.4022 1.15855 21.4893 1.0688 21.5791C1.02525 21.4048 0.981691 21.2306 0.936817 21.0511C0.806154 21.1165 0.806154 21.1165 0.672852 21.1831C0.672852 20.9653 0.672852 20.7476 0.672852 20.5232C0.75996 20.5232 0.847069 20.5232 0.936817 20.5232C0.980372 20.3054 1.02393 20.0877 1.0688 19.8633Z" fill="#C7A47B"/>
<path d="M35.3838 21.3145C35.5647 21.8015 35.463 22.0679 35.26 22.5353C35.2099 22.653 35.1597 22.7708 35.108 22.8921C35.0683 22.9812 35.0287 23.0704 34.9878 23.1622C34.7239 22.8982 34.7239 22.8982 34.6826 22.5765C34.731 22.1801 34.828 22.0977 35.1198 21.8424C35.1198 21.7553 35.1198 21.6682 35.1198 21.5784C35.2069 21.5784 35.294 21.5784 35.3838 21.5784C35.3838 21.4913 35.3838 21.4042 35.3838 21.3145Z" fill="#CEB795"/>
<path d="M2.25643 11.2852C2.43065 11.3287 2.60486 11.3723 2.78436 11.4171C2.78436 11.5478 2.78436 11.6785 2.78436 11.8131C2.61014 11.8131 2.43593 11.8131 2.25643 11.8131C2.27821 11.9056 2.29998 11.9982 2.32242 12.0936C2.3916 12.4913 2.39778 12.862 2.38841 13.2649C2.34486 13.2649 2.3013 13.2649 2.25643 13.2649C2.20477 13.0344 2.15579 12.8033 2.10795 12.572C2.08039 12.4434 2.05282 12.3147 2.02443 12.1822C1.98978 11.7821 2.04263 11.6177 2.25643 11.2852Z" fill="#D3B88F"/>
<path d="M33.2726 9.43652C33.5339 9.43652 33.7953 9.43652 34.0645 9.43652C34.0645 9.69785 34.0645 9.95918 34.0645 10.2284C33.9338 10.272 33.8032 10.3155 33.6686 10.3604C33.4943 10.1426 33.3201 9.92486 33.1406 9.70049C33.1842 9.61338 33.2277 9.52627 33.2726 9.43652Z" fill="#BD9665"/>
<path d="M9.11924 6.5332C9.11924 6.62031 9.11924 6.70742 9.11924 6.79717C9.03656 6.8181 8.95387 6.83902 8.86868 6.86058C8.17474 7.0335 8.17474 7.0335 7.72518 7.54782C7.70612 7.64854 7.68707 7.74926 7.66743 7.85303C7.53677 7.80948 7.40611 7.76592 7.27148 7.72105C7.35859 7.59039 7.4457 7.45972 7.53545 7.3251C7.62256 7.3251 7.70967 7.3251 7.79942 7.3251C7.84297 7.19444 7.88652 7.06377 7.9314 6.92915C8.35544 6.68026 8.62382 6.5332 9.11924 6.5332Z" fill="#F3E4CA"/>
<path d="M18.6221 31.2144C18.8997 31.2038 19.1774 31.1961 19.4552 31.1897C19.6099 31.1851 19.7645 31.1805 19.9239 31.1758C20.3378 31.2144 20.3378 31.2144 20.7338 31.6104C20.2983 31.6104 19.8627 31.6104 19.414 31.6104C19.414 31.5233 19.414 31.4362 19.414 31.3464C19.1526 31.3464 18.8913 31.3464 18.6221 31.3464C18.6221 31.3029 18.6221 31.2593 18.6221 31.2144Z" fill="#DFCDB5"/>
<path d="M0.936523 24.3516C1.26318 24.4822 1.26318 24.4822 1.59644 24.6155C1.59644 24.964 1.59644 25.3124 1.59644 25.6714C1.46577 25.6714 1.33511 25.6714 1.20049 25.6714C1.17191 25.455 1.17191 25.455 1.14275 25.2342C1.08396 24.7566 1.08396 24.7566 0.936523 24.3516Z" fill="#F9EBD4"/>
<path d="M15.1904 24.4828C15.1904 24.5699 15.1904 24.6571 15.1904 24.7468C14.7925 24.8794 14.525 24.8924 14.1098 24.887C13.9314 24.8852 13.9314 24.8852 13.7494 24.8834C13.6587 24.8819 13.568 24.8804 13.4746 24.8788C13.4746 24.7917 13.4746 24.7046 13.4746 24.6148C14.0546 24.5017 14.5999 24.471 15.1904 24.4828Z" fill="#B79568"/>
<path d="M5.29204 24.2188C5.42271 24.2623 5.55337 24.3059 5.68799 24.3507C5.50997 24.8848 5.24608 25.0047 4.76411 25.2746C4.63345 25.2311 4.50279 25.1875 4.36816 25.1426C4.44983 25.11 4.53149 25.0773 4.61563 25.0436C4.94495 24.8499 5.01505 24.6965 5.16006 24.3507C5.20362 24.3072 5.24717 24.2636 5.29204 24.2188Z" fill="#A87539"/>
<path d="M35.5158 16.168C35.6029 16.2551 35.69 16.3422 35.7798 16.4319C35.5185 16.7804 35.2571 17.1288 34.9879 17.4878C34.8137 17.4007 34.6395 17.3136 34.46 17.2238C34.7239 16.9599 34.7239 16.9599 35.1199 16.8279C35.3441 16.4982 35.3441 16.4982 35.5158 16.168Z" fill="#CCB493"/>
<path d="M6.74346 10.3604C7.09189 10.5346 7.44033 10.7088 7.79932 10.8883C7.75577 11.0189 7.71221 11.1496 7.66734 11.2842C7.44957 11.2407 7.23179 11.1971 7.00742 11.1522C7.00742 11.0651 7.00742 10.978 7.00742 10.8883C6.83321 10.8012 6.65899 10.7141 6.47949 10.6243C6.5666 10.5372 6.65371 10.4501 6.74346 10.3604Z" fill="#BFA17B"/>
<path d="M26.4089 19.9961C26.5604 20.2168 26.5604 20.2168 26.6728 20.524C26.5543 20.8643 26.5543 20.8643 26.3594 21.2169C26.2958 21.3347 26.2321 21.4524 26.1666 21.5737C26.0905 21.7074 26.0905 21.7074 26.0129 21.8439C25.832 21.3568 25.9337 21.0904 26.1367 20.623C26.1869 20.5053 26.237 20.3875 26.2888 20.2662C26.3284 20.1771 26.368 20.0879 26.4089 19.9961Z" fill="#C7AF90"/>
<path d="M37.7847 14.9057C37.9631 14.9258 37.9631 14.9258 38.1451 14.9464C38.2358 14.9574 38.3264 14.9685 38.4199 14.9799C38.4199 15.067 38.4199 15.1541 38.4199 15.2439C38.1835 15.251 37.947 15.2561 37.7105 15.2604C37.5788 15.2634 37.4471 15.2665 37.3114 15.2696C36.9681 15.2439 36.9681 15.2439 36.7041 14.9799C37.1265 14.8391 37.3489 14.8547 37.7847 14.9057Z" fill="#CBB18F"/>
<path d="M33.0078 8.90933C32.9642 8.99644 32.9207 9.08355 32.8758 9.1733C32.3531 9.1733 31.8305 9.1733 31.292 9.1733C31.8169 8.64839 32.3099 8.78855 33.0078 8.90933Z" fill="#B5894F"/>
<path d="M27.6876 5.73259C27.8844 5.77113 27.8844 5.77113 28.0851 5.81044C28.2354 5.84132 28.2354 5.84132 28.3888 5.87282C28.3888 5.91638 28.3888 5.95993 28.3888 6.0048C27.9532 6.0048 27.5177 6.0048 27.0689 6.0048C27.0254 6.09191 26.9818 6.17902 26.937 6.26877C26.8063 6.09455 26.6756 5.92034 26.541 5.74084C26.9997 5.58795 27.219 5.63886 27.6876 5.73259Z" fill="#CDB693"/>
<path d="M29.4447 24.0873C29.3576 24.2615 29.2705 24.4357 29.1807 24.6152C28.8758 24.6152 28.571 24.6152 28.2568 24.6152C28.3004 24.5281 28.3439 24.441 28.3888 24.3512C28.4759 24.3512 28.563 24.3512 28.6528 24.3512C28.6528 24.2641 28.6528 24.177 28.6528 24.0873C29.0487 23.9553 29.0487 23.9553 29.4447 24.0873Z" fill="#B58852"/>
<path d="M0.276294 21.8438C0.319849 21.8438 0.363403 21.8438 0.408277 21.8438C0.413211 21.9455 0.418145 22.0472 0.423228 22.1521C0.431905 22.2844 0.440582 22.4168 0.449522 22.5532C0.457178 22.6848 0.464834 22.8165 0.472722 22.9522C0.495009 23.0655 0.517297 23.1788 0.54026 23.2956C0.670923 23.3827 0.801586 23.4698 0.936208 23.5595C0.936208 23.6902 0.936208 23.8209 0.936208 23.9555C0.805545 23.9555 0.674882 23.9555 0.54026 23.9555C0.257373 23.4966 0.248211 23.1356 0.259796 22.6027C0.262178 22.4604 0.26456 22.3182 0.267014 22.1716C0.270077 22.0634 0.273139 21.9552 0.276294 21.8438Z" fill="#CDB698"/>
<path d="M1.2002 10.0967C1.24375 10.0967 1.2873 10.0967 1.33218 10.0967C1.61088 11.3386 1.61088 11.3386 1.72813 11.9444C1.55391 11.9444 1.37969 11.9444 1.2002 11.9444C1.2002 11.3347 1.2002 10.7249 1.2002 10.0967Z" fill="#F5EAD7"/>
<path d="M17.8301 22.2402C17.8301 22.6631 17.732 22.9126 17.5662 23.2961C17.4791 23.2961 17.3919 23.2961 17.3022 23.2961C17.2586 23.4268 17.2151 23.5574 17.1702 23.692C17.0831 23.6485 16.996 23.6049 16.9062 23.5601C17.1263 23.0399 17.4642 22.664 17.8301 22.2402Z" fill="#AF8D61"/>
<path d="M6.21548 22.6348C6.0835 23.0307 6.0835 23.0307 5.78654 23.1874C5.42386 23.2946 5.13923 23.3161 4.76367 23.2947C4.76367 23.2076 4.76367 23.1205 4.76367 23.0307C4.95598 22.9642 5.14849 22.8984 5.3411 22.8327C5.44828 22.796 5.55547 22.7592 5.6659 22.7214C5.95152 22.6348 5.95152 22.6348 6.21548 22.6348Z" fill="#AF8C60"/>
<path d="M22.0537 22.3711C22.3012 22.4041 22.3012 22.4041 22.5816 22.5031C22.7466 22.7753 22.7466 22.7753 22.8456 23.031C22.7585 23.1181 22.6714 23.2052 22.5816 23.295C22.5816 23.2079 22.5816 23.1208 22.5816 23.031C22.451 23.0746 22.3203 23.1181 22.1857 23.163C22.1421 22.9017 22.0986 22.6403 22.0537 22.3711Z" fill="#B58E58"/>
<path d="M16.7743 19.3359C16.905 19.3359 17.0356 19.3359 17.1703 19.3359C16.9502 19.8561 16.6124 20.232 16.2464 20.6558C16.1144 20.2598 16.1144 20.2598 16.2319 20.0191C16.2911 19.9379 16.3504 19.8567 16.4114 19.7731C16.4981 19.6499 16.4981 19.6499 16.5866 19.5241C16.6486 19.462 16.7105 19.3999 16.7743 19.3359Z" fill="#C7AF91"/>
<path d="M14.6624 21.7109C14.4149 22.2224 14.4149 22.2224 14.2664 22.3709C13.9999 22.3804 13.733 22.3819 13.4663 22.3791C13.3205 22.3779 13.1747 22.3767 13.0244 22.3755C12.8552 22.3732 12.8552 22.3732 12.6826 22.3709C12.6826 22.3273 12.6826 22.2837 12.6826 22.2389C12.7622 22.2339 12.8419 22.229 12.9239 22.2239C13.5617 22.1715 14.1313 21.7109 14.6624 21.7109Z" fill="#BFA683"/>
<path d="M34.8557 19.9961C34.9428 20.0832 35.0299 20.1703 35.1196 20.2601C35.0325 20.2601 34.9454 20.2601 34.8557 20.2601C34.8557 20.3472 34.8557 20.4343 34.8557 20.524C34.6815 20.5676 34.5072 20.6111 34.3277 20.656C34.3277 20.7431 34.3277 20.8302 34.3277 20.92C34.1535 20.8764 33.9793 20.8329 33.7998 20.788C34.1482 20.5267 34.4967 20.2653 34.8557 19.9961Z" fill="#B8956B"/>
<path d="M7.00781 10.4932C7.46572 10.5536 7.88866 10.6108 8.32764 10.7571C8.3712 10.9313 8.41475 11.1056 8.45962 11.2851C7.98053 11.0673 7.50143 10.8495 7.00781 10.6251C7.00781 10.5816 7.00781 10.538 7.00781 10.4932Z" fill="#F5EAD7"/>
<path d="M25.7492 31.0815C25.7492 31.1686 25.7492 31.2557 25.7492 31.3455C25.4008 31.389 25.0524 31.4326 24.6934 31.4775C24.6934 31.3468 24.6934 31.2161 24.6934 31.0815C25.0963 30.952 25.3463 30.952 25.7492 31.0815Z" fill="#C6AC89"/>
<path d="M3.34525 26.6353C3.46503 26.6652 3.5848 26.6952 3.70821 26.726C4.01596 26.7714 4.32389 26.8157 4.63209 26.858C4.58853 26.9451 4.54498 27.0322 4.5001 27.122C3.89034 27.0349 3.28058 26.9478 2.65234 26.858C3.04829 26.594 3.04829 26.594 3.34525 26.6353Z" fill="#C5AC8E"/>
<path d="M3.84014 22.6348C3.9708 22.6348 4.10146 22.6348 4.23609 22.6348C4.23609 22.7654 4.23609 22.8961 4.23609 23.0307C4.32319 23.1178 4.4103 23.2049 4.50005 23.2947C4.28228 23.3382 4.06451 23.3818 3.84014 23.4267C3.75303 23.296 3.66592 23.1653 3.57617 23.0307C3.66328 22.9001 3.75039 22.7694 3.84014 22.6348Z" fill="#C7A178"/>
<path d="M25.6174 21.8438C25.7045 21.8438 25.7916 21.8438 25.8814 21.8438C25.7329 22.236 25.588 22.5478 25.3534 22.8996C24.941 22.9244 24.941 22.9244 24.5615 22.8996C24.5615 22.8561 24.5615 22.8125 24.5615 22.7676C24.7793 22.7676 24.9971 22.7676 25.2214 22.7676C25.2459 22.6125 25.2459 22.6125 25.2709 22.4542C25.3534 22.1077 25.3534 22.1077 25.6174 21.8438Z" fill="#C9B598"/>
<path d="M19.6777 20.391C20.1987 20.3673 20.5486 20.3786 20.9976 20.6549C20.954 20.7421 20.9105 20.8292 20.8656 20.9189C20.5171 20.8754 20.1687 20.8318 19.8097 20.7869C19.7662 20.6563 19.7226 20.5256 19.6777 20.391Z" fill="#B59064"/>
<path d="M15.3223 8.5127C15.7182 8.5127 15.7182 8.5127 15.9492 8.67767C16.1142 8.90864 16.1142 8.90864 16.0894 9.18911C15.9822 9.43658 15.9822 9.43658 15.7182 9.56856C15.3223 8.80966 15.3223 8.80966 15.3223 8.5127Z" fill="#BA9B72"/>
<path d="M10.1754 22.5039C10.4803 22.5475 10.7852 22.591 11.0993 22.6359C11.0993 22.6794 11.0993 22.723 11.0993 22.7679C10.5876 22.9253 10.1865 23.0318 9.64746 23.0318C9.64746 22.9447 9.64746 22.8576 9.64746 22.7679C9.82168 22.7679 9.9959 22.7679 10.1754 22.7679C10.1754 22.6808 10.1754 22.5937 10.1754 22.5039Z" fill="#F5F6EF"/>
<path d="M27.2005 17.8848C27.3747 17.9719 27.5489 18.059 27.7284 18.1487C27.5542 18.5407 27.38 18.9327 27.2005 19.3366C27.1134 19.293 27.0263 19.2495 26.9365 19.2046C27.0236 18.7691 27.1107 18.3335 27.2005 17.8848Z" fill="#C9B190"/>
<path d="M27.8609 17.752C27.948 17.752 28.0352 17.752 28.1249 17.752C28.1249 17.9262 28.1249 18.1004 28.1249 18.2799C28.0378 18.2799 27.9507 18.2799 27.8609 18.2799C27.7738 18.4977 27.6867 18.7154 27.597 18.9398C27.5099 18.9398 27.4228 18.9398 27.333 18.9398C27.4727 18.4906 27.5982 18.1461 27.8609 17.752Z" fill="#F5EBD7"/>
<path d="M14.7949 30.5539C15.3952 30.5303 15.8349 30.5541 16.3787 30.8178C16.3787 30.8614 16.3787 30.9049 16.3787 30.9498C16.1889 30.9347 15.9992 30.9179 15.8095 30.9003C15.7039 30.8911 15.5982 30.8819 15.4894 30.8725C15.1909 30.8178 15.1909 30.8178 14.7949 30.5539Z" fill="#C5AF8F"/>
<path d="M15.1906 21.4473C15.2777 21.4908 15.3648 21.5344 15.4546 21.5792C14.8861 22.3427 14.8861 22.3427 14.4235 22.4866C14.2806 22.4948 14.2806 22.4948 14.1348 22.5031C14.4867 22.1512 14.8387 21.7992 15.1906 21.4473Z" fill="#F5EBD7"/>
<path d="M12.1553 29.7617C12.6344 29.7617 13.1135 29.7617 13.6071 29.7617C13.5635 29.8924 13.52 30.023 13.4751 30.1577C12.6007 30.0587 12.6007 30.0587 12.1553 29.7617Z" fill="#C7AC8C"/>
<path d="M6.21582 27.3871C6.70627 27.3605 6.84565 27.367 7.27168 27.651C7.27168 27.7381 7.27168 27.8252 7.27168 27.915C6.51278 27.7995 6.51278 27.7995 6.21582 27.651C6.21582 27.5639 6.21582 27.4768 6.21582 27.3871Z" fill="#C3AB8C"/>
<path d="M4.89624 21.8438C5.07046 21.8873 5.24468 21.9309 5.42417 21.9757C5.32873 22.0426 5.32873 22.0426 5.23136 22.1108C5.14799 22.1697 5.06462 22.2285 4.97873 22.2892C4.89605 22.3474 4.81336 22.4056 4.72817 22.4655C4.48395 22.6394 4.48395 22.6394 4.23633 22.8996C4.23633 22.7254 4.23633 22.5512 4.23633 22.3717C4.36291 22.3513 4.36291 22.3513 4.49204 22.3304C4.58188 22.3005 4.67171 22.2705 4.76426 22.2397C4.80781 22.109 4.85137 21.9784 4.89624 21.8438Z" fill="#C2AC8B"/>
<path d="M6.74316 18.0156C6.91738 18.0592 7.0916 18.1027 7.2711 18.1476C7.2711 18.3654 7.2711 18.5832 7.2711 18.8075C7.09688 18.7204 6.92266 18.6333 6.74316 18.5436C6.74316 18.3693 6.74316 18.1951 6.74316 18.0156Z" fill="#B99062"/>
<path d="M13.8711 7.3252C14.2195 7.36875 14.568 7.4123 14.927 7.45718C14.9705 7.58784 15.0141 7.7185 15.0589 7.85313C14.6176 7.77957 14.2627 7.67472 13.8711 7.45718C13.8711 7.41362 13.8711 7.37007 13.8711 7.3252Z" fill="#AF8C5F"/>
<path d="M8.45933 27.6504C8.45933 27.7811 8.45933 27.9117 8.45933 28.0463C8.1109 28.0463 7.76246 28.0463 7.40347 28.0463C7.35991 27.9592 7.31636 27.8721 7.27148 27.7824C8.16237 27.6504 8.16237 27.6504 8.45933 27.6504Z" fill="#BFA17D"/>
<path d="M28.1252 24.2197C28.1252 24.3068 28.1252 24.394 28.1252 24.4837C27.7677 24.6625 27.4641 24.6243 27.0693 24.6157C27.0693 24.5286 27.0693 24.4415 27.0693 24.3517C27.4558 24.2229 27.7235 24.2089 28.1252 24.2197Z" fill="#BB9771"/>
<path d="M22.7135 23.0312C22.9774 23.4272 22.9774 23.4272 22.9774 23.6912C22.7597 23.7347 22.5419 23.7783 22.3175 23.8231C22.274 23.6925 22.2304 23.5618 22.1855 23.4272C22.3598 23.3836 22.534 23.3401 22.7135 23.2952C22.7135 23.2081 22.7135 23.121 22.7135 23.0312Z" fill="#AD7E41"/>
<path d="M7.7998 18.0156C7.97402 18.0156 8.14824 18.0156 8.32774 18.0156C8.37129 18.1463 8.41484 18.277 8.45972 18.4116C8.19839 18.5422 8.19839 18.5422 7.93179 18.6755C7.88823 18.4578 7.84468 18.24 7.7998 18.0156Z" fill="#BA9060"/>
<path d="M36.4395 15.6406C36.4395 16.22 36.1586 16.402 35.7796 16.8285C35.6925 16.7849 35.6054 16.7414 35.5156 16.6965C35.6194 16.5448 35.7241 16.3937 35.8291 16.2428C35.8873 16.1586 35.9455 16.0744 36.0054 15.9876C36.1755 15.7726 36.1755 15.7726 36.4395 15.6406Z" fill="#FBF3E0"/>
<path d="M4.76372 25.1426C4.85083 25.2297 4.93794 25.3168 5.02769 25.4065C4.71625 25.6834 4.55966 25.7984 4.13681 25.8272C3.98981 25.815 3.98981 25.815 3.83984 25.8025C4.14304 25.5725 4.44679 25.3539 4.76372 25.1426Z" fill="#C89C68"/>
<path d="M23.9017 24.3516C24.359 24.5476 24.359 24.5476 24.8255 24.7475C24.8255 24.7911 24.8255 24.8346 24.8255 24.8795C24.4336 24.8359 24.0416 24.7924 23.6377 24.7475C23.7248 24.704 23.8119 24.6604 23.9017 24.6155C23.9017 24.5284 23.9017 24.4413 23.9017 24.3516Z" fill="#AB875B"/>
<path d="M22.8457 23.1641C23.1951 23.5043 23.4983 23.813 23.7696 24.2199C23.6389 24.2199 23.5083 24.2199 23.3736 24.2199C22.8457 23.5261 22.8457 23.5261 22.8457 23.1641Z" fill="#B58E59"/>
<path d="M16.7745 23.2949C16.7745 23.6909 16.7745 23.6909 16.6425 24.0868C16.3812 24.1304 16.1198 24.1739 15.8506 24.2188C16.1585 23.9108 16.4665 23.6029 16.7745 23.2949Z" fill="#CFBC9D"/>
<path d="M30.6325 23.2949C30.5889 23.4256 30.5454 23.5562 30.5005 23.6909C29.9986 23.9139 29.7016 23.9811 29.1807 23.8229C29.3729 23.7343 29.5654 23.6464 29.7581 23.5589C29.8653 23.5099 29.9725 23.4609 30.0829 23.4104C30.3685 23.2949 30.3685 23.2949 30.6325 23.2949Z" fill="#BE9F76"/>
<path d="M15.5864 20.6562C15.717 20.7434 15.8477 20.8305 15.9823 20.9202C15.8121 21.1018 15.6356 21.2776 15.4544 21.4481C15.3673 21.4481 15.2802 21.4481 15.1904 21.4481C15.4379 20.8047 15.4379 20.8047 15.5864 20.6562Z" fill="#C8AF8E"/>
<path d="M21.2617 19.7324C21.6102 19.776 21.9586 19.8195 22.3176 19.8644C22.3611 20.0386 22.4047 20.2128 22.4496 20.3923C21.8616 20.131 21.8616 20.131 21.2617 19.8644C21.2617 19.8209 21.2617 19.7773 21.2617 19.7324Z" fill="#FAF7F3"/>
<path d="M15.1902 10.8887C15.2773 10.8887 15.3644 10.8887 15.4542 10.8887C15.4977 11.1064 15.5413 11.3242 15.5861 11.5486C15.499 11.505 15.4119 11.4615 15.3222 11.4166C15.0583 11.4113 14.7942 11.4109 14.5303 11.4166C14.6569 11.3962 14.6569 11.3962 14.786 11.3754C14.8758 11.3454 14.9657 11.3155 15.0582 11.2846C15.1018 11.154 15.1453 11.0233 15.1902 10.8887Z" fill="#CCB392"/>
</svg>
