<svg width="26" height="53" viewBox="0 0 26 53" fill="none" xmlns="http://www.w3.org/2000/svg">
<path d="M2.25002 30.8789H23.123V36.3469H2.25002V30.8789Z" fill="#0091A1"/>
<path d="M4.6487 36.3477H20.7236V52.8061H4.6487V36.3477Z" fill="#007885"/>
<path d="M10.345 35.3041H15.0279C15.31 35.3041 15.5381 35.0754 15.5381 34.7939V32.4321C15.5381 32.15 15.3094 31.9219 15.0279 31.9219H10.345C10.0629 31.9219 9.83485 32.1506 9.83485 32.4321V34.7939C9.83485 35.0754 10.0635 35.3041 10.345 35.3041Z" fill="white"/>
<path d="M2.36435 22.2167C1.05788 16.5166 4.61967 10.8366 10.3198 9.53008C16.02 8.22361 21.7 11.7854 23.0065 17.4856C24.313 23.1857 20.7512 28.8657 15.051 30.1722C9.35082 31.4787 3.67082 27.9169 2.36435 22.2167Z" fill="#FFEED1"/>
<path opacity="0.7" d="M19.9656 19.7373C19.9656 15.9607 18.4339 12.6049 16.0601 10.4688C19.746 11.9357 22.3545 15.5286 22.3545 19.7373C22.3545 23.9459 19.746 27.5382 16.0601 29.0058C18.4339 26.8696 19.9656 23.5138 19.9656 19.7373Z" fill="white"/>
<path d="M8.38729 0.519531H16.9854V10.4693H8.38729V0.519531Z" fill="#FFEED1"/>
<path d="M8.11873 29.3379H17.251V30.8798H8.11873V29.3379Z" fill="#E6D0AC"/>
<path d="M7.92817 0.874512C7.92817 1.35768 8.31951 1.74902 8.80268 1.74902H16.5688C17.052 1.74902 17.4434 1.35768 17.4434 0.874512C17.4434 0.39134 17.052 0 16.5688 0H8.80268C8.32011 0 7.92817 0.39134 7.92817 0.874512Z" fill="#E6D0AC"/>
<g opacity="0.05">
<path d="M3.89622 13.9473C1.44735 21.597 8.86719 29.338 17.251 29.338C17.2402 29.3434 17.251 30.8799 17.251 30.8799H8.11873V29.3872C4.56006 27.6808 2.09678 24.0549 2.09678 19.845C2.09678 17.6596 2.76122 15.6321 3.89622 13.9473Z" fill="#1D1D1B"/>
</g>
<path opacity="0.1" d="M4.6487 39.0696L20.7236 41.7922V36.3477H4.6487V39.0696Z" fill="#1D1D1B"/>
</svg>
