<svg width="161" height="873" viewBox="0 0 161 873" fill="none" xmlns="http://www.w3.org/2000/svg">
<g opacity="0.1">
<path d="M100.186 87.1465H24.333V815.245H100.186V87.1465Z" fill="#EAE1CC"/>
<path d="M106.044 83.8711H21.748V93.7861H106.044V83.8711Z" fill="#C9C1B3"/>
<path d="M117.339 38.5879H7.19629V86.9472H117.339V38.5879Z" fill="#C9C1B3"/>
<path d="M69.22 4.33594H56.1004H7.19629V13.5944H56.1004H69.22H118.124V4.33594H69.22Z" fill="#EAE1CC"/>
<path d="M69.221 13.5977H56.1013H9.71484C9.71484 13.5977 12.5654 14.8997 13.9906 17.6329C15.4159 20.3666 15.297 22.4494 15.297 22.4494H15.3236V29.2566H56.1013H69.2207H109.998V22.4494H110.025C110.025 22.4494 109.906 20.3666 111.331 17.6329C112.757 14.8991 115.607 13.5977 115.607 13.5977H69.221Z" fill="#C9C1B3"/>
<path d="M9.71484 13.5977H115.607L111.777 16.8953L9.71484 13.5977Z" fill="#A8A198"/>
<path opacity="0.2" d="M71.422 93.7812H31.4307V809.546H71.422V93.7812Z" fill="white"/>
<path opacity="0.43" d="M52.9009 93.7812H42.4336V809.546H52.9009V93.7812Z" fill="white"/>
<path d="M101.187 821.495H23.0609C21.1036 821.495 19.5166 818.821 19.5166 815.521C19.5166 812.221 21.1036 809.547 23.0609 809.547H101.187C103.145 809.547 104.732 812.221 104.732 815.521C104.732 818.821 103.145 821.495 101.187 821.495Z" fill="#EAE1CC"/>
<path d="M100.776 809.547H98.478C98.9045 810.5 99.1539 811.65 99.1539 812.888C99.1539 816.188 97.3834 818.863 95.1994 818.863H20.1914C20.9021 820.451 22.1052 821.496 23.47 821.496H100.776C102.96 821.496 104.73 818.821 104.73 815.521C104.731 812.221 102.96 809.547 100.776 809.547Z" fill="#C9C1B3"/>
<path d="M99.7949 821.494H62.8886H61.3578H24.4514C15.6667 821.494 8.54492 832.253 8.54492 845.525V856.185H61.3578H62.8886H115.701V845.525C115.702 832.253 108.58 821.494 99.7949 821.494Z" fill="#EAE1CC"/>
<path d="M99.5426 821.494H84.5557C93.3408 821.494 100.462 832.253 100.462 845.525V856.185H115.449V845.525C115.449 832.253 108.327 821.494 99.5426 821.494Z" fill="#C9C1B3"/>
<path d="M118.124 850.404H6.12012V877H118.124V850.404Z" fill="#EAE1CC"/>
<path d="M118.124 850.404H104.729V877H118.124V850.404Z" fill="#C9C1B3"/>
<path d="M10.1777 850.41H115.702L115.448 845.531L10.1777 850.41Z" fill="#A8A198"/>
<path d="M24.3691 809.55H100.186V805.654L24.3691 809.55Z" fill="#A8A198"/>
<path d="M36.9912 86.946C36.9912 86.946 40.047 84.3858 41.1098 79.2342C42.1725 74.0832 41.9068 67.8125 41.9068 67.8125H62.6283L62.6608 86.9454H36.9912V86.946Z" fill="#EAE1CC"/>
<path d="M88.3622 86.7968C88.3622 86.7968 85.298 84.2656 84.2177 79.125C83.1373 73.9844 83.3819 67.7109 83.3819 67.7109L62.6611 67.9097L62.6933 87.0426L88.3622 86.7968Z" fill="#EAE1CC"/>
<path d="M47.4616 86.9445C47.6607 84.2458 47.6909 81.5121 47.5461 78.8035C47.4714 77.4079 47.344 75.9811 46.9322 74.7639C46.5203 73.5468 45.7674 72.5706 44.9365 72.5881C44.8784 77.4084 45.007 82.1461 44.7998 86.9451H47.4616V86.9445Z" fill="#C9C1B3"/>
<path opacity="0.77" d="M42.3134 78.0852C42.0441 80.3782 42.0493 82.7621 42.3287 85.0523C42.3469 85.2013 42.3702 85.3611 42.4407 85.4553C42.5034 85.5391 42.5892 85.5506 42.6694 85.5582C42.9214 85.5829 43.1735 85.6075 43.4255 85.6321C43.3447 85.6239 43.3281 81.2219 43.3304 80.843C43.3398 79.1797 43.4116 77.5103 43.6201 75.8815C43.6682 75.508 44.0963 73.8524 44.0151 73.583C43.8585 73.0623 43.5285 73.6673 43.3687 73.9651C42.7759 75.07 42.4813 76.6551 42.3134 78.0852Z" fill="white"/>
<path d="M56.1387 86.9445C56.3378 84.2458 56.368 81.5121 56.2231 78.8035C56.1488 77.4079 56.0208 75.9811 55.6089 74.7639C55.1974 73.5468 54.4445 72.5706 53.6133 72.5881C53.5552 77.4084 53.6838 82.1461 53.4766 86.9451H56.1387V86.9445Z" fill="#C9C1B3"/>
<path opacity="0.77" d="M50.9921 78.0852C50.7228 80.3782 50.728 82.7621 51.0074 85.0523C51.0256 85.2013 51.049 85.3611 51.1194 85.4553C51.1825 85.5391 51.2682 85.5506 51.3481 85.5582C51.6002 85.5829 51.8522 85.6075 52.1043 85.6321C52.0234 85.6239 52.0068 81.2219 52.0091 80.843C52.0185 79.1797 52.09 77.5103 52.2988 75.8815C52.3466 75.508 52.775 73.8524 52.6938 73.583C52.5369 73.0623 52.2072 73.6673 52.0471 73.9651C51.4547 75.07 51.16 76.6551 50.9921 78.0852Z" fill="white"/>
<path d="M64.8164 86.9445C65.0155 84.2458 65.0457 81.5121 64.9009 78.8035C64.8265 77.4079 64.6985 75.9811 64.2867 74.7639C63.8748 73.5468 63.1222 72.5706 62.291 72.5881C62.2329 77.4084 62.3615 82.1461 62.1543 86.9451H64.8164V86.9445Z" fill="#C9C1B3"/>
<path opacity="0.77" d="M59.6679 78.0852C59.3986 80.3782 59.4038 82.7621 59.6832 85.0523C59.7013 85.2013 59.7247 85.3611 59.7955 85.4553C59.8586 85.5391 59.944 85.5506 60.0242 85.5582C60.2763 85.5829 60.5283 85.6075 60.7804 85.6321C60.6995 85.6239 60.6829 81.2219 60.6852 80.843C60.6946 79.1797 60.7664 77.5103 60.9749 75.8815C61.023 75.508 61.4511 73.8524 61.3699 73.583C61.2133 73.0623 60.8833 73.6673 60.7235 73.9651C60.1304 75.07 59.8355 76.6551 59.6679 78.0852Z" fill="white"/>
<path d="M73.4932 86.9445C73.6923 84.2458 73.7225 81.5121 73.5776 78.8035C73.5032 77.4079 73.3753 75.9811 72.9637 74.7639C72.5519 73.5468 71.799 72.5706 70.9678 72.5881C70.9093 77.4084 71.0383 82.1461 70.8311 86.9451H73.4932V86.9445Z" fill="#C9C1B3"/>
<path opacity="0.77" d="M68.3465 78.0852C68.0772 80.3782 68.0827 82.7621 68.3617 85.0523C68.3799 85.2013 68.4033 85.3611 68.4741 85.4553C68.5368 85.5391 68.6226 85.5506 68.7028 85.5582C68.9548 85.5829 69.2069 85.6075 69.4589 85.6321C69.3781 85.6239 69.3615 81.2219 69.3638 80.843C69.3732 79.1797 69.445 77.5103 69.6535 75.8815C69.7013 75.508 70.1297 73.8524 70.0485 73.583C69.8916 73.0623 69.5619 73.6673 69.4021 73.9651C68.8087 75.07 68.5141 76.6551 68.3465 78.0852Z" fill="white"/>
<path d="M82.1673 86.9445C82.3664 84.2458 82.3963 81.5121 82.2518 78.8035C82.1774 77.4079 82.0494 75.9811 81.6376 74.7639C81.2257 73.5468 80.4731 72.5706 79.642 72.5881C79.5838 77.4084 79.7124 82.1461 79.5049 86.9451H82.1673V86.9445Z" fill="#C9C1B3"/>
<path opacity="0.77" d="M77.0234 78.0852C76.7541 80.3782 76.7593 82.7621 77.0386 85.0523C77.0568 85.2013 77.0802 85.3611 77.1507 85.4553C77.2137 85.5391 77.2994 85.5506 77.3793 85.5582C77.6314 85.5829 77.8834 85.6075 78.1355 85.6321C78.0546 85.6239 78.0381 81.2219 78.04 80.843C78.0494 79.1797 78.1212 77.5103 78.3297 75.8815C78.3775 75.508 78.8059 73.8524 78.7247 73.583C78.5678 73.0623 78.2381 73.6673 78.078 73.9651C77.4855 75.07 77.191 76.6551 77.0234 78.0852Z" fill="white"/>
<path d="M13.4596 61.8317C13.5941 56.5077 15.1707 51.0889 17.9533 48.5599C19.7274 46.9475 21.8023 46.6157 23.8154 46.4526C26.9141 46.2018 30.0225 46.2757 33.116 46.6749C33.1417 44.8089 32.4404 43.0738 31.5264 42.021C30.6121 40.9681 29.5087 40.4961 28.4183 40.1715C21.9069 38.236 14.9414 41.145 9.71877 47.9801C8.25746 49.8926 6.89814 52.1686 6.1566 55.0261C5.46476 57.6914 5.35692 60.6836 5.4313 63.5903C5.53751 67.7569 6.01173 71.9602 7.16447 75.6505C8.42733 79.6944 10.4817 82.8892 12.8493 85.0579C13.9107 86.0303 18.7569 90.0633 19.5715 87.5573C20.3829 85.0617 16.6976 79.0681 16.0733 77.2492C14.4808 72.6145 13.3225 67.2532 13.4596 61.8317Z" fill="#A8A198"/>
<path d="M19.0753 67.7469C20.5785 71.9738 24.255 73.3781 26.7512 70.8119C29.2473 68.2457 30.211 62.2751 28.9309 57.8446C30.554 57.815 32.0715 59.3754 33.1447 61.4281C34.2175 63.4812 34.9168 65.9993 35.6019 68.4795C35.8455 63.8957 35.3147 59.0699 33.6988 55.3605C32.0829 51.6516 29.2785 49.2787 26.5871 50.0496C25.0433 50.492 23.6522 51.8843 22.3981 53.4655C20.0754 56.3964 17.3041 62.7678 19.0753 67.7469Z" fill="#A8A198"/>
<path d="M94.0756 59.2743C92.83 63.1534 93.0492 67.9798 93.9951 72.0927C94.5641 74.568 95.3885 76.8983 96.5039 78.7719C98.6275 82.34 101.662 84.0105 104.651 84.4255C102.852 85.9843 100.706 86.096 98.7308 85.3645C96.7556 84.633 94.9166 83.1169 93.1278 81.527C91.9273 80.4598 90.7048 79.3051 89.87 77.5016C88.7809 75.1484 88.5019 72.0117 88.4792 69.0277C88.4512 65.366 88.7754 61.5914 89.8866 58.4448C91.6181 53.5413 95.0803 50.876 98.4635 50.6717C100.145 50.5704 103.641 54.7633 100.967 55.0245C99.5961 55.1581 98.71 53.7827 97.1694 54.7529C95.8725 55.5693 94.7353 57.2217 94.0756 59.2743Z" fill="#A8A198"/>
<path d="M100.088 48.4179C101.274 49.254 107.04 49.9066 110.03 52.947C115.359 58.3658 115.581 67.5115 113.305 73.3819C111.877 77.0645 111.77 78.7667 109.788 81.6308C112.3 83.3188 115.089 80.8287 117.223 78.0303C119.501 75.0436 121.62 71.4683 122.713 66.9672C124.304 60.4118 123.423 52.5758 120.964 46.8334C118.504 41.0911 114.642 37.3335 110.57 35.5858C106.498 33.8382 102.215 33.9657 98.0481 34.8795C96.0564 35.3165 92.7333 36.9951 93.3647 41.5379C93.9318 45.6136 98.154 47.0546 100.088 48.4179Z" fill="#A8A198"/>
<path d="M99.3515 39.584H27.0869V52.9445H99.3515V39.584Z" fill="#A8A198"/>
<path d="M62.6613 44.7761V29.1582H15.1902V29.4845C11.4972 30.4219 -0.641899 38.743 0.0265567 59.2217C1.02502 89.7999 14.9216 92.7456 21.2456 93.5876C26.8417 94.3323 33.2194 89.588 36.6399 82.0854C40.0605 74.5828 40.4678 64.6925 37.8882 55.5753C37.0161 52.4922 34.1896 47.806 31.1481 46.7384C25.6871 44.8215 19.975 48.3421 18.1535 57.2288C17.6825 59.5262 17.5454 62.1099 18.0859 64.364C18.6264 66.6176 19.947 68.4233 21.3885 68.3598C22.83 68.2957 24.1809 65.9775 23.9451 63.58C23.8886 63.0051 23.7532 62.4614 23.6677 61.8969C23.0227 57.6432 25.6601 53.3847 28.2596 53.6562C30.859 53.9278 32.9953 57.6027 33.8498 61.7496C35.6327 70.4004 32.2115 80.5497 26.9044 82.5065C18.9161 85.4521 9.21701 78.9613 8.93053 61.575C8.76423 51.4755 13.7676 45.196 18.2386 44.8035L21.7276 44.7772H62.6613V44.7761Z" fill="#EAE1CC"/>
<path d="M62.6299 44.8991V29.2812H110.101V29.6076C113.794 30.5449 125.933 38.8661 125.264 59.3448C124.265 89.923 110.369 92.8686 104.045 93.7101C98.4491 94.4548 92.0711 89.7105 88.6506 82.2085C85.2304 74.7059 84.8231 64.815 87.4024 55.6978C88.2748 52.6147 91.1009 47.9285 94.1424 46.8609C99.6034 44.9435 105.316 48.464 107.137 57.3513C107.608 59.6487 107.745 62.2324 107.205 64.486C106.664 66.7395 105.344 68.5458 103.902 68.4817C102.461 68.4177 101.11 66.0995 101.346 63.7019C101.402 63.127 101.537 62.5839 101.623 62.0188C102.268 57.7652 99.6307 53.5066 97.0313 53.7782C94.4319 54.0503 92.2956 57.7247 91.441 61.8721C89.6582 70.5223 93.0793 80.6722 98.3867 82.629C106.375 85.5746 116.074 79.0838 116.36 61.6969C116.527 51.598 111.523 45.318 107.052 44.9254L103.563 44.8991H62.6299Z" fill="#EAE1CC"/>
<path d="M27.987 61.5739C27.987 66.3384 25.6958 70.2 22.8693 70.2C20.0432 70.2 17.752 66.3379 17.752 61.5739C17.752 56.8094 20.0432 52.9473 22.8693 52.9473C25.6958 52.9473 27.987 56.8094 27.987 61.5739Z" fill="#EAE1CC"/>
<path d="M107.584 62.4079C107.584 67.1718 105.292 71.034 102.466 71.034C99.6398 71.034 97.3486 67.1718 97.3486 62.4079C97.3486 57.6434 99.6398 53.7812 102.466 53.7812C105.292 53.7812 107.584 57.6434 107.584 62.4079Z" fill="#EAE1CC"/>
<path opacity="0.77" d="M86.6516 66.9816C86.703 68.9137 87.034 71.0649 88.0295 72.0264C88.138 72.1309 88.263 72.2213 88.3855 72.1775C88.5972 72.1019 88.6898 71.6853 88.731 71.3266C88.9386 69.5253 88.7807 67.6692 88.7986 65.8345C88.847 60.7645 90.3246 55.786 92.7028 52.6805C92.9672 52.335 93.2605 51.6801 93.0107 51.3051C92.9357 51.1923 92.8308 51.1562 92.7308 51.1359C88.6294 50.3081 86.5162 61.8875 86.6516 66.9816Z" fill="white"/>
<path opacity="0.77" d="M94.8211 48.9673C94.5376 49.1453 94.2524 49.4136 94.1111 49.8653C93.9698 50.3164 94.0396 50.98 94.3173 51.1826C94.4654 51.2904 94.6347 51.251 94.7942 51.2094C95.7608 50.9581 96.7271 50.7063 97.6937 50.4544C97.8451 50.415 98.0039 50.3706 98.1247 50.2119C98.4398 49.7996 98.2764 48.8661 97.9266 48.543C97.5768 48.22 97.1487 48.3174 96.7547 48.4237C95.9794 48.6334 95.2041 48.8431 94.4284 49.0522L94.8211 48.9673Z" fill="white"/>
<path d="M37.3424 117.409C37.3258 116.543 37.3047 115.677 37.2791 114.811C37.2388 113.463 37.1858 112.099 36.9601 110.817C36.7344 109.534 36.3154 108.322 35.6908 107.642C35.0025 106.893 34.1599 106.871 33.3648 106.961C32.4794 107.061 31.5443 107.315 30.8615 108.373C30.5458 108.862 30.3041 109.495 30.08 110.137C29.1702 112.742 28.4758 116.015 29.0764 118.915C29.1144 117.246 29.3219 115.52 29.889 114.227C30.4565 112.934 31.3224 111.182 32.4177 111.978C33.3788 112.677 34.2038 113.487 34.2207 119.945V804.553H37.3784V117.409H37.3424Z" fill="#DBD2C1"/>
<path d="M51.533 117.409C51.5165 116.543 51.4953 115.677 51.4697 114.811C51.4294 113.463 51.3765 112.099 51.1507 110.817C50.9247 109.534 50.506 108.322 49.8814 107.642C49.1931 106.893 48.3505 106.871 47.5554 106.961C46.67 107.061 45.7349 107.315 45.0521 108.373C44.7364 108.862 44.4948 109.495 44.2706 110.137C43.3605 112.742 42.6661 116.015 43.267 118.915C43.305 117.246 43.5125 115.52 44.0796 114.227C44.6471 112.934 45.513 111.182 46.6083 111.978C47.5691 112.677 48.3944 113.487 48.4113 119.945V804.553H51.5691V117.409H51.533Z" fill="#DBD2C1"/>
<path d="M65.7217 117.409C65.7051 116.543 65.684 115.677 65.6583 114.811C65.6184 113.463 65.5651 112.099 65.3394 110.817C65.1136 109.534 64.6946 108.322 64.07 107.642C63.3818 106.893 62.5392 106.871 61.7441 106.961C60.8587 107.061 59.9232 107.315 59.2405 108.373C58.9248 108.862 58.6831 109.495 58.459 110.137C57.5489 112.742 56.8547 116.015 57.4553 118.915C57.4933 117.246 57.7009 115.52 58.268 114.227C58.8354 112.934 59.7014 111.182 60.7969 111.978C61.7577 112.677 62.5831 113.487 62.5996 119.945V804.553H65.7574V117.409H65.7217Z" fill="#DBD2C1"/>
<path d="M79.9123 117.409C79.8957 116.543 79.8746 115.677 79.8489 114.811C79.8086 113.463 79.7557 112.099 79.53 110.817C79.3042 109.534 78.8852 108.322 78.2606 107.642C77.5723 106.893 76.7298 106.871 75.9346 106.961C75.0492 107.061 74.1138 107.315 73.431 108.373C73.1153 108.862 72.8737 109.495 72.6495 110.137C71.7394 112.742 71.045 116.015 71.6459 118.915C71.6839 117.246 71.8914 115.52 72.4589 114.227C73.0263 112.934 73.8923 111.182 74.9875 111.978C75.9483 112.677 76.7736 113.487 76.7905 119.945V804.553H79.9483V117.409H79.9123Z" fill="#DBD2C1"/>
<path d="M94.1027 117.409C94.0861 116.543 94.065 115.677 94.0393 114.811C93.9991 113.463 93.9461 112.099 93.7204 110.817C93.4947 109.534 93.0756 108.322 92.451 107.642C91.7628 106.893 90.9206 106.871 90.1251 106.961C89.2397 107.061 88.3046 107.315 87.6215 108.373C87.3058 108.862 87.0641 109.495 86.84 110.137C85.9299 112.742 85.2354 116.015 85.8363 118.915C85.8743 117.246 86.0819 115.52 86.649 114.227C87.2164 112.934 88.0824 111.182 89.178 111.978C90.1387 112.677 90.964 113.487 90.9809 119.945V804.553H94.1387V117.409H94.1027Z" fill="#DBD2C1"/>
<path d="M24.333 93.7812H100.186V126.246C100.186 126.246 93.3667 103.173 68.148 99.8401C42.9289 96.5073 24.333 97.5328 24.333 97.5328V93.7812Z" fill="#A8A198"/>
<g opacity="0.21" filter="url(#filter0_d_5402_2376)">
<path d="M100.186 87.1465H24.333V815.245H100.186V87.1465Z" fill="url(#paint0_linear_5402_2376)"/>
<path d="M106.044 83.8711H21.748V93.7861H106.044V83.8711Z" fill="url(#paint1_linear_5402_2376)"/>
<path d="M117.339 38.5879H7.19629V86.9472H117.339V38.5879Z" fill="url(#paint2_linear_5402_2376)"/>
<path d="M69.22 4.33594H56.1004H7.19629V13.5944H56.1004H69.22H118.124V4.33594H69.22Z" fill="url(#paint3_linear_5402_2376)"/>
<path d="M69.221 13.5977H56.1013H9.71484C9.71484 13.5977 12.5654 14.8997 13.9906 17.6329C15.4159 20.3666 15.297 22.4494 15.297 22.4494H15.3236V29.2566H56.1013H69.2207H109.998V22.4494H110.025C110.025 22.4494 109.906 20.3666 111.331 17.6329C112.757 14.8991 115.607 13.5977 115.607 13.5977H69.221Z" fill="url(#paint4_linear_5402_2376)"/>
<path d="M9.71484 13.5977H115.607L111.777 16.8953L9.71484 13.5977Z" fill="url(#paint5_linear_5402_2376)"/>
<path opacity="0.2" d="M71.422 93.7812H31.4307V809.546H71.422V93.7812Z" fill="url(#paint6_linear_5402_2376)"/>
<path opacity="0.43" d="M52.9009 93.7812H42.4336V809.546H52.9009V93.7812Z" fill="url(#paint7_linear_5402_2376)"/>
<path d="M101.187 821.495H23.0609C21.1036 821.495 19.5166 818.821 19.5166 815.521C19.5166 812.221 21.1036 809.547 23.0609 809.547H101.187C103.145 809.547 104.732 812.221 104.732 815.521C104.732 818.821 103.145 821.495 101.187 821.495Z" fill="url(#paint8_linear_5402_2376)"/>
<path d="M100.776 809.547H98.478C98.9045 810.5 99.1539 811.65 99.1539 812.888C99.1539 816.188 97.3834 818.863 95.1994 818.863H20.1914C20.9021 820.451 22.1052 821.496 23.47 821.496H100.776C102.96 821.496 104.73 818.821 104.73 815.521C104.731 812.221 102.96 809.547 100.776 809.547Z" fill="url(#paint9_linear_5402_2376)"/>
<path d="M99.7949 821.494H62.8886H61.3578H24.4514C15.6667 821.494 8.54492 832.253 8.54492 845.525V856.185H61.3578H62.8886H115.701V845.525C115.702 832.253 108.58 821.494 99.7949 821.494Z" fill="url(#paint10_linear_5402_2376)"/>
<path d="M99.5426 821.494H84.5557C93.3408 821.494 100.462 832.253 100.462 845.525V856.185H115.449V845.525C115.449 832.253 108.327 821.494 99.5426 821.494Z" fill="url(#paint11_linear_5402_2376)"/>
<path d="M118.124 850.404H6.12012V877H118.124V850.404Z" fill="url(#paint12_linear_5402_2376)"/>
<path d="M118.124 850.404H104.729V877H118.124V850.404Z" fill="url(#paint13_linear_5402_2376)"/>
<path d="M10.1777 850.41H115.702L115.448 845.531L10.1777 850.41Z" fill="url(#paint14_linear_5402_2376)"/>
<path d="M24.3691 809.55H100.186V805.654L24.3691 809.55Z" fill="url(#paint15_linear_5402_2376)"/>
<path d="M36.9912 86.946C36.9912 86.946 40.047 84.3858 41.1098 79.2342C42.1725 74.0832 41.9068 67.8125 41.9068 67.8125H62.6283L62.6608 86.9454H36.9912V86.946Z" fill="url(#paint16_linear_5402_2376)"/>
<path d="M88.3622 86.7968C88.3622 86.7968 85.298 84.2656 84.2177 79.125C83.1373 73.9844 83.3819 67.7109 83.3819 67.7109L62.6611 67.9097L62.6933 87.0426L88.3622 86.7968Z" fill="url(#paint17_linear_5402_2376)"/>
<path d="M47.4616 86.9445C47.6607 84.2458 47.6909 81.5121 47.5461 78.8035C47.4714 77.4079 47.344 75.9811 46.9322 74.7639C46.5203 73.5468 45.7674 72.5706 44.9365 72.5881C44.8784 77.4084 45.007 82.1461 44.7998 86.9451H47.4616V86.9445Z" fill="url(#paint18_linear_5402_2376)"/>
<path opacity="0.77" d="M42.3134 78.0852C42.0441 80.3782 42.0493 82.7621 42.3287 85.0523C42.3469 85.2013 42.3702 85.3611 42.4407 85.4553C42.5034 85.5391 42.5892 85.5506 42.6694 85.5582C42.9214 85.5829 43.1735 85.6075 43.4255 85.6321C43.3447 85.6239 43.3281 81.2219 43.3304 80.843C43.3398 79.1797 43.4116 77.5103 43.6201 75.8815C43.6682 75.508 44.0963 73.8524 44.0151 73.583C43.8585 73.0623 43.5285 73.6673 43.3687 73.9651C42.7759 75.07 42.4813 76.6551 42.3134 78.0852Z" fill="url(#paint19_linear_5402_2376)"/>
<path d="M56.1387 86.9445C56.3378 84.2458 56.368 81.5121 56.2231 78.8035C56.1488 77.4079 56.0208 75.9811 55.6089 74.7639C55.1974 73.5468 54.4445 72.5706 53.6133 72.5881C53.5552 77.4084 53.6838 82.1461 53.4766 86.9451H56.1387V86.9445Z" fill="url(#paint20_linear_5402_2376)"/>
<path opacity="0.77" d="M50.9921 78.0852C50.7228 80.3782 50.728 82.7621 51.0074 85.0523C51.0256 85.2013 51.049 85.3611 51.1194 85.4553C51.1825 85.5391 51.2682 85.5506 51.3481 85.5582C51.6002 85.5829 51.8522 85.6075 52.1043 85.6321C52.0234 85.6239 52.0068 81.2219 52.0091 80.843C52.0185 79.1797 52.09 77.5103 52.2988 75.8815C52.3466 75.508 52.775 73.8524 52.6938 73.583C52.5369 73.0623 52.2072 73.6673 52.0471 73.9651C51.4547 75.07 51.16 76.6551 50.9921 78.0852Z" fill="url(#paint21_linear_5402_2376)"/>
<path d="M64.8164 86.9445C65.0155 84.2458 65.0457 81.5121 64.9009 78.8035C64.8265 77.4079 64.6985 75.9811 64.2867 74.7639C63.8748 73.5468 63.1222 72.5706 62.291 72.5881C62.2329 77.4084 62.3615 82.1461 62.1543 86.9451H64.8164V86.9445Z" fill="url(#paint22_linear_5402_2376)"/>
<path opacity="0.77" d="M59.6679 78.0852C59.3986 80.3782 59.4038 82.7621 59.6832 85.0523C59.7013 85.2013 59.7247 85.3611 59.7955 85.4553C59.8586 85.5391 59.944 85.5506 60.0242 85.5582C60.2763 85.5829 60.5283 85.6075 60.7804 85.6321C60.6995 85.6239 60.6829 81.2219 60.6852 80.843C60.6946 79.1797 60.7664 77.5103 60.9749 75.8815C61.023 75.508 61.4511 73.8524 61.3699 73.583C61.2133 73.0623 60.8833 73.6673 60.7235 73.9651C60.1304 75.07 59.8355 76.6551 59.6679 78.0852Z" fill="url(#paint23_linear_5402_2376)"/>
<path d="M73.4932 86.9445C73.6923 84.2458 73.7225 81.5121 73.5776 78.8035C73.5032 77.4079 73.3753 75.9811 72.9637 74.7639C72.5519 73.5468 71.799 72.5706 70.9678 72.5881C70.9093 77.4084 71.0383 82.1461 70.8311 86.9451H73.4932V86.9445Z" fill="url(#paint24_linear_5402_2376)"/>
<path opacity="0.77" d="M68.3465 78.0852C68.0772 80.3782 68.0827 82.7621 68.3617 85.0523C68.3799 85.2013 68.4033 85.3611 68.4741 85.4553C68.5368 85.5391 68.6226 85.5506 68.7028 85.5582C68.9548 85.5829 69.2069 85.6075 69.4589 85.6321C69.3781 85.6239 69.3615 81.2219 69.3638 80.843C69.3732 79.1797 69.445 77.5103 69.6535 75.8815C69.7013 75.508 70.1297 73.8524 70.0485 73.583C69.8916 73.0623 69.5619 73.6673 69.4021 73.9651C68.8087 75.07 68.5141 76.6551 68.3465 78.0852Z" fill="url(#paint25_linear_5402_2376)"/>
<path d="M82.1673 86.9445C82.3664 84.2458 82.3963 81.5121 82.2518 78.8035C82.1774 77.4079 82.0494 75.9811 81.6376 74.7639C81.2257 73.5468 80.4731 72.5706 79.642 72.5881C79.5838 77.4084 79.7124 82.1461 79.5049 86.9451H82.1673V86.9445Z" fill="url(#paint26_linear_5402_2376)"/>
<path opacity="0.77" d="M77.0234 78.0852C76.7541 80.3782 76.7593 82.7621 77.0386 85.0523C77.0568 85.2013 77.0802 85.3611 77.1507 85.4553C77.2137 85.5391 77.2994 85.5506 77.3793 85.5582C77.6314 85.5829 77.8834 85.6075 78.1355 85.6321C78.0546 85.6239 78.0381 81.2219 78.04 80.843C78.0494 79.1797 78.1212 77.5103 78.3297 75.8815C78.3775 75.508 78.8059 73.8524 78.7247 73.583C78.5678 73.0623 78.2381 73.6673 78.078 73.9651C77.4855 75.07 77.191 76.6551 77.0234 78.0852Z" fill="url(#paint27_linear_5402_2376)"/>
<path d="M13.4596 61.8317C13.5941 56.5077 15.1707 51.0889 17.9533 48.5599C19.7274 46.9475 21.8023 46.6157 23.8154 46.4526C26.9141 46.2018 30.0225 46.2757 33.116 46.6749C33.1417 44.8089 32.4404 43.0738 31.5264 42.021C30.6121 40.9681 29.5087 40.4961 28.4183 40.1715C21.9069 38.236 14.9414 41.145 9.71877 47.9801C8.25746 49.8926 6.89814 52.1686 6.1566 55.0261C5.46476 57.6914 5.35692 60.6836 5.4313 63.5903C5.53751 67.7569 6.01173 71.9602 7.16447 75.6505C8.42733 79.6944 10.4817 82.8892 12.8493 85.0579C13.9107 86.0303 18.7569 90.0633 19.5715 87.5573C20.3829 85.0617 16.6976 79.0681 16.0733 77.2492C14.4808 72.6145 13.3225 67.2532 13.4596 61.8317Z" fill="url(#paint28_linear_5402_2376)"/>
<path d="M19.0753 67.7469C20.5785 71.9738 24.255 73.3781 26.7512 70.8119C29.2473 68.2457 30.211 62.2751 28.9309 57.8446C30.554 57.815 32.0715 59.3754 33.1447 61.4281C34.2175 63.4812 34.9168 65.9993 35.6019 68.4795C35.8455 63.8957 35.3147 59.0699 33.6988 55.3605C32.0829 51.6516 29.2785 49.2787 26.5871 50.0496C25.0433 50.492 23.6522 51.8843 22.3981 53.4655C20.0754 56.3964 17.3041 62.7678 19.0753 67.7469Z" fill="url(#paint29_linear_5402_2376)"/>
<path d="M94.0756 59.2743C92.83 63.1534 93.0492 67.9798 93.9951 72.0927C94.5641 74.568 95.3885 76.8983 96.5039 78.7719C98.6275 82.34 101.662 84.0105 104.651 84.4255C102.852 85.9843 100.706 86.096 98.7308 85.3645C96.7556 84.633 94.9166 83.1169 93.1278 81.527C91.9273 80.4598 90.7048 79.3051 89.87 77.5016C88.7809 75.1484 88.5019 72.0117 88.4792 69.0277C88.4512 65.366 88.7754 61.5914 89.8866 58.4448C91.6181 53.5413 95.0803 50.876 98.4635 50.6717C100.145 50.5704 103.641 54.7633 100.967 55.0245C99.5961 55.1581 98.71 53.7827 97.1694 54.7529C95.8725 55.5693 94.7353 57.2217 94.0756 59.2743Z" fill="url(#paint30_linear_5402_2376)"/>
<path d="M100.088 48.4179C101.274 49.254 107.04 49.9066 110.03 52.947C115.359 58.3658 115.581 67.5115 113.305 73.3819C111.877 77.0645 111.77 78.7667 109.788 81.6308C112.3 83.3188 115.089 80.8287 117.223 78.0303C119.501 75.0436 121.62 71.4683 122.713 66.9672C124.304 60.4118 123.423 52.5758 120.964 46.8334C118.504 41.0911 114.642 37.3335 110.57 35.5858C106.498 33.8382 102.215 33.9657 98.0481 34.8795C96.0564 35.3165 92.7333 36.9951 93.3647 41.5379C93.9318 45.6136 98.154 47.0546 100.088 48.4179Z" fill="url(#paint31_linear_5402_2376)"/>
<path d="M99.3515 39.584H27.0869V52.9445H99.3515V39.584Z" fill="url(#paint32_linear_5402_2376)"/>
<path d="M62.6613 44.7761V29.1582H15.1902V29.4845C11.4972 30.4219 -0.641899 38.743 0.0265567 59.2217C1.02502 89.7999 14.9216 92.7456 21.2456 93.5876C26.8417 94.3323 33.2194 89.588 36.6399 82.0854C40.0605 74.5828 40.4678 64.6925 37.8882 55.5753C37.0161 52.4922 34.1896 47.806 31.1481 46.7384C25.6871 44.8215 19.975 48.3421 18.1535 57.2288C17.6825 59.5262 17.5454 62.1099 18.0859 64.364C18.6264 66.6176 19.947 68.4233 21.3885 68.3598C22.83 68.2957 24.1809 65.9775 23.9451 63.58C23.8886 63.0051 23.7532 62.4614 23.6677 61.8969C23.0227 57.6432 25.6601 53.3847 28.2596 53.6562C30.859 53.9278 32.9953 57.6027 33.8498 61.7496C35.6327 70.4004 32.2115 80.5497 26.9044 82.5065C18.9161 85.4521 9.21701 78.9613 8.93053 61.575C8.76423 51.4755 13.7676 45.196 18.2386 44.8035L21.7276 44.7772H62.6613V44.7761Z" fill="url(#paint33_linear_5402_2376)"/>
<path d="M62.6299 44.8991V29.2812H110.101V29.6076C113.794 30.5449 125.933 38.8661 125.264 59.3448C124.265 89.923 110.369 92.8686 104.045 93.7101C98.4491 94.4548 92.0711 89.7105 88.6506 82.2085C85.2304 74.7059 84.8231 64.815 87.4024 55.6978C88.2748 52.6147 91.1009 47.9285 94.1424 46.8609C99.6034 44.9435 105.316 48.464 107.137 57.3513C107.608 59.6487 107.745 62.2324 107.205 64.486C106.664 66.7395 105.344 68.5458 103.902 68.4817C102.461 68.4177 101.11 66.0995 101.346 63.7019C101.402 63.127 101.537 62.5839 101.623 62.0188C102.268 57.7652 99.6307 53.5066 97.0313 53.7782C94.4319 54.0503 92.2956 57.7247 91.441 61.8721C89.6582 70.5223 93.0793 80.6722 98.3867 82.629C106.375 85.5746 116.074 79.0838 116.36 61.6969C116.527 51.598 111.523 45.318 107.052 44.9254L103.563 44.8991H62.6299Z" fill="url(#paint34_linear_5402_2376)"/>
<path d="M27.987 61.5739C27.987 66.3384 25.6958 70.2 22.8693 70.2C20.0432 70.2 17.752 66.3379 17.752 61.5739C17.752 56.8094 20.0432 52.9473 22.8693 52.9473C25.6958 52.9473 27.987 56.8094 27.987 61.5739Z" fill="url(#paint35_linear_5402_2376)"/>
<path d="M107.584 62.4079C107.584 67.1718 105.292 71.034 102.466 71.034C99.6398 71.034 97.3486 67.1718 97.3486 62.4079C97.3486 57.6434 99.6398 53.7812 102.466 53.7812C105.292 53.7812 107.584 57.6434 107.584 62.4079Z" fill="url(#paint36_linear_5402_2376)"/>
<path opacity="0.77" d="M86.6516 66.9816C86.703 68.9137 87.034 71.0649 88.0295 72.0264C88.138 72.1309 88.263 72.2213 88.3855 72.1775C88.5972 72.1019 88.6898 71.6853 88.731 71.3266C88.9386 69.5253 88.7807 67.6692 88.7986 65.8345C88.847 60.7645 90.3246 55.786 92.7028 52.6805C92.9672 52.335 93.2605 51.6801 93.0107 51.3051C92.9357 51.1923 92.8308 51.1562 92.7308 51.1359C88.6294 50.3081 86.5162 61.8875 86.6516 66.9816Z" fill="url(#paint37_linear_5402_2376)"/>
<path opacity="0.77" d="M94.8211 48.9673C94.5376 49.1453 94.2524 49.4136 94.1111 49.8653C93.9698 50.3164 94.0396 50.98 94.3173 51.1826C94.4654 51.2904 94.6347 51.251 94.7942 51.2094C95.7608 50.9581 96.7271 50.7063 97.6937 50.4544C97.8451 50.415 98.0039 50.3706 98.1247 50.2119C98.4398 49.7996 98.2764 48.8661 97.9266 48.543C97.5768 48.22 97.1487 48.3174 96.7547 48.4237C95.9794 48.6334 95.2041 48.8431 94.4284 49.0522L94.8211 48.9673Z" fill="url(#paint38_linear_5402_2376)"/>
<path d="M37.3424 117.409C37.3258 116.543 37.3047 115.677 37.2791 114.811C37.2388 113.463 37.1858 112.099 36.9601 110.817C36.7344 109.534 36.3154 108.322 35.6908 107.642C35.0025 106.893 34.1599 106.871 33.3648 106.961C32.4794 107.061 31.5443 107.315 30.8615 108.373C30.5458 108.862 30.3041 109.495 30.08 110.137C29.1702 112.742 28.4758 116.015 29.0764 118.915C29.1144 117.246 29.3219 115.52 29.889 114.227C30.4565 112.934 31.3224 111.182 32.4177 111.978C33.3788 112.677 34.2038 113.487 34.2207 119.945V804.553H37.3784V117.409H37.3424Z" fill="url(#paint39_linear_5402_2376)"/>
<path d="M51.533 117.409C51.5165 116.543 51.4953 115.677 51.4697 114.811C51.4294 113.463 51.3765 112.099 51.1507 110.817C50.9247 109.534 50.506 108.322 49.8814 107.642C49.1931 106.893 48.3505 106.871 47.5554 106.961C46.67 107.061 45.7349 107.315 45.0521 108.373C44.7364 108.862 44.4948 109.495 44.2706 110.137C43.3605 112.742 42.6661 116.015 43.267 118.915C43.305 117.246 43.5125 115.52 44.0796 114.227C44.6471 112.934 45.513 111.182 46.6083 111.978C47.5691 112.677 48.3944 113.487 48.4113 119.945V804.553H51.5691V117.409H51.533Z" fill="url(#paint40_linear_5402_2376)"/>
<path d="M65.7217 117.409C65.7051 116.543 65.684 115.677 65.6583 114.811C65.6184 113.463 65.5651 112.099 65.3394 110.817C65.1136 109.534 64.6946 108.322 64.07 107.642C63.3818 106.893 62.5392 106.871 61.7441 106.961C60.8587 107.061 59.9232 107.315 59.2405 108.373C58.9248 108.862 58.6831 109.495 58.459 110.137C57.5489 112.742 56.8547 116.015 57.4553 118.915C57.4933 117.246 57.7009 115.52 58.268 114.227C58.8354 112.934 59.7014 111.182 60.7969 111.978C61.7577 112.677 62.5831 113.487 62.5996 119.945V804.553H65.7574V117.409H65.7217Z" fill="url(#paint41_linear_5402_2376)"/>
<path d="M79.9123 117.409C79.8957 116.543 79.8746 115.677 79.8489 114.811C79.8086 113.463 79.7557 112.099 79.53 110.817C79.3042 109.534 78.8852 108.322 78.2606 107.642C77.5723 106.893 76.7298 106.871 75.9346 106.961C75.0492 107.061 74.1138 107.315 73.431 108.373C73.1153 108.862 72.8737 109.495 72.6495 110.137C71.7394 112.742 71.045 116.015 71.6459 118.915C71.6839 117.246 71.8914 115.52 72.4589 114.227C73.0263 112.934 73.8923 111.182 74.9875 111.978C75.9483 112.677 76.7736 113.487 76.7905 119.945V804.553H79.9483V117.409H79.9123Z" fill="url(#paint42_linear_5402_2376)"/>
<path d="M94.1027 117.409C94.0861 116.543 94.065 115.677 94.0393 114.811C93.9991 113.463 93.9461 112.099 93.7204 110.817C93.4947 109.534 93.0756 108.322 92.451 107.642C91.7628 106.893 90.9206 106.871 90.1251 106.961C89.2397 107.061 88.3046 107.315 87.6215 108.373C87.3058 108.862 87.0641 109.495 86.84 110.137C85.9299 112.742 85.2354 116.015 85.8363 118.915C85.8743 117.246 86.0819 115.52 86.649 114.227C87.2164 112.934 88.0824 111.182 89.178 111.978C90.1387 112.677 90.964 113.487 90.9809 119.945V804.553H94.1387V117.409H94.1027Z" fill="url(#paint43_linear_5402_2376)"/>
<path d="M24.333 93.7812H100.186V126.246C100.186 126.246 93.3667 103.173 68.148 99.8401C42.9289 96.5073 24.333 97.5328 24.333 97.5328V93.7812Z" fill="url(#paint44_linear_5402_2376)"/>
</g>
</g>
<defs>
<filter id="filter0_d_5402_2376" x="0" y="-6.66406" width="160.291" height="902.664" filterUnits="userSpaceOnUse" color-interpolation-filters="sRGB">
<feFlood flood-opacity="0" result="BackgroundImageFix"/>
<feColorMatrix in="SourceAlpha" type="matrix" values="0 0 0 0 0 0 0 0 0 0 0 0 0 0 0 0 0 0 127 0" result="hardAlpha"/>
<feOffset dx="20" dy="4"/>
<feGaussianBlur stdDeviation="7.5"/>
<feComposite in2="hardAlpha" operator="out"/>
<feColorMatrix type="matrix" values="0 0 0 0 0 0 0 0 0 0 0 0 0 0 0 0 0 0 0.25 0"/>
<feBlend mode="normal" in2="BackgroundImageFix" result="effect1_dropShadow_5402_2376"/>
<feBlend mode="normal" in="SourceGraphic" in2="effect1_dropShadow_5402_2376" result="shape"/>
</filter>
<linearGradient id="paint0_linear_5402_2376" x1="62.2596" y1="87.1465" x2="62.2596" y2="815.245" gradientUnits="userSpaceOnUse">
<stop stop-color="#000442"/>
<stop offset="1" stop-color="#1D196F"/>
</linearGradient>
<linearGradient id="paint1_linear_5402_2376" x1="63.8961" y1="83.8711" x2="63.8961" y2="93.7861" gradientUnits="userSpaceOnUse">
<stop stop-color="#000442"/>
<stop offset="1" stop-color="#1D196F"/>
</linearGradient>
<linearGradient id="paint2_linear_5402_2376" x1="62.2675" y1="38.5879" x2="62.2675" y2="86.9472" gradientUnits="userSpaceOnUse">
<stop stop-color="#000442"/>
<stop offset="1" stop-color="#1D196F"/>
</linearGradient>
<linearGradient id="paint3_linear_5402_2376" x1="62.66" y1="4.33594" x2="62.66" y2="13.5944" gradientUnits="userSpaceOnUse">
<stop stop-color="#000442"/>
<stop offset="1" stop-color="#1D196F"/>
</linearGradient>
<linearGradient id="paint4_linear_5402_2376" x1="62.661" y1="13.5977" x2="62.661" y2="29.2566" gradientUnits="userSpaceOnUse">
<stop stop-color="#000442"/>
<stop offset="1" stop-color="#1D196F"/>
</linearGradient>
<linearGradient id="paint5_linear_5402_2376" x1="62.661" y1="13.5977" x2="62.661" y2="16.8953" gradientUnits="userSpaceOnUse">
<stop stop-color="#000442"/>
<stop offset="1" stop-color="#1D196F"/>
</linearGradient>
<linearGradient id="paint6_linear_5402_2376" x1="51.4263" y1="93.7812" x2="51.4263" y2="809.547" gradientUnits="userSpaceOnUse">
<stop stop-color="#000442"/>
<stop offset="1" stop-color="#1D196F"/>
</linearGradient>
<linearGradient id="paint7_linear_5402_2376" x1="47.6672" y1="93.7812" x2="47.6672" y2="809.547" gradientUnits="userSpaceOnUse">
<stop stop-color="#000442"/>
<stop offset="1" stop-color="#1D196F"/>
</linearGradient>
<linearGradient id="paint8_linear_5402_2376" x1="62.1241" y1="809.547" x2="62.1241" y2="821.495" gradientUnits="userSpaceOnUse">
<stop stop-color="#000442"/>
<stop offset="1" stop-color="#1D196F"/>
</linearGradient>
<linearGradient id="paint9_linear_5402_2376" x1="62.4608" y1="809.547" x2="62.4608" y2="821.496" gradientUnits="userSpaceOnUse">
<stop stop-color="#000442"/>
<stop offset="1" stop-color="#1D196F"/>
</linearGradient>
<linearGradient id="paint10_linear_5402_2376" x1="62.1232" y1="821.494" x2="62.1232" y2="856.185" gradientUnits="userSpaceOnUse">
<stop stop-color="#000442"/>
<stop offset="1" stop-color="#1D196F"/>
</linearGradient>
<linearGradient id="paint11_linear_5402_2376" x1="100.002" y1="821.494" x2="100.002" y2="856.185" gradientUnits="userSpaceOnUse">
<stop stop-color="#000442"/>
<stop offset="1" stop-color="#1D196F"/>
</linearGradient>
<linearGradient id="paint12_linear_5402_2376" x1="62.1222" y1="850.404" x2="62.1222" y2="877" gradientUnits="userSpaceOnUse">
<stop stop-color="#000442"/>
<stop offset="1" stop-color="#1D196F"/>
</linearGradient>
<linearGradient id="paint13_linear_5402_2376" x1="111.427" y1="850.404" x2="111.427" y2="877" gradientUnits="userSpaceOnUse">
<stop stop-color="#000442"/>
<stop offset="1" stop-color="#1D196F"/>
</linearGradient>
<linearGradient id="paint14_linear_5402_2376" x1="62.9397" y1="845.531" x2="62.9397" y2="850.41" gradientUnits="userSpaceOnUse">
<stop stop-color="#000442"/>
<stop offset="1" stop-color="#1D196F"/>
</linearGradient>
<linearGradient id="paint15_linear_5402_2376" x1="62.2775" y1="805.654" x2="62.2775" y2="809.55" gradientUnits="userSpaceOnUse">
<stop stop-color="#000442"/>
<stop offset="1" stop-color="#1D196F"/>
</linearGradient>
<linearGradient id="paint16_linear_5402_2376" x1="49.826" y1="67.8125" x2="49.826" y2="86.946" gradientUnits="userSpaceOnUse">
<stop stop-color="#000442"/>
<stop offset="1" stop-color="#1D196F"/>
</linearGradient>
<linearGradient id="paint17_linear_5402_2376" x1="75.5117" y1="67.7109" x2="75.5117" y2="87.0426" gradientUnits="userSpaceOnUse">
<stop stop-color="#000442"/>
<stop offset="1" stop-color="#1D196F"/>
</linearGradient>
<linearGradient id="paint18_linear_5402_2376" x1="46.2181" y1="72.5879" x2="46.2181" y2="86.9451" gradientUnits="userSpaceOnUse">
<stop stop-color="#000442"/>
<stop offset="1" stop-color="#1D196F"/>
</linearGradient>
<linearGradient id="paint19_linear_5402_2376" x1="43.0703" y1="73.3789" x2="43.0703" y2="85.6321" gradientUnits="userSpaceOnUse">
<stop stop-color="#000442"/>
<stop offset="1" stop-color="#1D196F"/>
</linearGradient>
<linearGradient id="paint20_linear_5402_2376" x1="54.895" y1="72.5879" x2="54.895" y2="86.9451" gradientUnits="userSpaceOnUse">
<stop stop-color="#000442"/>
<stop offset="1" stop-color="#1D196F"/>
</linearGradient>
<linearGradient id="paint21_linear_5402_2376" x1="51.749" y1="73.3789" x2="51.749" y2="85.6321" gradientUnits="userSpaceOnUse">
<stop stop-color="#000442"/>
<stop offset="1" stop-color="#1D196F"/>
</linearGradient>
<linearGradient id="paint22_linear_5402_2376" x1="63.5728" y1="72.5879" x2="63.5728" y2="86.9451" gradientUnits="userSpaceOnUse">
<stop stop-color="#000442"/>
<stop offset="1" stop-color="#1D196F"/>
</linearGradient>
<linearGradient id="paint23_linear_5402_2376" x1="60.4249" y1="73.3789" x2="60.4249" y2="85.6321" gradientUnits="userSpaceOnUse">
<stop stop-color="#000442"/>
<stop offset="1" stop-color="#1D196F"/>
</linearGradient>
<linearGradient id="paint24_linear_5402_2376" x1="72.2495" y1="72.5879" x2="72.2495" y2="86.9451" gradientUnits="userSpaceOnUse">
<stop stop-color="#000442"/>
<stop offset="1" stop-color="#1D196F"/>
</linearGradient>
<linearGradient id="paint25_linear_5402_2376" x1="69.1036" y1="73.3789" x2="69.1036" y2="85.6321" gradientUnits="userSpaceOnUse">
<stop stop-color="#000442"/>
<stop offset="1" stop-color="#1D196F"/>
</linearGradient>
<linearGradient id="paint26_linear_5402_2376" x1="80.9234" y1="72.5879" x2="80.9234" y2="86.9451" gradientUnits="userSpaceOnUse">
<stop stop-color="#000442"/>
<stop offset="1" stop-color="#1D196F"/>
</linearGradient>
<linearGradient id="paint27_linear_5402_2376" x1="77.7801" y1="73.3789" x2="77.7801" y2="85.6321" gradientUnits="userSpaceOnUse">
<stop stop-color="#000442"/>
<stop offset="1" stop-color="#1D196F"/>
</linearGradient>
<linearGradient id="paint28_linear_5402_2376" x1="19.2639" y1="39.584" x2="19.2639" y2="88.3655" gradientUnits="userSpaceOnUse">
<stop stop-color="#000442"/>
<stop offset="1" stop-color="#1D196F"/>
</linearGradient>
<linearGradient id="paint29_linear_5402_2376" x1="27.0854" y1="49.9043" x2="27.0854" y2="72.0976" gradientUnits="userSpaceOnUse">
<stop stop-color="#000442"/>
<stop offset="1" stop-color="#1D196F"/>
</linearGradient>
<linearGradient id="paint30_linear_5402_2376" x1="96.5641" y1="50.6699" x2="96.5641" y2="85.8" gradientUnits="userSpaceOnUse">
<stop stop-color="#000442"/>
<stop offset="1" stop-color="#1D196F"/>
</linearGradient>
<linearGradient id="paint31_linear_5402_2376" x1="108.4" y1="34.2227" x2="108.4" y2="82.1797" gradientUnits="userSpaceOnUse">
<stop stop-color="#000442"/>
<stop offset="1" stop-color="#1D196F"/>
</linearGradient>
<linearGradient id="paint32_linear_5402_2376" x1="63.2192" y1="39.584" x2="63.2192" y2="52.9445" gradientUnits="userSpaceOnUse">
<stop stop-color="#000442"/>
<stop offset="1" stop-color="#1D196F"/>
</linearGradient>
<linearGradient id="paint33_linear_5402_2376" x1="31.3306" y1="29.1582" x2="31.3306" y2="93.6643" gradientUnits="userSpaceOnUse">
<stop stop-color="#000442"/>
<stop offset="1" stop-color="#1D196F"/>
</linearGradient>
<linearGradient id="paint34_linear_5402_2376" x1="93.9604" y1="29.2812" x2="93.9604" y2="93.7868" gradientUnits="userSpaceOnUse">
<stop stop-color="#000442"/>
<stop offset="1" stop-color="#1D196F"/>
</linearGradient>
<linearGradient id="paint35_linear_5402_2376" x1="22.8695" y1="52.9473" x2="22.8695" y2="70.2" gradientUnits="userSpaceOnUse">
<stop stop-color="#000442"/>
<stop offset="1" stop-color="#1D196F"/>
</linearGradient>
<linearGradient id="paint36_linear_5402_2376" x1="102.466" y1="53.7812" x2="102.466" y2="71.034" gradientUnits="userSpaceOnUse">
<stop stop-color="#000442"/>
<stop offset="1" stop-color="#1D196F"/>
</linearGradient>
<linearGradient id="paint37_linear_5402_2376" x1="89.8755" y1="51.0938" x2="89.8755" y2="72.1888" gradientUnits="userSpaceOnUse">
<stop stop-color="#000442"/>
<stop offset="1" stop-color="#1D196F"/>
</linearGradient>
<linearGradient id="paint38_linear_5402_2376" x1="96.1664" y1="48.3223" x2="96.1664" y2="51.2522" gradientUnits="userSpaceOnUse">
<stop stop-color="#000442"/>
<stop offset="1" stop-color="#1D196F"/>
</linearGradient>
<linearGradient id="paint39_linear_5402_2376" x1="33.115" y1="106.924" x2="33.115" y2="804.553" gradientUnits="userSpaceOnUse">
<stop stop-color="#000442"/>
<stop offset="1" stop-color="#1D196F"/>
</linearGradient>
<linearGradient id="paint40_linear_5402_2376" x1="47.3055" y1="106.924" x2="47.3055" y2="804.553" gradientUnits="userSpaceOnUse">
<stop stop-color="#000442"/>
<stop offset="1" stop-color="#1D196F"/>
</linearGradient>
<linearGradient id="paint41_linear_5402_2376" x1="61.4939" y1="106.924" x2="61.4939" y2="804.553" gradientUnits="userSpaceOnUse">
<stop stop-color="#000442"/>
<stop offset="1" stop-color="#1D196F"/>
</linearGradient>
<linearGradient id="paint42_linear_5402_2376" x1="75.6846" y1="106.924" x2="75.6846" y2="804.553" gradientUnits="userSpaceOnUse">
<stop stop-color="#000442"/>
<stop offset="1" stop-color="#1D196F"/>
</linearGradient>
<linearGradient id="paint43_linear_5402_2376" x1="89.875" y1="106.924" x2="89.875" y2="804.553" gradientUnits="userSpaceOnUse">
<stop stop-color="#000442"/>
<stop offset="1" stop-color="#1D196F"/>
</linearGradient>
<linearGradient id="paint44_linear_5402_2376" x1="62.2596" y1="93.7812" x2="62.2596" y2="126.246" gradientUnits="userSpaceOnUse">
<stop stop-color="#000442"/>
<stop offset="1" stop-color="#1D196F"/>
</linearGradient>
</defs>
</svg>
