<svg width="189" height="376" viewBox="0 0 189 376" fill="none" xmlns="http://www.w3.org/2000/svg">
<g filter="url(#filter0_d_5534_10432)">
<path opacity="0.06" d="M-60.2634 388.503C-60.2634 397.303 -21.7868 404.438 25.6779 404.438C73.1427 404.438 111.619 397.303 111.619 388.503C111.619 379.701 73.1427 372.568 25.6779 372.568C-21.7868 372.568 -60.2634 379.703 -60.2634 388.503Z" fill="#51598D"/>
<path d="M66.9944 64.0526C61.6239 77.6073 56.7336 91.3797 52.3407 105.335C47.9694 119.225 44.089 133.294 40.7081 147.499C37.3273 161.707 34.444 176.049 32.0688 190.49C29.6893 204.955 27.831 219.516 26.4894 234.136C25.15 248.728 24.3274 263.376 24.0259 278.037C23.9872 279.896 23.9592 281.755 23.9377 283.612C23.9075 286.223 20.1348 286.156 20.1649 283.542C20.3393 268.811 21.0306 254.087 22.2494 239.412C23.4768 224.626 25.2405 209.893 27.5058 195.248C29.754 180.714 32.5145 166.272 35.7791 151.965C39.0436 137.656 42.8141 123.48 47.0821 109.481C51.348 95.4796 56.1113 81.6563 61.3634 68.0483C62.0266 66.3305 62.6963 64.6174 63.3746 62.9089C63.773 61.9018 64.658 61.2004 65.7175 61.5361C66.6068 61.8162 67.395 63.0409 66.9944 64.0526Z" fill="#5A7F41"/>
<path d="M22.6236 234.397C22.1563 224.535 20.5886 214.761 18.0218 205.28C15.4507 195.793 11.8675 186.649 7.35402 178.041C4.81088 173.193 1.98134 168.505 -1.1389 164.065C-1.75261 163.192 -1.88828 162.023 -1.09369 161.197C-0.428295 160.507 0.956289 160.368 1.57431 161.245C7.34105 169.45 12.2292 178.314 16.073 187.734C19.9125 197.145 22.7786 207.005 24.5121 217.113C25.494 222.842 26.1228 228.646 26.3985 234.464C26.4502 235.559 25.4489 236.476 24.4798 236.457C23.3988 236.439 22.6753 235.494 22.6236 234.397Z" fill="#5A7F41"/>
<path d="M31.9402 173.486C30.2218 163.193 27.6227 153.076 24.1838 143.295C20.7728 133.59 16.494 124.23 11.4874 115.363C8.67292 110.381 5.6281 105.548 2.34204 100.913C1.72402 100.042 1.59481 98.8685 2.38725 98.0443C3.0548 97.3521 4.43293 97.2179 5.05525 98.0929C11.0804 106.592 16.395 115.641 20.8675 125.184C25.3358 134.715 28.9987 144.702 31.7744 154.951C33.3356 160.716 34.6082 166.566 35.5945 172.474C35.7753 173.55 35.2757 174.659 34.2378 174.944C33.3076 175.201 32.1211 174.569 31.9402 173.486Z" fill="#5A7F41"/>
<path d="M73.6636 125.478C66.7147 131.379 60.332 138.037 54.6385 145.33C48.9966 152.555 44.0654 160.436 39.9094 168.742C37.5816 173.391 35.5079 178.178 33.7034 183.086C33.3287 184.105 32.4006 184.788 31.3605 184.459C30.4496 184.172 29.7067 182.964 30.0836 181.94C33.4148 172.879 37.5816 164.184 42.5603 156.042C47.5324 147.909 53.2819 140.304 59.6796 133.421C63.2649 129.564 67.0613 125.939 71.0429 122.561C71.8418 121.883 72.953 121.767 73.711 122.61C74.3635 123.339 74.4668 124.797 73.6636 125.478Z" fill="#5A7F41"/>
<path d="M66.0627 192.908C53.6915 199.807 42.6382 209.435 33.7404 220.959C31.1973 224.254 28.8307 227.703 26.645 231.285C26.0852 232.202 24.7415 232.252 23.9943 231.616C23.1372 230.884 23.1264 229.685 23.6863 228.766C31.615 215.774 42.0288 204.504 54.0425 195.866C57.4513 193.417 60.9936 191.181 64.6328 189.153C65.5372 188.648 66.7323 189.315 67.0941 190.264C67.5097 191.357 66.9692 192.403 66.0627 192.908Z" fill="#5A7F41"/>
<path d="M25.4611 138.866C34.0682 131.516 37.6083 118.76 36.4218 107.013C35.2353 95.2665 29.9208 84.418 23.4693 74.8522C9.01582 53.4239 -11.7363 36.9846 -35.0552 28.4883C-36.9437 27.8007 -39.0583 27.171 -40.8758 28.053C-42.1851 28.6897 -43.0895 30.0024 -43.8389 31.3219C-47.4199 37.612 -48.8045 45.0526 -49.5561 52.3821C-51.4467 70.8216 -49.5948 90.0159 -42.0989 106.726C-34.603 123.436 -21.0755 137.412 -4.50957 142.605C4.1707 145.325 17.8253 144.075 25.4611 138.866Z" fill="#6D9357"/>
<path d="M20.2477 137.848C15.7752 126.272 11.2724 114.699 6.14306 103.439C1.05679 92.2733 -4.66257 81.3924 -11.5469 71.382C-15.3778 65.812 -19.5962 60.5475 -24.1872 55.6882C-25.3436 54.4635 -23.5326 52.5883 -22.3784 53.8083C-14.0793 62.594 -7.08728 72.7063 -1.0772 83.4088C4.93933 94.123 9.99762 105.423 14.6834 116.866C17.3514 123.381 19.901 129.951 22.4398 136.523C22.7004 137.197 22.5992 137.977 21.9596 138.364C21.4213 138.69 20.5083 138.526 20.2477 137.848Z" fill="#4B6D30"/>
<path d="M60.4124 129.48C58.5196 121.607 61.4934 113.023 66.6744 107.098C71.8555 101.174 78.9594 97.5833 86.1926 95.2058C102.397 89.8765 120.134 90.0964 136.22 95.8215C137.523 96.2846 138.927 96.8819 139.586 98.1783C140.059 99.1113 140.051 100.236 139.954 101.294C139.495 106.346 137.385 111.05 134.973 115.412C128.901 126.385 120.483 136.101 109.921 141.94C99.3583 147.779 86.5393 149.427 75.4365 144.894C69.6181 142.519 62.5981 135.745 60.4124 129.48Z" fill="#6D9357"/>
<path d="M63.6706 131.245C70.5915 126.881 77.5276 122.529 84.6876 118.63C91.7872 114.764 99.1238 111.335 106.766 108.905C111.017 107.553 115.367 106.541 119.762 105.918C120.869 105.761 120.597 103.922 119.493 104.08C111.547 105.207 103.805 107.645 96.3761 110.847C88.9405 114.051 81.8042 118.003 74.8165 122.2C70.8392 124.589 66.905 127.062 62.975 129.541C62.5724 129.796 62.3269 130.268 62.5293 130.768C62.6994 131.185 63.2636 131.5 63.6706 131.245Z" fill="#4B6D30"/>
<path d="M51.9589 92.275C44.8636 85.7743 42.2106 74.8518 43.5328 64.9317C44.855 55.0116 49.657 45.9852 55.385 38.0792C68.2169 20.3712 86.2536 7.08733 106.248 0.619027C107.867 0.0958208 109.676 -0.371792 111.194 0.433852C112.288 1.01494 113.018 2.15626 113.617 3.29759C116.481 8.74033 117.452 15.0929 117.889 21.3274C118.991 37.0166 116.901 53.2267 110.094 67.1542C103.287 81.0817 91.4432 92.5019 77.2589 96.3843C69.8298 98.4169 58.2899 96.9283 51.9589 92.275Z" fill="#4B6D30"/>
<path d="M56.4057 91.5764C60.5121 81.9064 64.6423 72.2364 69.2958 62.8534C73.9104 53.5491 79.0527 44.5064 85.1597 36.2393C88.5577 31.6393 92.2766 27.3101 96.2991 23.3351C97.3112 22.335 95.8275 20.6866 94.8176 21.6844C87.5456 28.8704 81.3439 37.2232 75.9583 46.1061C70.5684 54.9983 65.9752 64.416 61.6922 73.968C59.2546 79.4061 56.916 84.8952 54.5839 90.3842C54.3449 90.9468 54.4095 91.6112 54.9414 91.9608C55.3871 92.2525 56.1666 92.1413 56.4057 91.5764Z" fill="#6D9357"/>
<path d="M11.1906 176.821C14.959 167.732 13.0188 156.583 7.92393 148.119C2.82905 139.655 -5.01354 133.553 -13.2459 128.885C-31.6831 118.435 -53.0187 114.338 -73.4155 117.329C-75.0672 117.572 -76.8674 117.951 -77.9032 119.359C-78.6504 120.375 -78.8506 121.741 -78.9368 123.049C-79.3459 129.291 -77.7072 135.518 -75.6378 141.405C-70.4331 156.213 -62.1728 170.077 -50.6027 179.759C-39.0326 189.441 -23.9589 194.594 -9.77032 191.828C-2.33471 190.378 7.37697 183.885 11.1906 176.821Z" fill="#4B6D30"/>
<path d="M6.94606 178.162C-0.532617 171.164 -8.03284 164.177 -15.8884 157.686C-23.6771 151.247 -31.8341 145.284 -40.5446 140.455C-45.3918 137.769 -50.4178 135.47 -55.5772 133.634C-56.8757 133.171 -56.2018 131.007 -54.9054 131.47C-45.5792 134.792 -36.7525 139.656 -28.4426 145.365C-20.1241 151.081 -12.3095 157.632 -4.71883 164.446C-0.397002 168.323 3.85377 172.291 8.10023 176.266C8.53521 176.674 8.74198 177.308 8.4039 177.864C8.12181 178.327 7.3832 178.572 6.94606 178.162Z" fill="#6D9357"/>
<path d="M48.2045 200.338C63.164 183.804 87.818 171.534 109.201 169.645C130.584 167.758 152.017 171.379 173.208 174.99C168.294 183.38 160.512 189.348 152.469 194.201C133.06 205.913 110.926 212.358 88.6729 212.775C74.3228 213.045 59.0618 210.429 48.2045 200.338Z" fill="#6D9357"/>
<path d="M53.4432 198.255C64.3048 193.199 75.5864 189.205 87.1177 186.332C98.662 183.457 110.443 181.674 122.278 181.049C128.964 180.695 135.663 180.716 142.35 181.1C143.028 181.139 143.629 181.612 143.661 182.394C143.689 183.07 143.14 183.843 142.46 183.804C130.689 183.126 118.867 183.593 107.174 185.195C95.546 186.788 84.0556 189.518 72.8796 193.324C66.5444 195.481 60.3147 197.988 54.2163 200.827C53.5918 201.118 52.8273 200.602 52.6335 199.956C52.4053 199.204 52.8166 198.546 53.4432 198.255Z" fill="#4B6D30"/>
<path d="M3.20986 263.96V256.371H48.2736V259.244C48.2736 278.42 55.7566 297.153 70.0787 311.194C80.122 321.04 86.2656 334.236 86.2656 348.745C86.2656 379.223 59.1675 391.032 25.7407 391.032C-7.6862 391.032 -34.7843 379.22 -34.7843 348.745C-34.7843 333.512 -28.0098 319.725 -17.062 309.743C-3.8123 297.67 3.20986 281.038 3.20986 263.96Z" fill="#F2DDD6"/>
<path d="M-17.057 309.746C-3.8116 297.67 3.2127 281.041 3.2127 263.963V256.374H21.7038C19.4384 266.287 17.0223 276.339 12.9546 285.787C9.56729 293.661 3.98363 300.546 0.169991 308.239C-11.9772 332.744 -1.06821 363.099 26.0277 374.859C42.5011 382.011 63.9336 380.654 79.3389 371.53C69.2137 385.298 49.0172 391.035 25.7413 391.035C-7.68552 391.035 -34.7836 379.223 -34.7836 348.748C-34.7815 333.512 -28.0069 319.726 -17.057 309.746Z" fill="#E5C1B7"/>
<path d="M3.24744 261.37H49.5536C51.3 261.37 52.7148 259.849 52.7148 257.972C52.7148 256.094 51.3 254.573 49.5536 254.573H3.24744C1.50105 254.573 0.0863075 256.094 0.0863075 257.972C0.0863075 259.849 1.5032 261.37 3.24744 261.37Z" fill="#51598D"/>
<path d="M51.3898 281.366C49.7231 281.366 48.0542 281.366 46.3875 281.366C42.4037 281.366 38.42 281.366 34.4363 281.366C29.6192 281.366 24.8021 281.366 19.985 281.366C15.8052 281.366 11.6234 281.366 7.44367 281.366C5.42596 281.366 3.39318 281.43 1.37547 281.366C1.34747 281.366 1.31946 281.366 1.28931 281.366C-0.513062 281.366 -0.515217 278.812 1.28931 278.812C2.95603 278.812 4.62489 278.812 6.29161 278.812C10.2754 278.812 14.2591 278.812 18.2429 278.812C23.06 278.812 27.8771 278.812 32.6942 278.812C36.8739 278.812 41.0536 278.812 45.2355 278.812C47.2532 278.812 49.286 278.747 51.3037 278.812C51.3317 278.812 51.3618 278.812 51.3898 278.812C53.1921 278.812 53.1964 281.366 51.3898 281.366Z" fill="#51598D"/>
<path d="M67.1206 309.398C66.3906 309.398 65.6606 309.398 64.9285 309.398C62.9409 309.398 60.9512 309.398 58.9637 309.398C56.0221 309.398 53.0806 309.398 50.1391 309.398C46.5322 309.398 42.9231 309.398 39.3162 309.398C35.382 309.398 31.4499 309.398 27.5157 309.398C23.5449 309.398 19.5741 309.398 15.6054 309.398C11.9016 309.398 8.19988 309.398 4.49823 309.398C1.36722 309.398 -1.76163 309.398 -4.89264 309.398C-7.14507 309.398 -9.3975 309.398 -11.6499 309.398C-12.7202 309.398 -13.7947 309.421 -14.8671 309.398C-14.9123 309.398 -14.9575 309.398 -15.0028 309.398C-16.8051 309.398 -16.8073 306.844 -15.0028 306.844C-14.2728 306.844 -13.5428 306.844 -12.8106 306.844C-10.823 306.844 -8.83327 306.844 -6.84571 306.844C-3.9042 306.844 -0.9627 306.844 1.97881 306.844C5.58572 306.844 9.19478 306.844 12.8017 306.844C16.7359 306.844 20.668 306.844 24.6022 306.844C28.573 306.844 32.5438 306.844 36.5147 306.844C40.2163 306.844 43.9201 306.844 47.6218 306.844C50.7528 306.844 53.8817 306.844 57.0127 306.844C59.2651 306.844 61.5175 306.844 63.77 306.844C64.8402 306.844 65.9147 306.821 66.9871 306.844C67.0323 306.847 67.0775 306.844 67.1227 306.844C68.9208 306.844 68.9252 309.398 67.1206 309.398Z" fill="#51598D"/>
<path d="M85.0624 338.741C83.9987 338.741 82.9328 338.741 81.869 338.741C78.9985 338.741 76.1281 338.741 73.2576 338.741C69.0004 338.741 64.7453 338.741 60.4902 338.741C55.2985 338.741 50.1045 338.741 44.9127 338.741C39.245 338.741 33.5773 338.741 27.9096 338.741C22.1494 338.741 16.3891 338.741 10.631 338.741C5.29706 338.741 -0.03685 338.741 -5.37077 338.741C-9.89501 338.741 -14.4171 338.741 -18.9414 338.741C-22.1929 338.741 -25.4467 338.741 -28.6983 338.741C-30.2358 338.741 -31.7733 338.764 -33.3108 338.741C-33.3776 338.741 -33.4443 338.741 -33.5133 338.741C-35.3156 338.741 -35.3178 336.187 -33.5133 336.187C-32.4495 336.187 -31.3836 336.187 -30.3198 336.187C-27.4493 336.187 -24.5789 336.187 -21.7085 336.187C-17.4512 336.187 -13.1962 336.187 -8.94111 336.187C-3.74931 336.187 1.44465 336.187 6.63644 336.187C12.3041 336.187 17.9718 336.187 23.6395 336.187C29.3998 336.187 35.1579 336.187 40.9182 336.187C46.2521 336.187 51.5861 336.187 56.92 336.187C61.4442 336.187 65.9663 336.187 70.4906 336.187C73.7422 336.187 76.9959 336.187 80.2474 336.187C81.785 336.187 83.3225 336.164 84.86 336.187C84.9267 336.189 84.9935 336.187 85.0624 336.187C86.8648 336.187 86.867 338.741 85.0624 338.741Z" fill="#51598D"/>
<path d="M81.0315 370.306C80.0431 370.306 79.0547 370.306 78.0641 370.306C75.3853 370.306 72.7087 370.306 70.0299 370.306C66.0719 370.306 62.114 370.306 58.1583 370.306C53.3304 370.306 48.5047 370.306 43.6768 370.306C38.3903 370.306 33.1016 370.306 27.815 370.306C22.4596 370.306 17.102 370.306 11.7466 370.306C6.77013 370.306 1.79366 370.306 -3.1828 370.306C-7.38834 370.306 -11.5939 370.306 -15.7995 370.306C-18.825 370.306 -21.8504 370.306 -24.8738 370.306C-26.3079 370.306 -27.7442 370.329 -29.1784 370.306C-29.2408 370.304 -29.3033 370.306 -29.3657 370.306C-31.1681 370.306 -31.1702 367.752 -29.3657 367.752C-28.3773 367.752 -27.3889 367.752 -26.3984 367.752C-23.7196 367.752 -21.0429 367.752 -18.3641 367.752C-14.4062 367.752 -10.4483 367.752 -6.49252 367.752C-1.66464 367.752 3.16102 367.752 7.98889 367.752C13.2754 367.752 18.5642 367.752 23.8507 367.752C29.2062 367.752 34.5637 367.752 39.9192 367.752C44.8956 367.752 49.8721 367.752 54.8464 367.752C59.0519 367.752 63.2575 367.752 67.4631 367.752C70.4886 367.752 73.514 367.752 76.5374 367.752C77.9715 367.752 79.4078 367.729 80.842 367.752C80.9044 367.752 80.9669 367.752 81.0293 367.752C82.8338 367.752 82.836 370.306 81.0315 370.306Z" fill="#51598D"/>
</g>
<defs>
<filter id="filter0_d_5534_10432" x="-79" y="0" width="267.208" height="421.438" filterUnits="userSpaceOnUse" color-interpolation-filters="sRGB">
<feFlood flood-opacity="0" result="BackgroundImageFix"/>
<feColorMatrix in="SourceAlpha" type="matrix" values="0 0 0 0 0 0 0 0 0 0 0 0 0 0 0 0 0 0 127 0" result="hardAlpha"/>
<feOffset dx="11" dy="13"/>
<feGaussianBlur stdDeviation="2"/>
<feComposite in2="hardAlpha" operator="out"/>
<feColorMatrix type="matrix" values="0 0 0 0 0 0 0 0 0 0 0 0 0 0 0 0 0 0 0.25 0"/>
<feBlend mode="normal" in2="BackgroundImageFix" result="effect1_dropShadow_5534_10432"/>
<feBlend mode="normal" in="SourceGraphic" in2="effect1_dropShadow_5534_10432" result="shape"/>
</filter>
</defs>
</svg>
