<svg width="713" height="232" viewBox="0 0 713 232" fill="none" xmlns="http://www.w3.org/2000/svg">
<g opacity="0.7" filter="url(#filter0_d_5529_2165)">
<path d="M181.853 132.549C180.203 132.549 178.553 132.536 176.897 132.51C76.3549 131.057 10.7127 74.2042 7.69238 71.9675L20.079 67.7925C20.7416 68.2787 86.9878 116.296 177.936 117.615C233.867 118.412 288.623 101.543 340.982 67.4326L352.837 71.9643C295.723 109.171 255.958 132.549 181.853 132.549Z" fill="#9C1D01"/>
<path d="M20.0242 229.005C16.6562 229.005 13.2881 229.005 9.92222 229.005C6.90614 156.311 6.90614 140.516 9.92222 67.8223C13.2903 67.8223 16.6584 67.8223 20.0242 67.8223C23.0403 140.516 23.0403 156.311 20.0242 229.005Z" fill="#F3D66C"/>
<path d="M25.7124 51.9116C25.7124 60.7018 20.9034 67.8232 14.9724 67.8232C9.04143 67.8232 4.23242 60.6985 4.23242 51.9116C4.23242 43.1247 9.04143 36 14.9724 36C20.9034 36 25.7124 43.1247 25.7124 51.9116Z" fill="#F3D66C"/>
<path d="M24.3414 64.7744H5.60254V71.8828H24.3414V64.7744Z" fill="#B6A156"/>
<path d="M25.7723 241.867H4.62891V232.897C4.62891 230.124 6.14685 227.878 8.01677 227.878H22.38C24.2521 227.878 25.7701 230.127 25.7701 232.897L25.7723 241.867Z" fill="#B6A156"/>
<path d="M355.824 229.005C352.456 229.005 349.088 229.005 345.722 229.005C342.706 156.311 342.706 140.516 345.722 67.8223C349.09 67.8223 352.458 67.8223 355.824 67.8223C358.838 140.516 358.838 156.311 355.824 229.005Z" fill="#F3D66C"/>
<path d="M361.512 51.9116C361.512 60.7018 356.703 67.8232 350.772 67.8232C344.841 67.8232 340.032 60.6985 340.032 51.9116C340.032 43.1247 344.841 36 350.772 36C356.703 36 361.512 43.1247 361.512 51.9116Z" fill="#F3D66C"/>
<path d="M360.139 64.7744H341.4V71.8828H360.139V64.7744Z" fill="#B6A156"/>
<path d="M361.572 241.868H340.429V232.898C340.429 230.125 341.947 227.879 343.817 227.879H358.18C360.052 227.879 361.57 230.128 361.57 232.898L361.572 241.868Z" fill="#B6A156"/>
<g opacity="0.1">
<path d="M27.5319 234.869H25.772V232.894C25.772 230.12 24.2541 227.871 22.3819 227.871H20.0698C21.3744 196.351 22.1003 175.583 22.2521 156.061C19.8014 175.16 15.1552 192.095 8.97565 205.34C9.23744 212.243 9.53443 219.681 9.87321 227.868H8.01649C6.14436 227.868 4.62642 230.117 4.62642 232.891V234.866H2.86649C1.28255 234.866 0 236.766 0 239.113V250.976H30.3962V239.113C30.3962 236.769 29.1137 234.869 27.5319 234.869Z" fill="#1D1D1B"/>
</g>
<g opacity="0.1">
<path d="M363.331 234.869H361.572V232.894C361.572 230.12 360.054 227.871 358.181 227.871H355.869C357.174 196.351 357.9 175.583 358.052 156.061C355.601 175.16 350.955 192.095 344.775 205.34C345.037 212.243 345.334 219.681 345.673 227.868H343.816C341.944 227.868 340.428 230.117 340.428 232.891V234.866H338.668C337.084 234.866 335.802 236.766 335.802 239.113V250.976H366.194V239.113C366.198 236.769 364.915 234.869 363.331 234.869Z" fill="#1D1D1B"/>
</g>
<path d="M517.655 132.549C516.005 132.549 514.356 132.536 512.699 132.51C412.158 131.057 346.515 74.2042 343.495 71.9675L355.882 67.7925C356.544 68.2787 422.791 116.296 513.739 117.615C569.67 118.412 624.426 101.543 676.785 67.4326L688.639 71.9643C631.526 109.171 591.761 132.549 517.655 132.549Z" fill="#9C1D01"/>
<path d="M355.825 229.005C352.457 229.005 349.089 229.005 345.723 229.005C342.707 156.311 342.707 140.516 345.723 67.8223C349.091 67.8223 352.459 67.8223 355.825 67.8223C358.841 140.516 358.841 156.311 355.825 229.005Z" fill="#F3D66C"/>
<path d="M361.513 51.9116C361.513 60.7018 356.704 67.8232 350.773 67.8232C344.842 67.8232 340.033 60.6985 340.033 51.9116C340.033 43.1247 344.842 36 350.773 36C356.704 36 361.513 43.1247 361.513 51.9116Z" fill="#F3D66C"/>
<path d="M360.143 64.7744H341.404V71.8828H360.143V64.7744Z" fill="#B6A156"/>
<path d="M361.572 241.868H340.429V232.898C340.429 230.125 341.947 227.879 343.817 227.879H358.18C360.052 227.879 361.57 230.128 361.57 232.898L361.572 241.868Z" fill="#B6A156"/>
<path d="M691.626 229.005C688.258 229.005 684.89 229.005 681.524 229.005C678.508 156.311 678.508 140.516 681.524 67.8223C684.892 67.8223 688.26 67.8223 691.626 67.8223C694.64 140.516 694.64 156.311 691.626 229.005Z" fill="#F3D66C"/>
<path d="M697.315 51.9116C697.315 60.7018 692.506 67.8232 686.575 67.8232C680.644 67.8232 675.835 60.6985 675.835 51.9116C675.835 43.1247 680.644 36 686.575 36C692.506 36 697.315 43.1247 697.315 51.9116Z" fill="#F3D66C"/>
<path d="M695.941 64.7744H677.202V71.8828H695.941V64.7744Z" fill="#B6A156"/>
<path d="M697.374 241.868H676.23V232.898C676.23 230.125 677.748 227.879 679.618 227.879H693.982C695.854 227.879 697.372 230.128 697.372 232.898L697.374 241.868Z" fill="#B6A156"/>
<g opacity="0.1">
<path d="M363.334 234.869H361.574V232.894C361.574 230.12 360.056 227.871 358.184 227.871H355.872C357.176 196.351 357.902 175.583 358.054 156.061C355.603 175.16 350.957 192.095 344.777 205.34C345.039 212.243 345.336 219.681 345.675 227.868H343.818C341.946 227.868 340.428 230.117 340.428 232.891V234.866H338.668C337.084 234.866 335.802 236.766 335.802 239.113V250.976H366.198V239.113C366.198 236.769 364.915 234.869 363.334 234.869Z" fill="#1D1D1B"/>
</g>
<g opacity="0.1">
<path d="M699.132 234.869H697.372V232.894C697.372 230.12 695.854 227.871 693.982 227.871H691.67C692.975 196.351 693.701 175.583 693.852 156.061C691.402 175.16 686.756 192.095 680.576 205.34C680.838 212.243 681.135 219.681 681.474 227.868H679.617C677.745 227.868 676.229 230.117 676.229 232.891V234.866H674.469C672.885 234.866 671.603 236.766 671.603 239.113V250.976H701.994V239.113C701.999 236.769 700.716 234.869 699.132 234.869Z" fill="#1D1D1B"/>
</g>
</g>
<defs>
<filter id="filter0_d_5529_2165" x="-10.7945" y="0.917817" width="723.588" height="250.061" filterUnits="userSpaceOnUse" color-interpolation-filters="sRGB">
<feFlood flood-opacity="0" result="BackgroundImageFix"/>
<feColorMatrix in="SourceAlpha" type="matrix" values="0 0 0 0 0 0 0 0 0 0 0 0 0 0 0 0 0 0 127 0" result="hardAlpha"/>
<feOffset dy="-24.2877"/>
<feGaussianBlur stdDeviation="5.39726"/>
<feComposite in2="hardAlpha" operator="out"/>
<feColorMatrix type="matrix" values="0 0 0 0 0 0 0 0 0 0 0 0 0 0 0 0 0 0 0.25 0"/>
<feBlend mode="normal" in2="BackgroundImageFix" result="effect1_dropShadow_5529_2165"/>
<feBlend mode="normal" in="SourceGraphic" in2="effect1_dropShadow_5529_2165" result="shape"/>
</filter>
</defs>
</svg>
