<svg width="230" height="1006" viewBox="0 0 230 1006" fill="none" xmlns="http://www.w3.org/2000/svg">
<g opacity="0.1" filter="url(#filter0_d_4854_3399)">
<path d="M156.328 95.4629H39.4824V934.807H156.328V95.4629Z" fill="#EAE1CC"/>
<path d="M165.353 91.6836H35.501V103.113H165.353V91.6836Z" fill="#C9C1B3"/>
<path d="M182.753 39.4814H13.0869V95.2296H182.753V39.4814Z" fill="#C9C1B3"/>
<path d="M108.63 0H88.42H13.0869V10.6731H88.42H108.63H183.962V0H108.63Z" fill="#EAE1CC"/>
<path d="M108.63 10.6729H88.4198H16.9648C16.9648 10.6729 21.3559 12.1738 23.5514 15.3246C25.7469 18.476 25.5637 20.877 25.5637 20.877H25.6048V28.7243H88.4198H108.629H171.444V20.877H171.485C171.485 20.877 171.302 18.476 173.498 15.3246C175.693 12.1732 180.084 10.6729 180.084 10.6729H108.63Z" fill="#C9C1B3"/>
<path d="M16.9648 10.6729H180.084L174.183 14.4744L16.9648 10.6729Z" fill="#A8A198"/>
<path opacity="0.2" d="M112.021 103.113H50.417V928.24H112.021V103.113Z" fill="white"/>
<path opacity="0.43" d="M83.4883 103.113H67.3643V928.24H83.4883V103.113Z" fill="white"/>
<path d="M157.87 942.014H37.5222C34.5072 942.014 32.0625 938.931 32.0625 935.127C32.0625 931.324 34.5072 928.24 37.5222 928.24H157.87C160.886 928.24 163.33 931.324 163.33 935.127C163.33 938.931 160.886 942.014 157.87 942.014Z" fill="#EAE1CC"/>
<path d="M157.238 928.24H153.698C154.355 929.339 154.739 930.665 154.739 932.092C154.739 935.896 152.012 938.98 148.648 938.98H33.1035C34.1983 940.811 36.0515 942.015 38.154 942.015H157.237C160.602 942.015 163.329 938.932 163.329 935.128C163.33 931.323 160.602 928.24 157.238 928.24Z" fill="#C9C1B3"/>
<path d="M155.726 942.015H98.8744H96.5163H39.6649C26.1326 942.015 15.1621 954.417 15.1621 969.717V982.006H96.5163H98.8744H180.229V969.717C180.229 954.417 169.259 942.015 155.726 942.015Z" fill="#EAE1CC"/>
<path d="M155.336 942.015H132.25C145.783 942.015 156.753 954.417 156.753 969.717V982.006H179.839V969.717C179.839 954.417 168.869 942.015 155.336 942.015Z" fill="#C9C1B3"/>
<path d="M183.963 975.341H11.4287V1006H183.963V975.341Z" fill="#EAE1CC"/>
<path d="M183.962 975.341H163.329V1006H183.962V975.341Z" fill="#C9C1B3"/>
<path d="M17.6777 975.34H180.23L179.839 969.717L17.6777 975.34Z" fill="#A8A198"/>
<path d="M39.5381 928.24H156.328V923.749L39.5381 928.24Z" fill="#A8A198"/>
<path d="M58.9834 95.2297C58.9834 95.2297 63.6906 92.2784 65.3277 86.3397C66.9649 80.4017 66.5556 73.1729 66.5556 73.1729H98.4754L98.5255 95.2291H58.9834V95.2297Z" fill="#EAE1CC"/>
<path d="M138.116 95.0606C138.116 95.0606 133.396 92.1427 131.732 86.2166C130.067 80.2906 130.444 73.0586 130.444 73.0586L98.5254 73.2877L98.5749 95.344L138.116 95.0606Z" fill="#EAE1CC"/>
<path d="M75.1101 95.2299C75.4168 92.1188 75.4633 88.9674 75.2402 85.845C75.1251 84.2362 74.9289 82.5913 74.2945 81.1882C73.6601 79.7851 72.5003 78.6598 71.2204 78.68C71.1308 84.2368 71.329 89.6983 71.0098 95.2305H75.1101V95.2299Z" fill="#C9C1B3"/>
<path opacity="0.77" d="M67.1822 85.0201C66.7674 87.6634 66.7754 90.4116 67.2057 93.0517C67.2337 93.2234 67.2698 93.4077 67.3784 93.5163C67.4749 93.6128 67.607 93.6261 67.7306 93.6349C68.1189 93.6633 68.5071 93.6917 68.8954 93.7201C68.7708 93.7107 68.7453 88.6361 68.7488 88.1993C68.7633 86.2818 68.8739 84.3574 69.1951 82.4796C69.2691 82.0492 69.9286 80.1405 69.8035 79.83C69.5623 79.2297 69.054 79.9272 68.8078 80.2705C67.8947 81.5442 67.4409 83.3715 67.1822 85.0201Z" fill="white"/>
<path d="M88.4758 95.2299C88.7825 92.1188 88.829 88.9674 88.6059 85.845C88.4913 84.2362 88.2942 82.5913 87.6597 81.1882C87.0258 79.7851 85.866 78.6598 84.5857 78.68C84.4961 84.2368 84.6942 89.6983 84.375 95.2305H88.4758V95.2299Z" fill="#C9C1B3"/>
<path opacity="0.77" d="M80.5474 85.0201C80.1327 87.6634 80.1407 90.4116 80.571 93.0517C80.599 93.2234 80.635 93.4077 80.7436 93.5163C80.8407 93.6128 80.9727 93.6261 81.0958 93.6349C81.4841 93.6633 81.8724 93.6917 82.2606 93.7201C82.136 93.7107 82.1105 88.6361 82.114 88.1993C82.1285 86.2818 82.2386 84.3574 82.5603 82.4796C82.6339 82.0492 83.2938 80.1405 83.1687 79.83C82.9271 79.2297 82.4192 79.9272 82.1726 80.2705C81.26 81.5442 80.8061 83.3715 80.5474 85.0201Z" fill="white"/>
<path d="M101.843 95.2299C102.15 92.1188 102.196 88.9674 101.973 85.845C101.859 84.2362 101.661 82.5913 101.027 81.1882C100.393 79.7851 99.2332 78.6598 97.9528 78.68C97.8633 84.2368 98.0614 89.6983 97.7422 95.2305H101.843V95.2299Z" fill="#C9C1B3"/>
<path opacity="0.77" d="M93.9146 85.0201C93.4998 87.6634 93.5079 90.4116 93.9381 93.0517C93.9662 93.2234 94.0022 93.4077 94.1113 93.5163C94.2083 93.6128 94.3399 93.6261 94.4635 93.6349C94.8518 93.6633 95.24 93.6917 95.6283 93.7201C95.5037 93.7107 95.4782 88.6361 95.4817 88.1993C95.4962 86.2818 95.6068 84.3574 95.928 82.4796C96.0021 82.0492 96.6615 80.1405 96.5364 79.83C96.2953 79.2297 95.7869 79.9272 95.5407 80.2705C94.6271 81.5442 94.1728 83.3715 93.9146 85.0201Z" fill="white"/>
<path d="M115.209 95.2299C115.516 92.1188 115.562 88.9674 115.339 85.845C115.225 84.2362 115.028 82.5913 114.394 81.1882C113.759 79.7851 112.599 78.6598 111.319 78.68C111.229 84.2368 111.428 89.6983 111.108 95.2305H115.209V95.2299Z" fill="#C9C1B3"/>
<path opacity="0.77" d="M107.282 85.0201C106.867 87.6634 106.875 90.4116 107.305 93.0517C107.333 93.2234 107.369 93.4077 107.478 93.5163C107.575 93.6128 107.707 93.6261 107.831 93.6349C108.219 93.6633 108.607 93.6917 108.995 93.7201C108.871 93.7107 108.845 88.6361 108.849 88.1993C108.863 86.2818 108.974 84.3574 109.295 82.4796C109.369 82.0492 110.029 80.1405 109.903 79.83C109.662 79.2297 109.154 79.9272 108.908 80.2705C107.994 81.5442 107.54 83.3715 107.282 85.0201Z" fill="white"/>
<path d="M128.574 95.2299C128.881 92.1188 128.927 88.9674 128.704 85.845C128.589 84.2362 128.392 82.5913 127.758 81.1882C127.123 79.7851 125.964 78.6598 124.684 78.68C124.594 84.2368 124.792 89.6983 124.473 95.2305H128.574V95.2299Z" fill="#C9C1B3"/>
<path opacity="0.77" d="M120.647 85.0201C120.232 87.6634 120.24 90.4116 120.671 93.0517C120.699 93.2234 120.735 93.4077 120.843 93.5163C120.94 93.6128 121.072 93.6261 121.195 93.6349C121.584 93.6633 121.972 93.6917 122.36 93.7201C122.236 93.7107 122.21 88.6361 122.213 88.1993C122.228 86.2818 122.338 84.3574 122.659 82.4796C122.733 82.0492 123.393 80.1405 123.268 79.83C123.026 79.2297 122.518 79.9272 122.272 80.2705C121.359 81.5442 120.905 83.3715 120.647 85.0201Z" fill="white"/>
<path d="M22.7311 66.2808C22.9382 60.1433 25.3668 53.8966 29.6533 50.9812C32.3861 49.1224 35.5824 48.7399 38.6835 48.5518C43.4567 48.2627 48.245 48.3479 53.0103 48.8081C53.0498 46.657 51.9696 44.6569 50.5616 43.4431C49.1531 42.2294 47.4535 41.6853 45.7738 41.311C35.7434 39.0799 25.0136 42.4333 16.9686 50.3128C14.7176 52.5175 12.6236 55.1412 11.4813 58.4353C10.4156 61.5078 10.2495 64.9572 10.3641 68.3081C10.5277 73.1113 11.2582 77.9568 13.0339 82.2109C14.9792 86.8727 18.1439 90.5556 21.7909 93.0556C23.426 94.1766 30.8911 98.8258 32.146 95.9369C33.3958 93.0601 27.719 86.1506 26.7573 84.0539C24.3041 78.711 22.5199 72.5306 22.7311 66.2808Z" fill="#A8A198"/>
<path d="M31.3852 73.1001C33.7008 77.9727 39.3641 79.5916 43.2093 76.6333C47.0544 73.6751 48.5389 66.7921 46.5671 61.6847C49.0673 61.6506 51.4049 63.4495 53.058 65.8157C54.7107 68.1826 55.7879 71.0854 56.8431 73.9446C57.2184 68.6604 56.4008 63.0973 53.9116 58.8211C51.4224 54.5456 47.1024 51.8101 42.9566 52.6987C40.5785 53.2087 38.4355 54.8138 36.5037 56.6366C32.9257 60.0153 28.6568 67.3602 31.3852 73.1001Z" fill="#A8A198"/>
<path d="M146.916 63.3292C144.998 67.801 145.335 73.3648 146.792 78.1061C147.669 80.9597 148.939 83.6459 150.657 85.8058C153.928 89.9191 158.603 91.8448 163.207 92.3232C160.436 94.1202 157.13 94.2489 154.087 93.4057C151.045 92.5625 148.212 90.8147 145.456 88.9818C143.607 87.7517 141.724 86.4205 140.438 84.3415C138.76 81.6287 138.331 78.0127 138.295 74.5729C138.252 70.3516 138.752 66.0003 140.463 62.373C143.131 56.7202 148.464 53.6477 153.676 53.4122C156.266 53.2955 161.651 58.129 157.532 58.43C155.42 58.584 154.055 56.9986 151.682 58.117C149.684 59.0581 147.933 60.9629 146.916 63.3292Z" fill="#A8A198"/>
<path d="M156.177 50.8154C158.005 51.7792 166.887 52.5315 171.493 56.0364C179.702 62.2831 180.044 72.8262 176.538 79.5936C174.338 83.8388 174.173 85.8011 171.121 89.1028C174.989 91.0487 179.287 88.1781 182.574 84.9522C186.082 81.5092 189.347 77.3876 191.03 72.1988C193.48 64.6418 192.124 55.6085 188.335 48.9888C184.547 42.369 178.597 38.0373 172.325 36.0226C166.053 34.0079 159.454 34.155 153.036 35.2084C149.968 35.7121 144.849 37.6473 145.821 42.8841C146.695 47.5825 153.199 49.2437 156.177 50.8154Z" fill="#A8A198"/>
<path d="M155.043 40.6348H43.7246V56.0366H155.043V40.6348Z" fill="#A8A198"/>
<path d="M98.525 46.6174V28.6133H25.3994V28.9895C19.7105 30.07 1.0112 39.6625 2.04091 63.2702C3.57896 98.5204 24.9856 101.916 34.7273 102.887C43.3477 103.745 53.1719 98.2762 58.441 89.6272C63.7101 80.9783 64.3376 69.5769 60.3639 59.0666C59.0204 55.5125 54.6664 50.1103 49.9812 48.8795C41.569 46.6698 32.77 50.7282 29.964 60.9728C29.2386 63.6211 29.0274 66.5996 29.86 69.1982C30.6925 71.7961 32.7269 73.8777 34.9474 73.8044C37.168 73.7306 39.2489 71.0582 38.8857 68.2943C38.7986 67.6316 38.59 67.0049 38.4584 66.3541C37.4647 61.4506 41.5275 56.5413 45.5317 56.8544C49.536 57.1674 52.8267 61.4038 54.1431 66.1843C56.8895 76.1568 51.6194 87.8568 43.4443 90.1126C31.1388 93.5083 16.1981 86.0258 15.7568 65.983C15.5006 54.3404 23.2079 47.1015 30.0951 46.649L35.4698 46.6187H98.525V46.6174Z" fill="#EAE1CC"/>
<path d="M98.4756 46.7561V28.752H171.601V29.1281C177.29 30.2087 195.989 39.8012 194.959 63.4089C193.421 98.6591 172.014 102.055 162.272 103.025C153.652 103.883 143.828 98.4142 138.559 89.7659C133.29 81.117 132.662 69.7149 136.636 59.2047C137.98 55.6505 142.333 50.2484 147.018 49.0176C155.431 46.8072 164.23 50.8656 167.036 61.1108C167.761 63.7592 167.972 66.7377 167.14 69.3356C166.307 71.9335 164.273 74.0157 162.053 73.9419C159.832 73.868 157.751 71.1956 158.114 68.4317C158.201 67.769 158.41 67.1429 158.542 66.4915C159.535 61.588 155.473 56.6787 151.468 56.9918C147.464 57.3055 144.173 61.5412 142.857 66.3224C140.111 76.2942 145.381 87.9949 153.556 90.2507C165.862 93.6464 180.802 86.1638 181.243 66.1204C181.499 54.4785 173.792 47.2389 166.905 46.7864L161.53 46.7561H98.4756Z" fill="#EAE1CC"/>
<path d="M45.11 65.9809C45.11 71.4733 41.5806 75.9249 37.2266 75.9249C32.8732 75.9249 29.3438 71.4727 29.3438 65.9809C29.3438 60.4884 32.8732 56.0361 37.2266 56.0361C41.5806 56.0361 45.11 60.4884 45.11 65.9809Z" fill="#EAE1CC"/>
<path d="M167.724 66.9447C167.724 72.4365 164.195 76.8888 159.841 76.8888C155.487 76.8888 151.958 72.4365 151.958 66.9447C151.958 61.4523 155.487 57 159.841 57C164.195 57 167.724 61.4523 167.724 66.9447Z" fill="#EAE1CC"/>
<path opacity="0.77" d="M135.481 72.2196C135.56 74.447 136.07 76.9269 137.604 78.0352C137.771 78.1557 137.963 78.2599 138.152 78.2094C138.478 78.1223 138.621 77.642 138.684 77.2286C139.004 75.152 138.761 73.0123 138.788 70.8973C138.863 65.0527 141.139 59.3134 144.802 55.7334C145.21 55.3352 145.662 54.5803 145.277 54.1479C145.161 54.0179 145 53.9762 144.846 53.9529C138.528 52.9986 135.272 66.3472 135.481 72.2196Z" fill="white"/>
<path opacity="0.77" d="M148.066 51.4477C147.629 51.6529 147.189 51.9622 146.972 52.4829C146.754 53.003 146.862 53.7679 147.289 54.0015C147.518 54.1258 147.778 54.0804 148.024 54.0324C149.513 53.7427 151.002 53.4523 152.491 53.162C152.724 53.1166 152.968 53.0654 153.154 52.8824C153.64 52.4071 153.388 51.331 152.849 50.9586C152.31 50.5862 151.651 50.6985 151.044 50.821C149.85 51.0627 148.655 51.3045 147.461 51.5456L148.066 51.4477Z" fill="white"/>
<path d="M59.5238 130.349C59.4983 129.351 59.4658 128.352 59.4263 127.354C59.3642 125.8 59.2827 124.228 58.9349 122.749C58.5872 121.271 57.9417 119.874 56.9796 119.09C55.9194 118.226 54.6215 118.2 53.3966 118.305C52.0327 118.42 50.5922 118.713 49.5405 119.932C49.0542 120.496 48.6819 121.226 48.3367 121.965C46.9352 124.968 45.8655 128.742 46.7906 132.086C46.8492 130.16 47.1689 128.172 48.0425 126.681C48.9166 125.19 50.2505 123.17 51.9376 124.089C53.4181 124.894 54.689 125.828 54.715 133.273V922.482H59.5794V130.349H59.5238Z" fill="#DBD2C1"/>
<path d="M81.3825 130.349C81.357 129.351 81.3245 128.352 81.285 127.354C81.2229 125.8 81.1414 124.228 80.7936 122.749C80.4454 121.271 79.8004 119.874 78.8383 119.09C77.7781 118.226 76.4802 118.2 75.2553 118.305C73.8914 118.42 72.4509 118.713 71.3992 119.932C70.9129 120.496 70.5406 121.226 70.1954 121.965C68.7934 124.968 67.7237 128.742 68.6493 132.086C68.7078 130.16 69.0276 128.172 69.9012 126.681C70.7753 125.19 72.1092 123.17 73.7963 124.089C75.2764 124.894 76.5477 125.828 76.5737 133.273V922.482H81.4381V130.349H81.3825Z" fill="#DBD2C1"/>
<path d="M103.241 130.349C103.216 129.351 103.183 128.352 103.144 127.354C103.082 125.8 103 124.228 102.652 122.749C102.305 121.271 101.659 119.874 100.697 119.09C99.6367 118.226 98.3389 118.2 97.114 118.305C95.7501 118.42 94.3091 118.713 93.2574 119.932C92.771 120.496 92.3988 121.226 92.0536 121.965C90.6516 124.968 89.5823 128.742 90.5075 132.086C90.566 130.16 90.8857 128.172 91.7593 126.681C92.6334 125.19 93.9674 123.17 95.655 124.089C97.135 124.894 98.4064 125.828 98.4319 133.273V922.482H103.296V130.349H103.241Z" fill="#DBD2C1"/>
<path d="M125.1 130.349C125.074 129.351 125.042 128.352 125.002 127.354C124.94 125.8 124.859 124.228 124.511 122.749C124.163 121.271 123.518 119.874 122.556 119.09C121.495 118.226 120.197 118.2 118.973 118.305C117.609 118.42 116.168 118.713 115.116 119.932C114.63 120.496 114.257 121.226 113.912 121.965C112.51 124.968 111.44 128.742 112.366 132.086C112.425 130.16 112.744 128.172 113.618 126.681C114.493 125.19 115.826 123.17 117.514 124.089C118.994 124.894 120.265 125.828 120.291 133.273V922.482H125.155V130.349H125.1Z" fill="#DBD2C1"/>
<path d="M146.959 130.349C146.934 129.351 146.901 128.352 146.862 127.354C146.8 125.8 146.718 124.228 146.37 122.749C146.023 121.271 145.377 119.874 144.415 119.09C143.355 118.226 142.057 118.2 140.832 118.305C139.468 118.42 138.028 118.713 136.975 119.932C136.489 120.496 136.117 121.226 135.772 121.965C134.37 124.968 133.3 128.742 134.225 132.086C134.284 130.16 134.604 128.172 135.477 126.681C136.351 125.19 137.685 123.17 139.373 124.089C140.853 124.894 142.124 125.828 142.15 133.273V922.482H147.015V130.349H146.959Z" fill="#DBD2C1"/>
<path d="M39.4824 103.113H156.328V140.539C156.328 140.539 145.824 113.94 106.976 110.098C68.128 106.256 39.4824 107.438 39.4824 107.438V103.113Z" fill="#A8A198"/>
<g opacity="0.21" filter="url(#filter1_d_4854_3399)">
<path d="M156.328 95.4629H39.4824V934.807H156.328V95.4629Z" fill="url(#paint0_linear_4854_3399)"/>
<path d="M165.353 91.6836H35.501V103.113H165.353V91.6836Z" fill="url(#paint1_linear_4854_3399)"/>
<path d="M182.753 39.4814H13.0869V95.2296H182.753V39.4814Z" fill="url(#paint2_linear_4854_3399)"/>
<path d="M108.63 0H88.42H13.0869V10.6731H88.42H108.63H183.962V0H108.63Z" fill="url(#paint3_linear_4854_3399)"/>
<path d="M108.63 10.6729H88.4198H16.9648C16.9648 10.6729 21.3559 12.1738 23.5514 15.3246C25.7469 18.476 25.5637 20.877 25.5637 20.877H25.6048V28.7243H88.4198H108.629H171.444V20.877H171.485C171.485 20.877 171.302 18.476 173.498 15.3246C175.693 12.1732 180.084 10.6729 180.084 10.6729H108.63Z" fill="url(#paint4_linear_4854_3399)"/>
<path d="M16.9648 10.6729H180.084L174.183 14.4744L16.9648 10.6729Z" fill="url(#paint5_linear_4854_3399)"/>
<path opacity="0.2" d="M112.021 103.113H50.417V928.24H112.021V103.113Z" fill="url(#paint6_linear_4854_3399)"/>
<path opacity="0.43" d="M83.4883 103.113H67.3643V928.24H83.4883V103.113Z" fill="url(#paint7_linear_4854_3399)"/>
<path d="M157.87 942.014H37.5222C34.5072 942.014 32.0625 938.931 32.0625 935.127C32.0625 931.324 34.5072 928.24 37.5222 928.24H157.87C160.886 928.24 163.33 931.324 163.33 935.127C163.33 938.931 160.886 942.014 157.87 942.014Z" fill="url(#paint8_linear_4854_3399)"/>
<path d="M157.238 928.24H153.698C154.355 929.339 154.739 930.665 154.739 932.092C154.739 935.896 152.012 938.98 148.648 938.98H33.1035C34.1983 940.811 36.0515 942.015 38.154 942.015H157.237C160.602 942.015 163.329 938.932 163.329 935.128C163.33 931.323 160.602 928.24 157.238 928.24Z" fill="url(#paint9_linear_4854_3399)"/>
<path d="M155.726 942.015H98.8744H96.5163H39.6649C26.1326 942.015 15.1621 954.417 15.1621 969.717V982.006H96.5163H98.8744H180.229V969.717C180.229 954.417 169.259 942.015 155.726 942.015Z" fill="url(#paint10_linear_4854_3399)"/>
<path d="M155.336 942.015H132.25C145.783 942.015 156.753 954.417 156.753 969.717V982.006H179.839V969.717C179.839 954.417 168.869 942.015 155.336 942.015Z" fill="url(#paint11_linear_4854_3399)"/>
<path d="M183.963 975.341H11.4287V1006H183.963V975.341Z" fill="url(#paint12_linear_4854_3399)"/>
<path d="M183.962 975.341H163.329V1006H183.962V975.341Z" fill="url(#paint13_linear_4854_3399)"/>
<path d="M17.6777 975.34H180.23L179.839 969.717L17.6777 975.34Z" fill="url(#paint14_linear_4854_3399)"/>
<path d="M39.5381 928.24H156.328V923.749L39.5381 928.24Z" fill="url(#paint15_linear_4854_3399)"/>
<path d="M58.9834 95.2297C58.9834 95.2297 63.6906 92.2784 65.3277 86.3397C66.9649 80.4017 66.5556 73.1729 66.5556 73.1729H98.4754L98.5255 95.2291H58.9834V95.2297Z" fill="url(#paint16_linear_4854_3399)"/>
<path d="M138.116 95.0606C138.116 95.0606 133.396 92.1427 131.732 86.2166C130.067 80.2906 130.444 73.0586 130.444 73.0586L98.5254 73.2877L98.5749 95.344L138.116 95.0606Z" fill="url(#paint17_linear_4854_3399)"/>
<path d="M75.1101 95.2299C75.4168 92.1188 75.4633 88.9674 75.2402 85.845C75.1251 84.2362 74.9289 82.5913 74.2945 81.1882C73.6601 79.7851 72.5003 78.6598 71.2204 78.68C71.1308 84.2368 71.329 89.6983 71.0098 95.2305H75.1101V95.2299Z" fill="url(#paint18_linear_4854_3399)"/>
<path opacity="0.77" d="M67.1822 85.0201C66.7674 87.6634 66.7754 90.4116 67.2057 93.0517C67.2337 93.2234 67.2698 93.4077 67.3784 93.5163C67.4749 93.6128 67.607 93.6261 67.7306 93.6349C68.1189 93.6633 68.5071 93.6917 68.8954 93.7201C68.7708 93.7107 68.7453 88.6361 68.7488 88.1993C68.7633 86.2818 68.8739 84.3574 69.1951 82.4796C69.2691 82.0492 69.9286 80.1405 69.8035 79.83C69.5623 79.2297 69.054 79.9272 68.8078 80.2705C67.8947 81.5442 67.4409 83.3715 67.1822 85.0201Z" fill="url(#paint19_linear_4854_3399)"/>
<path d="M88.4758 95.2299C88.7825 92.1188 88.829 88.9674 88.6059 85.845C88.4913 84.2362 88.2942 82.5913 87.6597 81.1882C87.0258 79.7851 85.866 78.6598 84.5857 78.68C84.4961 84.2368 84.6942 89.6983 84.375 95.2305H88.4758V95.2299Z" fill="url(#paint20_linear_4854_3399)"/>
<path opacity="0.77" d="M80.5474 85.0201C80.1327 87.6634 80.1407 90.4116 80.571 93.0517C80.599 93.2234 80.635 93.4077 80.7436 93.5163C80.8407 93.6128 80.9727 93.6261 81.0958 93.6349C81.4841 93.6633 81.8724 93.6917 82.2606 93.7201C82.136 93.7107 82.1105 88.6361 82.114 88.1993C82.1285 86.2818 82.2386 84.3574 82.5603 82.4796C82.6339 82.0492 83.2938 80.1405 83.1687 79.83C82.9271 79.2297 82.4192 79.9272 82.1726 80.2705C81.26 81.5442 80.8061 83.3715 80.5474 85.0201Z" fill="url(#paint21_linear_4854_3399)"/>
<path d="M101.843 95.2299C102.15 92.1188 102.196 88.9674 101.973 85.845C101.859 84.2362 101.661 82.5913 101.027 81.1882C100.393 79.7851 99.2332 78.6598 97.9528 78.68C97.8633 84.2368 98.0614 89.6983 97.7422 95.2305H101.843V95.2299Z" fill="url(#paint22_linear_4854_3399)"/>
<path opacity="0.77" d="M93.9146 85.0201C93.4998 87.6634 93.5079 90.4116 93.9381 93.0517C93.9662 93.2234 94.0022 93.4077 94.1113 93.5163C94.2083 93.6128 94.3399 93.6261 94.4635 93.6349C94.8518 93.6633 95.24 93.6917 95.6283 93.7201C95.5037 93.7107 95.4782 88.6361 95.4817 88.1993C95.4962 86.2818 95.6068 84.3574 95.928 82.4796C96.0021 82.0492 96.6615 80.1405 96.5364 79.83C96.2953 79.2297 95.7869 79.9272 95.5407 80.2705C94.6271 81.5442 94.1728 83.3715 93.9146 85.0201Z" fill="url(#paint23_linear_4854_3399)"/>
<path d="M115.209 95.2299C115.516 92.1188 115.562 88.9674 115.339 85.845C115.225 84.2362 115.028 82.5913 114.394 81.1882C113.759 79.7851 112.599 78.6598 111.319 78.68C111.229 84.2368 111.428 89.6983 111.108 95.2305H115.209V95.2299Z" fill="url(#paint24_linear_4854_3399)"/>
<path opacity="0.77" d="M107.282 85.0201C106.867 87.6634 106.875 90.4116 107.305 93.0517C107.333 93.2234 107.369 93.4077 107.478 93.5163C107.575 93.6128 107.707 93.6261 107.831 93.6349C108.219 93.6633 108.607 93.6917 108.995 93.7201C108.871 93.7107 108.845 88.6361 108.849 88.1993C108.863 86.2818 108.974 84.3574 109.295 82.4796C109.369 82.0492 110.029 80.1405 109.903 79.83C109.662 79.2297 109.154 79.9272 108.908 80.2705C107.994 81.5442 107.54 83.3715 107.282 85.0201Z" fill="url(#paint25_linear_4854_3399)"/>
<path d="M128.574 95.2299C128.881 92.1188 128.927 88.9674 128.704 85.845C128.589 84.2362 128.392 82.5913 127.758 81.1882C127.123 79.7851 125.964 78.6598 124.684 78.68C124.594 84.2368 124.792 89.6983 124.473 95.2305H128.574V95.2299Z" fill="url(#paint26_linear_4854_3399)"/>
<path opacity="0.77" d="M120.647 85.0201C120.232 87.6634 120.24 90.4116 120.671 93.0517C120.699 93.2234 120.735 93.4077 120.843 93.5163C120.94 93.6128 121.072 93.6261 121.195 93.6349C121.584 93.6633 121.972 93.6917 122.36 93.7201C122.236 93.7107 122.21 88.6361 122.213 88.1993C122.228 86.2818 122.338 84.3574 122.659 82.4796C122.733 82.0492 123.393 80.1405 123.268 79.83C123.026 79.2297 122.518 79.9272 122.272 80.2705C121.359 81.5442 120.905 83.3715 120.647 85.0201Z" fill="url(#paint27_linear_4854_3399)"/>
<path d="M22.7311 66.2808C22.9382 60.1433 25.3668 53.8966 29.6533 50.9812C32.3861 49.1224 35.5824 48.7399 38.6835 48.5518C43.4567 48.2627 48.245 48.3479 53.0103 48.8081C53.0498 46.657 51.9696 44.6569 50.5616 43.4431C49.1531 42.2294 47.4535 41.6853 45.7738 41.311C35.7434 39.0799 25.0136 42.4333 16.9686 50.3128C14.7176 52.5175 12.6236 55.1412 11.4813 58.4353C10.4156 61.5078 10.2495 64.9572 10.3641 68.3081C10.5277 73.1113 11.2582 77.9568 13.0339 82.2109C14.9792 86.8727 18.1439 90.5556 21.7909 93.0556C23.426 94.1766 30.8911 98.8258 32.146 95.9369C33.3958 93.0601 27.719 86.1506 26.7573 84.0539C24.3041 78.711 22.5199 72.5306 22.7311 66.2808Z" fill="url(#paint28_linear_4854_3399)"/>
<path d="M31.3852 73.1001C33.7008 77.9727 39.3641 79.5916 43.2093 76.6333C47.0544 73.6751 48.5389 66.7921 46.5671 61.6847C49.0673 61.6506 51.4049 63.4495 53.058 65.8157C54.7107 68.1826 55.7879 71.0854 56.8431 73.9446C57.2184 68.6604 56.4008 63.0973 53.9116 58.8211C51.4224 54.5456 47.1024 51.8101 42.9566 52.6987C40.5785 53.2087 38.4355 54.8138 36.5037 56.6366C32.9257 60.0153 28.6568 67.3602 31.3852 73.1001Z" fill="url(#paint29_linear_4854_3399)"/>
<path d="M146.916 63.3292C144.998 67.801 145.335 73.3648 146.792 78.1061C147.669 80.9597 148.939 83.6459 150.657 85.8058C153.928 89.9191 158.603 91.8448 163.207 92.3232C160.436 94.1202 157.13 94.2489 154.087 93.4057C151.045 92.5625 148.212 90.8147 145.456 88.9818C143.607 87.7517 141.724 86.4205 140.438 84.3415C138.76 81.6287 138.331 78.0127 138.295 74.5729C138.252 70.3516 138.752 66.0003 140.463 62.373C143.131 56.7202 148.464 53.6477 153.676 53.4122C156.266 53.2955 161.651 58.129 157.532 58.43C155.42 58.584 154.055 56.9986 151.682 58.117C149.684 59.0581 147.933 60.9629 146.916 63.3292Z" fill="url(#paint30_linear_4854_3399)"/>
<path d="M156.177 50.8154C158.005 51.7792 166.887 52.5315 171.493 56.0364C179.702 62.2831 180.044 72.8262 176.538 79.5936C174.338 83.8388 174.173 85.8011 171.121 89.1028C174.989 91.0487 179.287 88.1781 182.574 84.9522C186.082 81.5092 189.347 77.3876 191.03 72.1988C193.48 64.6418 192.124 55.6085 188.335 48.9888C184.547 42.369 178.597 38.0373 172.325 36.0226C166.053 34.0079 159.454 34.155 153.036 35.2084C149.968 35.7121 144.849 37.6473 145.821 42.8841C146.695 47.5825 153.199 49.2437 156.177 50.8154Z" fill="url(#paint31_linear_4854_3399)"/>
<path d="M155.043 40.6348H43.7246V56.0366H155.043V40.6348Z" fill="url(#paint32_linear_4854_3399)"/>
<path d="M98.525 46.6174V28.6133H25.3994V28.9895C19.7105 30.07 1.0112 39.6625 2.04091 63.2702C3.57896 98.5204 24.9856 101.916 34.7273 102.887C43.3477 103.745 53.1719 98.2762 58.441 89.6272C63.7101 80.9783 64.3376 69.5769 60.3639 59.0666C59.0204 55.5125 54.6664 50.1103 49.9812 48.8795C41.569 46.6698 32.77 50.7282 29.964 60.9728C29.2386 63.6211 29.0274 66.5996 29.86 69.1982C30.6925 71.7961 32.7269 73.8777 34.9474 73.8044C37.168 73.7306 39.2489 71.0582 38.8857 68.2943C38.7986 67.6316 38.59 67.0049 38.4584 66.3541C37.4647 61.4506 41.5275 56.5413 45.5317 56.8544C49.536 57.1674 52.8267 61.4038 54.1431 66.1843C56.8895 76.1568 51.6194 87.8568 43.4443 90.1126C31.1388 93.5083 16.1981 86.0258 15.7568 65.983C15.5006 54.3404 23.2079 47.1015 30.0951 46.649L35.4698 46.6187H98.525V46.6174Z" fill="url(#paint33_linear_4854_3399)"/>
<path d="M98.4756 46.7561V28.752H171.601V29.1281C177.29 30.2087 195.989 39.8012 194.959 63.4089C193.421 98.6591 172.014 102.055 162.272 103.025C153.652 103.883 143.828 98.4142 138.559 89.7659C133.29 81.117 132.662 69.7149 136.636 59.2047C137.98 55.6505 142.333 50.2484 147.018 49.0176C155.431 46.8072 164.23 50.8656 167.036 61.1108C167.761 63.7592 167.972 66.7377 167.14 69.3356C166.307 71.9335 164.273 74.0157 162.053 73.9419C159.832 73.868 157.751 71.1956 158.114 68.4317C158.201 67.769 158.41 67.1429 158.542 66.4915C159.535 61.588 155.473 56.6787 151.468 56.9918C147.464 57.3055 144.173 61.5412 142.857 66.3224C140.111 76.2942 145.381 87.9949 153.556 90.2507C165.862 93.6464 180.802 86.1638 181.243 66.1204C181.499 54.4785 173.792 47.2389 166.905 46.7864L161.53 46.7561H98.4756Z" fill="url(#paint34_linear_4854_3399)"/>
<path d="M45.11 65.9809C45.11 71.4733 41.5806 75.9249 37.2266 75.9249C32.8732 75.9249 29.3438 71.4727 29.3438 65.9809C29.3438 60.4884 32.8732 56.0361 37.2266 56.0361C41.5806 56.0361 45.11 60.4884 45.11 65.9809Z" fill="url(#paint35_linear_4854_3399)"/>
<path d="M167.724 66.9447C167.724 72.4365 164.195 76.8888 159.841 76.8888C155.487 76.8888 151.958 72.4365 151.958 66.9447C151.958 61.4523 155.487 57 159.841 57C164.195 57 167.724 61.4523 167.724 66.9447Z" fill="url(#paint36_linear_4854_3399)"/>
<path opacity="0.77" d="M135.481 72.2196C135.56 74.447 136.07 76.9269 137.604 78.0352C137.771 78.1557 137.963 78.2599 138.152 78.2094C138.478 78.1223 138.621 77.642 138.684 77.2286C139.004 75.152 138.761 73.0123 138.788 70.8973C138.863 65.0527 141.139 59.3134 144.802 55.7334C145.21 55.3352 145.662 54.5803 145.277 54.1479C145.161 54.0179 145 53.9762 144.846 53.9529C138.528 52.9986 135.272 66.3472 135.481 72.2196Z" fill="url(#paint37_linear_4854_3399)"/>
<path opacity="0.77" d="M148.066 51.4477C147.629 51.6529 147.189 51.9622 146.972 52.4829C146.754 53.003 146.862 53.7679 147.289 54.0015C147.518 54.1258 147.778 54.0804 148.024 54.0324C149.513 53.7427 151.002 53.4523 152.491 53.162C152.724 53.1166 152.968 53.0654 153.154 52.8824C153.64 52.4071 153.388 51.331 152.849 50.9586C152.31 50.5862 151.651 50.6985 151.044 50.821C149.85 51.0627 148.655 51.3045 147.461 51.5456L148.066 51.4477Z" fill="url(#paint38_linear_4854_3399)"/>
<path d="M59.5238 130.349C59.4983 129.351 59.4658 128.352 59.4263 127.354C59.3642 125.8 59.2827 124.228 58.9349 122.749C58.5872 121.271 57.9417 119.874 56.9796 119.09C55.9194 118.226 54.6215 118.2 53.3966 118.305C52.0327 118.42 50.5922 118.713 49.5405 119.932C49.0542 120.496 48.6819 121.226 48.3367 121.965C46.9352 124.968 45.8655 128.742 46.7906 132.086C46.8492 130.16 47.1689 128.172 48.0425 126.681C48.9166 125.19 50.2505 123.17 51.9376 124.089C53.4181 124.894 54.689 125.828 54.715 133.273V922.482H59.5794V130.349H59.5238Z" fill="url(#paint39_linear_4854_3399)"/>
<path d="M81.3825 130.349C81.357 129.351 81.3245 128.352 81.285 127.354C81.2229 125.8 81.1414 124.228 80.7936 122.749C80.4454 121.271 79.8004 119.874 78.8383 119.09C77.7781 118.226 76.4802 118.2 75.2553 118.305C73.8914 118.42 72.4509 118.713 71.3992 119.932C70.9129 120.496 70.5406 121.226 70.1954 121.965C68.7934 124.968 67.7237 128.742 68.6493 132.086C68.7078 130.16 69.0276 128.172 69.9012 126.681C70.7753 125.19 72.1092 123.17 73.7963 124.089C75.2764 124.894 76.5477 125.828 76.5737 133.273V922.482H81.4381V130.349H81.3825Z" fill="url(#paint40_linear_4854_3399)"/>
<path d="M103.241 130.349C103.216 129.351 103.183 128.352 103.144 127.354C103.082 125.8 103 124.228 102.652 122.749C102.305 121.271 101.659 119.874 100.697 119.09C99.6367 118.226 98.3389 118.2 97.114 118.305C95.7501 118.42 94.3091 118.713 93.2574 119.932C92.771 120.496 92.3988 121.226 92.0536 121.965C90.6516 124.968 89.5823 128.742 90.5075 132.086C90.566 130.16 90.8857 128.172 91.7593 126.681C92.6334 125.19 93.9674 123.17 95.655 124.089C97.135 124.894 98.4064 125.828 98.4319 133.273V922.482H103.296V130.349H103.241Z" fill="url(#paint41_linear_4854_3399)"/>
<path d="M125.1 130.349C125.074 129.351 125.042 128.352 125.002 127.354C124.94 125.8 124.859 124.228 124.511 122.749C124.163 121.271 123.518 119.874 122.556 119.09C121.495 118.226 120.197 118.2 118.973 118.305C117.609 118.42 116.168 118.713 115.116 119.932C114.63 120.496 114.257 121.226 113.912 121.965C112.51 124.968 111.44 128.742 112.366 132.086C112.425 130.16 112.744 128.172 113.618 126.681C114.493 125.19 115.826 123.17 117.514 124.089C118.994 124.894 120.265 125.828 120.291 133.273V922.482H125.155V130.349H125.1Z" fill="url(#paint42_linear_4854_3399)"/>
<path d="M146.959 130.349C146.934 129.351 146.901 128.352 146.862 127.354C146.8 125.8 146.718 124.228 146.37 122.749C146.023 121.271 145.377 119.874 144.415 119.09C143.355 118.226 142.057 118.2 140.832 118.305C139.468 118.42 138.028 118.713 136.975 119.932C136.489 120.496 136.117 121.226 135.772 121.965C134.37 124.968 133.3 128.742 134.225 132.086C134.284 130.16 134.604 128.172 135.477 126.681C136.351 125.19 137.685 123.17 139.373 124.089C140.853 124.894 142.124 125.828 142.15 133.273V922.482H147.015V130.349H146.959Z" fill="url(#paint43_linear_4854_3399)"/>
<path d="M39.4824 103.113H156.328V140.539C156.328 140.539 145.824 113.94 106.976 110.098C68.128 106.256 39.4824 107.438 39.4824 107.438V103.113Z" fill="url(#paint44_linear_4854_3399)"/>
</g>
</g>
<defs>
<filter id="filter0_d_4854_3399" x="0.1" y="-11.9" width="224.8" height="1037.8" filterUnits="userSpaceOnUse" color-interpolation-filters="sRGB">
<feFlood flood-opacity="0" result="BackgroundImageFix"/>
<feColorMatrix in="SourceAlpha" type="matrix" values="0 0 0 0 0 0 0 0 0 0 0 0 0 0 0 0 0 0 127 0" result="hardAlpha"/>
<feOffset dx="14" dy="4"/>
<feGaussianBlur stdDeviation="7.95"/>
<feComposite in2="hardAlpha" operator="out"/>
<feColorMatrix type="matrix" values="0 0 0 0 0 0 0 0 0 0 0 0 0 0 0 0 0 0 0.63 0"/>
<feBlend mode="normal" in2="BackgroundImageFix" result="effect1_dropShadow_4854_3399"/>
<feBlend mode="normal" in="SourceGraphic" in2="effect1_dropShadow_4854_3399" result="shape"/>
</filter>
<filter id="filter1_d_4854_3399" x="2" y="-11" width="228" height="1036" filterUnits="userSpaceOnUse" color-interpolation-filters="sRGB">
<feFlood flood-opacity="0" result="BackgroundImageFix"/>
<feColorMatrix in="SourceAlpha" type="matrix" values="0 0 0 0 0 0 0 0 0 0 0 0 0 0 0 0 0 0 127 0" result="hardAlpha"/>
<feOffset dx="20" dy="4"/>
<feGaussianBlur stdDeviation="7.5"/>
<feComposite in2="hardAlpha" operator="out"/>
<feColorMatrix type="matrix" values="0 0 0 0 0 0 0 0 0 0 0 0 0 0 0 0 0 0 0.25 0"/>
<feBlend mode="normal" in2="BackgroundImageFix" result="effect1_dropShadow_4854_3399"/>
<feBlend mode="normal" in="SourceGraphic" in2="effect1_dropShadow_4854_3399" result="shape"/>
</filter>
<linearGradient id="paint0_linear_4854_3399" x1="97.9054" y1="95.4629" x2="97.9054" y2="934.807" gradientUnits="userSpaceOnUse">
<stop stop-color="#000442"/>
<stop offset="1" stop-color="#1D196F"/>
</linearGradient>
<linearGradient id="paint1_linear_4854_3399" x1="100.427" y1="91.6836" x2="100.427" y2="103.113" gradientUnits="userSpaceOnUse">
<stop stop-color="#000442"/>
<stop offset="1" stop-color="#1D196F"/>
</linearGradient>
<linearGradient id="paint2_linear_4854_3399" x1="97.92" y1="39.4814" x2="97.92" y2="95.2296" gradientUnits="userSpaceOnUse">
<stop stop-color="#000442"/>
<stop offset="1" stop-color="#1D196F"/>
</linearGradient>
<linearGradient id="paint3_linear_4854_3399" x1="98.5246" y1="0" x2="98.5246" y2="10.6731" gradientUnits="userSpaceOnUse">
<stop stop-color="#000442"/>
<stop offset="1" stop-color="#1D196F"/>
</linearGradient>
<linearGradient id="paint4_linear_4854_3399" x1="98.5244" y1="10.6729" x2="98.5244" y2="28.7243" gradientUnits="userSpaceOnUse">
<stop stop-color="#000442"/>
<stop offset="1" stop-color="#1D196F"/>
</linearGradient>
<linearGradient id="paint5_linear_4854_3399" x1="98.5244" y1="10.6729" x2="98.5244" y2="14.4744" gradientUnits="userSpaceOnUse">
<stop stop-color="#000442"/>
<stop offset="1" stop-color="#1D196F"/>
</linearGradient>
<linearGradient id="paint6_linear_4854_3399" x1="81.2188" y1="103.113" x2="81.2188" y2="928.24" gradientUnits="userSpaceOnUse">
<stop stop-color="#000442"/>
<stop offset="1" stop-color="#1D196F"/>
</linearGradient>
<linearGradient id="paint7_linear_4854_3399" x1="75.4263" y1="103.113" x2="75.4263" y2="928.24" gradientUnits="userSpaceOnUse">
<stop stop-color="#000442"/>
<stop offset="1" stop-color="#1D196F"/>
</linearGradient>
<linearGradient id="paint8_linear_4854_3399" x1="97.6962" y1="928.24" x2="97.6962" y2="942.014" gradientUnits="userSpaceOnUse">
<stop stop-color="#000442"/>
<stop offset="1" stop-color="#1D196F"/>
</linearGradient>
<linearGradient id="paint9_linear_4854_3399" x1="98.2163" y1="928.24" x2="98.2163" y2="942.015" gradientUnits="userSpaceOnUse">
<stop stop-color="#000442"/>
<stop offset="1" stop-color="#1D196F"/>
</linearGradient>
<linearGradient id="paint10_linear_4854_3399" x1="97.6954" y1="942.015" x2="97.6954" y2="982.006" gradientUnits="userSpaceOnUse">
<stop stop-color="#000442"/>
<stop offset="1" stop-color="#1D196F"/>
</linearGradient>
<linearGradient id="paint11_linear_4854_3399" x1="156.045" y1="942.015" x2="156.045" y2="982.006" gradientUnits="userSpaceOnUse">
<stop stop-color="#000442"/>
<stop offset="1" stop-color="#1D196F"/>
</linearGradient>
<linearGradient id="paint12_linear_4854_3399" x1="97.6957" y1="975.341" x2="97.6957" y2="1006" gradientUnits="userSpaceOnUse">
<stop stop-color="#000442"/>
<stop offset="1" stop-color="#1D196F"/>
</linearGradient>
<linearGradient id="paint13_linear_4854_3399" x1="173.646" y1="975.341" x2="173.646" y2="1006" gradientUnits="userSpaceOnUse">
<stop stop-color="#000442"/>
<stop offset="1" stop-color="#1D196F"/>
</linearGradient>
<linearGradient id="paint14_linear_4854_3399" x1="98.9536" y1="969.717" x2="98.9536" y2="975.34" gradientUnits="userSpaceOnUse">
<stop stop-color="#000442"/>
<stop offset="1" stop-color="#1D196F"/>
</linearGradient>
<linearGradient id="paint15_linear_4854_3399" x1="97.9331" y1="923.749" x2="97.9331" y2="928.24" gradientUnits="userSpaceOnUse">
<stop stop-color="#000442"/>
<stop offset="1" stop-color="#1D196F"/>
</linearGradient>
<linearGradient id="paint16_linear_4854_3399" x1="78.7544" y1="73.1729" x2="78.7544" y2="95.2297" gradientUnits="userSpaceOnUse">
<stop stop-color="#000442"/>
<stop offset="1" stop-color="#1D196F"/>
</linearGradient>
<linearGradient id="paint17_linear_4854_3399" x1="118.321" y1="73.0586" x2="118.321" y2="95.344" gradientUnits="userSpaceOnUse">
<stop stop-color="#000442"/>
<stop offset="1" stop-color="#1D196F"/>
</linearGradient>
<linearGradient id="paint18_linear_4854_3399" x1="73.1946" y1="78.6797" x2="73.1946" y2="95.2305" gradientUnits="userSpaceOnUse">
<stop stop-color="#000442"/>
<stop offset="1" stop-color="#1D196F"/>
</linearGradient>
<linearGradient id="paint19_linear_4854_3399" x1="68.3481" y1="79.5947" x2="68.3481" y2="93.7201" gradientUnits="userSpaceOnUse">
<stop stop-color="#000442"/>
<stop offset="1" stop-color="#1D196F"/>
</linearGradient>
<linearGradient id="paint20_linear_4854_3399" x1="86.56" y1="78.6797" x2="86.56" y2="95.2305" gradientUnits="userSpaceOnUse">
<stop stop-color="#000442"/>
<stop offset="1" stop-color="#1D196F"/>
</linearGradient>
<linearGradient id="paint21_linear_4854_3399" x1="81.7133" y1="79.5947" x2="81.7133" y2="93.7201" gradientUnits="userSpaceOnUse">
<stop stop-color="#000442"/>
<stop offset="1" stop-color="#1D196F"/>
</linearGradient>
<linearGradient id="paint22_linear_4854_3399" x1="99.9272" y1="78.6797" x2="99.9272" y2="95.2305" gradientUnits="userSpaceOnUse">
<stop stop-color="#000442"/>
<stop offset="1" stop-color="#1D196F"/>
</linearGradient>
<linearGradient id="paint23_linear_4854_3399" x1="95.0808" y1="79.5947" x2="95.0808" y2="93.7201" gradientUnits="userSpaceOnUse">
<stop stop-color="#000442"/>
<stop offset="1" stop-color="#1D196F"/>
</linearGradient>
<linearGradient id="paint24_linear_4854_3399" x1="113.293" y1="78.6797" x2="113.293" y2="95.2305" gradientUnits="userSpaceOnUse">
<stop stop-color="#000442"/>
<stop offset="1" stop-color="#1D196F"/>
</linearGradient>
<linearGradient id="paint25_linear_4854_3399" x1="108.448" y1="79.5947" x2="108.448" y2="93.7201" gradientUnits="userSpaceOnUse">
<stop stop-color="#000442"/>
<stop offset="1" stop-color="#1D196F"/>
</linearGradient>
<linearGradient id="paint26_linear_4854_3399" x1="126.658" y1="78.6797" x2="126.658" y2="95.2305" gradientUnits="userSpaceOnUse">
<stop stop-color="#000442"/>
<stop offset="1" stop-color="#1D196F"/>
</linearGradient>
<linearGradient id="paint27_linear_4854_3399" x1="121.813" y1="79.5947" x2="121.813" y2="93.7201" gradientUnits="userSpaceOnUse">
<stop stop-color="#000442"/>
<stop offset="1" stop-color="#1D196F"/>
</linearGradient>
<linearGradient id="paint28_linear_4854_3399" x1="31.6722" y1="40.6338" x2="31.6722" y2="96.8686" gradientUnits="userSpaceOnUse">
<stop stop-color="#000442"/>
<stop offset="1" stop-color="#1D196F"/>
</linearGradient>
<linearGradient id="paint29_linear_4854_3399" x1="43.7242" y1="52.5312" x2="43.7242" y2="78.1154" gradientUnits="userSpaceOnUse">
<stop stop-color="#000442"/>
<stop offset="1" stop-color="#1D196F"/>
</linearGradient>
<linearGradient id="paint30_linear_4854_3399" x1="150.75" y1="53.4102" x2="150.75" y2="93.9077" gradientUnits="userSpaceOnUse">
<stop stop-color="#000442"/>
<stop offset="1" stop-color="#1D196F"/>
</linearGradient>
<linearGradient id="paint31_linear_4854_3399" x1="168.982" y1="34.4512" x2="168.982" y2="89.7356" gradientUnits="userSpaceOnUse">
<stop stop-color="#000442"/>
<stop offset="1" stop-color="#1D196F"/>
</linearGradient>
<linearGradient id="paint32_linear_4854_3399" x1="99.3837" y1="40.6348" x2="99.3837" y2="56.0366" gradientUnits="userSpaceOnUse">
<stop stop-color="#000442"/>
<stop offset="1" stop-color="#1D196F"/>
</linearGradient>
<linearGradient id="paint33_linear_4854_3399" x1="50.2625" y1="28.6133" x2="50.2625" y2="102.975" gradientUnits="userSpaceOnUse">
<stop stop-color="#000442"/>
<stop offset="1" stop-color="#1D196F"/>
</linearGradient>
<linearGradient id="paint34_linear_4854_3399" x1="146.738" y1="28.752" x2="146.738" y2="103.113" gradientUnits="userSpaceOnUse">
<stop stop-color="#000442"/>
<stop offset="1" stop-color="#1D196F"/>
</linearGradient>
<linearGradient id="paint35_linear_4854_3399" x1="37.2269" y1="56.0361" x2="37.2269" y2="75.9249" gradientUnits="userSpaceOnUse">
<stop stop-color="#000442"/>
<stop offset="1" stop-color="#1D196F"/>
</linearGradient>
<linearGradient id="paint36_linear_4854_3399" x1="159.841" y1="57" x2="159.841" y2="76.8888" gradientUnits="userSpaceOnUse">
<stop stop-color="#000442"/>
<stop offset="1" stop-color="#1D196F"/>
</linearGradient>
<linearGradient id="paint37_linear_4854_3399" x1="140.447" y1="53.9043" x2="140.447" y2="78.2224" gradientUnits="userSpaceOnUse">
<stop stop-color="#000442"/>
<stop offset="1" stop-color="#1D196F"/>
</linearGradient>
<linearGradient id="paint38_linear_4854_3399" x1="150.138" y1="50.7041" x2="150.138" y2="54.0816" gradientUnits="userSpaceOnUse">
<stop stop-color="#000442"/>
<stop offset="1" stop-color="#1D196F"/>
</linearGradient>
<linearGradient id="paint39_linear_4854_3399" x1="53.0118" y1="118.262" x2="53.0118" y2="922.482" gradientUnits="userSpaceOnUse">
<stop stop-color="#000442"/>
<stop offset="1" stop-color="#1D196F"/>
</linearGradient>
<linearGradient id="paint40_linear_4854_3399" x1="74.8704" y1="118.262" x2="74.8704" y2="922.482" gradientUnits="userSpaceOnUse">
<stop stop-color="#000442"/>
<stop offset="1" stop-color="#1D196F"/>
</linearGradient>
<linearGradient id="paint41_linear_4854_3399" x1="96.7287" y1="118.262" x2="96.7287" y2="922.482" gradientUnits="userSpaceOnUse">
<stop stop-color="#000442"/>
<stop offset="1" stop-color="#1D196F"/>
</linearGradient>
<linearGradient id="paint42_linear_4854_3399" x1="118.587" y1="118.262" x2="118.587" y2="922.482" gradientUnits="userSpaceOnUse">
<stop stop-color="#000442"/>
<stop offset="1" stop-color="#1D196F"/>
</linearGradient>
<linearGradient id="paint43_linear_4854_3399" x1="140.447" y1="118.262" x2="140.447" y2="922.482" gradientUnits="userSpaceOnUse">
<stop stop-color="#000442"/>
<stop offset="1" stop-color="#1D196F"/>
</linearGradient>
<linearGradient id="paint44_linear_4854_3399" x1="97.9054" y1="103.113" x2="97.9054" y2="140.539" gradientUnits="userSpaceOnUse">
<stop stop-color="#000442"/>
<stop offset="1" stop-color="#1D196F"/>
</linearGradient>
</defs>
</svg>
