<svg width="903" height="178" viewBox="0 0 903 178" fill="none" xmlns="http://www.w3.org/2000/svg">
<g filter="url(#filter0_d_4854_3768)">
<path fill-rule="evenodd" clip-rule="evenodd" d="M51.6043 191.558L39.3389 99.0967L1209.06 112.126L1197.82 191.558H51.6043Z" fill="#5F4BBF"/>
<path fill-rule="evenodd" clip-rule="evenodd" d="M23 91.377L31.7861 112.432H1221.66L1233.49 91.377H23Z" fill="#5F4BBF"/>
<path fill-rule="evenodd" clip-rule="evenodd" d="M23 91.3761L190.867 65.5469H1066.18L1233.49 91.3761H23Z" fill="#D5A76D"/>
<path fill-rule="evenodd" clip-rule="evenodd" d="M45.5598 145.657C207.252 110.392 900.674 106.199 1204.47 144.825L1208.63 112.454H40.7529L45.5598 145.657Z" fill="#0F175C"/>
<path opacity="0.5" fill-rule="evenodd" clip-rule="evenodd" d="M446.727 71.3407C486.312 80.0709 465.324 75.5128 542.324 92.072H908.682L989.4 64.8784C452.364 64.8784 553.843 62.7225 446.727 71.3407Z" fill="#5F4BBF"/>
<path fill-rule="evenodd" clip-rule="evenodd" d="M436.879 127.668L443.85 173.538L767.551 177.532L777.215 127.668H436.879Z" fill="#FED8B3"/>
<path d="M547.634 144.404C547.634 143.644 547.558 143.087 547.406 142.732C547.254 142.352 546.963 142.086 546.532 141.934C546.101 141.782 545.417 141.706 544.48 141.706C544.404 141.706 544.366 141.63 544.366 141.478C544.366 141.326 544.404 141.25 544.48 141.25L546.342 141.288C547.609 141.339 548.749 141.364 549.762 141.364C550.446 141.364 551.421 141.339 552.688 141.288L554.816 141.25C554.892 141.25 554.93 141.326 554.93 141.478C554.93 141.63 554.892 141.706 554.816 141.706C553.955 141.706 553.309 141.782 552.878 141.934C552.473 142.061 552.194 142.301 552.042 142.656C551.915 143.011 551.852 143.568 551.852 144.328V161.922C551.852 162.682 551.915 163.252 552.042 163.632C552.194 163.987 552.473 164.227 552.878 164.354C553.283 164.481 553.929 164.544 554.816 164.544C554.892 164.544 554.93 164.62 554.93 164.772C554.93 164.924 554.892 165 554.816 165C553.929 165 553.22 164.987 552.688 164.962L549.762 164.924L546.342 164.962C545.886 164.987 545.265 165 544.48 165C544.404 165 544.366 164.924 544.366 164.772C544.366 164.62 544.404 164.544 544.48 164.544C545.417 164.544 546.101 164.481 546.532 164.354C546.963 164.227 547.254 163.987 547.406 163.632C547.558 163.277 547.634 162.707 547.634 161.922V144.404ZM533.118 152.118H549.572V153.182H533.118V152.118ZM531.142 144.328C531.142 143.568 531.066 143.011 530.914 142.656C530.762 142.301 530.483 142.061 530.078 141.934C529.698 141.782 529.077 141.706 528.216 141.706C528.14 141.706 528.102 141.63 528.102 141.478C528.102 141.326 528.14 141.25 528.216 141.25L530.268 141.288C531.433 141.339 532.371 141.364 533.08 141.364C534.043 141.364 535.157 141.339 536.424 141.288L538.514 141.25C538.565 141.25 538.59 141.326 538.59 141.478C538.59 141.63 538.565 141.706 538.514 141.706C537.602 141.706 536.931 141.782 536.5 141.934C536.069 142.086 535.765 142.352 535.588 142.732C535.436 143.087 535.36 143.644 535.36 144.404V161.922C535.36 162.682 535.436 163.252 535.588 163.632C535.74 163.987 536.031 164.227 536.462 164.354C536.893 164.481 537.577 164.544 538.514 164.544C538.565 164.544 538.59 164.62 538.59 164.772C538.59 164.924 538.565 165 538.514 165C537.627 165 536.918 164.987 536.386 164.962L533.08 164.924L530.23 164.962C529.723 164.987 529.027 165 528.14 165C528.089 165 528.064 164.924 528.064 164.772C528.064 164.62 528.089 164.544 528.14 164.544C529.027 164.544 529.673 164.481 530.078 164.354C530.483 164.227 530.762 163.987 530.914 163.632C531.066 163.252 531.142 162.682 531.142 161.922V144.328ZM557.16 165C557.109 165 557.084 164.924 557.084 164.772C557.084 164.62 557.109 164.544 557.16 164.544C557.894 164.544 558.426 164.481 558.756 164.354C559.085 164.227 559.313 163.987 559.44 163.632C559.566 163.252 559.63 162.682 559.63 161.922V150.294C559.63 149.534 559.566 148.977 559.44 148.622C559.313 148.267 559.072 148.027 558.718 147.9C558.388 147.748 557.869 147.672 557.16 147.672C557.109 147.672 557.084 147.596 557.084 147.444C557.084 147.292 557.109 147.216 557.16 147.216H570.764C571.017 147.216 571.144 147.317 571.144 147.52L571.182 149.876C571.207 150.357 571.22 150.965 571.22 151.7C571.22 151.776 571.144 151.814 570.992 151.814C570.865 151.814 570.789 151.776 570.764 151.7C570.282 150.585 569.548 149.648 568.56 148.888C567.572 148.103 566.571 147.71 565.558 147.71H565.292C564.734 147.71 564.316 147.786 564.038 147.938C563.784 148.065 563.607 148.305 563.506 148.66C563.43 149.015 563.392 149.572 563.392 150.332V161.77C563.392 162.53 563.43 163.087 563.506 163.442C563.607 163.797 563.784 164.05 564.038 164.202C564.316 164.329 564.734 164.392 565.292 164.392H565.71C566.9 164.392 568.078 163.974 569.244 163.138C570.409 162.277 571.27 161.213 571.828 159.946C571.878 159.87 571.967 159.832 572.094 159.832C572.22 159.832 572.284 159.87 572.284 159.946C572.106 161.77 572.018 163.265 572.018 164.43C572.018 164.633 571.98 164.785 571.904 164.886C571.828 164.962 571.676 165 571.448 165H557.16ZM569.206 156.868C569.079 156.868 568.458 156.792 567.344 156.64C566.254 156.488 564.38 156.412 561.72 156.412V155.462C564.38 155.462 566.254 155.399 567.344 155.272C568.458 155.12 569.079 155.044 569.206 155.044C569.383 155.044 569.472 155.323 569.472 155.88C569.472 156.133 569.446 156.361 569.396 156.564C569.345 156.767 569.282 156.868 569.206 156.868ZM580.524 161.238C580.068 161.947 579.84 162.581 579.84 163.138C579.84 163.569 579.98 163.911 580.258 164.164C580.537 164.417 580.942 164.544 581.474 164.544C581.525 164.544 581.55 164.62 581.55 164.772C581.55 164.924 581.525 165 581.474 165C580.714 165 580.132 164.987 579.726 164.962L577.218 164.924L575.66 164.962C575.382 164.987 574.913 165 574.254 165C574.204 165 574.178 164.924 574.178 164.772C574.178 164.62 574.204 164.544 574.254 164.544C575.901 164.544 577.598 163.366 579.346 161.01L583.108 155.88L584.02 156.184L580.524 161.238ZM586.832 151.016C587.364 150.205 587.63 149.483 587.63 148.85C587.63 148.065 587.238 147.672 586.452 147.672C586.376 147.672 586.338 147.596 586.338 147.444C586.338 147.292 586.376 147.216 586.452 147.216L587.972 147.254C588.834 147.305 589.594 147.33 590.252 147.33C590.683 147.33 591.202 147.305 591.81 147.254L593.216 147.216C593.267 147.216 593.292 147.292 593.292 147.444C593.292 147.596 593.267 147.672 593.216 147.672C591.468 147.672 589.733 148.85 588.01 151.206L584.552 156.07L583.716 155.728L586.832 151.016ZM594.09 164.544C594.166 164.544 594.204 164.62 594.204 164.772C594.204 164.924 594.166 165 594.09 165L589.53 164.924L587.136 164.962C586.782 164.987 586.3 165 585.692 165C585.616 165 585.578 164.924 585.578 164.772C585.578 164.62 585.616 164.544 585.692 164.544C586.174 164.544 586.528 164.519 586.756 164.468C586.984 164.392 587.098 164.265 587.098 164.088C587.098 163.911 586.921 163.569 586.566 163.062L578.092 150.37C577.459 149.407 576.8 148.723 576.116 148.318C575.432 147.887 574.799 147.672 574.216 147.672C574.166 147.672 574.14 147.596 574.14 147.444C574.14 147.292 574.166 147.216 574.216 147.216L575.394 147.254C575.952 147.305 576.344 147.33 576.572 147.33L580.22 147.254L582.614 147.216C582.69 147.216 582.728 147.292 582.728 147.444C582.728 147.596 582.69 147.672 582.614 147.672C582.133 147.672 581.778 147.71 581.55 147.786C581.322 147.837 581.208 147.951 581.208 148.128C581.208 148.331 581.386 148.685 581.74 149.192L590.214 161.846C590.873 162.809 591.544 163.505 592.228 163.936C592.912 164.341 593.533 164.544 594.09 164.544ZM601.082 155.918H608.036L608.302 156.906H600.512L601.082 155.918ZM615.408 164.544C615.535 164.544 615.598 164.62 615.598 164.772C615.598 164.924 615.535 165 615.408 165C614.876 165 614.078 164.975 613.014 164.924C611.9 164.873 611.114 164.848 610.658 164.848C610.228 164.848 609.556 164.873 608.644 164.924C607.783 164.975 607.175 165 606.82 165C606.719 165 606.668 164.924 606.668 164.772C606.668 164.62 606.719 164.544 606.82 164.544C607.403 164.544 607.808 164.481 608.036 164.354C608.29 164.202 608.416 163.987 608.416 163.708C608.416 163.353 608.201 162.72 607.77 161.808L602.944 151.434L604.616 148.508L599.638 160.326C599.182 161.39 598.954 162.226 598.954 162.834C598.954 163.442 599.17 163.885 599.6 164.164C600.031 164.417 600.702 164.544 601.614 164.544C601.741 164.544 601.804 164.62 601.804 164.772C601.804 164.924 601.741 165 601.614 165C601.26 165 600.753 164.975 600.094 164.924C599.385 164.873 598.726 164.848 598.118 164.848C597.485 164.848 596.738 164.873 595.876 164.924C595.116 164.975 594.496 165 594.014 165C593.888 165 593.824 164.924 593.824 164.772C593.824 164.62 593.888 164.544 594.014 164.544C594.8 164.544 595.433 164.43 595.914 164.202C596.396 163.974 596.839 163.543 597.244 162.91C597.675 162.277 598.169 161.301 598.726 159.984L604.426 146.646C604.477 146.545 604.553 146.494 604.654 146.494C604.756 146.494 604.832 146.545 604.882 146.646L610.962 159.794C611.596 161.162 612.115 162.175 612.52 162.834C612.951 163.493 613.382 163.949 613.812 164.202C614.243 164.43 614.775 164.544 615.408 164.544ZM620.791 150.028C620.791 150.737 620.981 151.358 621.361 151.89C621.767 152.397 622.248 152.84 622.805 153.22C623.388 153.575 624.173 154.005 625.161 154.512C626.301 155.12 627.188 155.639 627.821 156.07C628.48 156.475 629.037 157.007 629.493 157.666C629.975 158.325 630.215 159.11 630.215 160.022C630.215 161.035 629.911 161.96 629.303 162.796C628.721 163.607 627.91 164.253 626.871 164.734C625.833 165.215 624.667 165.456 623.375 165.456C622.21 165.456 621.07 165.304 619.955 165C618.866 164.721 618.106 164.405 617.675 164.05C617.473 163.923 617.371 163.657 617.371 163.252L617.181 158.958C617.181 158.857 617.245 158.793 617.371 158.768C617.498 158.743 617.587 158.781 617.637 158.882C618.6 160.554 619.575 161.922 620.563 162.986C621.551 164.05 622.679 164.582 623.945 164.582C624.705 164.582 625.339 164.354 625.845 163.898C626.352 163.442 626.605 162.758 626.605 161.846C626.605 161.035 626.39 160.326 625.959 159.718C625.554 159.11 625.047 158.603 624.439 158.198C623.831 157.767 623.021 157.273 622.007 156.716C620.513 155.905 619.373 155.145 618.587 154.436C617.802 153.701 617.409 152.751 617.409 151.586C617.409 150.117 618.055 148.951 619.347 148.09C620.639 147.203 622.197 146.76 624.021 146.76C624.832 146.76 625.681 146.849 626.567 147.026C627.454 147.203 628.163 147.406 628.695 147.634C628.923 147.71 629.075 147.811 629.151 147.938C629.227 148.039 629.265 148.191 629.265 148.394V152.004C629.265 152.08 629.202 152.143 629.075 152.194C628.949 152.219 628.86 152.194 628.809 152.118C628.328 151.105 627.657 150.104 626.795 149.116C625.934 148.128 624.794 147.634 623.375 147.634C622.514 147.634 621.868 147.862 621.437 148.318C621.007 148.749 620.791 149.319 620.791 150.028ZM638.229 155.918H645.183L645.449 156.906H637.659L638.229 155.918ZM652.555 164.544C652.681 164.544 652.745 164.62 652.745 164.772C652.745 164.924 652.681 165 652.555 165C652.023 165 651.225 164.975 650.161 164.924C649.046 164.873 648.261 164.848 647.805 164.848C647.374 164.848 646.703 164.873 645.791 164.924C644.929 164.975 644.321 165 643.967 165C643.865 165 643.815 164.924 643.815 164.772C643.815 164.62 643.865 164.544 643.967 164.544C644.549 164.544 644.955 164.481 645.183 164.354C645.436 164.202 645.563 163.987 645.563 163.708C645.563 163.353 645.347 162.72 644.917 161.808L640.091 151.434L641.763 148.508L636.785 160.326C636.329 161.39 636.101 162.226 636.101 162.834C636.101 163.442 636.316 163.885 636.747 164.164C637.177 164.417 637.849 164.544 638.761 164.544C638.887 164.544 638.951 164.62 638.951 164.772C638.951 164.924 638.887 165 638.761 165C638.406 165 637.899 164.975 637.241 164.924C636.531 164.873 635.873 164.848 635.265 164.848C634.631 164.848 633.884 164.873 633.023 164.924C632.263 164.975 631.642 165 631.161 165C631.034 165 630.971 164.924 630.971 164.772C630.971 164.62 631.034 164.544 631.161 164.544C631.946 164.544 632.579 164.43 633.061 164.202C633.542 163.974 633.985 163.543 634.391 162.91C634.821 162.277 635.315 161.301 635.873 159.984L641.573 146.646C641.623 146.545 641.699 146.494 641.801 146.494C641.902 146.494 641.978 146.545 642.029 146.646L648.109 159.794C648.742 161.162 649.261 162.175 649.667 162.834C650.097 163.493 650.528 163.949 650.959 164.202C651.389 164.43 651.921 164.544 652.555 164.544ZM669.392 151.624C669.392 150.281 669.126 149.293 668.594 148.66C668.087 148.001 667.277 147.672 666.162 147.672C666.086 147.672 666.048 147.596 666.048 147.444C666.048 147.292 666.086 147.216 666.162 147.216L667.758 147.254C668.619 147.305 669.316 147.33 669.848 147.33C670.253 147.33 670.861 147.305 671.672 147.254L673.23 147.216C673.281 147.216 673.306 147.292 673.306 147.444C673.306 147.596 673.281 147.672 673.23 147.672C672.217 147.672 671.482 147.989 671.026 148.622C670.57 149.255 670.342 150.256 670.342 151.624V158.008C670.342 160.364 669.696 162.201 668.404 163.518C667.112 164.835 665.364 165.494 663.16 165.494C661.741 165.494 660.424 165.215 659.208 164.658C658.017 164.075 657.055 163.252 656.32 162.188C655.611 161.124 655.256 159.857 655.256 158.388V150.294C655.256 149.534 655.193 148.977 655.066 148.622C654.965 148.267 654.737 148.027 654.382 147.9C654.053 147.748 653.533 147.672 652.824 147.672C652.748 147.672 652.71 147.596 652.71 147.444C652.71 147.292 652.748 147.216 652.824 147.216L654.648 147.254C655.661 147.305 656.472 147.33 657.08 147.33C657.764 147.33 658.613 147.305 659.626 147.254L661.45 147.216C661.501 147.216 661.526 147.292 661.526 147.444C661.526 147.596 661.501 147.672 661.45 147.672C660.741 147.672 660.209 147.748 659.854 147.9C659.525 148.052 659.297 148.318 659.17 148.698C659.043 149.053 658.98 149.61 658.98 150.37V157.4C658.98 159.655 659.461 161.314 660.424 162.378C661.412 163.417 662.691 163.936 664.262 163.936C665.833 163.936 667.074 163.429 667.986 162.416C668.923 161.403 669.392 159.959 669.392 158.084V151.624ZM683.314 164.544C683.364 164.544 683.39 164.62 683.39 164.772C683.39 164.924 683.364 165 683.314 165C682.554 165 681.958 164.987 681.528 164.962L678.944 164.924L676.474 164.962C676.018 164.987 675.384 165 674.574 165C674.523 165 674.498 164.924 674.498 164.772C674.498 164.62 674.523 164.544 674.574 164.544C675.283 164.544 675.802 164.481 676.132 164.354C676.461 164.227 676.689 163.987 676.816 163.632C676.942 163.252 677.006 162.682 677.006 161.922V150.294C677.006 149.534 676.942 148.977 676.816 148.622C676.714 148.267 676.499 148.027 676.17 147.9C675.84 147.748 675.334 147.672 674.65 147.672C674.574 147.672 674.536 147.596 674.536 147.444C674.536 147.292 674.574 147.216 674.65 147.216L676.512 147.254C677.525 147.305 678.336 147.33 678.944 147.33C679.425 147.33 679.868 147.317 680.274 147.292C680.679 147.267 681.034 147.241 681.338 147.216C682.174 147.14 682.959 147.102 683.694 147.102C685.67 147.102 687.177 147.419 688.216 148.052C689.254 148.685 689.774 149.597 689.774 150.788C689.774 151.827 689.406 152.789 688.672 153.676C687.962 154.563 686.974 155.272 685.708 155.804C684.466 156.311 683.098 156.564 681.604 156.564C680.793 156.564 680.096 156.513 679.514 156.412L679.476 155.576C680.109 155.753 680.907 155.842 681.87 155.842C683.314 155.842 684.314 155.513 684.872 154.854C685.429 154.17 685.708 153.157 685.708 151.814C685.708 149.179 684.745 147.862 682.82 147.862C682.288 147.862 681.895 147.925 681.642 148.052C681.388 148.179 681.211 148.419 681.11 148.774C681.008 149.103 680.958 149.635 680.958 150.37V161.922C680.958 162.707 681.008 163.277 681.11 163.632C681.236 163.987 681.452 164.227 681.756 164.354C682.085 164.481 682.604 164.544 683.314 164.544ZM694.942 164.544C695.018 164.544 695.056 164.62 695.056 164.772C695.056 164.924 695.018 165 694.942 165H688.71C688.33 165 687.633 164.215 686.62 162.644C685.606 161.048 684.416 158.895 683.048 156.184L686.088 155.386C687.481 157.742 688.672 159.579 689.66 160.896C690.673 162.213 691.585 163.151 692.396 163.708C693.232 164.265 694.08 164.544 694.942 164.544Z" fill="black"/>
<path fill-rule="evenodd" clip-rule="evenodd" d="M450.032 173.613C477.243 179.087 429.44 176.9 739.823 181.791L762.101 177.464L450.032 173.613Z" fill="#5C0F1A"/>
<path fill-rule="evenodd" clip-rule="evenodd" d="M678.718 111.172L693.63 91.8438L841.058 93.3785L829.349 111.172H678.718Z" fill="#80B9FF"/>
<path fill-rule="evenodd" clip-rule="evenodd" d="M841.058 111.367L860.101 92.8623H889.122L865.09 111.367H841.058Z" fill="#80B9FF"/>
<path fill-rule="evenodd" clip-rule="evenodd" d="M103.625 78.8753L122.998 15.8955H260.831L249.712 78.8753H103.625Z" fill="#5F4BBF"/>
<path fill-rule="evenodd" clip-rule="evenodd" d="M111.562 71.61L242.187 73.2081L253.841 20.6318H126.439L111.562 71.61Z" fill="#FED8B3"/>
<path fill-rule="evenodd" clip-rule="evenodd" d="M260.831 15.8955L270.615 73.2083H250.816L260.831 15.8955Z" fill="#5C0F1A"/>
<path fill-rule="evenodd" clip-rule="evenodd" d="M142.015 28.0225L138.42 39.3451H235.47L238.132 28.0225H142.015Z" fill="#5C0F1A"/>
</g>
<defs>
<filter id="filter0_d_4854_3768" x="0.5" y="0.395508" width="1237.49" height="202.662" filterUnits="userSpaceOnUse" color-interpolation-filters="sRGB">
<feFlood flood-opacity="0" result="BackgroundImageFix"/>
<feColorMatrix in="SourceAlpha" type="matrix" values="0 0 0 0 0 0 0 0 0 0 0 0 0 0 0 0 0 0 127 0" result="hardAlpha"/>
<feOffset dx="-9" dy="-2"/>
<feGaussianBlur stdDeviation="6.75"/>
<feComposite in2="hardAlpha" operator="out"/>
<feColorMatrix type="matrix" values="0 0 0 0 0 0 0 0 0 0 0 0 0 0 0 0 0 0 0.25 0"/>
<feBlend mode="normal" in2="BackgroundImageFix" result="effect1_dropShadow_4854_3768"/>
<feBlend mode="normal" in="SourceGraphic" in2="effect1_dropShadow_4854_3768" result="shape"/>
</filter>
</defs>
</svg>
