<svg width="787" height="729" viewBox="0 0 787 729" fill="none" xmlns="http://www.w3.org/2000/svg">
<path fill-rule="evenodd" clip-rule="evenodd" d="M456.957 650.001C449.564 657.394 438.625 657.492 430.5 652.941C436.218 609.348 428.774 523.223 423.445 482.622L447.844 476.214C447.844 507.116 448.256 491.113 446.257 508.108C440.7 554.766 446.483 604 456.957 650.001Z" fill="#FED8B3"/>
<path fill-rule="evenodd" clip-rule="evenodd" d="M473.889 638.243C472.775 640.253 468.352 648.338 467.245 650.354L456.957 650.001L454.899 640.682C463.718 591.827 451.107 529.185 446.256 508.108C443.973 498.026 443.733 504.899 447.843 482.828C465.247 526.107 471.662 591.727 473.889 638.243Z" fill="#FED8B3"/>
<path fill-rule="evenodd" clip-rule="evenodd" d="M472.537 640.683C472.537 640.943 472.573 640.359 470.185 663.876L450.372 674.164C443.135 672.958 424.602 669.01 419.125 663.876C432.219 645.935 430.874 647.449 431.618 647.532C445.045 649.68 461.624 648.32 472.537 640.683Z" fill="#FED8B3"/>
<path fill-rule="evenodd" clip-rule="evenodd" d="M500.315 688.215L497.64 689.185C497.64 689.185 486.234 674.987 484.03 671.547C482.169 668.668 473.33 665.034 470.184 663.875C468.283 657.769 467.441 648.622 469.802 642.357C471.068 639.038 472.49 637.804 473.888 636.42C478.641 640.935 491.975 654.185 495.935 659.936C500.697 666.903 500.315 688.215 500.315 688.215Z" fill="#FED8B3"/>
<path fill-rule="evenodd" clip-rule="evenodd" d="M452.283 673.165C449.634 676.824 425.708 709.669 421.564 711.497C417.319 713.365 384.357 715.407 378.47 715.407L379.205 709.028H349.545C349.545 709.028 356.423 698.739 359.098 697.534C361.802 696.299 382.879 695.329 382.879 695.329L419.124 663.876C432.353 660.613 440.377 662.23 445.228 664.934C445.228 665.193 450.988 667.862 452.283 673.165Z" fill="#FED8B3"/>
<path fill-rule="evenodd" clip-rule="evenodd" d="M473.889 636.42C473.213 637.089 471.395 541.396 447.844 482.828V476.214L423.445 482.622C423.445 482.622 424.062 487.325 424.945 495.321L440.201 517.368C440.201 517.368 446.316 627.22 444.493 634.569C442.641 641.918 431.118 647.444 431.118 647.444C432.464 647.779 434.384 648.013 447.844 650.354C443.57 674.167 447.36 663.037 427.296 705.735C461.966 665.177 440.086 679.494 470.185 663.876C470.185 663.876 472.419 664.699 475.094 665.905L482.737 645.18C478.004 640.329 473.889 636.42 473.889 636.42ZM446.257 508.108C451.107 529.184 463.717 591.827 454.899 640.682C445.825 597.846 441.056 551.77 446.257 508.108Z" fill="#55666E"/>
<path fill-rule="evenodd" clip-rule="evenodd" d="M572.233 379.354V395.728C572.233 395.728 465.423 435.294 455.135 449.551C450.285 456.312 447.845 476.213 447.845 476.213C435.915 479.757 422.174 483.431 421.095 482.709C418.877 482.709 413.766 468.906 412.658 465.307C409.431 454.492 404.372 456.871 468.363 417.04C479.136 410.317 523.288 382.124 547.761 365.45L572.233 379.354Z" fill="#FED8B3"/>
<path fill-rule="evenodd" clip-rule="evenodd" d="M572.232 379.972V395.728C572.232 395.728 465.423 435.294 455.134 449.551C450.284 456.312 447.844 476.213 447.844 476.213C443.934 477.375 425.953 482.709 421.064 482.709C418.245 481.417 412.28 465.307 412.687 465.307C427.179 469.481 442.817 455.988 442.817 455.988C485.724 422.876 505.592 407.747 522.333 382.411C536.746 372.85 539.525 371.061 547.76 365.45C574.496 380.63 571.664 378.751 572.232 379.972Z" fill="#0B2557"/>
<path fill-rule="evenodd" clip-rule="evenodd" d="M425.739 670.402L400.928 700.327C384.908 702.003 379.205 709.028 379.205 709.028H349.545C349.545 709.028 356.423 698.739 359.098 697.534C361.802 696.3 382.879 695.329 382.879 695.329L419.124 663.876L425.739 670.402Z" fill="#0B2557"/>
<path d="M397.632 701.279C391.196 696.334 382.942 696.065 382.86 696.062L382.898 694.593C383.253 694.601 391.7 694.87 398.528 700.111L397.632 701.279Z" fill="#0B2557"/>
<path d="M421.056 712.026C410.607 702.012 400.962 701.064 400.865 701.056L400.991 699.592C401.404 699.626 411.221 700.564 422.073 710.963L421.056 712.026Z" fill="#55666E"/>
<path d="M484.606 672.007L483.454 671.093C483.693 670.794 489.371 663.722 496.825 661.359L497.269 662.761C490.238 664.99 484.661 671.936 484.606 672.007Z" fill="#55666E"/>
<path d="M451.811 673.727C451.733 673.661 443.891 667.35 425.889 671.122L425.588 669.684C444.355 665.739 452.423 672.319 452.758 672.604L451.811 673.727Z" fill="#55666E"/>
<path d="M469.497 664.133C464.257 650.238 473.207 637.929 473.297 637.805L474.479 638.68C474.393 638.799 465.921 650.484 470.872 663.616L469.497 664.133Z" fill="#0B2557"/>
<path d="M423.309 483.344L423.582 481.901C423.685 481.919 434.348 483.788 447.454 475.59L448.233 476.838C438.413 482.98 428.305 484.33 423.309 483.344Z" fill="#0B2557"/>
<path opacity="0.7" fill-rule="evenodd" clip-rule="evenodd" d="M427.152 464.665L435.444 455.439L447.844 452.093C447.844 452.093 440.876 461.647 427.152 464.665Z" fill="#FED8B3"/>
<path opacity="0.2" fill-rule="evenodd" clip-rule="evenodd" d="M571.834 379.121L547.759 365.452C527.35 379.357 488.781 404.298 468.362 417.042C404.683 456.679 409.421 454.467 412.657 465.309C415.125 473.331 419.557 482.711 421.094 482.711C421.491 482.975 423.196 482.649 423.664 482.566C423.033 482.732 437.137 586.102 431.118 647.445C416.019 668.132 426.387 657.574 382.879 695.331C382.879 695.331 361.803 696.301 359.098 697.535C356.423 698.74 349.545 709.029 349.545 709.029H379.205L378.47 715.408C384.433 715.408 417.392 713.334 421.564 711.499C425.71 709.669 449.682 676.759 452.283 673.167L470.185 663.878C484.785 669.259 481.595 669.213 497.641 689.188L500.316 688.218C500.689 666.587 496.441 662.065 497.042 662.065C494.714 656.616 477.802 640.14 473.89 636.423C473.241 637.071 471.349 541.283 447.845 482.831V476.217C447.845 476.217 450.284 456.316 455.135 449.555C465.423 435.298 572.233 395.731 572.233 395.731C572.232 377.554 572.409 379.462 571.834 379.121ZM454.898 640.684C445.825 597.852 441.055 551.772 446.256 508.109C451.106 529.186 463.717 591.828 454.898 640.684Z" fill="#55666E"/>
<path fill-rule="evenodd" clip-rule="evenodd" d="M1254.2 581.422C1252.76 582.873 1187.51 628.842 1116.04 642.153L1107.72 648.032C1107.72 648.032 1089.11 643.623 1067.53 648.032L1061.18 652.942C1061.18 652.942 1016.59 644.123 979.347 645.593L974.938 648.533C974.938 648.533 960.24 639.714 936.253 637.274L931.344 639.714C931.344 639.714 901.449 626.486 884.311 624.046L881.372 628.456C881.372 628.456 857.855 615.227 842.657 609.348L838.247 612.758C838.247 612.758 819.141 594.151 798.563 584.362L794.653 587.772C794.653 587.772 777.516 570.135 764.758 562.315L759.379 564.255C759.379 564.255 744.681 542.208 732.923 533.89C723.985 538.332 725.643 531.749 712.347 511.843C712.347 511.843 702.557 511.343 700.088 508.404C697.649 505.464 695.208 480.978 686.39 461.871C686.39 461.871 676.572 456.492 674.632 453.052C672.662 449.612 669.223 432.975 663.844 421.216C647.753 423.698 658.385 410.216 641.298 382.002L655.055 355.076C661.138 362.352 674.279 376.696 682.951 381.032C693.74 386.412 682.951 406.989 682.951 406.989L684.421 411.398C712.98 437.747 709.989 431.44 711.965 435.267C715.052 441.176 709.907 452.552 709.907 452.552V459.431C709.907 459.431 721.165 482.947 731.454 487.827V494.705C731.454 494.705 742.242 507.933 752.531 509.403V515.282C765.465 527.667 771.81 530.762 784.366 532.42V540.739C784.366 540.739 796.624 554.467 816.702 555.936V564.255C816.702 564.255 836.779 577.013 856.886 577.483L860.795 585.331C860.795 585.331 885.782 594.15 902.449 591.71V599.529C902.449 599.529 924.967 607.378 941.634 606.408L946.043 611.288C946.043 611.288 968.59 615.227 986.227 611.288L991.107 618.166C991.107 618.166 1036.2 626.985 1059.72 625.016L1064.6 628.456C1064.6 628.456 1090.58 628.456 1101.34 624.517L1113.1 628.456C1113.1 628.456 1179.74 617.668 1246.85 581.422L1254.2 581.422Z" fill="#FED8B3"/>
<path fill-rule="evenodd" clip-rule="evenodd" d="M1253.08 582.216C1244.23 588.448 1183.91 629.513 1116.04 642.153L1107.72 648.032C1107.72 648.032 1089.11 643.623 1067.53 648.032L1061.19 652.942C1061.19 652.942 1016.59 644.123 979.348 645.593L974.939 648.533C974.939 648.533 960.241 639.714 936.254 637.274L931.345 639.714C931.345 639.714 901.45 626.486 884.311 624.046L881.372 628.456C881.372 628.456 857.856 615.227 842.658 609.348L838.248 612.758C838.248 612.758 819.141 594.151 798.564 584.362L794.654 587.772C794.654 587.772 777.517 570.135 764.759 562.315L759.38 564.255C759.38 564.255 744.682 542.208 732.924 533.89C723.986 538.332 725.644 531.749 712.347 511.843C712.347 511.843 702.558 511.343 700.089 508.404C697.649 505.464 695.209 480.978 686.391 461.871C686.391 461.871 676.573 456.492 674.633 453.052C672.663 449.612 669.224 432.975 663.845 421.216C647.754 423.698 658.386 410.216 641.299 382.002L655.056 355.076C662.248 363.68 665.667 366.479 665.667 366.776L660.67 406.254L669.489 411.398L682.952 406.989L684.422 411.398C684.422 411.398 675.603 421.216 674.633 428.301C673.634 435.415 678.043 448.643 678.043 448.643C678.043 448.643 702.295 446.173 711.966 435.268C715.052 441.176 709.908 452.553 709.908 452.553V459.431L695.445 468.985C695.445 468.985 698.238 496.822 702.559 503.995C702.559 503.995 714.788 490.296 731.455 487.828V494.706C731.455 494.706 718.227 499.351 715.287 508.17C715.287 508.17 723.135 525.719 728.016 529.805C728.016 529.805 740.773 509.639 752.532 509.404V515.284C752.532 515.284 742.479 520.163 740.274 531.451L759.881 557.202C759.881 557.202 765.025 540.27 784.367 532.421V540.74C784.367 540.74 774.579 544.679 769.905 558.877L796.361 580.189C796.361 580.189 805.915 559.113 816.703 555.937V564.256C816.703 564.256 806.179 571.605 802.975 583.363L840.954 601.265C840.954 601.265 848.803 581.894 856.887 577.485L860.797 585.333C860.797 585.333 850.508 590.712 850.273 604.44L882.109 619.638C882.109 619.638 892.163 593.417 902.451 591.712V599.531C902.451 599.531 893.132 607.38 891.163 619.638L929.876 632.866C929.876 632.866 929.377 620.843 941.635 606.41L946.044 611.289C946.044 611.289 940.165 622.578 938.93 632.866L975.44 636.54C975.44 636.54 976.91 617.669 986.228 611.289L991.108 618.168C991.108 618.168 983.524 630.132 984.758 640.685L1056.78 646.094C1056.78 646.094 1054.31 631.867 1059.72 625.018L1064.6 628.457C1064.6 628.457 1062.39 637.011 1064.6 644.36L1098.67 640.95C1098.67 640.95 1096.93 628.927 1101.34 624.518L1113.1 628.457C1113.1 628.457 1110.16 635.306 1113.1 638.746C1113.1 638.744 1191.41 625.074 1253.08 582.216Z" fill="#55666E"/>
<path fill-rule="evenodd" clip-rule="evenodd" d="M299.901 198.045C299.901 198.045 310.68 176.733 315.579 172.814C320.479 168.894 347.472 161.195 354.699 166.935C359.598 170.364 333.461 200.617 333.461 200.617L299.901 198.045Z" fill="#FED8B3"/>
<path fill-rule="evenodd" clip-rule="evenodd" d="M351.344 198.044C351.344 198.044 356.243 166.611 364.572 155.504C372.901 144.397 407.207 130.265 414.055 129.209C415.865 128.93 423.198 128.545 423.289 129.209C424.358 137.033 388.578 183.228 388.578 183.228L351.344 198.044Z" fill="#FED8B3"/>
<path fill-rule="evenodd" clip-rule="evenodd" d="M400.581 189.96C400.581 189.96 414.789 153.215 431.937 142.437C449.084 131.659 493.668 128.144 498.077 129.166C502.486 130.189 498.077 136.132 498.077 136.132C498.077 136.132 460.842 153.215 443.695 175.752L416.749 193.389L400.581 189.96Z" fill="#FED8B3"/>
<path fill-rule="evenodd" clip-rule="evenodd" d="M449.329 182.489C449.329 182.489 460.598 163.67 473.336 155.504C486.073 147.336 521.886 143.417 528.506 144.887C532.542 145.377 526.248 153.382 525.268 155.504C524.288 157.625 475.296 193.39 475.296 193.39L449.329 182.489Z" fill="#FED8B3"/>
<path fill-rule="evenodd" clip-rule="evenodd" d="M161.165 290.168C161.165 290.168 160.714 273.371 159.529 272.481C158.345 271.591 136.706 267.272 129.562 259.594C129.562 259.594 155.202 254.143 168.273 258.6L174.209 284.016C174.209 284.016 170.498 292.173 161.165 290.168Z" fill="#55666E"/>
<path d="M160.005 273.043L159.054 271.922C169.64 262.943 167.662 259.013 167.64 258.975L168.894 258.208C169.202 258.694 171.563 263.239 160.005 273.043Z" fill="#55666E"/>
<path fill-rule="evenodd" clip-rule="evenodd" d="M178.743 276.868C178.743 276.868 186.308 251.609 185.749 248.256C185.189 244.903 168.695 233.067 153.158 230.673C155.006 239.35 163.733 246.442 170.848 253.121L167.108 287.318C167.108 287.318 176.136 285.907 178.743 276.868Z" fill="#55666E"/>
<path fill-rule="evenodd" clip-rule="evenodd" d="M298.517 331.536L277.521 314.005C291.056 293.192 310.009 252.079 294.142 232.904C292.206 227.807 287.033 213.326 287.16 209.217C287.435 204.493 316.424 198.795 319.788 201.027C323.13 203.237 331.311 216.469 332.087 220.697C332.822 224.9 321.26 241.94 318.08 249.887C314.907 257.902 305.073 320.702 304.086 326.372C303.38 330.638 300.279 331.718 298.517 331.536Z" fill="#55666E"/>
<path fill-rule="evenodd" clip-rule="evenodd" d="M298.518 331.536C287.364 334.969 292.641 334.942 279.426 329.793C250.866 318.645 219.691 311.744 195.229 309.482L190.264 304.679L195.741 296.439C220.976 306.857 254.727 313.11 277.523 314.005C300.048 314.692 298.518 331.536 298.518 331.536Z" fill="#55666E"/>
<path fill-rule="evenodd" clip-rule="evenodd" d="M292.767 333.294C292.265 333.505 290.366 334.044 290.016 334.151C259.014 342.212 220.89 334.709 188.256 307.769C202.369 305.062 196.712 304.758 207.622 311.045C218.899 317.478 231.039 323.234 243.456 327.021C253.98 330.212 271.45 332.939 279.425 329.793C279.684 329.79 279.19 329.721 292.767 333.294Z" fill="#55666E"/>
<path fill-rule="evenodd" clip-rule="evenodd" d="M200.449 298.3C200.449 298.3 185.087 285.048 183.88 280.958C182.674 276.868 178.743 276.868 178.743 276.868C178.743 276.868 172.615 285.908 161.165 290.169L159.979 294.815C159.979 294.815 178.755 303.021 186.452 310.639C186.452 310.639 194.514 311.438 200.449 298.3Z" fill="#55666E"/>
<path d="M170.572 253.801L171.124 252.439C171.448 252.57 179.105 255.526 185.172 247.801L186.327 248.71C181.759 254.522 174.71 255.603 170.572 253.801Z" fill="#55666E"/>
<path fill-rule="evenodd" clip-rule="evenodd" d="M301.56 330.718C304.908 311.781 309.814 276.716 299.568 260.568C301.099 250.065 300.082 240.083 294.143 232.905C292.072 227.455 287.576 215.069 287.183 209.279C287.617 210.436 294.767 229.215 299.939 233.973C305.28 238.895 315.052 240.167 315.052 240.167L331.337 224.265C328.787 230.96 320.677 243.4 318.082 249.888C314.909 257.902 305.075 320.702 304.087 326.373C303.69 328.769 302.651 330.055 301.56 330.718Z" fill="#55666E"/>
<path fill-rule="evenodd" clip-rule="evenodd" d="M292.768 333.295C292.399 333.449 293.596 333.101 284.529 335.385C264.283 328.433 272.84 332.392 279.426 329.794C257.698 321.313 236.215 315.336 207.624 311.045C208.757 311.692 209.995 312.399 211.338 313.125C207.034 314.361 203.06 315.424 199.728 316.29C196.785 314.343 193.819 312.209 190.891 309.867C194.52 307.431 199.592 302.728 200.45 298.3L207.485 305.101C268.821 317.49 295.964 333.232 292.768 333.295Z" fill="#55666E"/>
<path fill-rule="evenodd" clip-rule="evenodd" d="M272.146 202.537C272.146 202.537 248.874 247.526 251.324 314.034C253.774 380.542 305.105 427.085 305.105 427.085H312.565C312.565 427.085 247.807 340.755 294.568 226.704L272.146 202.537Z" fill="#55666E"/>
<path fill-rule="evenodd" clip-rule="evenodd" d="M315.505 209.067C315.505 209.067 281.875 330.692 337.529 431.495L345.208 432.615C345.208 432.615 323.866 310.483 342.696 209.067H315.505Z" fill="#55666E"/>
<path fill-rule="evenodd" clip-rule="evenodd" d="M360.578 198.044C360.578 198.044 333.463 295.195 380.991 413.122H389.644C389.644 413.122 363.302 278.637 392.41 193.39L360.578 198.044Z" fill="#55666E"/>
<path fill-rule="evenodd" clip-rule="evenodd" d="M281.854 219.702C281.854 219.702 228.297 331.795 307.42 429.045L312.565 427.086C312.565 427.086 250.596 351.637 294.567 226.705L281.854 219.702Z" fill="#55666E"/>
<path fill-rule="evenodd" clip-rule="evenodd" d="M326.648 218.376C326.648 218.376 300.072 316.974 337.529 431.494H345.208C345.208 431.494 324.561 303.623 340.851 223.764L326.648 218.376Z" fill="#55666E"/>
<path fill-rule="evenodd" clip-rule="evenodd" d="M374.786 205.167C374.786 205.167 353.391 309.993 380.991 413.122H389.644C389.644 413.122 367.927 330.08 386.054 209.067L374.786 205.167Z" fill="#55666E"/>
<path fill-rule="evenodd" clip-rule="evenodd" d="M406.379 193.312C406.379 193.312 379.264 286.294 426.792 399.16H435.444C435.444 399.16 416.643 257.318 438.212 188.858L406.379 193.312Z" fill="#55666E"/>
<path fill-rule="evenodd" clip-rule="evenodd" d="M420.586 200.129C420.586 200.129 399.191 300.455 426.791 399.159H435.444C435.444 399.159 421.32 321.26 431.855 203.862L420.586 200.129Z" fill="#55666E"/>
<path fill-rule="evenodd" clip-rule="evenodd" d="M441.957 206.305C441.957 206.305 419.026 284.941 459.221 380.395H466.539C466.539 380.395 450.638 260.435 468.879 202.537L441.957 206.305Z" fill="#55666E"/>
<path fill-rule="evenodd" clip-rule="evenodd" d="M453.79 206.204C453.79 206.204 435.878 296.919 459.221 380.395H466.539C466.539 380.395 451.141 307.018 466.472 209.067L453.79 206.204Z" fill="#55666E"/>
<g opacity="0.4">
<path opacity="0.2" fill-rule="evenodd" clip-rule="evenodd" d="M335.877 341.681C333.301 288.895 336.049 244.857 342.694 209.067H326.238C323.856 205.359 321.317 202.038 319.789 201.027C316.426 198.795 287.436 204.493 287.161 209.217C287.072 212.089 289.517 219.62 290.354 222.171L272.145 202.537C272.145 202.537 249.553 246.264 251.252 311.208C237.446 309.098 208.961 302.753 200.411 298.281C199.997 297.923 185.07 284.992 183.88 280.958C182.674 276.868 178.743 276.869 178.743 276.869C178.743 276.869 186.308 251.609 185.749 248.256C185.19 244.903 168.696 233.067 153.159 230.673C155.006 239.351 163.734 246.443 170.849 253.121C169.248 267.757 169.982 265.916 168.531 259.704C168.491 258.967 168.274 258.601 168.274 258.601C155.203 254.144 129.563 259.595 129.563 259.595C136.707 267.273 158.346 271.592 159.53 272.483C160.714 273.373 161.166 290.169 161.166 290.169L159.979 294.816C190.011 307.941 183.19 313.09 190.648 309.674C209.201 324.221 230.142 334.036 254.056 336.528C264.383 387.203 303.061 427.085 305.871 427.085C306.389 427.738 306.89 428.393 307.42 429.045L312.565 427.085C298.582 408.396 283.554 373.183 279.884 336.14C283.754 335.595 289.061 334.615 292.748 333.316C300.192 330.695 299.755 331.914 301.561 330.718C302.652 330.056 303.69 328.77 304.088 326.373C311.1 286.085 296.133 356.519 337.529 431.495C352.466 433.673 341.62 442.378 335.877 341.681ZM279.358 329.817L279.354 329.766L279.426 329.794L279.358 329.817ZM207.623 311.045C222.19 313.231 237.505 316.304 251.713 320.395C251.97 323.45 252.354 326.445 252.802 329.405C237.256 326.2 221.284 318.838 207.623 311.045ZM278.828 311.91C279.065 288.008 283.104 260.764 293.28 230.579C293.802 232.007 294.142 232.904 294.142 232.904C309.837 251.869 291.518 291.139 278.828 311.91Z" fill="#0B2557"/>
<path fill-rule="evenodd" clip-rule="evenodd" d="M392.41 193.391L360.577 198.045C360.577 198.045 333.462 295.196 380.99 413.123H389.643C377.508 351.138 371.914 253.413 392.41 193.391Z" fill="#0B2557"/>
<path fill-rule="evenodd" clip-rule="evenodd" d="M438.21 188.858L406.378 193.313C406.378 193.313 379.263 286.294 426.791 399.16H435.443C428.172 344.278 421.592 241.603 438.21 188.858Z" fill="#0B2557"/>
<path fill-rule="evenodd" clip-rule="evenodd" d="M468.878 202.538L441.956 206.306C441.956 206.306 419.025 284.942 459.22 380.396H466.538C460.535 335.108 455.148 246.116 468.878 202.538Z" fill="#0B2557"/>
</g>
<path fill-rule="evenodd" clip-rule="evenodd" d="M563.266 303.562C565.925 324.718 551.904 370.896 532.881 382.992C532.881 382.992 533.277 395.969 550.669 404.052L553.468 394.015C553.468 394.015 583.25 387.156 594.028 372.459C604.807 357.761 594.028 310.728 594.028 310.728L563.266 303.562Z" fill="#55666E"/>
<path fill-rule="evenodd" clip-rule="evenodd" d="M230.843 51.8717C230.843 51.8717 254.753 47.0429 259.163 51.8717C263.572 56.701 266.512 79.7275 263.572 84.6266C260.632 89.5263 247.799 96.4193 247.799 96.4193L230.843 51.8717Z" fill="#FED8B3"/>
<path fill-rule="evenodd" clip-rule="evenodd" d="M259.602 118.027C259.602 118.027 275.33 115.176 281.699 118.027C288.068 120.88 291.987 133.618 291.498 137.537C291.008 141.456 273.802 155.503 273.802 155.503L259.602 118.027Z" fill="#FED8B3"/>
<path fill-rule="evenodd" clip-rule="evenodd" d="M275.57 166.934C275.57 166.934 295.417 166.934 301.786 170.853C308.156 174.772 303.747 188.001 301.786 191.43C299.827 194.859 289.049 198.044 289.049 198.044L275.57 166.934Z" fill="#FED8B3"/>
<path fill-rule="evenodd" clip-rule="evenodd" d="M309.136 198.045C309.136 198.045 319.914 176.733 324.814 172.814C329.713 168.894 349.8 163.505 354.699 166.935C359.598 170.364 342.696 200.607 342.696 200.607L309.136 198.045Z" fill="#55666E"/>
<path fill-rule="evenodd" clip-rule="evenodd" d="M360.577 198.044C360.577 198.044 365.477 166.61 373.805 155.503C382.134 144.396 416.429 128.229 423.288 129.209C430.147 130.188 397.812 183.228 397.812 183.228L360.577 198.044Z" fill="#55666E"/>
<path fill-rule="evenodd" clip-rule="evenodd" d="M409.815 189.96C409.815 189.96 424.024 153.215 441.171 142.437C458.318 131.659 498.492 128.144 502.902 129.166C507.311 130.189 507.311 136.132 507.311 136.132C507.311 136.132 470.077 153.215 452.929 175.752L425.983 193.389L409.815 189.96Z" fill="#55666E"/>
<path fill-rule="evenodd" clip-rule="evenodd" d="M458.562 182.489C458.562 182.489 469.831 163.67 482.569 155.504C495.307 147.337 524.469 144.397 528.505 144.887C532.542 145.377 535.481 153.382 534.501 155.504C533.521 157.625 484.529 193.39 484.529 193.39L458.562 182.489Z" fill="#55666E"/>
<path fill-rule="evenodd" clip-rule="evenodd" d="M507.065 200.616C507.065 200.616 519.08 195.349 528.505 198.044C537.931 200.739 540.144 216.416 539.283 219.846C538.421 223.275 523.259 230.624 523.259 230.624L507.065 200.616Z" fill="#FED8B3"/>
<path opacity="0.7" fill-rule="evenodd" clip-rule="evenodd" d="M549.553 387.623L586.434 393.526L615.11 345.817L590.79 306.556L572.227 318.655C569.516 323.976 555.157 367.339 549.553 387.623Z" fill="#0B2557"/>
<path fill-rule="evenodd" clip-rule="evenodd" d="M534.691 240.423C534.691 240.423 553.119 235.469 558.998 238.899C564.877 242.328 571.736 248.97 572.226 253.869C572.716 258.768 562.428 268.834 562.428 268.834L534.691 240.423Z" fill="#FED8B3"/>
<path fill-rule="evenodd" clip-rule="evenodd" d="M572.227 283.537C572.227 283.537 585.999 278.638 591.606 278.638C597.213 278.638 603.092 284.027 605.052 287.946C607.012 291.866 591.606 304.295 591.606 304.295L572.227 283.537Z" fill="#FED8B3"/>
<path fill-rule="evenodd" clip-rule="evenodd" d="M589.853 313.922L581.535 321.27H570.894C570.894 321.27 567.19 304.956 557.665 297.254L559.488 287.7C553.936 283.073 557.208 284.391 544.437 282.203C544.437 282.203 536.707 265.653 521.627 255.747C523.037 250.181 523.399 252.584 519.451 245.077L516.129 247.634C516.129 247.634 505.459 225.969 485.647 221.942L487.116 213.829L480.855 209.066L475.359 214.211C475.359 214.211 468.01 209.419 452.547 209.066L451.077 201.365L447.785 199.513L444.111 206.48C444.111 206.48 430.882 201.718 417.655 204.658L413.628 198.043L408.013 199.895L405.515 206.127C405.515 206.127 378.706 209.067 358.129 219.003L351.514 213.476L343.431 214.946L340.851 223.764C340.851 223.764 318.789 220.824 294.568 226.703C282.991 222.558 286.843 224.957 278.025 215.68L266.267 214.21C266.267 214.21 259.3 193.251 245.308 178.935C248.413 170.996 248.277 173.47 246.425 167.912L233.197 166.795C233.197 166.795 234.137 151.245 223.202 133.49L224.408 44.333C257.707 82.6507 252.987 80.9761 251.628 86.3987C249.856 91.9798 246.612 99.1583 244.309 104.154C244.182 104.449 243.57 103.22 250.482 115.324C250.482 115.324 275.086 121.997 278.408 126.406C281.269 130.219 275.312 147.707 273.616 152.186L273.999 158.741C273.999 158.741 293.106 173.439 294.194 177.849C295.116 181.642 290.485 194.395 289.05 198.044L294.311 205.011C294.311 205.011 312.213 189.225 323.971 187.755C335.729 186.285 342.696 200.606 342.696 200.606L348.958 199.514C348.958 199.514 374.796 173.292 386.055 171.823C390.288 171.265 394.198 173.351 397.402 176.173C410.83 189.725 401.347 187.52 412.511 187.52C416.42 180.251 425.505 166.375 433.088 163.003C442.877 158.594 451.226 177.231 451.226 177.231C460.625 176.269 451.792 177.698 470.685 169.118C474.86 167.236 478.887 165.766 481.092 165.943C486.971 166.443 495.319 189.46 495.319 189.46C503.936 194.805 499.367 192.414 508.724 195.985C508.983 195.985 519.464 200.071 521.775 201.717C524.915 203.953 528.043 226.813 528.508 230.617L535.004 237.492C535.004 237.492 555.581 249.72 557.521 253.659C559.491 257.569 562.431 268.833 562.431 268.833L567.34 276.677C567.34 276.677 585.947 281.086 589.856 284.525C593.434 287.622 590.566 309.258 589.853 313.922Z" fill="#FED8B3"/>
<path fill-rule="evenodd" clip-rule="evenodd" d="M641.297 382.002C619.25 408.958 597.203 411.397 597.203 411.397C597.203 411.397 575.656 398.173 550.67 404.052C549.023 403.139 538.123 393.251 539.411 389.851C540.881 385.941 556.049 391.82 576.156 376.622C591.308 365.139 588.84 334.7 583.975 316.861L585.945 309.012C585.945 309.012 595.263 300.693 600.143 298.724C600.143 298.724 630.038 322.74 655.025 330.559C655.025 330.559 663.343 355.076 641.297 382.002Z" fill="#FED8B3"/>
<path opacity="0.5" fill-rule="evenodd" clip-rule="evenodd" d="M641.297 382.001C619.25 408.957 597.203 411.397 597.203 411.397C597.203 411.397 575.656 398.172 550.67 404.051C550.406 403.906 550.469 403.64 549.553 399.168C549.553 399.168 572.218 395.729 582.27 388.38C592.324 381.031 602.113 355.074 602.113 355.074L603.059 318.477L585.652 324.385C585.391 324.385 585.498 322.442 583.976 316.86L585.946 309.011C585.946 309.011 595.264 300.692 600.144 298.723C600.144 298.723 630.039 322.739 655.026 330.558C655.025 330.559 663.343 355.076 641.297 382.001Z" fill="#0B2557"/>
<path opacity="0.6" fill-rule="evenodd" clip-rule="evenodd" d="M591.617 291.463C591.617 297.14 591.337 304.203 589.853 313.922L581.535 321.27H570.894C570.894 321.27 567.19 304.956 557.666 297.254L559.488 287.7C553.936 283.073 557.208 284.391 544.437 282.203C544.437 282.203 536.707 265.653 521.627 255.747C523.037 250.181 523.399 252.584 519.451 245.077L516.13 247.634C516.13 247.634 505.459 225.969 485.647 221.942L487.116 213.829L480.855 209.066L475.359 214.211C475.359 214.211 468.01 209.419 452.547 209.066L451.077 201.365L447.785 199.513L444.111 206.48C444.111 206.48 430.882 201.718 417.655 204.658L413.628 198.043L408.013 199.895L405.515 206.127C405.515 206.127 378.706 209.067 358.129 219.003L351.514 213.476L343.431 214.946L340.851 223.764C340.851 223.764 318.789 220.824 294.568 226.703C282.991 222.558 286.843 224.957 278.025 215.68L266.267 214.21C266.267 214.21 259.3 193.251 245.308 178.935C248.413 170.996 248.277 173.47 246.425 167.912L233.197 166.795C233.197 166.795 234.137 151.245 223.202 133.49L224.408 44.333C224.408 44.333 252.305 76.4334 252.656 81.1952C252.96 84.9347 248.38 94.2724 244.22 104.359L250.481 115.323L230.845 144.836L234.902 152.185C234.902 152.185 264.755 152.171 279.142 129.022C279.671 136.194 273.616 152.185 273.616 152.185L273.998 158.741C273.998 158.741 266.766 172.174 253.274 178.495C253.274 178.495 272.513 188.988 293.84 182.786C292.576 189.077 289.048 198.043 289.048 198.043L294.31 205.01L291.547 222.294C291.547 222.294 318.944 221.53 333.877 213.946L342.696 200.605L348.957 199.512L352.867 207.831C352.867 207.831 391.228 202.687 398.665 195.104C405.749 187.901 398.225 177.29 397.49 176.261C402.75 180.936 406.13 187.52 406.13 187.52H412.509C412.509 187.52 419.623 174.292 427.53 166.943L432.116 177.555L450.224 182.493L451.223 177.232C460.622 176.269 451.79 177.699 470.683 169.118L474.739 186.315L496.639 193.399V190.283C503.577 194.584 499.471 192.455 508.721 195.986C508.98 195.986 508.704 195.793 512.101 209.92L527.299 222.295C528.063 226.999 528.504 230.618 528.504 230.618C535.612 238.129 533.39 234.342 537.94 247.782L553.462 256.336L567.336 276.678L569.541 293.287L586.002 298.284C586.085 298.183 591.526 291.555 591.617 291.463Z" fill="#0B2557"/>
<path fill-rule="evenodd" clip-rule="evenodd" d="M367.682 193.39H392.411C392.411 193.39 427.979 237.192 421.319 304.787C412.746 391.813 342.695 434.679 342.695 434.679C342.695 434.679 399.282 365.718 400.751 304.295C402.222 242.872 367.682 193.39 367.682 193.39Z" fill="#55666E"/>
<path fill-rule="evenodd" clip-rule="evenodd" d="M360.578 213.95L367.682 193.39C367.682 193.39 407.325 213.707 407.397 304.295C407.461 384.951 342.696 434.679 342.696 434.679L332.363 440.558C332.363 440.558 385.319 384.462 386.055 314.034C386.789 243.607 360.578 213.95 360.578 213.95Z" fill="#FED8B3"/>
<path fill-rule="evenodd" clip-rule="evenodd" d="M430.147 182.489L447.667 187.021C447.667 187.021 507.066 310.973 380.99 423.166C380.99 423.166 471.792 321.016 430.147 182.489Z" fill="#55666E"/>
<path fill-rule="evenodd" clip-rule="evenodd" d="M424.244 203.783L430.148 182.488C430.148 182.488 492.858 298.724 380.991 423.165L374.786 427.085C374.786 427.085 453.664 326.16 424.244 203.783Z" fill="#FED8B3"/>
<path fill-rule="evenodd" clip-rule="evenodd" d="M471.735 190.083L489.255 194.615C489.255 194.615 539.454 314.035 413.759 413.123C413.759 413.123 507.065 330.57 471.735 190.083Z" fill="#55666E"/>
<path fill-rule="evenodd" clip-rule="evenodd" d="M465.831 211.378L471.735 190.083C471.735 190.083 534.692 291.466 413.759 413.123L407.555 417.042C407.555 417.042 495.252 333.754 465.831 211.378Z" fill="#FED8B3"/>
<path fill-rule="evenodd" clip-rule="evenodd" d="M514.262 213.95L528.506 230.618C528.506 230.618 545.28 321.261 453.174 399.16H447.835C447.835 399.16 526.357 311.429 514.262 213.95Z" fill="#55666E"/>
<path fill-rule="evenodd" clip-rule="evenodd" d="M499.154 227.927L514.262 213.949C514.262 213.949 541.952 317.341 447.835 399.159H444.478C444.478 399.159 512.455 333.999 499.154 227.927Z" fill="#FED8B3"/>
<path opacity="0.7" fill-rule="evenodd" clip-rule="evenodd" d="M373.633 237.689L399.252 241.914L421.888 278.637C420.073 247.546 415.069 224.769 394.384 202.537L363.301 206.245C358.362 220.216 359.688 205.371 373.633 237.689Z" fill="#0B2557"/>
<path fill-rule="evenodd" clip-rule="evenodd" d="M553.468 259.659L561.938 278.638C561.938 278.638 562.863 337.674 518.062 368.907C518.062 368.907 559.205 314.17 553.468 259.659Z" fill="#55666E"/>
<path fill-rule="evenodd" clip-rule="evenodd" d="M535.766 268.839L553.468 259.659C553.468 259.659 558.576 332.897 518.061 368.907H512.088C512.088 368.907 544.056 340.614 535.766 268.839Z" fill="#FED8B3"/>
<path fill-rule="evenodd" clip-rule="evenodd" d="M634.447 662.731C627.979 667.14 614.9 665.135 607.492 662.731C601.73 618.702 580.968 559.272 562.986 520.809C580.212 513.577 588.737 508.551 588.737 508.551L595.851 530.95C597.436 570.805 609.49 612.896 626.716 648.21C631.28 657.572 634.263 662.363 634.447 662.731Z" fill="#FED8B3"/>
<path fill-rule="evenodd" clip-rule="evenodd" d="M651.351 658.821L634.449 662.73L629.892 654.47C629.892 616.113 605.692 561.249 587.062 529.479L587.768 516.251C618.397 546.369 642.098 617.307 651.351 658.821Z" fill="#FED8B3"/>
<path fill-rule="evenodd" clip-rule="evenodd" d="M651.35 658.821C641.113 677.139 641.527 676.581 641.267 676.841C631.445 680.562 611.298 675.881 601.76 672.784L606.081 653.207L626.717 648.21L644.266 631.865C654.054 645.358 651.35 658.821 651.35 658.821Z" fill="#FED8B3"/>
<path fill-rule="evenodd" clip-rule="evenodd" d="M685.537 687.306L681.127 688.775C681.127 688.775 668.811 672.784 666.224 671.138C663.892 669.597 650.306 666.044 647.705 665.347C648.301 656.403 647.372 642.752 644.266 631.865C650.765 635.537 677.059 650.941 680.363 657.704C684.066 665.259 685.537 687.306 685.537 687.306Z" fill="#FED8B3"/>
<path fill-rule="evenodd" clip-rule="evenodd" d="M641.297 676.812C641.557 676.812 618.553 721.22 615.311 724.462C612.842 726.936 564.392 728.361 560.958 728.46L557.842 726.785L560.958 721.111H533.032C533.032 721.111 544.791 708.618 548.847 707.149C552.874 705.679 569.424 705.12 569.424 705.12L601.76 672.785C617.64 670.639 633.675 673.454 641.297 676.812Z" fill="#FED8B3"/>
<path d="M329.455 352.563L328.498 351.448C337.544 343.677 332.626 329.969 332.574 329.832L333.954 329.322C334.009 329.469 339.283 344.121 329.455 352.563Z" fill="#55666E"/>
<path d="M429.743 288.685L428.599 287.763C428.719 287.616 440.702 273.111 456.906 285.65L456.008 286.813C440.948 275.161 430.192 288.128 429.743 288.685Z" fill="#55666E"/>
<path fill-rule="evenodd" clip-rule="evenodd" d="M91.3623 193.39L203.066 136.132L192.043 90.75L109.734 116.761L91.3623 193.39Z" fill="#0B2557"/>
<path fill-rule="evenodd" clip-rule="evenodd" d="M228.287 73.3477L221.937 148.307C213.589 161.535 194.482 172.823 194.482 172.823C148.919 172.324 118.553 208.098 114.144 213.977C109.734 219.856 93.5666 229.145 82.7786 230.615C72.0197 232.085 50.6484 228.854 50.6484 228.854L107.434 168.502C130.899 160.886 145.851 145.239 147.479 144.427C152.581 139.972 161.02 131.484 161.354 130.817C163.982 128.188 162.981 129.554 175.375 103.743L228.287 73.3477Z" fill="#FED8B3"/>
<path fill-rule="evenodd" clip-rule="evenodd" d="M228.287 73.3472C220.905 94.1533 197.675 118.186 181.254 131.169C181.254 131.169 172.612 129.875 161.353 130.816C133.415 133.052 119.934 144.658 107.383 168.56C100.855 181.009 95.4562 195.596 93.067 205.158C76.8288 221.396 46.97 230.614 44.5642 230.614C11.2589 214.447 0 169.384 0 169.384C5.87919 130.669 60.7366 61.7342 60.7366 61.7342L69.3156 29.7539C114.879 -5.52064 192.189 -0.8761 200.126 1.82835C204.459 3.31646 218.971 18.471 220.939 24.3742C222.907 30.2528 228.287 73.3472 228.287 73.3472Z" fill="#FED8B3"/>
<path fill-rule="evenodd" clip-rule="evenodd" d="M107.365 173.448C137.196 162.069 171.699 148.458 187.266 128.596L206.373 111.326C206.373 111.326 222.724 86.1559 226.582 78.0723L204.72 109.856C185.074 125.382 174.595 126.97 161.386 130.79C161.386 130.79 142.239 154.576 107.434 168.501C107.434 168.501 96.1252 196.201 93.4682 203.736C90.8113 211.271 50.6484 228.853 50.6484 228.853C50.6484 228.853 89.1824 213.647 93.3218 209.066C99.0791 202.698 107.365 173.448 107.365 173.448Z" fill="#55666E"/>
<path fill-rule="evenodd" clip-rule="evenodd" d="M105.08 109.612C101.901 106.135 119.288 72.1526 129.331 61.7319C139.375 51.3106 153.092 40.5322 157.502 40.5322C161.911 40.5322 174.159 50.0862 177.099 58.6595C180.039 67.2329 172.69 98.5889 158.482 106.673C144.275 114.756 112.919 118.186 105.08 109.612Z" fill="#55666E"/>
<path fill-rule="evenodd" clip-rule="evenodd" d="M111.024 90.7497C111.024 90.7497 109.375 101.038 111.024 103.978C112.674 106.917 135.7 104.223 145.009 99.0781C154.318 93.9341 165.341 68.4578 165.096 58.9039C164.851 49.3499 160.639 39.5757 157.502 40.5317C154.366 41.4877 126.277 54.9848 111.024 90.7497Z" fill="#0B2557"/>
<path fill-rule="evenodd" clip-rule="evenodd" d="M61.2317 188.858C56.9218 187.857 58.537 164.161 59.7619 155.503C60.9868 146.846 82.0532 136.931 87.1977 136.132C92.3423 135.333 93.5667 154.459 89.1578 165.841C84.7485 177.222 68.0909 190.45 61.2317 188.858Z" fill="#55666E"/>
<path fill-rule="evenodd" clip-rule="evenodd" d="M58.4236 175.511C58.4236 175.511 61.7214 178.937 63.9258 178.447C66.1307 177.957 80.5232 163.656 81.8082 150.521C83.0938 137.386 81.8082 137.908 81.8082 137.908C81.8082 137.908 63.7364 144.902 60.4015 153.468C57.0665 162.034 58.4236 175.511 58.4236 175.511Z" fill="#0B2557"/>
<path fill-rule="evenodd" clip-rule="evenodd" d="M31.8357 166.934C29.3864 165.464 28.1615 143.173 29.6307 137.906C31.1005 132.639 50.9425 113.511 55.8422 105.192C60.7414 96.8742 70.2953 82.9109 72.2549 82.1763C74.2144 81.4411 79.359 99.3235 79.1141 111.572C78.8692 123.82 72.1954 131.659 70.2656 133.129C68.3352 134.599 56.4716 141.212 50.645 146.112C44.8185 151.011 31.8357 166.934 31.8357 166.934Z" fill="#0B2557"/>
<path fill-rule="evenodd" clip-rule="evenodd" d="M31.8354 166.934L39.1942 158.2C39.1942 158.2 37.7335 141.095 39.1942 136.132C40.6542 131.169 63.9261 114.511 68.0906 107.652C72.2551 100.793 75.6381 88.8777 75.6381 88.8777C75.6381 88.8777 74.4601 84.3808 72.2552 82.1758C48.5902 117.406 51.8016 109.096 29.6316 137.905C29.6305 137.905 26.446 155.665 31.8354 166.934Z" fill="#0B2557"/>
<path opacity="0.5" fill-rule="evenodd" clip-rule="evenodd" d="M69.3154 29.7543L123.942 33.6739L153.582 18.976C188.907 13.0882 190.35 10.8311 148.928 25.8346C148.928 25.8346 120.891 39.0628 110.291 67.7236L66.6201 58.6599L60.7363 61.734L69.3154 29.7543Z" fill="#55666E"/>
<path opacity="0.4" fill-rule="evenodd" clip-rule="evenodd" d="M228.287 73.3467L221.938 148.306C213.59 161.534 194.483 172.822 194.483 172.822C148.92 172.323 118.553 208.097 114.144 213.976C109.735 219.855 93.5673 229.144 82.7792 230.614C72.0203 232.084 50.649 228.853 50.649 228.853C47.3273 229.911 45.1234 230.467 44.6532 230.584L43.918 228.85C52.5897 225.499 56.764 213.947 56.764 213.947C50.7377 202.041 50.708 182.876 50.708 182.493C52.1778 195.604 63.4361 202.541 63.4361 202.541C82.7786 196.751 98.0934 169.001 107.382 153.48C116.701 137.93 135.573 124.554 135.573 124.554C149.708 121.723 180.873 112.689 185.928 99.1857C190.764 86.493 188.287 68.459 184.326 56.577L210.914 17.6134L204.212 4.53223C210.239 9.52977 219.41 19.7886 220.938 24.3742C222.908 30.2523 228.287 73.3467 228.287 73.3467Z" fill="#0B2557"/>
<path fill-rule="evenodd" clip-rule="evenodd" d="M644.265 631.866C643.542 632.589 626.28 560.062 592.94 521.779L588.737 508.551C588.737 508.551 580.212 513.577 562.986 520.809C562.986 520.809 564.044 523.072 565.838 527.129C565.838 527.129 582.946 531.42 590.177 540.886C597.409 550.322 612.577 642.301 612.401 644.123C612.224 645.946 605.022 647.151 605.022 647.151L606.081 653.207H627.834C635.778 671.885 634.447 665.855 634.447 679.928C613.471 728.531 615.052 724.721 615.311 724.462C619.239 720.533 634.335 689.266 647.705 665.347C647.705 665.347 649.351 665.788 651.702 666.406C653.177 647.304 660.286 642.132 660.286 641.507C651.967 636.216 644.265 631.866 644.265 631.866ZM597.203 548.382C608.961 571.693 627.098 612.288 629.597 645.505L626.716 648.21C617.309 628.926 602.053 592.182 597.203 548.382Z" fill="#55666E"/>
<path opacity="0.4" fill-rule="evenodd" clip-rule="evenodd" d="M613.135 674.254C610.025 681.364 620.588 657.459 598.731 706.589L572.246 712.086L560.958 721.111H533.032C533.032 721.111 544.791 708.618 548.847 707.148C552.874 705.679 569.424 705.12 569.424 705.12L601.76 672.785L613.135 674.254Z" fill="#0B2557"/>
<path fill-rule="evenodd" clip-rule="evenodd" d="M648.029 372.566C646.559 380.297 605.787 433.945 594.41 462.223C583.005 490.532 588.738 508.551 588.738 508.551C588.738 508.551 569.836 523.249 557.078 520.691C552.81 515.771 541.686 501.368 543.674 495.175C545.114 490.708 557.284 487.974 574.921 457.108C593.218 425.116 605.604 375.641 605.228 355.076C605.228 355.076 620.102 342.083 622.337 340.996C624.772 340.02 638.709 342.663 641.298 343.171C641.298 343.171 649.498 364.865 648.029 372.566Z" fill="#FED8B3"/>
<path opacity="0.4" fill-rule="evenodd" clip-rule="evenodd" d="M648.029 372.566C646.559 380.297 605.787 433.944 594.411 462.223C583.005 490.531 588.738 508.551 588.738 508.551C588.738 508.551 569.836 523.249 557.079 520.691C557.079 520.691 552.081 514.929 548.143 508.58C556.256 512.578 572.246 508.551 572.246 508.551L579.331 488.327C579.331 488.327 605.052 432.123 605.228 417.043C605.375 405.431 600.966 397.759 598.938 394.849C597.652 392.921 597.162 395.888 602.26 380.386L609.814 393.526L637.74 374.42V350.05L622.337 340.996C624.772 340.021 638.708 342.664 641.297 343.172C641.297 343.171 649.499 364.865 648.029 372.566Z" fill="#0B2557"/>
<path d="M666.942 671.288L665.505 670.987C665.532 670.85 668.494 657.335 680.341 656.971L680.385 658.44C669.683 658.77 666.969 671.165 666.942 671.288Z" fill="#55666E"/>
<path d="M614.609 724.673C610.338 710.525 598.665 707.332 598.548 707.301L598.917 705.879C599.431 706.011 611.509 709.317 616.014 724.251L614.609 724.673Z" fill="#55666E"/>
<path d="M246.505 168.645L246.342 167.183C246.492 167.166 261.635 165.345 273.312 154.954L274.289 156.052C262.253 166.762 246.662 168.626 246.505 168.645Z" fill="#0B2557"/>
<path d="M266.464 214.919L266.07 213.503C266.258 213.451 284.826 208.186 288.352 197.808L289.745 198.281C285.967 209.395 267.258 214.699 266.464 214.919Z" fill="#0B2557"/>
<path d="M344.135 215.151L342.724 214.739C345.166 206.369 342.095 201.029 342.063 200.976L343.326 200.223C343.469 200.461 346.768 206.128 344.135 215.151Z" fill="#0B2557"/>
<path d="M414.314 198.305L412.94 197.782C415.381 191.359 412.146 188.186 412.007 188.054L413.01 186.979C413.179 187.138 417.123 190.914 414.314 198.305Z" fill="#0B2557"/>
<path d="M559.842 299.232L558.774 298.22C566.154 290.43 566.598 276.796 566.602 276.658L568.071 276.698C568.056 277.279 567.605 291.036 559.842 299.232Z" fill="#0B2557"/>
<path d="M639.229 680.48C629.227 672.045 612.875 676.331 612.709 676.373L612.326 674.957C613.025 674.767 629.58 670.421 640.177 679.354L639.229 680.48Z" fill="#55666E"/>
<path d="M647.1 665.765C646.992 665.606 636.401 649.882 643.945 632.803L645.291 633.395C638.082 649.711 648.207 664.782 648.31 664.933L647.1 665.765Z" fill="#0B2557"/>
<path d="M578.252 711.334C568.334 703.816 568.755 707.268 569.641 704.418C569.774 704.46 572.961 705.478 579.14 710.16L578.252 711.334Z" fill="#0B2557"/>
<path d="M563.044 521.539L562.93 520.075C563.083 520.062 578.446 518.741 588.194 508.057L589.28 509.045C579.132 520.17 563.696 521.489 563.044 521.539Z" fill="#0B2557"/>
<path d="M223.537 125.246L223.109 123.84C235.912 119.931 243.48 104.202 243.556 104.044L244.885 104.673C244.568 105.343 236.97 121.145 223.537 125.246Z" fill="#0B2557"/>
<path d="M664.055 421.918L663.632 420.512C663.783 420.467 678.737 415.876 682.266 406.725L683.637 407.253C679.847 417.08 664.698 421.725 664.055 421.918Z" fill="#0B2557"/>
<path d="M686.403 462.605L686.374 461.135C686.508 461.133 699.945 460.763 709.406 452.013L710.405 453.091C700.523 462.229 686.975 462.594 686.403 462.605Z" fill="#0B2557"/>
<path d="M713.056 512.029L711.635 511.659C711.676 511.497 715.982 495.612 731.375 493.974L731.531 495.438C717.137 496.965 713.096 511.878 713.056 512.029Z" fill="#0B2557"/>
<path d="M733.58 534.221L732.267 533.559C732.507 533.081 738.309 521.771 752.194 514.63L752.865 515.935C739.403 522.862 733.637 534.107 733.58 534.221Z" fill="#0B2557"/>
<path d="M765.444 562.579L764.072 562.05C764.338 561.36 770.724 545.121 784.105 540.053L784.625 541.427C771.866 546.26 765.506 562.415 765.444 562.579Z" fill="#0B2557"/>
<path opacity="0.7" fill-rule="evenodd" clip-rule="evenodd" d="M381.686 348.402L399.068 353.81L405.413 361.789C416.099 340.055 417.936 326.375 422.149 302.59L385.52 324.935C385.52 324.935 384.31 338.671 381.686 348.402Z" fill="#0B2557"/>
<path opacity="0.7" fill-rule="evenodd" clip-rule="evenodd" d="M418.657 338.198L435.443 337.149L455.113 309.145C459.708 287.925 459.38 293.701 457.624 284.742L427.992 298.724C427.992 298.724 422.56 326.334 418.657 338.198Z" fill="#0B2557"/>
<path fill-rule="evenodd" clip-rule="evenodd" d="M332.362 330.222C332.362 330.222 320.236 306.807 317.502 304.786C314.769 302.765 294.685 305.728 281.854 314.81C289.215 319.763 300.418 318.791 310.176 318.644L331.267 345.823C331.267 345.823 336.773 338.531 332.362 330.222Z" fill="#FED8B3"/>
<path fill-rule="evenodd" clip-rule="evenodd" d="M456.456 286.23L429.177 288.229C424.434 263.862 409.468 221.132 384.731 218.385C379.802 216.071 366.004 209.254 363.243 206.215C360.156 202.629 377.03 178.377 380.998 177.642C384.937 176.907 400.017 180.729 403.515 183.227C406.918 185.703 410.565 206.174 413.745 213.946C417.037 221.912 453.635 273.884 456.868 278.646C459.327 282.203 457.846 285.139 456.456 286.23Z" fill="#FED8B3"/>
<path fill-rule="evenodd" clip-rule="evenodd" d="M456.456 286.23C452.725 293.007 453.82 291.215 453.547 291.491V291.521C451.724 295.155 453.926 293.048 441.523 298.252C413.245 310.099 386.041 326.816 366.887 342.199H359.98L358.187 332.47C383.563 322.411 412.163 303.443 429.177 288.229C445.845 273.06 456.456 286.23 456.456 286.23Z" fill="#FED8B3"/>
<path fill-rule="evenodd" clip-rule="evenodd" d="M453.547 291.491C453.547 296.827 423.651 340.841 360.686 345.814C368.865 334.173 359.065 348.144 366.888 336.937C389.048 332.938 420.942 321.804 436.967 304.396C445.532 294.95 435.149 301.816 453.547 291.491Z" fill="#FED8B3"/>
<path fill-rule="evenodd" clip-rule="evenodd" d="M362.866 330.531C362.866 330.531 342.61 331.688 338.899 329.588C335.187 327.487 332.363 330.221 332.363 330.221C332.363 330.221 334.245 340.978 328.978 352.002L331.356 356.167C331.356 356.167 350.556 349.009 361.385 349.131C361.385 349.131 367.735 344.099 362.866 330.531Z" fill="#FED8B3"/>
<path fill-rule="evenodd" clip-rule="evenodd" d="M328.977 352.002C328.977 352.002 316.974 340.244 315.504 340.428C314.034 340.612 295.478 352.553 285.006 352.002C285.006 352.002 299.642 330.257 312.136 324.372L334.073 338.511C334.073 338.511 337.079 346.955 328.977 352.002Z" fill="#FED8B3"/>
<path d="M310.451 319.325L309.9 317.963C310.223 317.831 317.779 314.633 316.771 304.862L318.233 304.712C319.356 315.607 310.54 319.289 310.451 319.325Z" fill="#55666E"/>
<path d="M316.235 340.501L314.773 340.356C316.137 326.542 311.984 325.094 311.941 325.081L312.309 323.659C312.868 323.794 317.724 325.419 316.235 340.501Z" fill="#55666E"/>
<path fill-rule="evenodd" clip-rule="evenodd" d="M458.073 283.525C447.304 267.574 426.458 238.975 407.865 234.493C401.663 225.881 393.99 219.413 384.73 218.385C379.502 215.93 367.618 210.14 363.301 206.244C364.418 206.773 382.614 215.298 389.639 215.122C396.9 214.945 404.808 209.066 404.808 209.066L405.454 186.314C408.276 192.899 411.098 207.479 413.744 213.947C417.036 221.913 453.634 273.884 456.867 278.646C458.249 280.644 458.397 282.29 458.073 283.525Z" fill="#55666E"/>
<path fill-rule="evenodd" clip-rule="evenodd" d="M453.546 291.491C453.546 291.753 450.633 296.231 449.078 298.722C429.693 307.803 438.597 304.696 441.523 298.251C419.962 307.283 400.368 317.939 376.882 334.702C378.146 334.378 379.528 334.025 380.998 333.613C378.764 337.494 376.647 341.022 374.854 343.961C371.385 344.608 367.77 345.137 364.036 345.489C364.956 341.182 365.317 334.291 362.865 330.529H372.649C425.338 296.787 455.778 289.238 453.546 291.491Z" fill="#55666E"/>
<path d="M458.948 209.49L457.486 209.343C459.766 186.867 450.804 177.848 450.713 177.76L451.734 176.704C452.127 177.082 461.306 186.236 458.948 209.49Z" fill="#0B2557"/>
<path d="M496.565 218.519L495.138 218.165C498.897 203.069 495.956 190.58 495.927 190.456L497.354 190.109C497.385 190.236 500.416 203.056 496.565 218.519Z" fill="#0B2557"/>
<path opacity="0.7" fill-rule="evenodd" clip-rule="evenodd" d="M556.307 510.302L577.184 494.455L572.246 508.551C565.32 510.756 568.832 510.302 556.307 510.302Z" fill="#FED8B3"/>
<path opacity="0.7" fill-rule="evenodd" clip-rule="evenodd" d="M605.126 385.371L629.004 380.395C629.004 380.395 611.82 392.973 609.814 393.525C607.808 394.076 605.126 385.371 605.126 385.371Z" fill="#FED8B3"/>
<path opacity="0.7" fill-rule="evenodd" clip-rule="evenodd" d="M39.1943 158.201H58.1512C58.1512 158.201 57.6741 145.6 71.1529 141.213V132.319C71.1529 132.319 47.2877 146.282 39.1943 158.201Z" fill="#FED8B3"/>
<path opacity="0.7" fill-rule="evenodd" clip-rule="evenodd" d="M9.33496 162.548L23.5066 152.173L29.6306 137.905C29.6306 137.905 51.0357 112.029 58.4201 100.975L43.9167 102.728C43.9167 102.728 10.8145 139.522 9.33496 162.548Z" fill="#FED8B3"/>
<path opacity="0.7" fill-rule="evenodd" clip-rule="evenodd" d="M114.144 59.2434H126.269C126.269 59.2434 146.846 40.0421 157.135 36.3674L153.158 24.3018C153.158 24.3018 128.841 30.677 114.144 59.2434Z" fill="#FED8B3"/>
<path opacity="0.7" fill-rule="evenodd" clip-rule="evenodd" d="M260.113 181.361L279.984 175.752L293.84 182.787C293.84 182.787 276.987 188.93 260.113 181.361Z" fill="#FED8B3"/>
<path opacity="0.7" fill-rule="evenodd" clip-rule="evenodd" d="M299.71 200.616L323.555 205.167L337.501 193.39C337.501 193.39 333.606 187.187 323.97 187.756C314.334 188.324 299.71 200.616 299.71 200.616Z" fill="#FED8B3"/>
<path opacity="0.7" fill-rule="evenodd" clip-rule="evenodd" d="M405.383 188.858C395.97 209.679 398.278 204.124 394.704 214.212C394.704 214.212 402.618 210.721 404.808 209.068C406.999 207.414 405.383 188.858 405.383 188.858Z" fill="#FED8B3"/>
<path opacity="0.7" fill-rule="evenodd" clip-rule="evenodd" d="M428.414 168.987L444.478 180.927C444.478 180.927 435.433 179.726 432.117 177.556C428.8 175.385 428.414 168.987 428.414 168.987Z" fill="#FED8B3"/>
<path opacity="0.7" fill-rule="evenodd" clip-rule="evenodd" d="M473.034 179.083L485.595 189.826C485.595 189.826 477.2 188.426 474.74 186.315C472.281 184.203 473.034 179.083 473.034 179.083Z" fill="#FED8B3"/>
<path opacity="0.7" fill-rule="evenodd" clip-rule="evenodd" d="M784.365 532.42C784.365 532.42 771.321 530.766 768.381 533.89C765.442 537.013 764.758 547.913 764.758 547.913C764.758 547.913 777.2 534.073 784.365 532.42Z" fill="#FED8B3"/>
<path opacity="0.7" fill-rule="evenodd" clip-rule="evenodd" d="M709.906 497.476C709.906 497.476 713.081 485.612 731.453 487.826C731.453 487.826 721.899 488.786 709.906 497.476Z" fill="#FED8B3"/>
<path opacity="0.7" fill-rule="evenodd" clip-rule="evenodd" d="M711.963 435.267C711.963 435.267 694.727 429.446 686.389 447.251C686.389 447.251 701.783 444.919 711.963 435.267Z" fill="#FED8B3"/>
<path opacity="0.7" fill-rule="evenodd" clip-rule="evenodd" d="M733.548 522.346C733.548 522.346 734.192 506.218 751.747 509.46C751.747 509.46 741.987 511.553 733.548 522.346Z" fill="#FED8B3"/>
<path opacity="0.7" fill-rule="evenodd" clip-rule="evenodd" d="M565.85 382.945L573.941 392.057C573.941 392.057 580.536 390.772 583.953 386.974C587.371 383.175 598.717 363.161 598.717 363.161L586.52 357.883C583.71 369.499 576.351 378.068 565.85 382.945Z" fill="#FED8B3"/>
<path opacity="0.7" fill-rule="evenodd" clip-rule="evenodd" d="M337.735 340.429L341.594 334.151L340.149 330.044C331.264 327.83 338.029 327.184 337.735 340.429Z" fill="#FED8B3"/>
<path opacity="0.7" fill-rule="evenodd" clip-rule="evenodd" d="M535.853 241.612C546.358 249.959 543.928 247.351 547.226 253.264C547.226 253.264 538.555 249.594 537.941 247.782C537.327 245.969 535.853 241.612 535.853 241.612Z" fill="#FED8B3"/>
<path opacity="0.7" fill-rule="evenodd" clip-rule="evenodd" d="M575.957 295.234L590.099 293.3C590.099 293.3 588.144 297.23 586.004 298.284C583.863 299.337 575.957 295.234 575.957 295.234Z" fill="#FED8B3"/>
</svg>
