<svg width="429" height="243" viewBox="0 0 429 243" fill="none" xmlns="http://www.w3.org/2000/svg">
<g opacity="0.39" filter="url(#filter0_d_4854_3996)">
<path d="M215.586 113.285C214.017 113.285 212.449 113.27 210.874 113.24C115.288 111.562 52.8812 45.8413 50.0098 43.2559L61.7859 38.4296C62.4158 38.9917 125.397 94.4973 211.862 96.0224C265.037 96.9441 317.094 77.4443 366.873 38.0137L378.143 43.2521C323.844 86.2612 286.039 113.285 215.586 113.285Z" fill="#771500"/>
<path d="M64.2073 223.894C54.753 223.894 45.2987 223.894 35.8506 223.894C27.3844 140.319 27.3844 122.161 35.8506 38.5859C45.3049 38.5859 54.7592 38.5859 64.2073 38.5859C72.6735 122.161 72.6735 140.319 64.2073 223.894Z" fill="#F3D66C"/>
<path d="M80.1757 20.2932C80.1757 30.3991 66.6767 38.5865 50.0283 38.5865C33.3799 38.5865 19.8809 30.3954 19.8809 20.2932C19.8809 10.1911 33.3799 2 50.0283 2C66.6767 2 80.1757 10.1911 80.1757 20.2932Z" fill="#F3D66C"/>
<path d="M76.3281 35.083H23.7275V43.2554H76.3281V35.083Z" fill="#B6A156"/>
<path d="M80.3422 238.681H20.9922V228.369C20.9922 225.18 25.2531 222.599 30.502 222.599H70.82C76.0752 222.599 80.3361 225.184 80.3361 228.369L80.3422 238.681Z" fill="#B6A156"/>
<path d="M93.3214 249.159H8.01074V235.519C8.01074 232.825 11.6109 230.637 16.0571 230.637H85.2813C89.7275 230.637 93.3276 232.821 93.3276 235.519L93.3214 249.159Z" fill="#F3D66C"/>
<path d="M392.326 223.894C382.872 223.894 373.418 223.894 363.97 223.894C355.504 140.319 355.504 122.161 363.97 38.5859C373.424 38.5859 382.878 38.5859 392.326 38.5859C400.786 122.161 400.786 140.319 392.326 223.894Z" fill="#F3D66C"/>
<path d="M408.296 20.2932C408.296 30.3991 394.797 38.5865 378.148 38.5865C361.5 38.5865 348.001 30.3954 348.001 20.2932C348.001 10.1911 361.5 2 378.148 2C394.797 2 408.296 10.1911 408.296 20.2932Z" fill="#F3D66C"/>
<path d="M404.441 35.083H351.841V43.2554H404.441V35.083Z" fill="#B6A156"/>
<path d="M408.462 238.681H349.112V228.369C349.112 225.18 353.373 222.599 358.622 222.599H398.94C404.195 222.599 408.456 225.184 408.456 228.369L408.462 238.681Z" fill="#B6A156"/>
<path d="M421.443 249.159H336.133V235.519C336.133 232.825 339.733 230.637 344.179 230.637H413.403C417.843 230.637 421.45 232.821 421.45 235.519L421.443 249.159Z" fill="#F3D66C"/>
<g opacity="0.1">
<path d="M85.2829 230.64H80.3427V228.369C80.3427 225.18 76.0818 222.595 70.8267 222.595H64.3365C67.9985 186.357 70.0363 162.48 70.4624 140.035C63.5832 161.993 50.5411 181.463 33.1949 196.691C33.9298 204.627 34.7634 213.178 35.7144 222.591H30.5025C25.2474 222.591 20.9865 225.176 20.9865 228.365V230.636H16.0463C11.6002 230.636 8 232.821 8 235.518V249.158H93.323V235.518C93.323 232.824 89.7229 230.64 85.2829 230.64Z" fill="#1D1D1B"/>
</g>
<g opacity="0.1">
<path d="M413.398 230.64H408.458V228.369C408.458 225.18 404.197 222.595 398.942 222.595H392.451C396.113 186.357 398.151 162.48 398.577 140.035C391.698 161.993 378.656 181.463 361.31 196.691C362.045 204.627 362.878 213.178 363.829 222.591H358.617C353.362 222.591 349.108 225.176 349.108 228.365V230.636H344.167C339.721 230.636 336.121 232.821 336.121 235.518V249.158H421.432V235.518C421.444 232.824 417.844 230.64 413.398 230.64Z" fill="#1D1D1B"/>
</g>
</g>
<defs>
<filter id="filter0_d_4854_3996" x="0.650001" y="0.95" width="428.149" height="261.858" filterUnits="userSpaceOnUse" color-interpolation-filters="sRGB">
<feFlood flood-opacity="0" result="BackgroundImageFix"/>
<feColorMatrix in="SourceAlpha" type="matrix" values="0 0 0 0 0 0 0 0 0 0 0 0 0 0 0 0 0 0 127 0" result="hardAlpha"/>
<feOffset dy="6.3"/>
<feGaussianBlur stdDeviation="3.675"/>
<feComposite in2="hardAlpha" operator="out"/>
<feColorMatrix type="matrix" values="0 0 0 0 0 0 0 0 0 0 0 0 0 0 0 0 0 0 0.25 0"/>
<feBlend mode="normal" in2="BackgroundImageFix" result="effect1_dropShadow_4854_3996"/>
<feBlend mode="normal" in="SourceGraphic" in2="effect1_dropShadow_4854_3996" result="shape"/>
</filter>
</defs>
</svg>
