<svg width="97" height="76" viewBox="0 0 97 76" fill="none" xmlns="http://www.w3.org/2000/svg">
<path d="M47.8745 28.7593L34.7637 56.7393L41.7331 60.005L54.844 32.0251L47.8745 28.7593Z" fill="#706F6F"/>
<path d="M2.9043 62.5678L35.9979 62.4886L35.9799 54.793L2.9043 54.871V62.5678Z" fill="#706F6F"/>
<path d="M55.8347 38.2786C54.0899 42.0046 49.6055 43.5862 45.8195 41.8126C42.0335 40.039 40.3799 35.581 42.1247 31.855C43.8695 28.129 48.3539 26.5474 52.1399 28.321C55.9259 30.0958 57.5807 34.5538 55.8347 38.2786Z" fill="#C6C6C6"/>
<path d="M44.1851 60.876C42.6071 64.2432 38.5547 65.6737 35.1323 64.0705C31.7099 62.4673 30.2147 58.4377 31.7927 55.0705C33.3707 51.7033 37.4231 50.2728 40.8455 51.876C44.2679 53.4792 45.7631 57.5088 44.1851 60.876Z" fill="#C6C6C6"/>
<path d="M32.6986 5.89965L24.3672 23.6797L71.8766 45.9417L80.208 28.1617L32.6986 5.89965Z" fill="#706F6F"/>
<path d="M87.5612 50.8588L67.8848 41.3751L73.7948 28.7607L93.4712 38.2444L87.5612 50.8588Z" fill="#706F6F"/>
<path d="M88.9018 33.8383L81.2354 50.1992L88.1722 53.4497L95.8386 37.0888L88.9018 33.8383Z" fill="#9D9D9C"/>
<path d="M66.322 38.2597L30.5596 21.5041C27.436 20.0401 26.0896 16.3225 27.5536 13.1977L32.0512 3.59769C33.514 0.474086 37.2328 -0.872319 40.3564 0.591681L96.8224 27.0469L96.724 27.2557C91.3684 38.6905 77.7568 43.6165 66.322 38.2597Z" fill="#C6C6C6"/>
<path d="M6.9648 75.1904H0V42.1904H6.9648C10.5768 53.1212 10.662 64.1204 6.9648 75.1904Z" fill="#C6C6C6"/>
</svg>
