<svg width="133" height="293" viewBox="0 0 133 293" fill="none" xmlns="http://www.w3.org/2000/svg">
<path opacity="0.06" d="M126.244 276.115C126.244 282.126 97.9842 287.001 63.1222 287.001C28.2603 287.001 0 282.126 0 276.115C0 270.101 28.2603 265.229 63.1222 265.229C97.9826 265.229 126.244 270.101 126.244 276.115Z" fill="#51598D"/>
<path d="M58.4283 176.937C50.4965 159.098 53.8164 138.469 57.957 119.39C65.8256 83.1312 76.1424 47.4041 88.8159 12.5311C89.186 11.5109 90.6901 11.6185 90.9005 12.6829C98.4716 51.0355 94.0257 90.859 87.0825 129.397C84.1786 145.52 80.8272 161.805 82.0545 178.143" fill="#4B6D30"/>
<path d="M45.5649 180.95C41.6757 124.308 43.0232 57.9082 51.4532 1.02387C51.6525 -0.31892 53.5884 -0.350555 53.8209 0.985909C64.0618 59.8568 65.1595 120.312 57.0442 179.514" fill="#3F5E25"/>
<path d="M49.3198 177.439C53.8559 146.437 57.5126 116.441 55.4375 85.0509C54.4506 70.1141 49.9398 55.742 48.3092 40.8827C48.0008 38.077 47.7904 35.2649 47.6117 32.4512C42.7293 81.4274 42.3734 134.467 45.5651 180.952L49.4432 180.467C49.2218 179.537 49.1617 178.526 49.3198 177.439Z" fill="#344F1A"/>
<path d="M57.7578 180.82C59.8946 143.084 67.4167 105.476 64.9731 67.7549C64.138 54.8679 62.1499 41.8528 64.0542 29.1066C64.1871 28.2209 65.3654 27.9836 65.7956 28.7697C69.5171 35.5611 72.4605 42.718 74.5561 50.0804C76.772 57.8635 78.0404 65.8475 79.1491 73.8299C83.992 108.711 85.8109 147.759 75.5589 181.626" fill="#6D8D53"/>
<path d="M36.4755 181.752C17.977 150.887 17.0928 109.033 16.0869 77.8482C15.5571 61.4263 14.6935 45.0155 13.4978 28.6284C13.4662 28.2045 14.0466 28.0384 14.2412 28.4149C16.098 32.0067 17.7571 35.6998 19.2106 39.4735C21.8614 46.3551 23.8179 53.4819 25.7806 60.5897C29.4769 73.9844 33.1731 87.379 36.8693 100.774C40.8186 115.097 44.7189 129.516 46.0617 144.308C47.1925 156.755 46.4966 169.294 45.5018 181.752" fill="#6D8D53"/>
<path d="M20.1166 56.7327C21.6856 72.3828 23.7259 87.9838 26.2407 103.511C28.7475 118.987 31.7241 134.385 35.1673 149.681C37.013 157.879 38.8667 166.15 42.381 173.826C42.6831 174.485 43.6558 173.913 43.3553 173.257C40.23 166.432 38.4713 159.099 36.8058 151.81C35.0803 144.258 33.4686 136.68 31.9708 129.08C28.9579 113.789 26.4067 98.4066 24.3237 82.9622C23.147 74.238 22.1237 65.4948 21.2459 56.7358C21.1748 56.0162 20.0439 56.0099 20.1166 56.7327Z" fill="#3F5E25"/>
<path d="M28.5833 146.821C31.571 150.365 34.4194 154.02 37.1272 157.783C37.3834 158.139 38.0556 158.167 38.1584 157.648C39.2513 152.154 39.9994 146.594 40.3995 141.005C40.4517 140.281 39.3224 140.284 39.2703 141.005C38.878 146.495 38.1441 151.95 37.0702 157.348C37.4134 157.302 37.7582 157.258 38.1014 157.213C35.3384 153.373 32.4298 149.641 29.382 146.023C28.9138 145.465 28.1183 146.267 28.5833 146.821Z" fill="#3F5E25"/>
<path d="M23.2218 119.991C26.181 122.951 29.1576 125.95 31.2707 129.599C31.5016 129.996 32.2054 129.953 32.3019 129.465C33.6067 122.841 34.7138 116.179 35.6217 109.489C35.7182 108.779 34.63 108.47 34.5335 109.188C33.6273 115.878 32.5201 122.54 31.2137 129.164C31.5585 129.12 31.9017 129.074 32.2449 129.03C30.086 125.3 27.0462 122.221 24.0205 119.194C23.5049 118.678 22.7062 119.475 23.2218 119.991Z" fill="#3F5E25"/>
<path d="M20.0681 93.8176C22.2586 95.3438 24.2198 97.1674 25.92 99.2251C26.1336 99.4829 26.6713 99.4292 26.8073 99.1113C28.2988 95.6064 29.6448 92.0446 30.831 88.4259C31.0571 87.7331 29.9674 87.4373 29.7428 88.1253C28.5866 91.6508 27.285 95.1272 25.8331 98.5419C26.1288 98.5039 26.4246 98.466 26.7203 98.428C24.9584 96.2928 22.9102 94.4249 20.6406 92.8433C20.0412 92.4273 19.475 93.4048 20.0681 93.8176Z" fill="#3F5E25"/>
<path d="M18.692 74.9432C20.2214 76.0092 21.5879 77.2856 22.7741 78.7217C22.9876 78.9795 23.5254 78.9257 23.6614 78.6078C24.7163 76.1294 25.6701 73.6099 26.5083 71.0508C26.7345 70.3581 25.6448 70.0624 25.4202 70.7504C24.612 73.2161 23.7025 75.6502 22.6856 78.0369C22.9813 77.9989 23.2771 77.9609 23.5728 77.9229C22.3234 76.4109 20.8714 75.0887 19.2614 73.9689C18.6651 73.5529 18.1005 74.5304 18.692 74.9432Z" fill="#3F5E25"/>
<path d="M72.7233 60.0843C73.4066 75.7976 73.617 91.5315 73.3465 107.256C73.076 122.931 72.3311 138.597 71.1085 154.227C70.4537 162.605 69.8005 171.055 67.4186 179.155C67.2146 179.85 66.1691 179.422 66.3716 178.731C68.4894 171.53 69.1821 164.02 69.7894 156.569C70.4173 148.848 70.9314 141.118 71.3268 133.381C72.1239 117.816 72.4513 102.228 72.3058 86.6427C72.2236 77.8411 71.9879 69.0394 71.6051 60.2456C71.5751 59.526 72.6917 59.3567 72.7233 60.0843Z" fill="#3F5E25"/>
<path d="M77.2164 150.456C74.7665 154.39 72.4684 158.415 70.3269 162.525C70.1244 162.915 69.4633 163.04 69.2862 162.54C67.4199 157.257 65.8841 151.862 64.69 146.388C64.535 145.678 65.6532 145.52 65.8082 146.227C66.9802 151.604 68.4875 156.898 70.3221 162.087C69.9758 162.092 69.6278 162.097 69.2814 162.102C71.4672 157.907 73.8127 153.797 76.3133 149.781C76.696 149.164 77.5975 149.844 77.2164 150.456Z" fill="#3F5E25"/>
<path d="M78.6904 123.135C76.1836 126.488 73.6672 129.882 72.0983 133.795C71.9274 134.222 71.2221 134.279 71.0576 133.809C68.8196 127.44 66.7714 121.004 64.9177 114.512C64.7216 113.822 65.7528 113.362 65.9521 114.06C67.8058 120.552 69.8524 126.986 72.0919 133.357C71.7456 133.362 71.3992 133.366 71.0512 133.371C72.655 129.371 75.2235 125.888 77.7857 122.461C78.2223 121.876 79.1254 122.553 78.6904 123.135Z" fill="#3F5E25"/>
<path d="M78.0709 96.7817C76.1207 98.6053 74.4411 100.69 73.0524 102.971C72.8784 103.257 72.3391 103.281 72.1588 102.985C70.1818 99.7298 68.3408 96.3958 66.6484 92.9842C66.3258 92.331 67.3617 91.8819 67.6828 92.5319C69.3309 95.8565 71.1149 99.1114 73.0413 102.283C72.744 102.287 72.4451 102.292 72.1477 102.297C73.587 99.9322 75.3457 97.7907 77.367 95.9007C77.9 95.4009 78.5991 96.2882 78.0709 96.7817Z" fill="#3F5E25"/>
<path d="M76.7358 77.904C75.374 79.1772 74.2036 80.6355 73.2356 82.2266C73.0617 82.5128 72.5223 82.5366 72.342 82.2408C70.9439 79.938 69.6406 77.5814 68.4434 75.1678C68.1207 74.5146 69.1567 74.0654 69.4777 74.7155C70.6307 77.0405 71.877 79.3195 73.2246 81.537C72.9272 81.5417 72.6283 81.5465 72.331 81.5512C73.3511 79.8747 74.6006 78.3611 76.0319 77.0215C76.565 76.5233 77.264 77.4105 76.7358 77.904Z" fill="#3F5E25"/>
<path d="M75.6113 179.66C77.0079 139.211 91.2045 87.669 113.716 54.0328C117.632 48.1808 121.948 42.4079 127.531 38.1771C128.113 37.7358 128.896 38.3605 128.595 39.0264C116.534 65.6972 109.11 94.2311 102.45 122.749C98.0813 141.453 93.9913 160.463 94.5891 179.66" fill="#3F5E25"/>
<path d="M88.9217 277.798H39.2084C29.5337 277.798 21.545 270.234 21.0167 260.574L16.2798 173.922H110.19L105.951 261.57C105.513 270.657 98.0176 277.798 88.9217 277.798Z" fill="#FFF0E9"/>
<path opacity="0.56" d="M103.122 196.229C99.7516 202.809 97.675 209.967 95.3658 216.969C91.5905 228.42 88.3055 240.057 80.6584 249.623C73.9587 258.004 64.8359 263.778 54.7595 267.279C44.1864 270.951 33.6291 270.105 23.0845 268.02C26.1386 273.845 32.2262 277.796 39.2106 277.796H88.9223C98.0198 277.796 105.513 270.655 105.953 261.569L109.776 182.521C107.916 187.239 105.445 191.693 103.122 196.229Z" fill="#EAD7C6"/>
<path d="M61.1691 160.192C57.794 166.42 56.6283 174.482 61.1581 180.481C63.3375 183.369 66.4502 184.963 69.9281 185.77C73.7098 186.646 77.6227 186.932 81.4692 187.402C85.2983 187.868 89.1447 188.484 92.7825 189.811C95.6151 190.845 98.2991 192.365 100.66 194.241C105.458 198.056 109.087 203.21 111.45 208.842C113.807 214.459 115.196 220.867 114.647 226.972C114.386 229.887 113.552 232.963 111.596 235.216C109.494 237.637 106.457 238.678 103.329 238.898C99.9709 239.133 96.6163 238.657 93.2775 238.38C89.4247 238.063 85.5165 238.124 81.7206 238.917C75.2155 240.274 68.9191 244.202 66.2619 250.511C64.7831 254.024 64.8306 257.861 64.4668 261.589C64.1442 264.887 63.2015 267.979 61.4301 270.792C58.0122 276.222 52.2852 279.944 46.0742 281.34C39.3619 282.849 32.0659 281.734 26.1522 278.207C23.3433 276.532 20.7668 274.261 19.3291 271.273C17.7412 267.972 18.1208 264.183 19.239 260.803C21.3441 254.434 25.7963 248.705 31.0884 244.647C33.8942 242.494 36.9926 240.925 40.2017 239.475C43.512 237.979 46.7211 236.37 49.3782 233.841C54.0709 229.373 56.66 222.792 55.0277 216.372C54.267 213.378 52.6237 210.525 50.2196 208.556C47.621 206.426 44.4167 205.418 41.1016 205.151C37.6252 204.869 34.1362 205.342 30.6867 205.737C27.4175 206.112 23.9126 206.641 20.6387 206.066C19.2358 205.82 17.7728 205.363 16.7052 204.379C15.4273 203.201 15.035 201.502 15.1015 199.814C15.2217 196.774 16.8065 194.056 18.8309 191.871C23.2183 187.138 29.3534 184.696 34.2469 180.588C36.6067 178.606 38.6296 176.212 39.7525 173.314C41.0384 169.999 40.8391 166.317 39.7794 162.971C38.715 159.607 36.8961 156.526 34.8084 153.701C34.5079 153.294 34.0065 153.1 33.5368 153.367C33.1366 153.595 32.9057 154.237 33.203 154.639C37.2077 160.057 40.9008 167.494 37.3706 174.08C34.3371 179.736 28.0517 182.481 23 185.958C17.9405 189.441 12.408 194.758 13.3269 201.516C14.3992 209.404 24.3476 208.311 30.0541 207.669C36.3947 206.955 44.1763 205.546 49.3845 210.288C54.0978 214.579 54.7826 221.773 51.9831 227.298C50.4996 230.226 48.2268 232.742 45.5191 234.588C42.3606 236.74 38.7055 237.968 35.3382 239.731C29.3676 242.858 24.2796 247.655 20.7383 253.385C17.0405 259.367 14.3629 267.318 18.5842 273.736C22.3373 279.442 29.4246 282.658 36.0057 283.561C42.7702 284.489 49.8543 283.113 55.5687 279.305C60.9572 275.713 65.0678 270.146 66.0658 263.666C66.6526 259.856 66.3806 255.881 67.6047 252.186C68.5996 249.184 70.6699 246.597 73.1673 244.689C79.1474 240.12 86.9463 239.665 94.1679 240.319C100.485 240.892 108.149 241.926 112.852 236.598C117.063 231.826 117.021 224.715 116.14 218.783C115.216 212.57 112.964 206.487 109.492 201.246C106.096 196.118 101.472 191.728 95.8714 189.099C88.8411 185.8 81.0232 185.713 73.4852 184.549C69.9297 184 66.2256 183.192 63.6207 180.522C61.3431 178.189 60.13 174.926 60.0114 171.695C59.8738 167.984 61.0205 164.364 62.7729 161.13C63.3455 160.078 61.7401 159.137 61.1691 160.192Z" fill="#C48B3A"/>
<path d="M91.7042 163.205C87.3927 163.538 84.5791 167.44 82.2114 170.632C79.5479 174.224 77.2435 178.099 75.6176 182.274C74.0455 186.314 73.1661 190.696 73.5109 195.039C73.8067 198.761 74.9755 202.342 76.9794 205.495C80.8132 211.529 87.2203 215.771 94.1178 217.468C101.461 219.276 109.119 217.9 115.708 214.303C122.437 210.631 127.967 204.798 131.618 198.085C132.072 197.25 132.496 196.401 132.891 195.537C133.1 195.082 133.021 194.536 132.557 194.266C132.157 194.032 131.496 194.141 131.286 194.6C128.254 201.204 123.474 207.069 117.404 211.105C111.571 214.983 104.504 217.144 97.485 216.225C90.8929 215.361 84.568 211.999 80.2913 206.895C78.1925 204.391 76.6473 201.421 75.8802 198.242C74.9423 194.353 75.1922 190.268 76.2123 186.423C77.2957 182.339 79.1937 178.518 81.4649 174.972C82.5973 173.205 83.8246 171.499 85.1326 169.858C86.3046 168.391 87.5683 166.883 89.1989 165.909C89.966 165.45 90.8074 165.133 91.7026 165.065C92.8904 164.971 92.8999 163.111 91.7042 163.205Z" fill="#C48B3A"/>
<path d="M6.3238 234.852C7.83424 230.871 11.6444 228.497 15.5905 227.398C19.9368 226.186 24.7433 226.248 29.0706 227.516C31.3355 228.18 33.5228 229.261 35.1535 231.004C36.8727 232.84 37.6809 235.285 37.9102 237.754C38.157 240.4 37.8992 243.062 37.703 245.702C37.4864 248.621 37.4073 251.531 37.8659 254.434C38.6884 259.642 41.5748 264.725 46.6281 266.807C49.3611 267.933 52.3108 267.696 55.1403 267.095C58.2545 266.433 61.3292 265.559 64.4133 264.774C75.2537 262.014 87.0162 259.625 97.7664 264.067C102.399 265.983 106.407 269.223 108.91 273.597C111.329 277.823 112.347 282.876 111.689 287.706C111.525 288.918 111.24 290.112 110.87 291.277C110.506 292.421 112.301 292.91 112.664 291.772C114.233 286.836 114.048 281.386 112.292 276.524C110.509 271.593 107.201 267.433 102.786 264.599C92.963 258.288 80.6518 259.16 69.7624 261.573C66.5738 262.28 63.4137 263.112 60.2505 263.925C57.2075 264.708 54.0348 265.769 50.8652 265.761C45.2774 265.747 41.3787 261.013 40.0755 255.96C39.34 253.107 39.2815 250.14 39.4586 247.212C39.6279 244.433 39.9632 241.654 39.8445 238.866C39.7307 236.191 39.1771 233.471 37.6714 231.212C36.2701 229.109 34.2092 227.573 31.9064 226.575C27.4637 224.652 22.2997 224.283 17.5533 225.066C13.1295 225.797 8.68831 227.78 6.01855 231.513C5.39065 232.391 4.91301 233.352 4.53026 234.36C4.35154 234.83 4.72795 235.38 5.1803 235.503C5.70223 235.646 6.14508 235.323 6.3238 234.852Z" fill="#C48B3A"/>
</svg>
