<svg width="201" height="262" viewBox="0 0 201 262" fill="none" xmlns="http://www.w3.org/2000/svg">
<g filter="url(#filter0_d_4854_4753)">
<path opacity="0.06" d="M189.394 239.722C189.394 245.455 160.674 250.104 125.244 250.104C89.815 250.104 61.0947 245.455 61.0947 239.722C61.0947 233.989 89.815 229.34 125.244 229.34C160.674 229.34 189.394 233.989 189.394 239.722Z" fill="#51598D"/>
<path d="M155.962 49.6804C152.193 56.0004 148.831 62.524 145.865 69.2106C142.909 75.873 140.365 82.6952 138.243 89.6306C136.121 96.5675 134.419 103.618 133.152 110.735C131.879 117.879 131.031 125.09 130.631 132.325C130.234 139.5 130.275 146.696 130.769 153.865C130.831 154.773 130.902 155.681 130.978 156.588C131.023 157.126 131.436 157.589 132.045 157.589C132.587 157.589 133.157 157.131 133.112 156.588C132.511 149.456 132.35 142.293 132.632 135.144C132.913 127.991 133.625 120.852 134.782 113.776C135.938 106.705 137.521 99.6944 139.519 92.7906C141.517 85.8869 143.931 79.0888 146.752 72.443C149.575 65.7911 152.818 59.2947 156.453 52.9988C156.898 52.2265 157.351 51.4573 157.808 50.6895C158.476 49.5658 156.634 48.5552 155.962 49.6804Z" fill="#354C26"/>
<path d="M132.337 82.0684C130.825 86.0052 129.447 89.9872 128.218 94.0085C126.096 100.945 124.394 107.995 123.127 115.113C121.854 122.257 121.005 129.468 120.605 136.702C120.208 143.878 120.25 151.074 120.743 158.243C120.806 159.151 120.877 160.059 120.952 160.966C120.997 161.504 121.41 161.967 122.02 161.967C122.561 161.967 123.132 161.509 123.087 160.966C122.486 153.834 122.325 146.671 122.606 139.521C122.888 132.369 123.6 125.228 124.757 118.154C125.913 111.083 127.496 104.072 129.494 97.1685C130.764 92.7792 132.204 88.4336 133.808 84.1423C132.964 83.8346 132.332 83.1438 132.337 82.0684Z" fill="#354C26"/>
<path d="M90.0007 54.0574C93.77 60.3774 97.1326 66.9025 100.098 73.5876C103.054 80.25 105.599 87.0722 107.72 94.0076C109.842 100.945 111.544 107.995 112.811 115.112C114.082 122.256 114.932 129.467 115.333 136.702C115.73 143.877 115.688 151.073 115.194 158.242C115.132 159.15 115.063 160.058 114.985 160.965C114.94 161.503 114.527 161.966 113.918 161.966C113.377 161.966 112.806 161.508 112.851 160.965C113.452 153.833 113.613 146.67 113.332 139.521C113.05 132.368 112.338 125.228 111.181 118.153C110.025 111.082 108.442 104.071 106.444 97.1676C104.446 90.2639 102.032 83.4673 99.2109 76.82C96.3884 70.1681 93.1447 63.6717 89.5105 57.3743C89.0652 56.602 88.612 55.8328 88.1555 55.065C87.4868 53.9428 89.3305 52.9322 90.0007 54.0574Z" fill="#354C26"/>
<path d="M126.13 79.7025L125.427 79.3163C120.782 77.6059 115.021 79.0991 111.972 82.8067C109.503 85.8068 108.865 89.7979 108.912 93.5884C108.953 97.0862 109.505 100.56 110.054 104.019C110.448 106.5 110.853 109.019 111.967 111.301C113.398 114.232 115.897 116.573 118.467 118.711C123.825 123.17 129.87 127.229 133.305 133.125C134.673 135.474 135.573 138.033 136.724 140.483C137.074 141.23 137.469 141.993 138.146 142.504C139.369 143.43 141.104 143.225 142.517 142.477C142.279 124.329 136.817 106.379 130.071 89.273C128.804 86.0662 127.488 82.8776 126.13 79.7025Z" fill="#466236"/>
<path d="M149.168 97.3453C148.503 92.3451 149.464 87.2529 148.856 82.2467C148.249 77.2405 145.423 71.8873 140.257 70.5162C137.192 69.7032 133.758 70.5117 131.278 72.3881C128.798 74.2645 127.255 77.1168 126.81 80.0777L126.13 79.7036C127.488 82.8772 128.805 86.0658 130.07 89.2741C136.817 106.38 142.277 124.33 142.515 142.478C142.978 142.232 143.407 141.929 143.772 141.587C146.582 138.952 146.929 134.875 147.423 131.176C147.914 127.491 148.71 123.843 149.803 120.272C150.605 117.651 151.573 115.041 151.774 112.32C152.145 107.258 149.838 102.382 149.168 97.3453Z" fill="#6D8D53"/>
<path d="M178.801 64.2102C174.871 57.7227 168.601 52.617 165.174 45.8837C163.211 42.0268 162.268 37.7959 160.797 33.7505C159.746 30.859 156.946 27.975 154.091 25.6431C154.159 25.8905 154.226 26.1379 154.284 26.3867C152.225 23.901 149.427 21.9492 146.268 20.8813C143.494 19.9416 140.379 19.6761 137.6 20.6022C133.642 21.9205 130.883 25.5345 129.989 29.3853C129.097 33.2362 129.847 37.2801 131.241 40.9966C133.205 46.2366 136.454 51.0498 140.66 54.9579C147.657 61.4559 157.436 65.7155 161.803 73.9948C163.671 77.5349 164.386 81.5758 166.606 84.9334C168.281 87.4644 170.714 89.4585 173.111 91.4103C179.037 96.2385 184.964 101.068 190.888 105.896C191.514 106.406 192.178 106.934 192.989 107.087C193.735 107.227 194.415 107.04 195.021 106.664C193.766 100.893 190.318 95.3079 188.011 89.6787C184.575 81.2908 183.533 72.0204 178.801 64.2102Z" fill="#466236"/>
<path d="M200.934 90.6552C200.664 87.8723 199.543 85.2372 198.684 82.5629C194.789 70.4538 196.141 57.209 191.708 45.2644C188.456 36.5023 182.277 28.9561 178.439 20.4037C176.854 16.8727 175.674 13.1787 173.863 9.74418C172.051 6.30966 169.499 3.06822 165.908 1.24312C163.818 0.181238 161.321 -0.358755 159.04 0.264194C155.814 1.14658 153.729 4.11351 152.638 7.09703C151.247 10.8996 151.019 15.0687 151.988 18.9844C152.543 21.2273 153.48 23.4189 154.089 25.6422C156.944 27.9741 159.744 30.8581 160.795 33.7496C162.266 37.795 163.209 42.0259 165.172 45.8828C168.599 52.6176 174.867 57.7218 178.799 64.2093C183.531 72.0195 184.573 81.2898 188.009 89.6763C190.316 95.3039 193.763 100.891 195.019 106.662C196.062 106.013 196.887 104.798 197.451 103.689C199.537 99.5967 201.373 95.1712 200.934 90.6552Z" fill="#6D8D53"/>
<path d="M60.318 79.6227C66.2106 74.612 73.8664 71.5998 79.3636 66.2074C82.5108 63.1183 84.8173 59.3761 87.5595 55.9642C89.5205 53.5252 93.1402 51.6066 96.6282 50.2294C96.4819 50.4451 96.3357 50.6608 96.1974 50.8795C98.9814 49.1208 102.289 48.0891 105.645 47.9986C108.593 47.9187 111.641 48.5808 113.973 50.2747C117.294 52.6866 118.713 56.928 118.279 60.8482C117.845 64.7685 115.786 68.3885 113.224 71.5123C109.614 75.9152 104.927 79.5352 99.6291 82.0134C90.8192 86.1343 80.111 87.3168 73.2074 93.9008C70.2547 96.7169 68.231 100.346 65.0034 102.883C62.5715 104.797 59.5947 105.977 56.6677 107.129C49.4314 109.98 42.195 112.829 34.9571 115.68C34.1936 115.98 33.3867 116.288 32.5654 116.194C31.8099 116.108 31.2264 115.733 30.7764 115.197C33.8898 110.084 39.0253 105.788 43.0887 101.117C49.1469 94.1572 53.2231 85.6561 60.318 79.6227Z" fill="#6D8D53"/>
<path d="M30.4888 98.2558C31.6718 95.6916 33.6119 93.5165 35.3189 91.2268C43.0487 80.8645 46.1734 67.8881 54.3613 57.8395C60.3664 50.4681 68.7487 45.1105 75.2408 38.1117C77.9219 35.2217 80.2719 32.0587 83.1362 29.3271C86.0005 26.5955 89.5045 24.2651 93.5229 23.5818C95.8616 23.1851 98.4141 23.4038 100.373 24.6663C103.145 26.4507 104.136 29.8806 104.18 33.0331C104.236 37.0529 103.064 41.0802 100.841 44.5162C99.5666 46.4846 97.948 48.2916 96.63 50.2253C93.142 51.6039 89.5222 53.5211 87.5612 55.9601C84.8175 59.372 82.5125 63.1142 79.3653 66.2033C73.8682 71.5971 66.2139 74.6078 60.3197 79.6186C53.2249 85.652 49.1486 94.1515 43.0937 101.111C39.0287 105.781 33.8948 110.078 30.7813 115.192C30.0066 114.27 29.6289 112.873 29.4601 111.654C28.8396 107.16 28.5696 102.417 30.4888 98.2558Z" fill="#466236"/>
<path d="M142.553 156.929V151.984H108.916V153.856C108.916 166.35 103.331 178.556 92.6401 187.704C85.1434 194.119 80.5576 202.716 80.5576 212.169C80.5576 232.027 100.785 239.721 125.736 239.721C150.687 239.721 170.914 232.025 170.914 212.169C170.914 202.244 165.857 193.262 157.685 186.758C147.797 178.892 142.553 168.057 142.553 156.929Z" fill="#F2DDD6"/>
<path d="M157.683 186.76C147.797 178.892 142.553 168.058 142.553 156.931V151.986H128.751C130.442 158.445 132.245 164.994 135.282 171.15C137.812 176.28 141.978 180.766 144.825 185.778C153.892 201.744 145.749 221.521 125.522 229.184C113.226 233.843 97.2276 232.959 85.7285 227.015C93.2863 235.985 108.362 239.723 125.736 239.723C150.687 239.723 170.914 232.027 170.914 212.171C170.912 202.245 165.855 193.262 157.683 186.76Z" fill="#E5C1B7"/>
<path d="M142.526 155.241H107.961C106.658 155.241 105.602 154.25 105.602 153.027C105.602 151.803 106.658 150.812 107.961 150.812H142.526C143.829 150.812 144.885 151.803 144.885 153.027C144.885 154.249 143.829 155.241 142.526 155.241Z" fill="#C48B3A"/>
<path d="M106.59 168.268C107.834 168.268 109.079 168.268 110.324 168.268C113.297 168.268 116.271 168.268 119.244 168.268C122.84 168.268 126.436 168.268 130.031 168.268C133.151 168.268 136.271 168.268 139.393 168.268C140.899 168.268 142.416 168.311 143.922 168.268C143.943 168.268 143.966 168.268 143.986 168.268C145.332 168.268 145.333 166.605 143.986 166.605C142.742 166.605 141.497 166.605 140.253 166.605C137.279 166.605 134.305 166.605 131.332 166.605C127.736 166.605 124.14 166.605 120.545 166.605C117.425 166.605 114.305 166.605 111.184 166.605C109.677 166.605 108.16 166.562 106.654 166.605C106.633 166.605 106.611 166.605 106.59 166.605C105.244 166.605 105.243 168.268 106.59 168.268Z" fill="#C48B3A"/>
<path d="M94.8504 186.532C95.3953 186.532 95.9402 186.532 96.4867 186.532C97.9703 186.532 99.4555 186.532 100.939 186.532C103.135 186.532 105.33 186.532 107.526 186.532C110.218 186.532 112.912 186.532 115.605 186.532C118.541 186.532 121.476 186.532 124.413 186.532C127.377 186.532 130.341 186.532 133.305 186.532C136.07 186.532 138.833 186.532 141.596 186.532C143.931 186.532 146.268 186.532 148.605 186.532C150.287 186.532 151.968 186.532 153.649 186.532C154.448 186.532 155.25 186.547 156.051 186.532C156.084 186.532 156.118 186.532 156.152 186.532C157.497 186.532 157.499 184.868 156.152 184.868C155.607 184.868 155.062 184.868 154.516 184.868C153.032 184.868 151.547 184.868 150.063 184.868C147.868 184.868 145.672 184.868 143.476 184.868C140.784 184.868 138.09 184.868 135.398 184.868C132.461 184.868 129.526 184.868 126.589 184.868C123.625 184.868 120.661 184.868 117.697 184.868C114.934 184.868 112.17 184.868 109.407 184.868C107.07 184.868 104.734 184.868 102.397 184.868C100.716 184.868 99.0344 184.868 97.3531 184.868C96.5542 184.868 95.7522 184.853 94.9517 184.868C94.918 184.868 94.8842 184.868 94.8504 184.868C93.5051 184.868 93.5035 186.532 94.8504 186.532Z" fill="#C48B3A"/>
<path d="M81.4575 205.647C82.2515 205.647 83.0472 205.647 83.8412 205.647C85.9838 205.647 88.1264 205.647 90.269 205.647C93.4452 205.647 96.6229 205.647 99.7991 205.647C103.674 205.647 107.551 205.647 111.427 205.647C115.657 205.647 119.888 205.647 124.118 205.647C128.418 205.647 132.718 205.647 137.016 205.647C140.997 205.647 144.979 205.647 148.96 205.647C152.337 205.647 155.713 205.647 159.09 205.647C161.517 205.647 163.946 205.647 166.373 205.647C167.52 205.647 168.668 205.662 169.816 205.647C169.865 205.647 169.917 205.647 169.967 205.647C171.312 205.647 171.314 203.983 169.967 203.983C169.173 203.983 168.377 203.983 167.583 203.983C165.44 203.983 163.298 203.983 161.155 203.983C157.979 203.983 154.801 203.983 151.625 203.983C147.75 203.983 143.873 203.983 139.997 203.983C135.767 203.983 131.536 203.983 127.306 203.983C123.006 203.983 118.706 203.983 114.408 203.983C110.427 203.983 106.445 203.983 102.464 203.983C99.087 203.983 95.7115 203.983 92.3345 203.983C89.9074 203.983 87.4787 203.983 85.0515 203.983C83.9039 203.983 82.7562 203.968 81.6086 203.983C81.5588 203.983 81.5073 203.983 81.4575 203.983C80.1121 203.983 80.1089 205.647 81.4575 205.647Z" fill="#C48B3A"/>
<path d="M84.4647 226.213C85.2025 226.213 85.9403 226.213 86.6796 226.213C88.6792 226.213 90.6771 226.213 92.6767 226.213C95.631 226.213 98.5853 226.213 101.538 226.213C105.142 226.213 108.744 226.213 112.348 226.213C116.294 226.213 120.241 226.213 124.187 226.213C128.186 226.213 132.184 226.213 136.183 226.213C139.898 226.213 143.612 226.213 147.325 226.213C150.464 226.213 153.604 226.213 156.743 226.213C159.001 226.213 161.259 226.213 163.516 226.213C164.587 226.213 165.659 226.228 166.729 226.213C166.776 226.213 166.822 226.213 166.869 226.213C168.214 226.213 168.216 224.55 166.869 224.55C166.131 224.55 165.394 224.55 164.654 224.55C162.655 224.55 160.657 224.55 158.657 224.55C155.703 224.55 152.748 224.55 149.796 224.55C146.192 224.55 142.59 224.55 138.986 224.55C135.04 224.55 131.093 224.55 127.146 224.55C123.149 224.55 119.15 224.55 115.152 224.55C111.438 224.55 107.723 224.55 104.009 224.55C100.869 224.55 97.7302 224.55 94.5911 224.55C92.3327 224.55 90.0744 224.55 87.8176 224.55C86.7471 224.55 85.675 224.535 84.6045 224.55C84.5579 224.55 84.5113 224.55 84.4647 224.55C83.1193 224.55 83.1177 226.213 84.4647 226.213Z" fill="#C48B3A"/>
</g>
<defs>
<filter id="filter0_d_4854_4753" x="0" y="0" width="200.999" height="261.104" filterUnits="userSpaceOnUse" color-interpolation-filters="sRGB">
<feFlood flood-opacity="0" result="BackgroundImageFix"/>
<feColorMatrix in="SourceAlpha" type="matrix" values="0 0 0 0 0 0 0 0 0 0 0 0 0 0 0 0 0 0 127 0" result="hardAlpha"/>
<feOffset dx="-25" dy="7"/>
<feGaussianBlur stdDeviation="2"/>
<feComposite in2="hardAlpha" operator="out"/>
<feColorMatrix type="matrix" values="0 0 0 0 0 0 0 0 0 0 0 0 0 0 0 0 0 0 0.25 0"/>
<feBlend mode="normal" in2="BackgroundImageFix" result="effect1_dropShadow_4854_4753"/>
<feBlend mode="normal" in="SourceGraphic" in2="effect1_dropShadow_4854_4753" result="shape"/>
</filter>
</defs>
</svg>
