<svg xmlns="http://www.w3.org/2000/svg" width="2332" height="648" fill="none"><path fill="#D6EAF0" stroke="#D6EAF0" stroke-linejoin="round" stroke-width="17.235" d="M1113.64 499.129H767V9h336.09v44.812H818.814v400.505h294.826v44.812Zm-41.36-226.86H813.212v-44.165h259.068v44.165Zm202.3 226.86h-49.66V131.478h47.61v100.18l-4.95-17.558c10.27-28.007 27.57-49.336 51.92-63.986 24.27-14.722 54.36-22.083 90.27-22.083v48.367c-1.87 0-3.74-.144-5.6-.431a48.807 48.807 0 0 0-5.6-.323c-38.78 0-69.12 11.777-91.03 35.332-21.97 23.627-32.96 57.128-32.96 100.503v187.65Zm388.01 139.39c-33.68 0-65.89-4.919-96.63-14.758-30.88-9.766-55.87-23.77-74.97-42.011l25.21-37.81c17.23 15.44 38.6 27.685 64.09 36.733 25.42 9.121 52.35 13.681 80.79 13.681 46.68 0 81.01-10.844 102.98-32.532 21.98-21.759 32.96-55.512 32.96-101.257v-91.67l6.9-63.017-4.85-63.017V131.478h47.61v322.839c0 63.483-15.51 110.054-46.53 139.714-31.03 29.659-76.88 44.488-137.56 44.488Zm-9.16-153.394c-34.97 0-66.5-7.576-94.58-22.729-28-15.225-50.05-36.338-66.14-63.34-16.08-27.145-24.13-58.205-24.13-93.178 0-35.045 8.05-65.961 24.13-92.747 16.09-26.859 38.14-47.757 66.14-62.694 28.08-14.937 59.61-22.406 94.58-22.406 32.68 0 62.09 6.787 88.23 20.359 26.14 13.501 46.89 33.537 62.26 60.109 15.44 26.642 23.16 59.102 23.16 97.379 0 38.277-7.72 70.701-23.16 97.272-15.37 26.643-36.12 46.966-62.26 60.97-26.14 14.003-55.55 21.005-88.23 21.005Zm4.96-44.165c27 0 51.02-5.71 72.06-17.128s37.63-27.289 49.77-47.612c12.14-20.324 18.2-43.771 18.2-70.342 0-26.571-6.06-49.911-18.2-70.018-12.14-20.036-28.73-35.8-49.77-47.29-21.04-11.418-45.06-17.127-72.06-17.127-26.64 0-50.59 5.709-71.85 17.127-21.26 11.49-37.81 27.254-49.66 47.29-11.92 20.107-17.88 43.447-17.88 70.018 0 26.571 5.96 50.018 17.88 70.342 11.85 20.323 28.4 36.194 49.66 47.612 21.26 11.418 45.21 17.128 71.85 17.128Zm476.77 61.724c-35.48 0-67.33-8.08-95.55-24.238-28.29-16.086-50.59-38.24-66.89-66.463-16.38-28.295-24.56-60.611-24.56-96.949 0-36.912 8.18-69.372 24.56-97.379 16.3-28.008 38.45-49.947 66.46-65.818 28.01-15.87 60-23.806 95.98-23.806 36.41 0 68.73 7.936 96.95 23.806 28.22 15.871 50.41 37.81 66.57 65.818 16.09 28.007 24.13 60.467 24.13 97.379 0 36.338-8.04 68.654-24.13 96.949-16.16 28.223-38.46 50.377-66.9 66.463-28.51 16.158-60.71 24.238-96.62 24.238Zm0-44.166c26.64 0 50.2-5.961 70.66-17.882 20.54-11.849 36.77-28.653 48.69-50.413 11.92-21.688 17.89-46.751 17.89-75.189 0-29.013-5.97-54.255-17.89-75.727-11.92-21.473-28.15-38.133-48.69-49.983-20.46-11.921-43.8-17.881-70.01-17.881-26.14 0-49.48 5.96-70.02 17.881-20.54 11.85-36.88 28.51-49.02 49.983-12.13 21.472-18.2 46.714-18.2 75.727 0 28.438 6.07 53.501 18.2 75.189 12.14 21.76 28.48 38.564 49.02 50.413 20.54 11.921 43.66 17.882 69.37 17.882Z"/><path fill="#D6EAF0" d="M222.147 319.888c-17.592-4.219-35.888 7.031-40.11 24.609-4.222 17.579-7.037 35.157-7.037 53.438v161.018C175 577.234 191.888 592 210.184 592c18.296 0 35.185-14.766 35.185-33.047V398.638c0-13.359 0-26.719 2.814-39.375 4.222-17.578-8.444-35.157-26.036-39.375Zm91.132-59.302c14.655-10.557 18.145-30.968 7.677-45.748-10.468-14.78-31.404-18.299-46.059-7.742-15.353 11.261-30.009 23.93-41.872 38.71-11.864 14.076-10.468 34.487 3.489 46.452 6.281 5.631 13.957 7.742 21.634 7.742 9.072 0 18.842-4.223 25.123-11.261 8.374-10.557 18.842-20.411 30.008-28.153ZM598.327 163H413.826c-11.224 0-23.15 1.394-34.375 2.788-18.239 2.788-30.867 19.515-28.061 36.939 2.105 16.031 16.837 27.879 32.972 27.879 1.403 0 3.508 1.394 4.911 1.394 8.418-1.394 16.836 0 25.255 0h184.5c18.24 0 32.972-16.727 32.972-34.848-.702-17.425-15.433-34.152-33.673-34.152Zm-74.999 101.107c-16.887-1.405-31.663 11.235-33.071 27.387-8.443 100.419-87.954 181.176-189.277 193.114-16.888 2.107-28.849 16.854-26.739 33.707C276.352 533.764 289.018 545 304.498 545h3.518c129.469-15.449 231.496-119.38 242.754-247.888 2.111-16.854-10.555-31.601-27.442-33.005Z"/><path fill="#D6EAF0" d="M61.024 273.744c0-117.218 96.094-212.678 215.336-212.678 57.517 0 111.526 22.461 152.209 62.47 11.924 11.932 31.564 11.932 43.488 0s11.924-30.884 0-42.817C419.45 28.78 350.009 0 276.36 0 124.152 0 0 122.834 0 273.744c0 74.403 29.46 143.892 83.47 195.833 5.61 5.615 13.326 8.423 21.042 8.423 7.715 0 16.133-2.808 21.744-9.125 11.924-11.932 11.223-30.884-.702-42.816-41.383-40.009-64.53-94.056-64.53-152.315Z"/></svg>