<svg width="192" height="295" viewBox="0 0 192 295" fill="none" xmlns="http://www.w3.org/2000/svg">
<path d="M94.8375 0C99.8251 2.84862 104.1 6.93449 105.326 11.9974C105.35 12.1854 105.374 12.3735 105.399 12.5672C105.666 12.3741 105.932 12.1809 106.206 11.982C107.254 11.2219 108.181 10.7378 109.598 10.7653C110.543 10.8777 110.9 11.0248 111.571 11.6066C114.276 14.9551 114.556 19.3261 113.708 23.2391C113.51 23.9637 113.295 24.6723 113.027 25.3808C113.971 25.7306 114.726 25.9416 115.759 25.9353C115.964 25.9365 116.169 25.9378 116.379 25.9391C117.198 25.8847 117.198 25.8847 118.22 25.633C119.566 25.3367 120.883 25.2723 122.269 25.2268C122.51 25.2173 122.752 25.2078 123 25.1979C123.588 25.175 124.175 25.1544 124.763 25.1344C125.377 23.4165 125.751 22.0409 124.854 20.3755C124.296 19.5363 123.794 19.0963 122.709 18.7276C121.53 18.4801 120.656 18.4666 119.482 18.7276C119.579 18.8851 119.675 19.0427 119.775 19.205C120.166 20.2109 120.259 21.1289 120.069 22.1774C119.61 22.6856 119.61 22.6856 118.895 22.9167C117.745 23.0396 117.081 23.0242 116.053 22.5624C114.86 21.4518 114.142 20.1764 114.091 18.666C114.296 16.9397 114.962 16.2635 116.522 15.1738C118.88 13.6782 121.327 13.6833 124.176 13.7993C125.018 13.9014 125.706 14.0672 126.523 14.2921C126.868 14.3836 127.213 14.4751 127.568 14.5693C129.242 15.3361 130.233 16.443 131.199 17.8035C131.92 19.9421 131.717 21.6956 130.45 23.6415C130.065 24.1221 129.657 24.4862 129.163 24.888C129.429 24.9304 129.429 24.9304 129.699 24.9737C134.949 25.8302 140.062 26.8342 144.419 29.5699C144.632 29.7008 144.845 29.8316 145.064 29.9665C147.303 31.4681 149.269 33.8033 149.7 36.2231C149.726 37.1123 149.691 38.0007 149.666 38.8897C149.647 40.3658 149.846 41.1937 150.874 42.3835C152.458 43.7141 154.759 44.6239 156.998 44.6783C158.061 44.6691 158.466 44.6182 159.419 44.17C160.094 43.6097 160.094 43.6097 159.969 42.6299C159.709 42.574 159.448 42.5181 159.18 42.4605C158.045 42.0827 157.487 41.7153 156.742 40.905C156.558 40.1504 156.558 40.1504 156.742 39.4265C157.255 38.8413 157.255 38.8413 158.209 38.4409C160.05 38.2234 161.933 38.2332 163.561 39.0569C164.963 40.0622 165.717 41.2099 165.986 42.7406C166.09 45.4431 165.262 47.1276 163.132 49.1041C161.664 50.2991 160.111 50.9144 158.08 51.1005C155.447 50.8676 153.741 49.984 151.754 48.5439C152.676 49.5903 153.613 50.6213 154.584 51.6367C165.732 63.3695 173.744 77.4611 179.332 91.6667C179.435 91.9263 179.539 92.1859 179.645 92.4534C181.013 95.9082 182.278 99.3664 183.326 102.9C183.621 103.89 183.952 104.868 184.295 105.847C184.937 107.721 185.453 109.613 185.95 111.517C186.098 112.086 186.248 112.655 186.399 113.223C187.233 116.384 188.004 119.556 188.556 122.761C188.591 122.964 188.626 123.168 188.662 123.377C188.739 123.823 188.815 124.269 188.891 124.715C189.02 125.459 189.154 126.203 189.289 126.947C192.436 144.732 192.713 162.842 190.793 180.731C190.769 180.949 190.746 181.168 190.722 181.394C190.376 184.604 189.88 187.786 189.307 190.972C189.246 191.32 189.184 191.668 189.123 192.015C187.503 201.122 185.545 210.292 182.16 219.069C181.982 219.533 181.812 219.999 181.643 220.465C181.274 221.479 180.893 222.49 180.506 223.499C180.408 223.756 180.309 224.014 180.208 224.279C177.749 230.685 174.937 236.927 171.504 243.016C171.13 243.683 170.762 244.353 170.397 245.024C168.596 248.301 166.547 251.437 164.37 254.547C164.2 254.79 164.03 255.032 163.855 255.282C161.644 258.423 159.331 261.473 156.742 264.404C156.588 264.579 156.434 264.753 156.275 264.933C154.101 267.388 151.826 269.755 149.407 272.043C149.152 272.285 148.897 272.526 148.635 272.775C145.642 275.563 142.546 278.337 139.022 280.655C138.502 280.999 137.994 281.354 137.495 281.72C131.31 286.248 123.942 289.657 116.255 292.003C116.04 292.07 115.826 292.138 115.605 292.208C110.632 293.777 105.15 294.888 99.825 294.96C99.5696 294.966 99.3141 294.972 99.0509 294.978C87.6212 295.229 77.0578 293.35 66.966 288.799C66.6881 288.677 66.6881 288.677 66.4046 288.552C61.4006 286.348 56.7983 283.582 52.5901 280.421C52.3394 280.235 52.0887 280.048 51.8303 279.856C51.101 279.309 50.3787 278.757 49.6563 278.203C49.2354 277.888 49.2354 277.888 48.8059 277.567C46.8646 276.108 45.0556 274.576 43.3298 272.936C42.8937 272.522 42.4536 272.111 42.0134 271.7C31.7595 262.041 23.9283 250.404 17.9708 238.53C17.8166 238.224 17.6623 237.918 17.5081 237.612C17.0298 236.661 16.5554 235.71 16.0821 234.757C15.9365 234.465 15.7909 234.173 15.6408 233.872C14.8673 232.3 14.1647 230.725 13.5409 229.107C13.3019 228.492 13.0488 227.885 12.785 227.277C11.4751 224.249 10.4185 221.183 9.41205 218.075C9.1904 217.403 8.95911 216.734 8.72114 216.065C3.81344 202.249 1.38553 187.601 0.367702 173.23C0.355369 173.067 0.343037 172.903 0.33033 172.735C0.00613024 168.34 0.00365361 163.94 0.000971274 159.539C0.000712007 159.344 0.0004505 159.149 0.000183376 158.948C-0.00729727 152.591 0.212774 146.289 0.903472 139.956C0.975699 139.27 1.03439 138.583 1.09199 137.897C1.35331 134.883 1.80601 131.888 2.25636 128.891C2.28673 128.687 2.3171 128.483 2.34839 128.273C2.75249 125.576 3.26348 122.917 3.88832 120.251C4.02183 119.652 4.15478 119.054 4.28714 118.455C5.84681 111.507 7.68253 104.629 10.2533 97.8914C10.8077 96.438 11.3311 94.9782 11.8464 93.5148C12.4515 91.8063 13.1054 90.1287 13.8634 88.4632C13.9719 88.2091 14.0805 87.955 14.1923 87.6932C19.7683 74.7967 27.2317 60.8406 38.3301 50.6067C39.5686 49.53 39.5686 49.53 39.9895 48.1444C39.8436 47.5873 39.6633 47.0931 39.3878 46.5726C39.2593 46.7155 39.1307 46.8585 38.9982 47.0057C37.2488 48.8155 35.2607 49.7815 32.64 50.5152C30.1614 50.6564 28.5038 50.2288 26.5706 48.8981C24.6134 47.3593 23.6756 45.5334 23.4717 43.3076C23.6191 41.451 24.2828 39.9775 25.8922 38.6873C27.5585 37.8475 29.2526 37.6917 31.1731 37.948C32.057 38.2752 32.3141 38.5155 32.9334 39.1801C33.0084 40.1885 32.7284 40.5658 31.9799 41.3516C31.1686 41.8937 30.7235 42.0639 29.7062 42.1371C29.7844 42.8602 29.7844 42.8602 29.9995 43.6156C31.2677 44.3257 32.325 44.2468 33.8135 44.1084C35.822 43.7023 37.7965 43.0514 39.0945 41.6443C39.9338 40.3173 40.0558 39.366 39.9563 37.8864C39.8694 34.9905 40.8518 32.9416 43.2018 30.802C43.3849 30.6349 43.5679 30.4678 43.7565 30.2957C48.0558 26.7536 54.7107 25.3852 60.5115 24.888C60.3913 24.7273 60.271 24.5665 60.1471 24.4009C58.7751 22.5318 57.8081 20.967 58.1644 18.7276C58.7754 17.0468 59.8059 15.6338 61.52 14.6001C64.2803 13.4692 67.8977 13.0071 70.8568 13.8137C72.7183 14.5376 74.5394 15.4112 75.4741 17.0027C75.8406 18.5999 75.6638 20.1191 74.6731 21.5306C73.8861 22.3766 73.0273 22.8269 71.7885 23.0553C70.6935 22.843 70.27 22.433 69.6064 21.6846C69.4492 20.5901 69.4597 20.1446 70.1932 19.2204C70.1932 18.9765 70.1932 18.7325 70.1932 18.4812C68.1924 18.2975 68.1924 18.2975 66.315 18.7757C65.2201 19.5512 64.4124 20.2954 64.2476 21.5287C64.2566 22.7458 64.3404 23.7471 64.9123 24.888C65.2451 24.8727 65.5779 24.8575 65.9208 24.8418C67.3449 24.8399 68.7035 25.0198 70.1015 25.2268C70.4203 25.2734 70.4203 25.2734 70.7455 25.321C71.6966 25.4678 72.5677 25.6353 73.4835 25.9045C74.3364 26.1295 74.8557 26.139 75.7308 26.0277C75.96 26.0003 76.1892 25.973 76.4253 25.9449C76.5955 25.9214 76.7657 25.8979 76.941 25.8737C76.8509 25.5973 76.8509 25.5973 76.7588 25.3154C76.6798 25.0727 76.6007 24.83 76.5193 24.58C76.4019 24.2198 76.4019 24.2198 76.2821 23.8523C76.2091 23.6248 76.1361 23.3974 76.0609 23.1631C76.0094 23.0104 75.9578 22.8576 75.9047 22.7003C75.0161 19.3147 75.5935 15.3841 77.6928 12.4132C78.1599 11.8241 78.6385 11.2963 79.2881 10.8423C81.1743 10.6575 82.1349 10.9322 83.6889 11.828C83.9877 12.0697 84.2826 12.3151 84.569 12.5672C84.5842 12.4351 84.5993 12.3029 84.6149 12.1668C85.2419 8.52826 87.6861 5.70915 90.7301 3.2034C90.9748 2.99217 91.2195 2.78094 91.4716 2.5633C92.5401 1.64494 93.6067 0.766975 94.8375 0ZM86.036 44.3548C85.7595 44.4062 85.483 44.4575 85.1981 44.5103C75.5589 46.4197 66.9455 51.1621 59.9248 56.922C59.715 57.0932 59.5051 57.2644 59.289 57.4407C56.7066 59.5546 54.1933 61.657 52.0034 64.0681C51.7912 64.2885 51.579 64.509 51.3604 64.7361C48.8134 67.4217 46.5965 70.3062 44.3754 73.1855C44.2426 73.3576 44.1098 73.5297 43.973 73.7071C38.2553 81.2058 33.4764 89.8238 30.2849 98.3074C30.0201 99.0049 29.724 99.6845 29.4128 100.368C28.6512 102.101 28.1079 103.888 27.5333 105.67C27.2876 106.425 27.0304 107.178 26.7723 107.93C26.684 108.19 26.5957 108.449 26.5048 108.717C26.3437 109.19 26.1827 109.663 26.0193 110.136C25.0439 112.962 24.239 115.794 23.5634 118.68C23.514 118.89 23.4645 119.099 23.4135 119.315C19.1576 137.435 17.7013 156.026 19.3922 174.451C19.4382 174.961 19.4812 175.47 19.5235 175.979C20.557 188.311 23.1151 200.715 27.4287 212.535C27.6211 213.063 27.8088 213.593 27.994 214.123C30.0713 219.928 32.6457 225.601 35.5738 231.138C35.7831 231.538 35.7831 231.538 35.9966 231.945C38.0414 235.835 40.3173 239.56 42.9085 243.212C43.0361 243.393 43.1638 243.574 43.2954 243.76C46.9021 248.831 51.0665 253.615 55.83 257.962C56.3505 258.441 56.8448 258.932 57.3393 259.43C66.4945 268.192 79.9678 274.133 93.7652 274.966C95.0037 275.02 96.2383 275.016 97.478 275C97.7771 274.999 98.0763 274.999 98.3845 274.998C108.597 274.645 118.275 270.838 126.23 265.636C126.491 265.469 126.752 265.303 127.02 265.131C131.503 262.207 135.623 258.775 139.139 255.04C139.398 254.779 139.658 254.517 139.919 254.257C145.331 248.799 149.865 242.53 153.494 236.12C153.853 235.495 154.225 234.877 154.597 234.258C156.894 230.396 158.753 226.44 160.536 222.396C160.941 221.48 161.36 220.571 161.799 219.666C162.253 218.723 162.626 217.779 162.958 216.8C163.08 216.441 163.203 216.082 163.326 215.723C163.395 215.518 163.465 215.313 163.537 215.102C163.832 214.239 164.132 213.378 164.433 212.516C164.61 212.008 164.786 211.501 164.963 210.993C165.079 210.659 165.196 210.325 165.312 209.992C166.263 207.268 167.172 204.55 167.762 201.753C167.964 200.797 168.178 199.86 168.467 198.92C168.865 197.616 169.103 196.29 169.357 194.961C169.685 193.264 170.025 191.569 170.394 189.878C171.297 185.703 171.795 181.492 172.23 177.267C172.274 176.847 172.318 176.427 172.363 176.007C172.779 172.118 173.007 168.247 173.079 164.344C173.088 163.93 173.088 163.93 173.096 163.508C173.504 142.6 170.654 121.448 147.353 72.9391C147.227 72.7727 147.1 72.6063 146.97 72.4349C142.969 67.2086 138.399 62.3832 133.271 57.9077C133.051 57.7127 132.831 57.5176 132.604 57.3167C131.083 55.9976 129.409 54.8575 127.697 53.7186C127.42 53.5287 127.144 53.3387 126.859 53.143C122.394 50.1448 117.555 47.7939 112.229 46.0534C111.652 45.8634 111.08 45.6622 110.508 45.4589C105.703 43.8414 100.547 43.5243 95.4243 43.5078C95.1252 43.5055 95.1252 43.5055 94.82 43.5032C91.7888 43.4883 88.9799 43.8059 86.036 44.3548Z" fill="#A97240"/>
<path d="M94.8375 0C99.8251 2.84862 104.1 6.93449 105.326 11.9974C105.35 12.1854 105.374 12.3735 105.399 12.5672C105.666 12.3741 105.932 12.1809 106.206 11.982C107.254 11.2219 108.181 10.7378 109.598 10.7653C110.543 10.8777 110.9 11.0248 111.571 11.6066C114.276 14.9551 114.556 19.3261 113.708 23.2391C113.51 23.9637 113.295 24.6723 113.027 25.3808C113.971 25.7306 114.726 25.9416 115.759 25.9353C115.964 25.9365 116.169 25.9378 116.379 25.9391C117.198 25.8847 117.198 25.8847 118.22 25.633C119.566 25.3367 120.883 25.2723 122.269 25.2268C122.51 25.2173 122.752 25.2078 123 25.1979C123.588 25.175 124.175 25.1544 124.763 25.1344C125.377 23.4165 125.751 22.0409 124.854 20.3755C124.296 19.5363 123.794 19.0963 122.709 18.7276C121.53 18.4801 120.656 18.4666 119.482 18.7276C119.579 18.8851 119.675 19.0427 119.775 19.205C120.166 20.2109 120.259 21.1289 120.069 22.1774C119.61 22.6856 119.61 22.6856 118.895 22.9167C117.745 23.0396 117.081 23.0242 116.053 22.5624C114.86 21.4518 114.142 20.1764 114.091 18.666C114.296 16.9397 114.962 16.2635 116.522 15.1738C118.88 13.6782 121.327 13.6833 124.176 13.7993C125.018 13.9014 125.706 14.0672 126.523 14.2921C126.868 14.3836 127.213 14.4751 127.568 14.5693C129.242 15.3361 130.233 16.443 131.199 17.8035C131.92 19.9421 131.717 21.6956 130.45 23.6415C130.065 24.1221 129.657 24.4862 129.163 24.888C129.429 24.9304 129.429 24.9304 129.699 24.9737C134.949 25.8302 140.062 26.8342 144.419 29.5699C144.632 29.7008 144.845 29.8316 145.064 29.9665C147.303 31.4681 149.269 33.8033 149.7 36.2231C149.726 37.1123 149.691 38.0007 149.666 38.8897C149.647 40.3658 149.846 41.1937 150.874 42.3835C152.458 43.7141 154.759 44.6239 156.998 44.6783C158.061 44.6691 158.466 44.6182 159.419 44.17C160.094 43.6097 160.094 43.6097 159.969 42.6299C159.709 42.574 159.448 42.5181 159.18 42.4605C158.045 42.0827 157.487 41.7153 156.742 40.905C156.558 40.1504 156.558 40.1504 156.742 39.4265C157.255 38.8413 157.255 38.8413 158.209 38.4409C160.05 38.2234 161.933 38.2332 163.561 39.0569C164.963 40.0622 165.717 41.2099 165.986 42.7406C166.09 45.4431 165.262 47.1276 163.132 49.1041C161.664 50.2991 160.111 50.9144 158.08 51.1005C155.447 50.8676 153.741 49.984 151.754 48.5439C152.676 49.5903 153.613 50.6213 154.584 51.6367C165.732 63.3695 173.744 77.4611 179.332 91.6667C179.435 91.9263 179.539 92.1859 179.645 92.4534C181.013 95.9082 182.278 99.3664 183.326 102.9C183.621 103.89 183.952 104.868 184.295 105.847C184.937 107.721 185.453 109.613 185.95 111.517C186.098 112.086 186.248 112.655 186.399 113.223C187.233 116.384 188.004 119.556 188.556 122.761C188.591 122.964 188.626 123.168 188.662 123.377C188.739 123.823 188.815 124.269 188.891 124.715C189.02 125.459 189.154 126.203 189.289 126.947C192.436 144.732 192.713 162.842 190.793 180.731C190.769 180.949 190.746 181.168 190.722 181.394C190.376 184.604 189.88 187.786 189.307 190.972C189.246 191.32 189.184 191.668 189.123 192.015C187.503 201.122 185.545 210.292 182.16 219.069C181.982 219.533 181.812 219.999 181.643 220.465C181.274 221.479 180.893 222.49 180.506 223.499C180.408 223.756 180.309 224.014 180.208 224.279C177.749 230.685 174.937 236.927 171.504 243.016C171.13 243.683 170.762 244.353 170.397 245.024C168.596 248.301 166.547 251.437 164.37 254.547C164.2 254.79 164.03 255.032 163.855 255.282C161.644 258.423 159.331 261.473 156.742 264.404C156.588 264.579 156.434 264.753 156.275 264.933C154.101 267.388 151.826 269.755 149.407 272.043C149.152 272.285 148.897 272.526 148.635 272.775C145.642 275.563 142.546 278.337 139.022 280.655C138.502 280.999 137.994 281.354 137.495 281.72C131.31 286.248 123.942 289.657 116.255 292.003C116.04 292.07 115.826 292.138 115.605 292.208C110.632 293.777 105.15 294.888 99.825 294.96C99.5696 294.966 99.3141 294.972 99.0509 294.978C87.6212 295.229 77.0578 293.35 66.966 288.799C66.6881 288.677 66.6881 288.677 66.4046 288.552C61.4006 286.348 56.7983 283.582 52.5901 280.421C52.3394 280.235 52.0887 280.048 51.8303 279.856C51.101 279.309 50.3787 278.757 49.6563 278.203C49.2354 277.888 49.2354 277.888 48.8059 277.567C46.8646 276.108 45.0556 274.576 43.3298 272.936C42.8937 272.522 42.4536 272.111 42.0134 271.7C31.7595 262.041 23.9283 250.404 17.9708 238.53C17.8166 238.224 17.6623 237.918 17.5081 237.612C17.0298 236.661 16.5554 235.71 16.0821 234.757C15.9365 234.465 15.7909 234.173 15.6408 233.872C14.8673 232.3 14.1647 230.725 13.5409 229.107C13.3019 228.492 13.0488 227.885 12.785 227.277C11.4751 224.249 10.4185 221.183 9.41205 218.075C9.1904 217.403 8.95911 216.734 8.72114 216.065C3.81344 202.249 1.38553 187.601 0.367702 173.23C0.355369 173.067 0.343037 172.903 0.33033 172.735C0.00613024 168.34 0.00365361 163.94 0.000971274 159.539C0.000712007 159.344 0.0004505 159.149 0.000183376 158.948C-0.00729727 152.591 0.212774 146.289 0.903472 139.956C0.975699 139.27 1.03439 138.583 1.09199 137.897C1.35331 134.883 1.80601 131.888 2.25636 128.891C2.28673 128.687 2.3171 128.483 2.34839 128.273C2.75249 125.576 3.26348 122.917 3.88832 120.251C4.02183 119.652 4.15478 119.054 4.28714 118.455C5.84681 111.507 7.68253 104.629 10.2533 97.8914C10.8077 96.438 11.3311 94.9782 11.8464 93.5148C12.4515 91.8063 13.1054 90.1287 13.8634 88.4632C13.9719 88.2091 14.0805 87.955 14.1923 87.6932C19.7683 74.7967 27.2317 60.8406 38.3301 50.6067C39.5686 49.53 39.5686 49.53 39.9895 48.1444C39.8436 47.5873 39.6633 47.0931 39.3878 46.5726C39.2593 46.7155 39.1307 46.8585 38.9982 47.0057C37.2488 48.8155 35.2607 49.7815 32.64 50.5152C30.1614 50.6564 28.5038 50.2288 26.5706 48.8981C24.6134 47.3593 23.6756 45.5334 23.4717 43.3076C23.6191 41.451 24.2828 39.9775 25.8922 38.6873C27.5585 37.8475 29.2526 37.6917 31.1731 37.948C32.057 38.2752 32.3141 38.5155 32.9334 39.1801C33.0084 40.1885 32.7284 40.5658 31.9799 41.3516C31.1686 41.8937 30.7235 42.0639 29.7062 42.1371C29.7844 42.8602 29.7844 42.8602 29.9995 43.6156C31.2677 44.3257 32.325 44.2468 33.8135 44.1084C35.822 43.7023 37.7965 43.0514 39.0945 41.6443C39.9338 40.3173 40.0558 39.366 39.9563 37.8864C39.8694 34.9905 40.8518 32.9416 43.2018 30.802C43.3849 30.6349 43.5679 30.4678 43.7565 30.2957C48.0558 26.7536 54.7107 25.3852 60.5115 24.888C60.3913 24.7273 60.271 24.5665 60.1471 24.4009C58.7751 22.5318 57.8081 20.967 58.1644 18.7276C58.7754 17.0468 59.8059 15.6338 61.52 14.6001C64.2803 13.4692 67.8977 13.0071 70.8568 13.8137C72.7183 14.5376 74.5394 15.4112 75.4741 17.0027C75.8406 18.5999 75.6638 20.1191 74.6731 21.5306C73.8861 22.3766 73.0273 22.8269 71.7885 23.0553C70.6935 22.843 70.27 22.433 69.6064 21.6846C69.4492 20.5901 69.4597 20.1446 70.1932 19.2204C70.1932 18.9765 70.1932 18.7325 70.1932 18.4812C68.1924 18.2975 68.1924 18.2975 66.315 18.7757C65.2201 19.5512 64.4124 20.2954 64.2476 21.5287C64.2566 22.7458 64.3404 23.7471 64.9123 24.888C65.2451 24.8727 65.5779 24.8575 65.9208 24.8418C67.3449 24.8399 68.7035 25.0198 70.1015 25.2268C70.4203 25.2734 70.4203 25.2734 70.7455 25.321C71.6966 25.4678 72.5677 25.6353 73.4835 25.9045C74.3364 26.1295 74.8557 26.139 75.7308 26.0277C75.96 26.0003 76.1892 25.973 76.4253 25.9449C76.5955 25.9214 76.7657 25.8979 76.941 25.8737C76.8509 25.5973 76.8509 25.5973 76.7588 25.3154C76.6798 25.0727 76.6007 24.83 76.5193 24.58C76.4019 24.2198 76.4019 24.2198 76.2821 23.8523C76.2091 23.6248 76.1361 23.3974 76.0609 23.1631C76.0094 23.0104 75.9578 22.8576 75.9047 22.7003C75.0161 19.3147 75.5935 15.3841 77.6928 12.4132C78.1599 11.8241 78.6385 11.2963 79.2881 10.8423C81.1743 10.6575 82.1349 10.9322 83.6889 11.828C83.9877 12.0697 84.2826 12.3151 84.569 12.5672C84.5842 12.4351 84.5993 12.3029 84.6149 12.1668C85.2419 8.52826 87.6861 5.70915 90.7301 3.2034C90.9748 2.99217 91.2195 2.78094 91.4716 2.5633C92.5401 1.64494 93.6067 0.766975 94.8375 0ZM103.927 33.2151C102.972 34.1088 103.066 34.993 103.083 36.1519C103.021 37.7868 102.046 39.1471 100.65 40.2582C98.262 41.7766 95.7384 42.1931 92.7838 41.8907C90.8166 41.4624 89.0873 40.4936 87.7963 39.1801C86.8039 37.7324 86.2839 36.4465 86.311 34.7754C86.3036 34.1084 86.3036 34.1084 86.036 33.5125C84.9755 32.7726 83.8074 32.4133 82.5154 32.034C82.0105 31.8821 82.0105 31.8821 81.4954 31.727C78.2434 30.8197 76.4677 31.0807 73.4204 32.2805C73.2076 32.3638 72.9947 32.4471 72.7754 32.533C67.0629 34.7935 61.902 37.5774 56.9909 40.905C56.8192 41.0204 56.6475 41.1357 56.4706 41.2545C55.237 42.0898 54.0533 42.9644 52.8835 43.862C52.6412 44.0462 52.3989 44.2303 52.1492 44.42C51.3394 45.0423 50.5428 45.6749 49.748 46.3108C49.4914 46.5074 49.2349 46.704 48.9706 46.9066C47.0895 48.4451 46.4777 49.8186 46.1357 51.9937C45.8513 51.9022 45.5669 51.8108 45.2739 51.7165C44.4465 51.6291 44.164 51.695 43.4918 52.1237C42.7581 52.7901 42.0909 53.4871 41.4415 54.2115C41.2984 54.3704 41.1553 54.5293 41.0079 54.6931C34.53 61.9537 29.0358 69.7541 24.4883 77.9797C24.1015 78.66 23.6918 79.3289 23.2815 79.9994C22.2371 81.7466 21.3815 83.5478 20.5379 85.3677C20.4558 85.5437 20.3738 85.7198 20.2892 85.9012C15.912 95.309 12.3295 104.976 9.98213 114.887C9.80113 115.63 9.61335 116.371 9.42158 117.112C8.52871 120.587 7.81729 124.06 7.2439 127.582C7.17915 127.973 7.17915 127.973 7.11309 128.372C5.77581 136.489 4.88442 144.659 4.62099 152.852C4.60344 153.394 4.58432 153.935 4.56505 154.477C4.09013 168.299 5.42356 181.987 7.82379 195.648C7.86197 195.869 7.90013 196.09 7.93946 196.318C8.16897 197.601 8.48713 198.834 8.87585 200.09C8.9837 200.536 9.08624 200.984 9.18184 201.432C10.4478 207.233 12.0399 212.946 14.1568 218.571C14.3651 219.135 14.573 219.7 14.7802 220.265C14.9175 220.636 14.9175 220.636 15.0576 221.015C15.3593 221.855 15.638 222.7 15.9171 223.545C16.3187 224.736 16.7783 225.872 17.3512 227.011C17.7088 227.753 18.0259 228.504 18.3409 229.26C19.1322 231.13 19.9873 232.977 20.8679 234.819C20.9457 234.982 21.0234 235.144 21.1035 235.312C22.1332 237.463 23.1664 239.605 24.3973 241.682C24.8071 242.377 25.2085 243.074 25.6114 243.772C30.9003 252.86 37.275 261.481 45.2555 269.086C45.4441 269.266 45.6327 269.446 45.827 269.631C47.5207 271.231 49.2853 272.762 51.0865 274.276C51.3554 274.505 51.6243 274.734 51.9014 274.97C53.7011 276.484 55.5716 277.87 57.5777 279.189C57.8042 279.338 58.0307 279.487 58.264 279.641C61.3913 281.673 64.6156 283.458 68.0825 285.052C68.6852 285.33 69.2825 285.616 69.8792 285.903C72.3187 287.06 74.8046 287.886 77.4654 288.614C78.2039 288.825 78.9294 289.06 79.6583 289.293C81.3707 289.819 83.0951 290.149 84.8808 290.447C85.1775 290.499 85.4742 290.552 85.7798 290.605C95.8022 292.324 108.234 291.779 117.479 287.909C118.137 287.638 118.791 287.393 119.468 287.156C127.953 284.168 135.082 279.432 141.761 274.199C142.068 273.959 142.068 273.959 142.381 273.714C143.567 272.774 144.667 271.8 145.728 270.76C146.279 270.221 146.853 269.7 147.427 269.178C155.35 261.79 161.453 253.049 166.717 244.198C166.86 243.959 167.004 243.719 167.152 243.473C169.38 239.745 171.243 235.918 173.045 232.035C173.41 231.255 173.781 230.478 174.155 229.702C174.917 228.116 175.636 226.526 176.27 224.901C176.356 224.683 176.441 224.466 176.529 224.242C177.149 222.649 177.712 221.046 178.225 219.427C178.552 218.396 178.913 217.379 179.296 216.362C185.898 198.448 188.27 178.993 188.262 160.309C188.262 160.04 188.262 160.04 188.263 159.766C188.268 147.573 187.047 135.48 184.613 123.454C184.556 123.174 184.556 123.174 184.498 122.887C183.516 118.061 182.493 113.199 180.972 108.47C180.764 107.822 180.564 107.172 180.364 106.522C179.448 103.583 178.458 100.667 177.389 97.7654C177.283 97.4785 177.177 97.1917 177.069 96.8961C175.941 93.8736 174.641 90.9049 173.318 87.9396C173.211 87.6979 173.104 87.4562 172.994 87.2071C171.713 84.3346 170.276 81.5498 168.679 78.7914C168.508 78.495 168.336 78.1986 168.165 77.9021C167.831 77.3239 167.496 76.746 167.161 76.1682C166.802 75.5502 166.446 74.9312 166.091 74.3117C161.185 65.817 154.939 57.9371 147.647 50.7616C146.827 51.0297 146.06 51.3077 145.281 51.6549C144.419 51.9937 144.419 51.9937 143.246 51.9937C142.934 50.889 142.652 49.8429 142.679 48.7018C142.71 47.1084 142.554 46.064 141.251 44.8975C140.479 44.2741 139.673 43.6933 138.845 43.1228C138.579 42.9309 138.313 42.739 138.038 42.5414C137.244 41.9815 136.434 41.4428 135.618 40.905C135.304 40.6907 134.991 40.4761 134.678 40.2611C126.367 34.5936 114.452 27.4918 103.927 33.2151Z" fill="#DA905F"/>
<path d="M106.198 39.8884C107.306 40.1309 108.406 40.3931 109.506 40.6585C110.069 40.7767 110.631 40.8948 111.193 41.0127C112.877 41.4044 114.39 41.995 115.961 42.6298C116.437 42.8135 116.913 42.9966 117.39 43.1794C120.5 44.3821 123.44 45.6367 126.229 47.3117C126.421 47.4268 126.613 47.5419 126.81 47.6604C129.287 49.1609 131.62 50.7376 133.857 52.4865C134.229 52.7544 134.602 53.0214 134.976 53.2873C137.518 55.1489 139.922 57.2041 142.072 59.3861C142.2 59.5137 142.328 59.6414 142.461 59.7729C152.273 69.552 160.063 81.3974 164.983 93.4868C165.194 93.9966 165.436 94.4972 165.689 94.9932C167.553 98.6446 168.788 102.503 170.048 106.324C170.236 106.895 170.425 107.466 170.615 108.036C172.731 114.424 174.252 120.856 175.518 127.397C175.576 127.696 175.634 127.996 175.694 128.305C176.457 132.345 176.919 136.399 177.333 140.472C177.358 140.716 177.383 140.96 177.409 141.212C177.574 142.849 177.726 144.486 177.865 146.124C177.881 146.319 177.898 146.513 177.915 146.713C178.262 150.991 178.229 155.283 178.232 159.569C178.232 159.765 178.232 159.961 178.232 160.163C178.238 166.433 178.076 172.658 177.336 178.902C177.282 179.354 177.233 179.807 177.183 180.261C176.979 182.114 176.703 183.954 176.398 185.797C176.334 186.196 176.27 186.594 176.206 186.992C174.704 196.266 172.467 205.39 169.357 214.382C169.294 214.565 169.231 214.748 169.166 214.937C168.205 217.709 167.013 220.413 165.819 223.118C165.581 223.659 165.346 224.2 165.114 224.743C160.162 236.139 153.415 247 144.419 256.519C144.206 256.746 143.992 256.973 143.773 257.207C139.901 261.26 135.528 265.168 130.63 268.347C130.204 268.637 130.204 268.637 129.769 268.933C122.914 273.561 115.054 276.631 106.572 278.45C106.371 278.495 106.169 278.539 105.962 278.586C93.7094 281.223 79.4296 278.07 68.7648 272.834C65.6003 271.226 62.727 269.383 59.9243 267.361C59.697 267.199 59.4697 267.038 59.2356 266.871C58.6751 266.466 58.1255 266.053 57.5772 265.636C57.3174 265.443 57.0576 265.25 56.7899 265.052C53.2965 262.437 50.2225 259.563 47.3916 256.438C47.0356 256.048 46.6716 255.663 46.3072 255.279C41.4059 250.076 37.1949 244.287 33.8074 238.296C33.4939 237.746 33.1724 237.199 32.8504 236.651C30.0489 231.851 27.5441 226.89 25.5231 221.819C25.274 221.205 25.0132 220.595 24.7514 219.986C18.1131 204.446 15.2406 187.907 13.863 171.505C13.8471 171.326 13.8312 171.146 13.8149 170.961C13.4854 167.174 13.4967 163.38 13.4962 159.585C13.4962 159.411 13.4961 159.237 13.4961 159.058C13.4996 143.922 15.201 128.582 19.4373 113.844C19.5251 113.537 19.5251 113.537 19.6148 113.223C22.9184 101.725 27.4967 90.6686 33.8131 80.085C33.9678 79.8245 34.1226 79.5639 34.282 79.2955C36.2516 75.9947 38.3439 72.8069 40.7679 69.7257C41.1043 69.2979 41.4353 68.8672 41.7654 68.4361C45.7074 63.3435 50.3725 58.7107 55.5236 54.4578C55.755 54.2624 55.9865 54.0671 56.2249 53.8658C59.9404 50.7592 63.9251 48.0945 68.4325 45.8332C68.5989 45.7489 68.7654 45.6645 68.9369 45.5775C72.0698 44.0007 75.3065 42.7693 78.7009 41.6442C78.9997 41.5428 79.2985 41.4415 79.6063 41.3371C81.1643 40.8321 82.7517 40.4545 84.3669 40.1041C84.5636 40.0608 84.7604 40.0175 84.9631 39.9729C86.1247 39.7318 87.188 39.568 88.3826 39.6728C88.9212 39.9703 88.9212 39.9703 89.3728 40.3659C91.2557 41.8202 93.1178 42.0327 95.6439 41.9762C97.612 41.7994 99.1414 41.284 100.521 40.0887C102.137 38.8424 104.262 39.5063 106.198 39.8884ZM86.0355 44.3547C85.759 44.4061 85.4825 44.4574 85.1976 44.5102C75.5584 46.4196 66.945 51.162 59.9243 56.9219C59.7145 57.0931 59.5047 57.2643 59.2886 57.4406C56.7061 59.5545 54.1928 61.6569 52.0029 64.068C51.7908 64.2884 51.5786 64.5089 51.36 64.736C48.813 67.4216 46.5961 70.3061 44.3749 73.1854C44.2422 73.3575 44.1094 73.5296 43.9725 73.707C38.2548 81.2057 33.476 89.8237 30.2845 98.3073C30.0197 99.0048 29.7236 99.6844 29.4123 100.368C28.6508 102.101 28.1075 103.888 27.5328 105.67C27.2871 106.425 27.0299 107.177 26.7719 107.93C26.6836 108.19 26.5953 108.449 26.5043 108.717C26.3433 109.19 26.1822 109.663 26.0189 110.136C25.0434 112.962 24.2385 115.793 23.563 118.68C23.5135 118.889 23.4641 119.099 23.4131 119.315C19.1572 137.435 17.7008 156.026 19.3918 174.451C19.4378 174.96 19.4808 175.47 19.5231 175.979C20.5565 188.311 23.1147 200.715 27.4283 212.535C27.6207 213.063 27.8083 213.593 27.9935 214.123C30.0709 219.928 32.6453 225.601 35.5734 231.138C35.7827 231.537 35.7827 231.537 35.9962 231.945C38.0409 235.835 40.3169 239.56 42.908 243.212C43.0357 243.393 43.1634 243.574 43.295 243.76C46.9017 248.831 51.066 253.615 55.8295 257.962C56.35 258.441 56.8443 258.932 57.3389 259.429C66.4941 268.192 79.9674 274.133 93.7647 274.965C95.0032 275.02 96.2379 275.016 97.4775 275C97.7767 274.999 98.0758 274.999 98.384 274.998C108.597 274.645 118.275 270.838 126.229 265.636C126.49 265.469 126.751 265.303 127.02 265.131C131.503 262.207 135.622 258.775 139.138 255.04C139.398 254.778 139.658 254.517 139.919 254.257C145.33 248.799 149.864 242.529 153.493 236.12C153.852 235.495 154.224 234.877 154.597 234.258C156.894 230.395 158.752 226.439 160.536 222.396C160.94 221.48 161.36 220.571 161.799 219.666C162.252 218.723 162.626 217.779 162.957 216.8C163.08 216.441 163.202 216.082 163.325 215.723C163.395 215.518 163.464 215.313 163.536 215.102C163.831 214.239 164.132 213.378 164.432 212.516C164.609 212.008 164.786 211.501 164.963 210.993C165.079 210.659 165.195 210.325 165.312 209.992C166.262 207.268 167.172 204.549 167.761 201.753C167.964 200.797 168.178 199.86 168.466 198.92C168.865 197.616 169.103 196.29 169.357 194.961C169.685 193.263 170.024 191.569 170.394 189.877C171.296 185.702 171.794 181.492 172.23 177.267C172.273 176.847 172.318 176.427 172.363 176.007C172.778 172.118 173.006 168.247 173.079 164.344C173.087 163.93 173.087 163.93 173.096 163.508C173.503 142.6 170.654 121.448 147.353 72.939C147.226 72.7726 147.1 72.6062 146.97 72.4348C142.969 67.2085 138.398 62.3831 133.27 57.9076C133.05 57.7126 132.83 57.5175 132.603 57.3166C131.083 55.9975 129.408 54.8574 127.696 53.7185C127.42 53.5286 127.143 53.3386 126.858 53.1429C122.393 50.1447 117.554 47.7938 112.229 46.0533C111.651 45.8633 111.079 45.6621 110.508 45.4588C105.702 43.8413 100.547 43.5242 95.4238 43.5077C95.1247 43.5054 95.1247 43.5054 94.8195 43.5031C91.7884 43.4882 88.9795 43.8058 86.0355 44.3547Z" fill="#7B5231"/>
<path d="M83.118 32.1694C84.0088 32.5375 84.7003 32.968 85.4491 33.5122C85.1926 33.5677 85.1926 33.5677 84.9311 33.6244C73.6606 36.0858 63.6849 40.3172 54.9371 46.8186C54.7181 46.9809 54.4992 47.1432 54.2736 47.3105C50.4213 50.1919 46.6262 53.2226 43.4951 56.6752C43.2021 56.9806 42.9082 57.2853 42.6138 57.5897C36.733 63.7241 32.0144 70.4723 27.752 77.4686C27.4062 78.0359 27.0575 78.6018 26.708 79.1674C22.6495 85.7893 19.4279 92.9372 16.7971 100.044C16.7304 100.224 16.6637 100.403 16.595 100.588C15.6211 103.227 14.813 105.898 14.0327 108.582C13.8781 109.111 13.7208 109.64 13.5618 110.169C13.3194 110.975 13.0805 111.782 12.843 112.59C12.6833 113.126 12.518 113.661 12.3528 114.196C9.73221 122.851 8.41225 131.88 7.48214 140.765C7.4561 141.013 7.4561 141.013 7.42954 141.267C7.01457 145.291 6.77509 149.305 6.77274 153.344C6.7718 153.742 6.7708 154.139 6.76978 154.536C6.76804 155.364 6.76748 156.193 6.76766 157.021C6.76768 157.849 6.76568 158.677 6.76164 159.504C6.74005 164.001 6.79631 168.483 7.09134 172.973C7.10339 173.157 7.11544 173.342 7.12786 173.531C7.45815 178.463 8.06841 183.369 8.87572 188.261C8.92247 188.545 8.96922 188.829 9.01739 189.122C10.6698 198.931 13.1199 208.7 16.8173 218.113C17.115 218.88 17.4032 219.649 17.6899 220.418C17.8425 220.826 17.8425 220.826 17.9982 221.242C18.1927 221.762 18.3862 222.282 18.5785 222.803C19.1476 224.313 19.806 225.77 20.5458 227.227C21.0729 228.266 21.5644 229.317 22.0597 230.368C28.1241 243.146 36.2534 254.854 47.112 265.169C47.4664 265.506 47.8174 265.846 48.1663 266.187C49.2834 267.269 50.4306 268.242 51.7328 269.166C52.2745 269.562 52.7705 269.976 53.2685 270.41C54.6054 271.548 56.088 272.529 57.5775 273.521C57.8714 273.72 58.1652 273.919 58.468 274.124C60.8847 275.739 63.4333 277.123 66.0857 278.449C66.2759 278.546 66.4661 278.642 66.6621 278.741C79.3346 285.12 94.4282 287.217 108.842 284.401C118.678 282.313 127.555 278.2 135.324 272.782C135.499 272.661 135.673 272.54 135.852 272.416C139.678 269.743 143.227 266.832 146.473 263.664C146.728 263.421 146.983 263.178 147.245 262.927C155.12 255.277 162.003 246.001 166.602 236.642C166.984 235.871 167.402 235.124 167.835 234.372C168.884 232.484 169.744 230.533 170.621 228.584C171.215 227.267 171.823 225.958 172.474 224.66C173.047 223.515 173.571 222.368 174.033 221.189C174.106 221.004 174.178 220.819 174.253 220.629C175.003 218.69 175.631 216.725 176.254 214.756C176.525 213.904 176.808 213.057 177.111 212.213C179.905 204.419 181.847 196.258 182.948 188.179C183.088 187.151 183.257 186.127 183.436 185.103C186.695 166.155 185.779 146.534 182.559 127.643C182.508 127.338 182.456 127.034 182.403 126.72C181.812 123.281 181.02 119.896 180.103 116.509C179.921 115.825 179.75 115.139 179.582 114.452C178.014 108.078 175.754 101.905 173.24 95.7568C172.932 95.0036 172.629 94.2493 172.329 93.4942C170.451 88.8224 168.283 84.2022 165.543 79.8383C165.27 79.3809 165 78.9221 164.73 78.4632C164.225 77.6048 163.71 76.7503 163.196 75.8957C163.076 75.6963 162.957 75.497 162.834 75.2917C160.906 72.0895 158.809 69.0297 156.448 66.039C156.295 65.844 156.141 65.649 155.983 65.448C150.523 58.1438 150.523 58.1438 143.246 52.2398C143.423 52.195 143.6 52.1502 143.782 52.104C145.551 51.6435 145.551 51.6435 147.06 50.7613C147.922 51.0819 148.456 51.3939 149.048 52.0087C149.271 52.2388 149.271 52.2388 149.499 52.4736C149.656 52.6404 149.813 52.8072 149.975 52.979C150.142 53.1536 150.308 53.3281 150.479 53.508C153.593 56.8054 156.436 60.2526 159.089 63.8213C159.256 64.0462 159.256 64.0462 159.427 64.2756C162.435 68.3376 165.114 72.5779 167.597 76.8813C167.714 77.083 167.831 77.2847 167.952 77.4925C169.433 80.0445 170.863 82.5937 172.063 85.2495C172.321 85.8195 172.584 86.3879 172.847 86.9565C176.809 95.567 179.896 104.364 182.359 113.361C182.486 113.822 182.614 114.283 182.745 114.744C183.785 118.434 184.44 122.168 185.09 125.918C185.133 126.166 185.176 126.414 185.22 126.669C186.203 132.374 187.084 138.079 187.602 143.829C187.64 144.251 187.64 144.251 187.679 144.682C188.113 149.659 188.246 154.62 188.244 159.608C188.244 160.143 188.244 160.678 188.245 161.214C188.248 166.222 187.991 171.192 187.547 176.187C187.532 176.35 187.518 176.513 187.503 176.681C186.213 191.153 183.564 205.991 178.063 219.792C177.732 220.634 177.424 221.481 177.113 222.328C175.929 225.55 174.616 228.712 173.134 231.846C173.051 232.022 172.969 232.198 172.883 232.379C168.318 242.046 162.978 251.426 155.861 259.968C155.744 260.11 155.628 260.251 155.507 260.397C151.953 264.692 148.01 268.7 143.759 272.52C143.473 272.778 143.473 272.778 143.182 273.041C142.061 274.039 140.898 274.964 139.657 275.857C139.051 276.295 138.473 276.756 137.892 277.217C131.605 281.956 124.244 285.677 116.372 288.226C115.688 288.45 115.009 288.686 114.336 288.934C108.661 290.935 102.19 291.356 96.1026 291.355C95.7926 291.356 95.7926 291.356 95.4763 291.357C92.5809 291.356 89.7777 291.154 86.916 290.77C86.5406 290.72 86.5406 290.72 86.1577 290.669C80.6562 289.882 75.3474 288.319 70.4446 286.088C69.886 285.836 69.323 285.592 68.7582 285.349C64.639 283.567 60.9299 281.333 57.2841 278.942C57.1219 278.836 56.9596 278.729 56.7924 278.62C54.1611 276.868 51.7954 274.875 49.4178 272.89C49.2605 272.759 49.1032 272.628 48.9411 272.493C46.8895 270.783 44.995 269.022 43.2017 267.114C42.901 266.805 42.5997 266.496 42.2975 266.188C33.7459 257.367 26.9463 247.208 21.805 236.705C21.4796 236.042 21.1477 235.382 20.8151 234.722C19.388 231.869 18.1409 228.991 17.0171 226.045C16.4631 224.597 15.8816 223.165 15.2385 221.743C14.3696 219.714 13.7529 217.638 13.1218 215.549C12.8062 214.505 12.4715 213.468 12.1189 212.433C10.7837 208.513 9.76141 204.547 8.97649 200.524C8.91129 200.191 8.91129 200.191 8.84477 199.852C8.80802 199.66 8.77126 199.467 8.73339 199.269C8.61336 198.746 8.46294 198.228 8.30227 197.713C7.93107 196.486 7.7258 195.246 7.51996 193.992C7.47754 193.739 7.43513 193.486 7.39143 193.225C3.52451 169.974 3.46759 146.466 9.75587 115.815C9.84116 115.482 9.92644 115.149 10.0117 114.816C12.1906 106.329 12.1906 106.329 13.5699 102.509C13.7243 102.071 13.8786 101.633 14.0329 101.195C14.9259 98.6782 15.8686 96.1764 16.8521 93.6838C16.9462 93.4444 17.0403 93.205 17.1373 92.9584C17.6565 91.6558 18.2192 90.3772 18.8368 89.1053C19.1709 88.407 19.4861 87.7038 19.7997 86.9988C21.897 82.3349 24.3951 77.8808 27.0656 73.4315C27.2105 73.189 27.3555 72.9465 27.5049 72.6966C31.4893 66.0701 36.3704 59.8565 41.7348 53.9647C41.9198 53.7564 41.9198 53.7564 42.1085 53.544C43.6711 51.7979 43.6711 51.7979 44.6789 51.6728C45.2554 51.7315 45.2554 51.7315 46.1355 51.9933C46.1599 51.7971 46.1843 51.6009 46.2095 51.3987C46.7027 48.7993 48.1987 47.482 50.3896 45.7713C50.6982 45.5203 51.0061 45.2688 51.3133 45.0167C53.2146 43.4705 55.2071 42.0366 57.2841 40.6582C57.4798 40.5271 57.6754 40.396 57.8769 40.2609C74.3765 29.3101 74.3765 29.3101 83.118 32.1694Z" fill="#A97241"/>
<path d="M118.307 32.0342C118.707 32.1797 118.707 32.1797 119.115 32.3282C127.469 35.4293 134.622 39.8101 141.191 45.0942C141.416 45.2514 141.641 45.4087 141.872 45.5707C142.554 46.2754 142.522 46.7821 142.548 47.6816C142.632 49.3164 142.884 50.8801 143.245 52.4867C143.416 52.5102 143.588 52.5337 143.764 52.5579C148.64 53.8631 153.694 62.0344 156.363 65.5425C156.628 65.8912 156.895 66.2388 157.164 66.5857C159.903 70.13 162.228 73.8171 164.489 77.5859C164.865 78.2098 165.245 78.8308 165.632 79.4499C168.493 84.0683 170.866 88.9631 172.877 93.8845C172.99 94.1596 173.102 94.4347 173.218 94.7181C174.722 98.4092 176.171 102.109 177.385 105.876C177.564 106.429 177.747 106.98 177.931 107.532C185.142 129.467 186.847 152.834 184.337 181.008C184.314 181.217 184.291 181.427 184.267 181.643C183.972 184.248 183.569 186.826 183.059 189.407C182.876 190.338 182.717 191.27 182.565 192.204C181.378 199.511 179.437 206.874 176.838 213.913C176.449 214.968 176.09 216.028 175.738 217.092C174.11 221.987 171.894 226.667 169.65 231.384C169.546 231.602 169.443 231.82 169.336 232.044C163.759 243.734 155.974 255.046 145.886 264.404C145.738 264.542 145.591 264.68 145.439 264.821C142.279 267.767 139.037 270.571 135.324 273.029C134.995 273.258 134.668 273.488 134.34 273.718C122.615 281.907 107.249 286.787 91.9029 285.842C87.8352 285.487 83.7733 284.921 79.8741 283.871C79.6513 283.812 79.4285 283.752 79.199 283.691C75.9639 282.819 72.8974 281.8 69.9066 280.444C69.2812 280.161 68.6521 279.884 68.023 279.606C63.3605 277.519 59.1789 274.983 55.2298 272.043C54.9745 271.853 54.7193 271.663 54.4562 271.467C53.9761 271.107 53.4978 270.744 53.0214 270.38C52.5072 269.987 51.9896 269.597 51.4697 269.209C50.072 268.162 48.7466 267.114 47.5411 265.909C46.9218 265.298 46.2719 264.714 45.6215 264.127C38.7447 257.783 33.3288 250.371 28.5502 242.827C28.4431 242.659 28.3361 242.49 28.2258 242.316C26.3074 239.288 24.6378 236.196 23.0582 233.034C22.8122 232.542 22.5646 232.051 22.3169 231.56C21.392 229.717 20.5373 227.866 19.7506 225.977C19.5007 225.377 19.2435 224.781 18.9751 224.187C17.2336 220.32 15.7133 216.406 14.4494 212.41C14.3633 212.141 14.2772 211.872 14.1885 211.595C12.8461 207.364 11.718 203.104 10.6904 198.811C10.635 198.582 10.5796 198.352 10.5225 198.116C9.73698 194.845 9.09681 191.57 8.58168 188.262C8.55313 188.079 8.52458 187.897 8.49516 187.709C8.31275 186.534 8.14126 185.358 7.97657 184.18C7.93947 183.917 7.93947 183.917 7.90161 183.647C7.40676 180.1 7.06434 176.55 6.82137 172.984C6.79568 172.664 6.76999 172.345 6.74351 172.015C6.44164 168 6.47302 163.978 6.47362 159.956C6.47365 159.117 6.47162 158.277 6.46761 157.438C6.44357 152.326 6.56955 147.277 7.11476 142.182C7.15095 141.814 7.1867 141.445 7.22184 141.077C7.72907 135.915 8.54876 130.793 9.46183 125.672C9.51852 125.351 9.5752 125.03 9.6336 124.699C10.9016 117.617 12.661 110.465 15.3112 103.649C15.8003 102.374 16.276 101.099 16.7061 99.8085C18.5523 94.3099 21.098 89.0029 23.8377 83.7815C23.9633 83.5407 24.0889 83.2998 24.2183 83.0517C25.8922 79.8541 27.7046 76.7405 29.7054 73.6784C29.8329 73.4809 29.9605 73.2834 30.0919 73.0798C34.3108 66.5722 39.3569 60.4322 45.1499 54.843C45.431 54.5712 45.7101 54.2979 45.9876 54.0235C47.368 52.6718 48.8381 51.4025 50.3371 50.1436C50.7525 49.7942 51.1656 49.4427 51.5786 49.0912C53.3882 47.5681 55.2734 46.1807 57.2835 44.8478C57.6015 44.6307 57.9194 44.4135 58.237 44.1961C64.8072 39.8457 72.2733 36.4995 80.2592 34.4213C80.6166 34.3271 80.6166 34.3271 80.9812 34.2309C82.6685 33.8088 84.2794 33.6241 86.0352 33.5127C86.0352 34.2445 86.0352 34.9764 86.0352 35.7304C85.6619 35.7965 85.2886 35.8625 84.9041 35.9306C70.181 38.6389 56.4215 46.597 47.0723 56.49C46.4109 57.1869 45.7245 57.8621 45.0347 58.5393C31.1462 72.5373 21.8808 90.5705 16.7964 108.177C16.7403 108.37 16.6843 108.564 16.6265 108.763C13.5701 119.312 11.3893 129.716 10.1282 140.522C10.0542 141.149 9.97723 141.777 9.89919 142.404C7.65276 160.674 8.95526 179.903 13.4419 197.85C13.6147 198.549 13.7743 199.25 13.9325 199.951C19.0304 222.259 29.6496 245.584 47.8952 262.679C48.027 262.804 48.1587 262.928 48.2944 263.057C51.4431 266.027 54.7237 268.85 58.457 271.304C58.6768 271.459 58.8965 271.613 59.1229 271.773C66.5698 276.983 75.4825 280.74 84.935 282.47C85.2752 282.532 85.6154 282.595 85.9659 282.66C93.3076 283.945 101.676 283.862 108.919 282.146C109.269 282.066 109.618 281.985 109.978 281.903C120.086 279.473 129.19 274.784 136.816 268.767C137.472 268.255 138.135 267.763 138.813 267.274C140 266.405 141.091 265.479 142.163 264.512C142.354 264.34 142.544 264.169 142.741 263.992C144.341 262.534 145.814 261.017 147.236 259.435C147.671 258.956 148.114 258.483 148.558 258.01C150.998 255.4 153.178 252.678 155.274 249.866C155.393 249.706 155.513 249.547 155.635 249.383C161.781 241.14 166.758 232.151 170.455 222.933C170.713 222.295 170.977 221.663 171.255 221.031C172.308 218.626 173.144 216.195 173.924 213.719C174.221 212.781 174.541 211.854 174.884 210.928C176.645 206.153 177.816 201.176 178.768 196.247C178.963 195.241 179.204 194.246 179.455 193.249C180.552 188.685 181.07 184.014 181.679 179.391C181.721 179.066 181.721 179.066 181.765 178.735C183.583 164.683 183.309 149.791 181.2 135.782C181.097 135.069 181.007 134.355 180.922 133.64C180.024 126.301 178.205 119.036 176.214 111.857C176.149 111.619 176.083 111.381 176.015 111.135C175.183 108.127 174.208 105.186 173.063 102.252C172.677 101.251 172.331 100.239 171.979 99.2287C169.409 91.9887 165.909 84.8056 161.728 78.1139C161.586 77.8837 161.443 77.6536 161.297 77.4164C158.143 72.3372 154.747 67.3581 150.659 62.7625C150.241 62.2925 149.83 61.8194 149.418 61.3461C147.758 59.4508 146.038 57.6585 144.125 55.9365C143.787 55.6143 143.451 55.2909 143.117 54.9662C140.401 52.3322 140.401 52.3322 137.382 49.9513C136.979 49.6637 136.585 49.3666 136.199 49.0619C132.417 46.0739 128.125 43.5108 123.588 41.398C123.415 41.3153 123.242 41.2326 123.064 41.1475C119.058 39.2377 114.845 37.6415 110.38 36.6641C109.783 36.5313 109.192 36.3805 108.606 36.2146C107.817 35.9965 107.058 35.8428 106.242 35.715C105.366 35.5763 104.501 35.4263 103.638 35.2376C103.561 34.5532 103.561 34.5532 103.638 33.7591C105.201 32.2316 107.769 31.7538 110.001 31.2949C110.262 31.2407 110.523 31.1866 110.793 31.1307C113.682 30.5914 115.635 31.0424 118.307 32.0342Z" fill="#7B5230"/>
<path d="M149.994 47.3115C151.194 48.0517 152.088 48.8948 152.983 49.8835C153.123 50.036 153.263 50.1886 153.407 50.3458C153.696 50.6608 153.984 50.9762 154.271 51.2921C154.652 51.7076 155.037 52.1193 155.426 52.5296C166.177 63.9913 173.902 77.8627 179.332 91.6664C179.435 91.926 179.539 92.1856 179.645 92.4531C181.013 95.9079 182.278 99.3661 183.326 102.899C183.621 103.89 183.952 104.868 184.295 105.847C184.937 107.721 185.453 109.612 185.95 111.517C186.098 112.086 186.248 112.654 186.399 113.223C187.233 116.384 188.004 119.556 188.556 122.761C188.591 122.964 188.626 123.167 188.662 123.376C188.739 123.822 188.815 124.268 188.891 124.714C189.02 125.459 189.154 126.203 189.289 126.947C192.436 144.731 192.713 162.842 190.793 180.73C190.769 180.949 190.746 181.168 190.722 181.394C190.376 184.603 189.88 187.785 189.307 190.972C189.246 191.32 189.184 191.667 189.123 192.015C187.503 201.121 185.545 210.292 182.16 219.069C181.982 219.533 181.812 219.999 181.643 220.465C181.274 221.479 180.893 222.489 180.506 223.499C180.408 223.756 180.309 224.013 180.208 224.278C177.749 230.684 174.937 236.926 171.504 243.015C171.13 243.683 170.762 244.353 170.397 245.024C168.596 248.301 166.547 251.437 164.37 254.547C164.2 254.79 164.03 255.032 163.855 255.282C161.644 258.423 159.331 261.473 156.742 264.404C156.588 264.578 156.434 264.753 156.275 264.933C154.101 267.388 151.826 269.754 149.407 272.043C149.152 272.284 148.897 272.526 148.635 272.775C145.642 275.563 142.546 278.337 139.022 280.655C138.502 280.999 137.994 281.354 137.495 281.719C131.31 286.248 123.942 289.657 116.255 292.002C116.04 292.07 115.826 292.138 115.605 292.208C110.632 293.777 105.15 294.887 99.825 294.959C99.5696 294.965 99.3141 294.971 99.0509 294.978C87.6212 295.229 77.0578 293.349 66.966 288.799C66.7807 288.718 66.5955 288.636 66.4046 288.552C61.4006 286.348 56.7983 283.582 52.5901 280.421C52.3394 280.234 52.0887 280.048 51.8303 279.856C51.101 279.309 50.3787 278.756 49.6563 278.203C49.2354 277.888 49.2354 277.888 48.8059 277.567C46.8646 276.108 45.0556 274.576 43.3298 272.935C42.8937 272.522 42.4536 272.111 42.0134 271.7C31.7595 262.041 23.9283 250.403 17.9708 238.53C17.8166 238.224 17.6623 237.918 17.5081 237.612C17.0298 236.661 16.5554 235.709 16.0821 234.757C15.9365 234.465 15.7909 234.173 15.6408 233.872C14.8673 232.3 14.1647 230.725 13.5409 229.107C13.3019 228.492 13.0488 227.884 12.785 227.277C11.4751 224.249 10.4185 221.183 9.41205 218.075C9.1904 217.403 8.95911 216.733 8.72114 216.065C3.81344 202.249 1.38553 187.601 0.367702 173.23C0.355369 173.066 0.343037 172.903 0.33033 172.734C0.00613024 168.339 0.00365361 163.94 0.000971274 159.538C0.000712007 159.343 0.0004505 159.148 0.000183376 158.947C-0.00729727 152.59 0.212774 146.289 0.903472 139.955C0.975699 139.269 1.03439 138.583 1.09199 137.896C1.35331 134.883 1.80601 131.888 2.25636 128.891C2.28673 128.687 2.3171 128.483 2.34839 128.272C2.75249 125.576 3.26348 122.917 3.88832 120.251C4.02183 119.652 4.15478 119.053 4.28714 118.454C5.84681 111.507 7.68253 104.629 10.2533 97.8911C10.8077 96.4377 11.3311 94.9779 11.8464 93.5145C12.4515 91.806 13.1054 90.1284 13.8634 88.463C13.9719 88.2088 14.0805 87.9547 14.1923 87.6929C19.3249 75.8219 26.1388 64.4369 34.9871 54.2112C35.1168 54.061 35.2465 53.9108 35.3802 53.7561C36.9344 51.9659 38.5804 50.2458 40.268 48.5436C41.2245 49.3246 42.0935 50.1205 42.9085 51.0078C42.6623 51.2465 42.6623 51.2465 42.4111 51.49C38.7983 55.0562 35.5804 58.8601 32.64 62.8357C32.4731 63.0601 32.4731 63.0601 32.3028 63.289C30.3696 65.899 28.628 68.5973 26.8954 71.3038C26.5195 71.8898 26.1405 72.4741 25.7604 73.0581C22.5323 78.0503 19.6781 83.3814 17.643 88.8018C17.3645 89.4973 17.0337 90.1612 16.6872 90.8347C15.0432 94.0945 13.9141 97.4903 12.8331 100.906C12.5664 101.745 12.2879 102.579 11.9873 103.411C7.00383 117.234 4.51556 131.972 3.59493 146.371C3.57676 146.634 3.57676 146.634 3.55821 146.903C3.27047 151.128 3.24232 155.353 3.24654 159.585C3.24665 159.85 3.24666 159.85 3.24678 160.12C3.24985 165.654 3.33116 171.163 3.88832 176.68C3.90823 176.881 3.92814 177.083 3.94866 177.291C4.50022 182.862 5.16545 188.409 6.23539 193.929C6.29174 194.22 6.34809 194.512 6.40615 194.812C7.89837 202.501 7.89837 202.501 10.0631 210.069C10.3127 210.839 10.5307 211.61 10.7375 212.389C11.4312 214.992 12.3563 217.528 13.3046 220.073C13.5865 220.833 13.863 221.593 14.1396 222.354C14.75 224.021 15.3916 225.678 16.0454 227.334C16.1538 227.612 16.2621 227.89 16.3738 228.176C16.9986 229.758 17.6832 231.301 18.4613 232.834C18.8883 233.675 19.3012 234.521 19.7127 235.367C19.8616 235.672 20.0106 235.977 20.1597 236.282C20.3861 236.745 20.6123 237.208 20.8373 237.671C21.7535 239.558 22.722 241.403 23.8385 243.212C24.017 243.513 24.1947 243.814 24.3714 244.116C24.971 245.131 25.5771 246.143 26.1855 247.155C26.3138 247.369 26.4421 247.583 26.5743 247.803C31.4609 255.926 37.47 263.508 44.6688 270.318C45.0511 270.68 45.0511 270.68 45.4412 271.05C48.6622 274.05 52.0092 276.959 55.8174 279.435C56.1296 279.648 56.4413 279.861 56.7525 280.075C69.5521 288.808 85.7572 293.667 102.3 292.326C107.051 291.882 111.787 290.965 116.255 289.538C116.445 289.478 116.636 289.418 116.833 289.356C123.533 287.22 129.75 284.193 135.325 280.421C135.598 280.238 135.872 280.056 136.154 279.868C141.285 276.409 146.271 272.484 150.287 268.1C150.557 267.82 150.829 267.541 151.101 267.263C153.16 265.148 155.077 262.966 156.919 260.715C157.178 260.398 157.439 260.081 157.701 259.765C162.555 253.911 166.808 247.484 170.083 240.902C170.451 240.168 170.837 239.447 171.234 238.725C172.001 237.314 172.676 235.881 173.336 234.433C174.56 231.757 174.56 231.757 175.205 230.595C176.01 229.097 176.602 227.533 177.215 225.974C177.423 225.445 177.634 224.917 177.846 224.388C178.74 222.14 179.514 219.882 180.212 217.585C180.322 217.235 180.432 216.886 180.542 216.537C180.627 216.268 180.712 215.998 180.799 215.721C181.156 214.59 181.535 213.469 181.936 212.348C185.572 201.614 187.317 190.325 188.482 179.236C188.507 179 188.532 178.763 188.558 178.52C189.162 172.728 189.363 166.968 189.362 161.157C189.362 160.402 189.364 159.648 189.368 158.894C189.405 151.741 189.08 144.617 188.189 137.5C188.165 137.3 188.14 137.101 188.115 136.896C187.748 133.885 187.305 130.885 186.795 127.889C186.751 127.63 186.751 127.63 186.706 127.366C186.284 124.899 185.766 122.451 185.2 120.004C185.141 119.747 185.082 119.489 185.021 119.224C183.57 112.943 182.036 106.683 179.709 100.585C179.211 99.2809 178.74 97.972 178.287 96.6563C177.419 94.151 176.543 91.6459 175.226 89.2773C174.88 88.6109 174.606 87.9342 174.326 87.2463C171.227 79.8785 167.048 72.7563 162.316 66.0391C162.178 65.8421 162.04 65.6452 161.898 65.4422C157.994 59.8879 153.511 54.6801 148.527 49.7757C148.933 48.8941 149.394 48.1128 149.994 47.3115Z" fill="#AB7544"/>
<path d="M131.906 38.4555C135.2 40.4785 138.247 42.7248 141.192 45.094C141.416 45.2496 141.641 45.4053 141.872 45.5656C142.566 46.2881 142.533 46.8403 142.567 47.7583C142.591 48.2153 142.591 48.2153 142.616 48.6814C142.63 48.9613 142.644 49.2411 142.659 49.5294C142.736 50.1099 142.838 50.6782 142.952 51.2544C141.905 50.5185 140.893 49.7849 139.945 48.9596C138.861 48.0344 137.681 47.2288 136.475 46.4175C135.92 46.039 135.372 45.6524 134.834 45.2566C129.478 41.3366 123.136 38.3876 116.565 36.1837C116.028 35.9995 115.498 35.7999 114.97 35.5983C113.58 35.126 112.165 34.8053 110.717 34.4827C110.44 34.4196 110.164 34.3566 109.879 34.2916C108.198 33.9119 106.514 33.5727 104.812 33.266C106.071 32.2667 107.287 31.9644 108.92 31.6181C109.269 31.5397 109.269 31.5397 109.626 31.4598C117.476 29.7181 125.736 34.7535 131.906 38.4555Z" fill="#A97241"/>
<path d="M96.378 4.12695C97.847 4.20921 98.581 4.57973 99.5502 5.5063C103.787 10.4927 104.353 15.7772 103.173 21.724C102.558 24.5084 101.334 26.9418 99.6648 29.3865C99.1545 30.1813 99.1545 30.1813 98.9451 31.0479C99.5553 31.7387 99.5553 31.7387 100.024 32.1413C100.98 33.0897 101.128 33.9333 101.09 35.1436C100.876 36.5131 100.203 37.4308 98.9634 38.3171C98.0636 38.6873 97.5807 38.8047 96.598 38.6868C96.0751 38.2475 96.2944 37.6629 96.294 37.079C96.3296 35.4313 96.3296 35.4313 95.5219 33.9972C94.9158 33.6992 94.317 33.481 93.6642 33.2656C93.1682 32.9445 92.6759 32.6191 92.1973 32.28C92.2523 31.8333 92.2523 31.8333 92.4907 31.2943C93.6331 30.63 94.4641 30.274 95.8462 30.2778C96.1906 30.2769 96.1906 30.2769 96.5419 30.2759C97.1848 30.3086 97.1848 30.3086 98.065 30.555C98.1149 30.3994 98.1648 30.2437 98.2162 30.0834C98.7409 28.4566 99.2925 26.838 99.8642 25.2225C101.549 19.7404 100.39 14.0023 97.1848 9.11687C96.8539 8.66238 96.5185 8.21012 96.1763 7.76159C95.3346 6.6416 95.1561 5.75539 95.1311 4.43497C95.4245 4.18856 95.4245 4.18856 96.378 4.12695Z" fill="#E6AF91"/>
<path d="M69.8277 30.201C70.2036 30.2088 70.5795 30.2166 70.9668 30.2246C71.8836 30.2447 72.7989 30.2729 73.715 30.3088C73.8602 30.5528 73.8602 30.5528 74.0084 30.8017C73.6639 30.9332 73.3193 31.0647 72.9644 31.2002C66.5103 33.695 60.6448 36.7809 55.2318 40.6583C54.9034 40.8885 54.5749 41.1185 54.2462 41.3485C51.9092 42.9946 49.7249 44.732 47.6038 46.5723C46.8509 45.6238 46.8554 44.9866 46.7236 43.8617C46.9717 43.8077 47.2198 43.7537 47.4754 43.6981C49.9749 43.1112 51.9925 42.5216 53.4715 40.6583C53.9572 39.4344 53.7795 38.4457 53.4715 37.2085C55.4903 35.87 57.5355 34.5721 59.6509 33.3428C59.8301 33.2378 60.0094 33.1327 60.1941 33.0244C60.5686 32.8089 60.9466 32.5976 61.3274 32.3901C61.8107 32.126 62.2861 31.8517 62.7568 31.572C65.1393 30.2512 67.0146 30.0888 69.8277 30.201Z" fill="#AB7442"/>
<path d="M123.246 26.5472C123.768 26.5457 123.768 26.5457 124.3 26.5441C124.856 26.5475 124.856 26.5475 125.423 26.551C125.798 26.5525 126.174 26.554 126.56 26.5556C129.048 26.5775 131.42 26.6674 133.858 27.1055C134.142 27.1477 134.425 27.19 134.718 27.2335C138.688 27.9191 142.219 29.5762 145.007 32.0338C145.268 32.2501 145.268 32.2501 145.534 32.4708C146.942 33.7181 147.854 35.1828 147.998 36.914C147.908 38.5086 147.39 39.6753 146.18 40.9048C145.934 41.1725 145.934 41.1725 145.682 41.4457C144.721 42.0786 144.012 42.0132 142.806 41.9982C142.422 41.9979 142.038 41.9976 141.642 41.9973C140.594 41.8892 140.18 41.7551 139.432 41.1512C139.603 41.1598 139.773 41.1683 139.948 41.1772C141.464 41.2213 142.572 41.2004 143.833 40.4119C144.813 39.3195 145.217 38.1675 145.141 36.8062C144.654 34.6864 143.085 32.9385 141.064 31.6796C135.087 28.3251 127.912 27.8283 120.949 27.1055C121.738 26.4427 122.144 26.5491 123.246 26.5472Z" fill="#E6AF90"/>
<path d="M109.341 12.8135C110.444 13.1748 110.72 13.6681 111.267 14.5384C112.666 18.0051 111.543 21.4642 109.781 24.6876C108.289 27.0706 106.11 28.8695 103.639 30.5554C103.445 30.4741 103.251 30.3928 103.052 30.309C103.186 30.1896 103.321 30.0701 103.46 29.9471C106.568 27.0947 107.526 23.8728 107.502 20.0577C107.462 19.3763 107.382 18.8226 107.159 18.173C106.69 16.6958 106.607 15.3636 107.251 13.9223C107.842 13.1862 108.25 12.8135 109.341 12.8135Z" fill="#E6AF90"/>
<path d="M117.428 30.3083C125.737 30.1432 129.872 31.75 136.32 35.9217C136.711 36.1713 137.111 36.4109 137.513 36.6478C137.662 36.7513 137.811 36.8549 137.965 36.9616C137.965 37.1242 137.965 37.2868 137.965 37.4544C137.747 37.5103 137.529 37.5662 137.305 37.6238C136.346 38.0082 135.958 38.4757 135.324 39.1793C135.125 39.0478 134.925 38.9163 134.719 38.7808C132.46 37.3226 130.123 36.0237 127.683 34.7882C127.318 34.603 126.953 34.4166 126.589 34.2287C123.666 32.7213 120.605 31.6245 117.428 30.5547C117.428 30.4734 117.428 30.3921 117.428 30.3083Z" fill="#AB7443"/>
<path d="M65.4987 30.3083C64.5804 30.9149 63.6117 31.4379 62.6272 31.9637C60.044 33.3433 57.4971 34.7605 55.1729 36.4417C54.1105 37.1906 53.472 37.537 52.058 37.5159C51.7375 37.4874 51.7375 37.4874 51.4105 37.4582C50.7337 37.4081 50.7337 37.4081 49.9493 37.9472C49.2639 37.3715 49.2546 37.2105 49.2158 36.4225C49.2602 35.3157 49.5689 34.6988 50.4925 33.9121C54.297 31.4952 60.7428 30.0637 65.4987 30.3083Z" fill="#FDFBFA"/>
<path d="M76.6465 21.9307C76.9369 22.2966 76.9369 22.2966 77.2333 22.6699C79.7133 25.6721 82.1813 28.0156 85.8858 29.9517C87.2841 30.6968 88.1683 31.299 88.9686 32.5265C89.2591 32.4452 89.5495 32.3639 89.8488 32.2801C89.752 32.5901 89.6552 32.9002 89.5554 33.2196C89.1266 34.8741 88.8488 36.5014 89.7571 38.0555C91.2463 39.4415 92.5396 40.1861 94.763 40.3194C95.0519 40.3379 95.3409 40.3563 95.6385 40.3753C95.8579 40.3873 96.0772 40.3994 96.3032 40.4118C95.5089 41.079 94.9052 41.0761 93.8129 41.1588C92.2386 41.1423 90.931 40.6708 89.6104 39.9806C88.144 38.7138 87.7191 37.8388 87.6667 36.0842C87.7087 34.8599 87.8511 34.0289 88.6752 33.0194C88.2952 32.9269 88.2952 32.9269 87.9074 32.8326C83.131 31.3595 79.0463 27.4522 76.9582 23.671C76.6465 22.9163 76.6465 22.9163 76.6465 21.9307Z" fill="#AD7543"/>
<path d="M161.364 39.5801C162.317 39.6725 162.317 39.6725 163.124 40.1961C164.364 41.5265 164.444 42.7475 164.506 44.3842C164.292 45.5097 163.751 46.4102 162.735 47.1595C162.217 47.4686 161.69 47.7473 161.144 48.0198C160.963 48.1157 160.782 48.2117 160.596 48.3105C158.928 49.1763 157.534 49.4664 155.569 49.2827C153.919 48.7283 153.919 48.7283 153.516 48.0506C153.978 48.023 153.978 48.023 154.45 47.9948C156.972 47.81 158.921 47.5784 160.85 46.0793C161.006 45.9589 161.163 45.8385 161.324 45.7145C162.307 44.847 162.637 44.0633 162.611 42.8759C161.915 42.0665 161 41.6317 159.97 41.151C160.279 39.7043 160.279 39.7043 161.364 39.5801Z" fill="#E6AF90"/>
<path d="M127.99 31.0479C130.975 31.2889 133.642 31.8764 136.333 32.9884C136.531 33.0691 136.729 33.1498 136.933 33.2329C138.173 33.7661 139.072 34.3599 140.019 35.2369C140.116 35.3182 140.213 35.3996 140.312 35.4833C140.453 37.3174 140.453 37.3174 139.868 37.8878C139.724 37.9888 139.58 38.0898 139.432 38.1939C139.169 38.0119 138.906 37.8299 138.635 37.6424C135.383 35.4147 132.02 33.3652 128.426 31.544C128.282 31.4616 128.138 31.3792 127.99 31.2943C127.99 31.213 127.99 31.1316 127.99 31.0479Z" fill="#FDFBFA"/>
<path d="M86.9165 14.7842C87.0133 14.7842 87.1101 14.7842 87.2099 14.7842C87.2263 15.1158 87.2263 15.1158 87.2431 15.4541C87.5634 20.5597 89.0504 24.9553 92.2462 29.3454C92.4908 29.8155 92.4908 29.8155 92.1974 30.5548C88.8866 28.4109 87.3307 25.7906 86.3297 22.4231C86.273 22.2366 86.2162 22.0502 86.1578 21.858C85.9771 20.8659 85.9704 19.8832 85.963 18.8808C85.9569 18.6775 85.9509 18.4743 85.9446 18.2648C85.9344 16.9127 86.1815 15.9895 86.9165 14.7842Z" fill="#AC7442"/>
<path d="M126.56 15.4002C130.202 18.0598 130.202 18.0598 130.447 20.1591C130.408 21.3122 129.941 22.2201 129.164 23.1623C128.357 23.7784 128.357 23.7784 127.697 24.148C127.6 23.9854 127.503 23.8227 127.404 23.6552C127.632 23.2624 127.632 23.2624 127.972 22.7927C128.717 21.5994 128.79 20.544 128.577 19.2197C128.119 18.0648 127.14 17.5817 125.905 17.0337C124.497 16.5721 123.039 16.3845 121.554 16.1828C121.258 16.1279 120.961 16.0729 120.656 16.0163C120.559 15.8536 120.462 15.691 120.362 15.5234C122.423 15.0105 124.547 14.5888 126.56 15.4002Z" fill="#E6AE8E"/>
<path d="M147.061 42.6289C148.144 42.7995 148.144 42.7995 148.527 43.1217C148.921 47.3505 148.921 47.3505 147.524 49.0838C146.764 49.8133 145.936 50.4338 145.007 51.007C145.007 50.2678 145.007 50.2678 145.292 49.6123C145.712 48.4651 145.707 47.3617 145.734 46.1687C145.788 44.9359 145.961 43.5523 147.061 42.6289Z" fill="#E6AF90"/>
<path d="M56.4778 30.0458C57.0223 30.0535 57.0223 30.0535 57.5779 30.0612C56.5976 30.5151 55.6092 30.7614 54.5341 31.0161C51.8111 31.7155 49.9388 32.8879 48.4509 34.9472C47.8775 35.9559 47.7476 36.8437 47.8963 37.9465C48.161 38.5579 48.161 38.5579 48.7764 38.9322C49.834 39.1326 49.834 39.1326 50.8301 39.1786C50.7333 39.3412 50.6365 39.5039 50.5367 39.6714C48.4177 39.8223 48.4177 39.8223 47.3278 39.1016C46.2897 37.9654 46.2127 36.866 46.4293 35.4824C47.1926 33.4563 49.0143 32.3401 51.1235 31.2933C52.8407 30.5963 54.5518 30.0189 56.4778 30.0458Z" fill="#AE7543"/>
<path d="M43.2012 40.9043C43.2012 41.6435 43.2012 41.6435 42.9136 42.2038C41.9763 44.309 42.5175 46.9939 43.4946 49.036C43.9339 49.7267 44.4145 50.3735 44.9615 51.0073C43.0265 50.6133 41.9765 49.1671 40.8725 47.8809C40.307 46.4001 40.1562 44.7176 40.8496 43.2501C41.4945 42.359 42.2716 41.5983 43.2012 40.9043Z" fill="#AD7442"/>
<path d="M25.3059 41.8896C25.5993 42.3825 25.5993 42.3825 25.4343 43.0293C25.2308 44.3473 25.5683 45.3712 26.3694 46.5099C28.4599 48.1733 30.436 48.1805 33.1631 48.1328C34.4129 48.0795 35.5453 47.8416 36.7479 47.5572C35.6869 48.5969 34.2396 49.1259 32.6405 49.2821C32.4507 49.3009 32.2608 49.3196 32.0652 49.3389C30.1207 49.4449 28.6686 48.9618 27.0662 48.05C25.7945 47.0832 24.8116 46.0304 24.6664 44.5588C24.6298 43.5113 24.6763 42.8151 25.3059 41.8896Z" fill="#B37846"/>
<path d="M64.0327 15.5247C63.6333 15.7306 63.6333 15.7306 63.2259 15.9406C61.9631 16.6953 61.1178 17.5311 60.5121 18.7281C60.1335 20.7932 60.8184 22.3493 61.979 24.1493C60.9645 23.8653 60.8623 23.7044 60.3287 22.9634C60.2039 22.7941 60.0791 22.6248 59.9505 22.4504C59.2979 21.3876 59.2426 20.4095 59.3386 19.221C59.9624 17.6489 60.8635 16.5272 62.4558 15.5401C63.1526 15.2783 63.1526 15.2783 64.0327 15.5247Z" fill="#B07745"/>
<path d="M112.44 25.627C114.42 25.8426 114.42 25.8426 115.08 26.1198C115.08 26.2824 115.08 26.4451 115.08 26.6126C114.66 26.7437 114.238 26.8714 113.815 26.9976C113.463 27.1048 113.463 27.1048 113.103 27.2142C112.44 27.3519 112.44 27.3519 111.56 27.1054C111.85 26.6175 112.14 26.1296 112.44 25.627Z" fill="#AE7644"/>
<path d="M57.5765 30.0631C56.7457 30.4391 55.9648 30.6833 55.0461 30.8639C54.8184 30.9109 54.5908 30.958 54.3562 31.0064C54.1603 31.0204 53.9644 31.0343 53.7626 31.0487C53.5689 30.8861 53.3753 30.7235 53.1758 30.5559C54.7142 30.1252 55.9551 30.0153 57.5765 30.0631Z" fill="#B77B49"/>
<path d="M76.6479 26.1191C77.2288 26.2411 77.2288 26.2411 77.8214 26.3656C77.9182 26.6908 78.015 27.0161 78.1148 27.3512C77.5339 27.1886 76.953 27.026 76.3545 26.8584C76.4513 26.6144 76.5481 26.3705 76.6479 26.1191Z" fill="#AD7543"/>
<ellipse cx="95.5" cy="160" rx="116" ry="77.5" transform="rotate(90 95.5 160)" fill="url(#paint0_radial_6508_2227)"/>
<path d="M73.8358 94.328C70.9798 94.328 68.9278 96.188 67.6798 99.908C67.6558 99.98 67.5838 100.016 67.4638 100.016C67.3438 99.992 67.2838 99.944 67.2838 99.872C67.3798 98.912 67.4878 97.676 67.6078 96.164C67.7278 94.628 67.7878 93.476 67.7878 92.708C67.7878 92.588 67.8478 92.528 67.9678 92.528C68.1118 92.528 68.1838 92.588 68.1838 92.708C68.1838 93.236 68.8678 93.5 70.2358 93.5C72.2998 93.572 74.7118 93.608 77.4718 93.608C78.8878 93.608 80.3878 93.584 81.9718 93.536L84.4198 93.5C85.3318 93.5 85.9918 93.44 86.3998 93.32C86.8318 93.2 87.1078 92.96 87.2278 92.6C87.2518 92.504 87.3238 92.456 87.4438 92.456C87.5878 92.456 87.6598 92.504 87.6598 92.6C87.5878 93.32 87.5038 94.472 87.4078 96.056C87.3358 97.64 87.2998 98.912 87.2998 99.872C87.2998 99.944 87.2398 99.98 87.1198 99.98C86.9998 99.98 86.9278 99.944 86.9038 99.872C86.5438 98.024 85.8718 96.644 84.8878 95.732C83.9038 94.796 82.6918 94.328 81.2518 94.328C80.5558 94.328 80.0878 94.484 79.8478 94.796C79.6318 95.084 79.5238 95.648 79.5238 96.488V113.084C79.5238 113.828 79.5958 114.368 79.7398 114.704C79.8838 115.04 80.1598 115.268 80.5678 115.388C80.9758 115.508 81.6238 115.568 82.5118 115.568C82.5838 115.568 82.6198 115.64 82.6198 115.784C82.6198 115.928 82.5838 116 82.5118 116C81.6478 116 80.9638 115.988 80.4598 115.964L77.4718 115.928L74.5558 115.964C74.0518 115.988 73.3558 116 72.4678 116C72.3958 116 72.3598 115.928 72.3598 115.784C72.3598 115.64 72.3958 115.568 72.4678 115.568C73.3318 115.568 73.9678 115.508 74.3758 115.388C74.8078 115.268 75.0958 115.04 75.2398 114.704C75.4078 114.344 75.4918 113.804 75.4918 113.084V96.416C75.4918 95.6 75.3838 95.048 75.1678 94.76C74.9518 94.472 74.5078 94.328 73.8358 94.328ZM103.407 102.14C103.407 101.42 103.347 100.892 103.227 100.556C103.107 100.196 102.891 99.944 102.579 99.8C102.267 99.656 101.775 99.584 101.103 99.584C101.031 99.584 100.995 99.512 100.995 99.368C100.995 99.224 101.031 99.152 101.103 99.152L102.831 99.188C103.791 99.236 104.595 99.26 105.243 99.26C105.819 99.26 106.611 99.236 107.619 99.188L109.347 99.152C109.419 99.152 109.455 99.224 109.455 99.368C109.455 99.512 109.419 99.584 109.347 99.584C108.675 99.584 108.171 99.656 107.835 99.8C107.523 99.92 107.307 100.148 107.187 100.484C107.067 100.82 107.007 101.348 107.007 102.068V113.084C107.007 113.804 107.067 114.344 107.187 114.704C107.307 115.04 107.523 115.268 107.835 115.388C108.147 115.508 108.651 115.568 109.347 115.568C109.419 115.568 109.455 115.64 109.455 115.784C109.455 115.928 109.419 116 109.347 116C108.603 116 108.027 115.988 107.619 115.964L105.243 115.928L102.831 115.964C102.423 115.988 101.847 116 101.103 116C101.031 116 100.995 115.928 100.995 115.784C100.995 115.64 101.031 115.568 101.103 115.568C101.775 115.568 102.267 115.508 102.579 115.388C102.891 115.268 103.107 115.04 103.227 114.704C103.347 114.344 103.407 113.804 103.407 113.084V102.14ZM92.8589 107.036H105.063V107.972H92.8589V107.036ZM91.1669 102.068C91.1669 101.348 91.1069 100.82 90.9869 100.484C90.8669 100.148 90.6389 99.92 90.3029 99.8C89.9909 99.656 89.5109 99.584 88.8629 99.584C88.7909 99.584 88.7549 99.512 88.7549 99.368C88.7549 99.224 88.7909 99.152 88.8629 99.152L90.5909 99.188C91.5509 99.236 92.3309 99.26 92.9309 99.26C93.5789 99.26 94.3829 99.236 95.3429 99.188L97.0709 99.152C97.1189 99.152 97.1429 99.224 97.1429 99.368C97.1429 99.512 97.1189 99.584 97.0709 99.584C96.1109 99.584 95.4749 99.752 95.1629 100.088C94.8749 100.424 94.7309 101.108 94.7309 102.14V113.084C94.7309 113.804 94.7909 114.332 94.9109 114.668C95.0309 115.004 95.2469 115.244 95.5589 115.388C95.8949 115.508 96.3989 115.568 97.0709 115.568C97.1189 115.568 97.1429 115.64 97.1429 115.784C97.1429 115.928 97.1189 116 97.0709 116C96.3269 116 95.7509 115.988 95.3429 115.964L92.9309 115.928L90.5909 115.964C90.1589 115.988 89.5589 116 88.7909 116C88.7429 116 88.7189 115.928 88.7189 115.784C88.7189 115.64 88.7429 115.568 88.7909 115.568C89.4869 115.568 89.9909 115.508 90.3029 115.388C90.6389 115.268 90.8669 115.04 90.9869 114.704C91.1069 114.344 91.1669 113.804 91.1669 113.084V102.068ZM111.537 116C111.489 116 111.465 115.928 111.465 115.784C111.465 115.64 111.489 115.568 111.537 115.568C112.233 115.568 112.737 115.508 113.049 115.388C113.361 115.268 113.577 115.04 113.697 114.704C113.817 114.344 113.877 113.804 113.877 113.084V102.068C113.877 101.348 113.817 100.82 113.697 100.484C113.577 100.148 113.349 99.92 113.013 99.8C112.701 99.656 112.209 99.584 111.537 99.584C111.489 99.584 111.465 99.512 111.465 99.368C111.465 99.224 111.489 99.152 111.537 99.152H124.425C124.665 99.152 124.785 99.248 124.785 99.44L124.821 101.672C124.845 102.128 124.857 102.704 124.857 103.4C124.857 103.472 124.785 103.508 124.641 103.508C124.521 103.508 124.449 103.472 124.425 103.4C123.969 102.344 123.273 101.456 122.337 100.736C121.401 99.992 120.453 99.62 119.493 99.62H119.241C118.713 99.62 118.317 99.692 118.053 99.836C117.813 99.956 117.645 100.184 117.549 100.52C117.477 100.856 117.441 101.384 117.441 102.104V112.94C117.441 113.66 117.477 114.188 117.549 114.524C117.645 114.86 117.813 115.1 118.053 115.244C118.317 115.364 118.713 115.424 119.241 115.424H119.637C120.765 115.424 121.881 115.028 122.985 114.236C124.089 113.42 124.905 112.412 125.433 111.212C125.481 111.14 125.565 111.104 125.685 111.104C125.805 111.104 125.865 111.14 125.865 111.212C125.697 112.94 125.613 114.356 125.613 115.46C125.613 115.652 125.577 115.796 125.505 115.892C125.433 115.964 125.289 116 125.073 116H111.537ZM122.949 108.296C122.829 108.296 122.241 108.224 121.185 108.08C120.153 107.936 118.377 107.864 115.857 107.864V106.964C118.377 106.964 120.153 106.904 121.185 106.784C122.241 106.64 122.829 106.568 122.949 106.568C123.117 106.568 123.201 106.832 123.201 107.36C123.201 107.6 123.177 107.816 123.129 108.008C123.081 108.2 123.021 108.296 122.949 108.296ZM50.9763 160.432C48.2403 160.432 45.8643 159.928 43.8483 158.92C41.8323 157.888 40.2843 156.496 39.2043 154.744C38.1243 152.992 37.5843 151.048 37.5843 148.912C37.5843 146.632 38.1843 144.592 39.3843 142.792C40.6083 140.992 42.2883 139.6 44.4243 138.616C46.5603 137.608 48.9603 137.104 51.6243 137.104C52.7763 137.104 53.9283 137.2 55.0803 137.392C56.2323 137.56 57.1563 137.788 57.8523 138.076C58.1163 138.172 58.2603 138.256 58.2843 138.328C58.3323 138.376 58.3683 138.568 58.3923 138.904L58.8603 143.908C58.8603 143.98 58.7883 144.028 58.6443 144.052C58.5243 144.076 58.4523 144.04 58.4283 143.944C58.1163 143.152 57.6123 142.288 56.9163 141.352C56.2203 140.416 55.3083 139.6 54.1803 138.904C53.0523 138.208 51.7443 137.86 50.2563 137.86C48.7203 137.86 47.3163 138.28 46.0443 139.12C44.7723 139.96 43.7643 141.16 43.0203 142.72C42.3003 144.28 41.9403 146.092 41.9403 148.156C41.9403 150.412 42.3603 152.428 43.2003 154.204C44.0643 155.98 45.2523 157.36 46.7643 158.344C48.2763 159.328 49.9803 159.82 51.8763 159.82C52.8603 159.82 53.6163 159.712 54.1443 159.496C54.6723 159.28 55.0563 158.86 55.2963 158.236C55.5363 157.612 55.6563 156.688 55.6563 155.464C55.6563 154.216 55.5843 153.352 55.4403 152.872C55.2963 152.368 54.9843 152.032 54.5043 151.864C54.0483 151.696 53.2323 151.612 52.0563 151.612C51.9123 151.612 51.8403 151.516 51.8403 151.324C51.8403 151.252 51.8523 151.192 51.8763 151.144C51.9243 151.072 51.9723 151.036 52.0203 151.036C54.0603 151.156 55.7163 151.216 56.9883 151.216C58.2123 151.216 59.4843 151.18 60.8043 151.108C60.9003 151.108 60.9483 151.192 60.9483 151.36C60.9723 151.528 60.9243 151.612 60.8043 151.612C60.3723 151.588 60.0603 151.672 59.8683 151.864C59.7003 152.032 59.5923 152.392 59.5443 152.944C59.4963 153.496 59.4723 154.456 59.4723 155.824C59.4723 156.904 59.5083 157.672 59.5803 158.128C59.6763 158.584 59.7243 158.872 59.7243 158.992C59.7243 159.136 59.7003 159.232 59.6523 159.28C59.6043 159.328 59.4963 159.376 59.3283 159.424C56.2323 160.096 53.4483 160.432 50.9763 160.432ZM68.6323 151.396H75.2203L75.4723 152.332H68.0923L68.6323 151.396ZM82.2043 159.568C82.3243 159.568 82.3843 159.64 82.3843 159.784C82.3843 159.928 82.3243 160 82.2043 160C81.7003 160 80.9443 159.976 79.9363 159.928C78.8803 159.88 78.1363 159.856 77.7043 159.856C77.2963 159.856 76.6603 159.88 75.7963 159.928C74.9803 159.976 74.4043 160 74.0683 160C73.9723 160 73.9243 159.928 73.9243 159.784C73.9243 159.64 73.9723 159.568 74.0683 159.568C74.6203 159.568 75.0043 159.508 75.2203 159.388C75.4603 159.244 75.5803 159.04 75.5803 158.776C75.5803 158.44 75.3763 157.84 74.9683 156.976L70.3963 147.148L71.9803 144.376L67.2643 155.572C66.8323 156.58 66.6163 157.372 66.6163 157.948C66.6163 158.524 66.8203 158.944 67.2283 159.208C67.6363 159.448 68.2723 159.568 69.1363 159.568C69.2563 159.568 69.3163 159.64 69.3163 159.784C69.3163 159.928 69.2563 160 69.1363 160C68.8003 160 68.3203 159.976 67.6963 159.928C67.0243 159.88 66.4003 159.856 65.8243 159.856C65.2243 159.856 64.5163 159.88 63.7003 159.928C62.9803 159.976 62.3923 160 61.9363 160C61.8163 160 61.7563 159.928 61.7563 159.784C61.7563 159.64 61.8163 159.568 61.9363 159.568C62.6803 159.568 63.2803 159.46 63.7363 159.244C64.1923 159.028 64.6123 158.62 64.9963 158.02C65.4043 157.42 65.8723 156.496 66.4003 155.248L71.8003 142.612C71.8483 142.516 71.9203 142.468 72.0163 142.468C72.1123 142.468 72.1843 142.516 72.2323 142.612L77.9923 155.068C78.5923 156.364 79.0843 157.324 79.4683 157.948C79.8763 158.572 80.2843 159.004 80.6923 159.244C81.1003 159.46 81.6043 159.568 82.2043 159.568ZM92.1643 160.144C91.5163 160.144 90.7723 160.108 89.9323 160.036C89.6443 160.012 89.2843 159.988 88.8523 159.964C88.4203 159.94 87.9283 159.928 87.3763 159.928L85.0363 159.964C84.6043 159.988 84.0043 160 83.2363 160C83.1883 160 83.1643 159.928 83.1643 159.784C83.1643 159.64 83.1883 159.568 83.2363 159.568C83.9563 159.568 84.4723 159.508 84.7843 159.388C85.1203 159.268 85.3363 159.04 85.4323 158.704C85.5523 158.344 85.6123 157.804 85.6123 157.084V146.068C85.6123 145.348 85.5523 144.82 85.4323 144.484C85.3363 144.148 85.1203 143.92 84.7843 143.8C84.4723 143.656 83.9803 143.584 83.3083 143.584C83.2363 143.584 83.2003 143.512 83.2003 143.368C83.2003 143.224 83.2363 143.152 83.3083 143.152L85.0363 143.188C85.9963 143.236 86.7763 143.26 87.3763 143.26C88.1203 143.26 88.8643 143.224 89.6083 143.152C90.5683 143.104 91.2883 143.08 91.7683 143.08C93.7843 143.08 95.5243 143.44 96.9883 144.16C98.4523 144.88 99.5683 145.876 100.336 147.148C101.104 148.42 101.488 149.86 101.488 151.468C101.488 153.124 101.092 154.612 100.3 155.932C99.5083 157.252 98.4043 158.284 96.9883 159.028C95.5723 159.772 93.9643 160.144 92.1643 160.144ZM91.7683 159.352C93.5203 159.352 94.8883 158.704 95.8723 157.408C96.8563 156.112 97.3483 154.264 97.3483 151.864C97.3483 149.536 96.8563 147.616 95.8723 146.104C94.8883 144.568 93.4123 143.8 91.4443 143.8C90.6283 143.8 90.0403 143.968 89.6803 144.304C89.3443 144.64 89.1763 145.252 89.1763 146.14V156.688C89.1763 157.672 89.3443 158.368 89.6803 158.776C90.0403 159.16 90.7363 159.352 91.7683 159.352ZM113.058 160.432C111.138 160.432 109.458 160.036 108.018 159.244C106.602 158.428 105.522 157.36 104.778 156.04C104.034 154.72 103.662 153.328 103.662 151.864C103.662 149.992 104.082 148.372 104.922 147.004C105.786 145.612 106.998 144.556 108.558 143.836C110.118 143.092 111.954 142.72 114.066 142.72C115.122 142.72 116.13 142.816 117.09 143.008C118.074 143.2 118.89 143.476 119.538 143.836C119.706 143.908 119.802 143.992 119.826 144.088C119.874 144.184 119.91 144.364 119.934 144.628L120.114 148.012C120.114 148.084 120.042 148.132 119.898 148.156C119.778 148.156 119.706 148.12 119.682 148.048C117.834 145.024 115.686 143.512 113.238 143.512C111.534 143.512 110.19 144.196 109.206 145.564C108.246 146.932 107.766 148.876 107.766 151.396C107.766 153.844 108.318 155.824 109.422 157.336C110.526 158.848 112.026 159.604 113.922 159.604C114.882 159.604 115.578 159.508 116.01 159.316C116.466 159.1 116.766 158.716 116.91 158.164C117.078 157.588 117.162 156.688 117.162 155.464C117.162 154.84 117.114 154.408 117.018 154.168C116.922 153.904 116.718 153.736 116.406 153.664C116.094 153.568 115.554 153.52 114.786 153.52C114.642 153.52 114.57 153.424 114.57 153.232C114.57 153.16 114.582 153.1 114.606 153.052C114.654 152.98 114.702 152.944 114.75 152.944C115.998 153.04 117.258 153.088 118.53 153.088C119.106 153.088 120.066 153.064 121.41 153.016C121.458 153.016 121.494 153.052 121.518 153.124C121.566 153.172 121.59 153.22 121.59 153.268C121.59 153.436 121.53 153.52 121.41 153.52C121.05 153.496 120.798 153.532 120.654 153.628C120.51 153.724 120.414 153.928 120.366 154.24C120.318 154.528 120.294 155.056 120.294 155.824C120.294 156.904 120.318 157.66 120.366 158.092C120.438 158.524 120.474 158.824 120.474 158.992C120.474 159.136 120.45 159.232 120.402 159.28C120.354 159.304 120.234 159.352 120.042 159.424C118.434 160.096 116.106 160.432 113.058 160.432ZM123.49 160C123.442 160 123.418 159.928 123.418 159.784C123.418 159.64 123.442 159.568 123.49 159.568C124.186 159.568 124.69 159.508 125.002 159.388C125.314 159.268 125.53 159.04 125.65 158.704C125.77 158.344 125.83 157.804 125.83 157.084V146.068C125.83 145.348 125.77 144.82 125.65 144.484C125.53 144.148 125.302 143.92 124.966 143.8C124.654 143.656 124.162 143.584 123.49 143.584C123.442 143.584 123.418 143.512 123.418 143.368C123.418 143.224 123.442 143.152 123.49 143.152H136.378C136.618 143.152 136.738 143.248 136.738 143.44L136.774 145.672C136.798 146.128 136.81 146.704 136.81 147.4C136.81 147.472 136.738 147.508 136.594 147.508C136.474 147.508 136.402 147.472 136.378 147.4C135.922 146.344 135.226 145.456 134.29 144.736C133.354 143.992 132.406 143.62 131.446 143.62H131.194C130.666 143.62 130.27 143.692 130.006 143.836C129.766 143.956 129.598 144.184 129.502 144.52C129.43 144.856 129.394 145.384 129.394 146.104V156.94C129.394 157.66 129.43 158.188 129.502 158.524C129.598 158.86 129.766 159.1 130.006 159.244C130.27 159.364 130.666 159.424 131.194 159.424H131.59C132.718 159.424 133.834 159.028 134.938 158.236C136.042 157.42 136.858 156.412 137.386 155.212C137.434 155.14 137.518 155.104 137.638 155.104C137.758 155.104 137.818 155.14 137.818 155.212C137.65 156.94 137.566 158.356 137.566 159.46C137.566 159.652 137.53 159.796 137.458 159.892C137.386 159.964 137.242 160 137.026 160H123.49ZM134.902 152.296C134.782 152.296 134.194 152.224 133.138 152.08C132.106 151.936 130.33 151.864 127.81 151.864V150.964C130.33 150.964 132.106 150.904 133.138 150.784C134.194 150.64 134.782 150.568 134.902 150.568C135.07 150.568 135.154 150.832 135.154 151.36C135.154 151.6 135.13 151.816 135.082 152.008C135.034 152.2 134.974 152.296 134.902 152.296ZM144.977 143.872C144.065 143.872 143.189 144.256 142.349 145.024C141.533 145.792 140.885 146.836 140.405 148.156C140.381 148.228 140.309 148.264 140.189 148.264C140.069 148.264 140.009 148.228 140.009 148.156C140.105 147.388 140.213 146.392 140.333 145.168C140.453 143.92 140.513 142.984 140.513 142.36C140.513 142.24 140.573 142.18 140.693 142.18C140.837 142.18 140.909 142.24 140.909 142.36C140.909 142.672 141.089 142.876 141.449 142.972C141.809 143.044 142.265 143.08 142.817 143.08C144.881 143.128 146.693 143.152 148.253 143.152L151.385 143.116C151.793 143.092 152.345 143.08 153.041 143.08C153.977 143.08 154.673 143.032 155.129 142.936C155.609 142.816 155.909 142.576 156.029 142.216C156.053 142.144 156.125 142.108 156.245 142.108C156.389 142.108 156.461 142.144 156.461 142.216L156.353 144.016C156.209 146.128 156.137 147.508 156.137 148.156C156.137 148.228 156.065 148.264 155.921 148.264C155.777 148.264 155.705 148.228 155.705 148.156C155.585 147.412 155.309 146.716 154.877 146.068C154.445 145.396 153.929 144.868 153.329 144.484C152.753 144.076 152.165 143.872 151.565 143.872C150.989 143.872 150.605 144.028 150.413 144.34C150.221 144.628 150.125 145.204 150.125 146.068V157.084C150.125 157.804 150.185 158.344 150.305 158.704C150.449 159.04 150.701 159.268 151.061 159.388C151.421 159.508 151.997 159.568 152.789 159.568C152.861 159.568 152.897 159.64 152.897 159.784C152.897 159.928 152.861 160 152.789 160C151.997 160 151.373 159.988 150.917 159.964L148.217 159.928L145.589 159.964C145.133 159.988 144.485 160 143.645 160C143.597 160 143.573 159.928 143.573 159.784C143.573 159.64 143.597 159.568 143.645 159.568C144.461 159.568 145.049 159.508 145.409 159.388C145.793 159.268 146.045 159.04 146.165 158.704C146.309 158.344 146.381 157.804 146.381 157.084V145.996C146.381 145.108 146.297 144.532 146.129 144.268C145.961 144.004 145.577 143.872 144.977 143.872ZM44.49 204.432C41.754 204.432 39.378 203.928 37.362 202.92C35.346 201.888 33.798 200.496 32.718 198.744C31.638 196.992 31.098 195.048 31.098 192.912C31.098 190.632 31.698 188.592 32.898 186.792C34.122 184.992 35.802 183.6 37.938 182.616C40.074 181.608 42.474 181.104 45.138 181.104C46.29 181.104 47.442 181.2 48.594 181.392C49.746 181.56 50.67 181.788 51.366 182.076C51.63 182.172 51.774 182.256 51.798 182.328C51.846 182.376 51.882 182.568 51.906 182.904L52.374 187.908C52.374 187.98 52.302 188.028 52.158 188.052C52.038 188.076 51.966 188.04 51.942 187.944C51.63 187.152 51.126 186.288 50.43 185.352C49.734 184.416 48.822 183.6 47.694 182.904C46.566 182.208 45.258 181.86 43.77 181.86C42.234 181.86 40.83 182.28 39.558 183.12C38.286 183.96 37.278 185.16 36.534 186.72C35.814 188.28 35.454 190.092 35.454 192.156C35.454 194.412 35.874 196.428 36.714 198.204C37.578 199.98 38.766 201.36 40.278 202.344C41.79 203.328 43.494 203.82 45.39 203.82C46.374 203.82 47.13 203.712 47.658 203.496C48.186 203.28 48.57 202.86 48.81 202.236C49.05 201.612 49.17 200.688 49.17 199.464C49.17 198.216 49.098 197.352 48.954 196.872C48.81 196.368 48.498 196.032 48.018 195.864C47.562 195.696 46.746 195.612 45.57 195.612C45.426 195.612 45.354 195.516 45.354 195.324C45.354 195.252 45.366 195.192 45.39 195.144C45.438 195.072 45.486 195.036 45.534 195.036C47.574 195.156 49.23 195.216 50.502 195.216C51.726 195.216 52.998 195.18 54.318 195.108C54.414 195.108 54.462 195.192 54.462 195.36C54.486 195.528 54.438 195.612 54.318 195.612C53.886 195.588 53.574 195.672 53.382 195.864C53.214 196.032 53.106 196.392 53.058 196.944C53.01 197.496 52.986 198.456 52.986 199.824C52.986 200.904 53.022 201.672 53.094 202.128C53.19 202.584 53.238 202.872 53.238 202.992C53.238 203.136 53.214 203.232 53.166 203.28C53.118 203.328 53.01 203.376 52.842 203.424C49.746 204.096 46.962 204.432 44.49 204.432ZM62.146 195.396H68.734L68.986 196.332H61.606L62.146 195.396ZM75.718 203.568C75.838 203.568 75.898 203.64 75.898 203.784C75.898 203.928 75.838 204 75.718 204C75.214 204 74.458 203.976 73.45 203.928C72.394 203.88 71.65 203.856 71.218 203.856C70.81 203.856 70.174 203.88 69.31 203.928C68.494 203.976 67.918 204 67.582 204C67.486 204 67.438 203.928 67.438 203.784C67.438 203.64 67.486 203.568 67.582 203.568C68.134 203.568 68.518 203.508 68.734 203.388C68.974 203.244 69.094 203.04 69.094 202.776C69.094 202.44 68.89 201.84 68.482 200.976L63.91 191.148L65.494 188.376L60.778 199.572C60.346 200.58 60.13 201.372 60.13 201.948C60.13 202.524 60.334 202.944 60.742 203.208C61.15 203.448 61.786 203.568 62.65 203.568C62.77 203.568 62.83 203.64 62.83 203.784C62.83 203.928 62.77 204 62.65 204C62.314 204 61.834 203.976 61.21 203.928C60.538 203.88 59.914 203.856 59.338 203.856C58.738 203.856 58.03 203.88 57.214 203.928C56.494 203.976 55.906 204 55.45 204C55.33 204 55.27 203.928 55.27 203.784C55.27 203.64 55.33 203.568 55.45 203.568C56.194 203.568 56.794 203.46 57.25 203.244C57.706 203.028 58.126 202.62 58.51 202.02C58.918 201.42 59.386 200.496 59.914 199.248L65.314 186.612C65.362 186.516 65.434 186.468 65.53 186.468C65.626 186.468 65.698 186.516 65.746 186.612L71.506 199.068C72.106 200.364 72.598 201.324 72.982 201.948C73.39 202.572 73.798 203.004 74.206 203.244C74.614 203.46 75.118 203.568 75.718 203.568ZM82.4739 200.94C82.4739 201.588 82.5339 202.068 82.6539 202.38C82.7739 202.692 83.0019 202.92 83.3379 203.064C83.6979 203.184 84.2259 203.244 84.9219 203.244H85.3179C86.6859 203.244 87.9339 202.8 89.0619 201.912C90.1899 201.024 91.0179 199.824 91.5459 198.312C91.5699 198.264 91.6419 198.252 91.7619 198.276C91.9059 198.276 91.9779 198.3 91.9779 198.348C91.8099 199.62 91.7259 201.324 91.7259 203.46C91.7259 203.652 91.6779 203.796 91.5819 203.892C91.5099 203.964 91.3659 204 91.1499 204H76.7499C76.7019 204 76.6779 203.928 76.6779 203.784C76.6779 203.64 76.7019 203.568 76.7499 203.568C77.3739 203.568 77.8299 203.508 78.1179 203.388C78.4059 203.268 78.5979 203.04 78.6939 202.704C78.8139 202.344 78.8739 201.804 78.8739 201.084V190.068C78.8739 189.348 78.8139 188.82 78.6939 188.484C78.5979 188.148 78.4059 187.92 78.1179 187.8C77.8299 187.656 77.3739 187.584 76.7499 187.584C76.7019 187.584 76.6779 187.512 76.6779 187.368C76.6779 187.224 76.7019 187.152 76.7499 187.152L78.5139 187.188C79.5219 187.236 80.3019 187.26 80.8539 187.26C81.4779 187.26 82.2939 187.236 83.3019 187.188L84.9579 187.152C85.0299 187.152 85.0659 187.224 85.0659 187.368C85.0659 187.512 85.0299 187.584 84.9579 187.584C84.2379 187.584 83.6979 187.656 83.3379 187.8C83.0019 187.92 82.7739 188.16 82.6539 188.52C82.5339 188.856 82.4739 189.384 82.4739 190.104V200.94ZM99.3138 200.94C99.3138 201.588 99.3738 202.068 99.4938 202.38C99.6138 202.692 99.8418 202.92 100.178 203.064C100.538 203.184 101.066 203.244 101.762 203.244H102.158C103.526 203.244 104.774 202.8 105.902 201.912C107.03 201.024 107.858 199.824 108.386 198.312C108.41 198.264 108.482 198.252 108.602 198.276C108.746 198.276 108.818 198.3 108.818 198.348C108.65 199.62 108.566 201.324 108.566 203.46C108.566 203.652 108.518 203.796 108.422 203.892C108.35 203.964 108.206 204 107.99 204H93.5898C93.5418 204 93.5178 203.928 93.5178 203.784C93.5178 203.64 93.5418 203.568 93.5898 203.568C94.2138 203.568 94.6698 203.508 94.9578 203.388C95.2458 203.268 95.4378 203.04 95.5338 202.704C95.6538 202.344 95.7138 201.804 95.7138 201.084V190.068C95.7138 189.348 95.6538 188.82 95.5338 188.484C95.4378 188.148 95.2458 187.92 94.9578 187.8C94.6698 187.656 94.2138 187.584 93.5898 187.584C93.5418 187.584 93.5178 187.512 93.5178 187.368C93.5178 187.224 93.5418 187.152 93.5898 187.152L95.3538 187.188C96.3618 187.236 97.1418 187.26 97.6938 187.26C98.3178 187.26 99.1338 187.236 100.142 187.188L101.798 187.152C101.87 187.152 101.906 187.224 101.906 187.368C101.906 187.512 101.87 187.584 101.798 187.584C101.078 187.584 100.538 187.656 100.178 187.8C99.8418 187.92 99.6138 188.16 99.4938 188.52C99.3738 188.856 99.3138 189.384 99.3138 190.104V200.94ZM110.43 204C110.382 204 110.358 203.928 110.358 203.784C110.358 203.64 110.382 203.568 110.43 203.568C111.126 203.568 111.63 203.508 111.942 203.388C112.254 203.268 112.47 203.04 112.59 202.704C112.71 202.344 112.77 201.804 112.77 201.084V190.068C112.77 189.348 112.71 188.82 112.59 188.484C112.47 188.148 112.242 187.92 111.906 187.8C111.594 187.656 111.102 187.584 110.43 187.584C110.382 187.584 110.358 187.512 110.358 187.368C110.358 187.224 110.382 187.152 110.43 187.152H123.318C123.558 187.152 123.678 187.248 123.678 187.44L123.714 189.672C123.738 190.128 123.75 190.704 123.75 191.4C123.75 191.472 123.678 191.508 123.534 191.508C123.414 191.508 123.342 191.472 123.318 191.4C122.862 190.344 122.166 189.456 121.23 188.736C120.294 187.992 119.346 187.62 118.386 187.62H118.134C117.606 187.62 117.21 187.692 116.946 187.836C116.706 187.956 116.538 188.184 116.442 188.52C116.37 188.856 116.334 189.384 116.334 190.104V200.94C116.334 201.66 116.37 202.188 116.442 202.524C116.538 202.86 116.706 203.1 116.946 203.244C117.21 203.364 117.606 203.424 118.134 203.424H118.53C119.658 203.424 120.774 203.028 121.878 202.236C122.982 201.42 123.798 200.412 124.326 199.212C124.374 199.14 124.458 199.104 124.578 199.104C124.698 199.104 124.758 199.14 124.758 199.212C124.59 200.94 124.506 202.356 124.506 203.46C124.506 203.652 124.47 203.796 124.398 203.892C124.326 203.964 124.182 204 123.966 204H110.43ZM121.842 196.296C121.722 196.296 121.134 196.224 120.078 196.08C119.046 195.936 117.27 195.864 114.75 195.864V194.964C117.27 194.964 119.046 194.904 120.078 194.784C121.134 194.64 121.722 194.568 121.842 194.568C122.01 194.568 122.094 194.832 122.094 195.36C122.094 195.6 122.07 195.816 122.022 196.008C121.974 196.2 121.914 196.296 121.842 196.296ZM135.409 203.568C135.457 203.568 135.481 203.64 135.481 203.784C135.481 203.928 135.457 204 135.409 204C134.689 204 134.125 203.988 133.717 203.964L131.269 203.928L128.929 203.964C128.497 203.988 127.897 204 127.129 204C127.081 204 127.057 203.928 127.057 203.784C127.057 203.64 127.081 203.568 127.129 203.568C127.801 203.568 128.293 203.508 128.605 203.388C128.917 203.268 129.133 203.04 129.253 202.704C129.373 202.344 129.433 201.804 129.433 201.084V190.068C129.433 189.348 129.373 188.82 129.253 188.484C129.157 188.148 128.953 187.92 128.641 187.8C128.329 187.656 127.849 187.584 127.201 187.584C127.129 187.584 127.093 187.512 127.093 187.368C127.093 187.224 127.129 187.152 127.201 187.152L128.965 187.188C129.925 187.236 130.693 187.26 131.269 187.26C131.725 187.26 132.145 187.248 132.529 187.224C132.913 187.2 133.249 187.176 133.537 187.152C134.329 187.08 135.073 187.044 135.769 187.044C137.641 187.044 139.069 187.344 140.053 187.944C141.037 188.544 141.529 189.408 141.529 190.536C141.529 191.52 141.181 192.432 140.485 193.272C139.813 194.112 138.877 194.784 137.677 195.288C136.501 195.768 135.205 196.008 133.789 196.008C133.021 196.008 132.361 195.96 131.809 195.864L131.773 195.072C132.373 195.24 133.129 195.324 134.041 195.324C135.409 195.324 136.357 195.012 136.885 194.388C137.413 193.74 137.677 192.78 137.677 191.508C137.677 189.012 136.765 187.764 134.941 187.764C134.437 187.764 134.065 187.824 133.825 187.944C133.585 188.064 133.417 188.292 133.321 188.628C133.225 188.94 133.177 189.444 133.177 190.14V201.084C133.177 201.828 133.225 202.368 133.321 202.704C133.441 203.04 133.645 203.268 133.933 203.388C134.245 203.508 134.737 203.568 135.409 203.568ZM146.425 203.568C146.497 203.568 146.533 203.64 146.533 203.784C146.533 203.928 146.497 204 146.425 204H140.521C140.161 204 139.501 203.256 138.541 201.768C137.581 200.256 136.453 198.216 135.157 195.648L138.037 194.892C139.357 197.124 140.485 198.864 141.421 200.112C142.381 201.36 143.245 202.248 144.013 202.776C144.805 203.304 145.609 203.568 146.425 203.568ZM158.624 190.788C158.984 190.14 159.164 189.564 159.164 189.06C159.164 188.604 159.008 188.244 158.696 187.98C158.408 187.716 157.952 187.584 157.328 187.584C157.256 187.584 157.22 187.512 157.22 187.368C157.22 187.224 157.256 187.152 157.328 187.152L159.056 187.188C160.016 187.236 160.892 187.26 161.684 187.26C161.972 187.26 162.332 187.236 162.764 187.188L163.628 187.152C163.7 187.152 163.736 187.224 163.736 187.368C163.736 187.512 163.7 187.584 163.628 187.584C162.164 187.584 160.832 188.664 159.632 190.824L156.068 197.232L155.276 196.944L158.624 190.788ZM149.192 190.14C148.616 189.228 148.064 188.58 147.536 188.196C147.032 187.788 146.504 187.584 145.952 187.584C145.88 187.584 145.844 187.512 145.844 187.368C145.844 187.224 145.88 187.152 145.952 187.152L147.284 187.188L148.724 187.26C149.444 187.26 150.572 187.236 152.108 187.188L154.376 187.152C154.424 187.152 154.448 187.224 154.448 187.368C154.448 187.512 154.424 187.584 154.376 187.584C153.2 187.584 152.612 187.884 152.612 188.484C152.612 188.772 152.768 189.144 153.08 189.6L156.896 195.54L153.728 197.196L149.192 190.14ZM156.896 195.468V201.084C156.896 201.828 156.956 202.368 157.076 202.704C157.196 203.04 157.436 203.268 157.796 203.388C158.156 203.508 158.744 203.568 159.56 203.568C159.608 203.568 159.632 203.64 159.632 203.784C159.632 203.928 159.608 204 159.56 204C158.768 204 158.144 203.988 157.688 203.964L154.988 203.928L152.432 203.964C151.952 203.988 151.292 204 150.452 204C150.38 204 150.344 203.928 150.344 203.784C150.344 203.64 150.38 203.568 150.452 203.568C151.244 203.568 151.82 203.508 152.18 203.388C152.564 203.268 152.816 203.04 152.936 202.704C153.08 202.344 153.152 201.804 153.152 201.084V195.792L156.896 195.468Z" fill="#F1C57C"/>
<defs>
<radialGradient id="paint0_radial_6508_2227" cx="0" cy="0" r="1" gradientUnits="userSpaceOnUse" gradientTransform="translate(95.5 160) rotate(90) scale(77.5 116)">
<stop stop-color="#4C331F"/>
<stop offset="0.9999" stop-color="#261B12"/>
</radialGradient>
</defs>
</svg>
