<svg width="111" height="170" viewBox="0 0 111 170" fill="none" xmlns="http://www.w3.org/2000/svg">
<path d="M54.9352 0C57.8094 1.64158 60.2729 3.99614 60.9794 6.91372C60.9934 7.02209 61.0073 7.13045 61.0217 7.2421C61.1751 7.13081 61.3285 7.01951 61.4866 6.90485C62.0904 6.46686 62.6245 6.18787 63.4415 6.20371C63.986 6.26851 64.1915 6.35324 64.5781 6.68852C66.1373 8.61815 66.2986 11.137 65.8098 13.392C65.6954 13.8095 65.5716 14.2179 65.4175 14.6262C65.9613 14.8278 66.3965 14.9494 66.9919 14.9457C67.1098 14.9464 67.2277 14.9472 67.3492 14.9479C67.8212 14.9165 67.8212 14.9165 68.4099 14.7715C69.1856 14.6008 69.9444 14.5637 70.7431 14.5375C70.8822 14.532 71.0212 14.5265 71.1645 14.5208C71.503 14.5076 71.8416 14.4958 72.1802 14.4842C72.534 13.4942 72.75 12.7015 72.233 11.7418C71.9113 11.2582 71.6217 11.0046 70.9967 10.7922C70.3174 10.6495 69.8134 10.6418 69.137 10.7922C69.1928 10.8829 69.2486 10.9737 69.306 11.0673C69.5314 11.647 69.5846 12.1759 69.4751 12.7802C69.2109 13.0731 69.2109 13.0731 68.7988 13.2062C68.1358 13.2771 67.7533 13.2682 67.161 13.0021C66.4733 12.362 66.0598 11.627 66.0303 10.7567C66.1488 9.76186 66.5323 9.37214 67.4311 8.74422C68.79 7.88234 70.2004 7.88526 71.8421 7.95211C72.3271 8.01098 72.7235 8.10649 73.1946 8.23612C73.3934 8.28883 73.5921 8.34155 73.7969 8.39587C74.7614 8.83774 75.3327 9.4756 75.8892 10.2596C76.3049 11.492 76.1879 12.5025 75.4579 13.6239C75.2358 13.9008 75.0004 14.1107 74.7162 14.3422C74.869 14.3667 74.869 14.3667 75.0249 14.3916C78.05 14.8852 80.9967 15.4637 83.5078 17.0402C83.6303 17.1157 83.7528 17.1911 83.879 17.2688C85.1693 18.1341 86.3026 19.4798 86.5511 20.8743C86.566 21.3867 86.5459 21.8987 86.5314 22.411C86.5201 23.2616 86.6351 23.7387 87.2273 24.4243C88.1402 25.1911 89.4659 25.7154 90.7566 25.7467C91.3688 25.7415 91.6023 25.7121 92.1515 25.4539C92.5406 25.1309 92.5406 25.1309 92.4685 24.5663C92.3185 24.5341 92.1686 24.5019 92.0141 24.4687C91.3599 24.251 91.0383 24.0393 90.6087 23.5723C90.503 23.1375 90.503 23.1375 90.6087 22.7203C90.9046 22.3831 90.9046 22.3831 91.454 22.1523C92.515 22.027 93.6003 22.0327 94.5382 22.5073C95.3466 23.0867 95.7811 23.748 95.9357 24.6301C95.9958 26.1875 95.519 27.1582 94.2912 28.2972C93.4454 28.9859 92.5504 29.3404 91.3801 29.4477C89.8625 29.3135 88.8796 28.8043 87.7345 27.9744C88.2658 28.5774 88.806 29.1716 89.365 29.7567C95.7898 36.518 100.407 44.6385 103.627 52.8247C103.686 52.9744 103.746 53.124 103.807 53.2781C104.596 55.269 105.325 57.2619 105.929 59.298C106.098 59.8687 106.289 60.4322 106.487 60.9965C106.857 62.0764 107.154 63.1666 107.44 64.2642C107.526 64.592 107.613 64.9196 107.7 65.2471C108.18 67.0685 108.624 68.8966 108.942 70.7436C108.962 70.8607 108.983 70.9777 109.004 71.0984C109.048 71.3553 109.092 71.6123 109.136 71.8693C109.21 72.2985 109.287 72.7272 109.365 73.156C111.178 83.4045 111.338 93.841 110.231 104.15C110.218 104.276 110.204 104.402 110.191 104.532C109.991 106.382 109.705 108.215 109.375 110.052C109.34 110.252 109.305 110.452 109.269 110.653C108.336 115.9 107.207 121.185 105.256 126.243C105.154 126.51 105.056 126.779 104.958 127.047C104.746 127.632 104.526 128.214 104.303 128.796C104.247 128.944 104.19 129.092 104.132 129.245C102.715 132.937 101.094 136.534 99.116 140.043C98.9002 140.427 98.6884 140.813 98.4777 141.2C97.4399 143.088 96.2595 144.896 95.0045 146.688C94.9067 146.828 94.8089 146.967 94.7082 147.111C93.4338 148.921 92.1011 150.679 90.6087 152.368C90.52 152.469 90.4314 152.569 90.34 152.673C89.0868 154.088 87.776 155.452 86.382 156.77C86.2351 156.91 86.0882 157.049 85.9369 157.192C84.2123 158.799 82.428 160.397 80.3972 161.733C80.0979 161.931 79.8047 162.136 79.5175 162.347C75.9534 164.956 71.7071 166.921 67.2772 168.272C67.1537 168.311 67.0301 168.351 66.9028 168.391C64.0369 169.295 60.878 169.935 57.8094 169.976C57.6622 169.98 57.5149 169.983 57.3633 169.987C50.7767 170.132 44.6893 169.049 38.8737 166.426C38.7135 166.356 38.7135 166.356 38.5502 166.284C35.6665 165.014 33.0143 163.42 30.5893 161.598C30.4448 161.491 30.3003 161.383 30.1515 161.273C29.7312 160.958 29.3149 160.639 28.8986 160.32C28.6561 160.139 28.6561 160.139 28.4086 159.954C27.2899 159.113 26.2474 158.23 25.2528 157.285C25.0016 157.046 24.7479 156.809 24.4943 156.573C18.5852 151.007 14.0723 144.3 10.6392 137.458C10.5503 137.282 10.4615 137.105 10.3726 136.929C10.0969 136.381 9.82356 135.832 9.55084 135.284C9.46692 135.115 9.383 134.947 9.29654 134.773C8.85078 133.868 8.44591 132.96 8.08639 132.028C7.94869 131.673 7.80281 131.323 7.6508 130.973C6.89594 129.228 6.28709 127.461 5.70709 125.67C5.57936 125.283 5.44607 124.897 5.30893 124.512C2.48078 116.55 1.08164 108.109 0.495099 99.8274C0.487992 99.7332 0.480885 99.6389 0.473563 99.5419C0.286736 97.0091 0.285309 94.4739 0.283763 91.9374C0.283613 91.825 0.283463 91.7126 0.283309 91.5967C0.278998 87.9335 0.405818 84.3021 0.803847 80.6522C0.845469 80.257 0.879292 79.8614 0.912487 79.4657C1.06307 77.729 1.32395 76.003 1.58348 74.2759C1.60098 74.1584 1.61848 74.0408 1.63651 73.9197C1.86938 72.3659 2.16385 70.8336 2.52392 69.297C2.60086 68.952 2.67748 68.607 2.75375 68.2619C3.65254 64.2582 4.71042 60.2947 6.19188 56.4119C6.51136 55.5743 6.81298 54.7331 7.10991 53.8898C7.45863 52.9052 7.83544 51.9385 8.27226 50.9787C8.33481 50.8323 8.39736 50.6858 8.4618 50.535C11.6751 43.1031 15.976 35.0606 22.3717 29.1631C23.0854 28.5427 23.0854 28.5427 23.328 27.7442C23.2439 27.4231 23.14 27.1383 22.9812 26.8384C22.9071 26.9207 22.833 27.0031 22.7567 27.088C21.7486 28.1309 20.6029 28.6876 19.0927 29.1104C17.6643 29.1917 16.7091 28.9454 15.595 28.1785C14.4671 27.2917 13.9267 26.2395 13.8093 24.9569C13.8942 23.887 14.2767 23.0378 15.2041 22.2943C16.1644 21.8104 17.1406 21.7206 18.2473 21.8683C18.7567 22.0568 18.9048 22.1953 19.2617 22.5783C19.305 23.1594 19.1436 23.3768 18.7122 23.8297C18.2447 24.1421 17.9882 24.2401 17.402 24.2823C17.447 24.699 17.447 24.699 17.571 25.1344C18.3018 25.5436 18.9111 25.4981 19.7689 25.4184C20.9264 25.1843 22.0642 24.8093 22.8122 23.9983C23.2959 23.2337 23.3661 22.6854 23.3088 21.8328C23.2587 20.164 23.8249 18.9833 25.1791 17.7502C25.2846 17.654 25.3901 17.5577 25.4988 17.4585C27.9763 15.4173 31.8113 14.6287 35.1542 14.3422C35.0849 14.2496 35.0156 14.157 34.9442 14.0615C34.1535 12.9844 33.5963 12.0827 33.8016 10.7922C34.1537 9.82357 34.7476 9.00927 35.7354 8.41362C37.326 7.7619 39.4106 7.49561 41.1158 7.96043C42.1886 8.37758 43.238 8.88102 43.7767 9.79814C43.9879 10.7185 43.886 11.5941 43.315 12.4074C42.8616 12.8949 42.3666 13.1544 41.6528 13.2861C41.0217 13.1638 40.7777 12.9275 40.3953 12.4962C40.3047 11.8655 40.3107 11.6087 40.7334 11.0762C40.7334 10.9356 40.7334 10.795 40.7334 10.6502C39.5804 10.5443 39.5804 10.5443 38.4986 10.8199C37.8676 11.2668 37.4021 11.6956 37.3072 12.4063C37.3124 13.1077 37.3606 13.6848 37.6902 14.3422C37.882 14.3334 38.0738 14.3246 38.2714 14.3156C39.092 14.3145 39.875 14.4182 40.6806 14.5375C40.8643 14.5643 40.8643 14.5643 41.0517 14.5917C41.5998 14.6763 42.1018 14.7728 42.6295 14.928C43.121 15.0577 43.4203 15.0631 43.9246 14.999C44.0567 14.9832 44.1888 14.9675 44.3248 14.9513C44.4229 14.9377 44.521 14.9242 44.622 14.9102C44.57 14.751 44.57 14.751 44.517 14.5885C44.4715 14.4486 44.4259 14.3088 44.379 14.1647C44.3113 13.9571 44.3113 13.9571 44.2423 13.7453C44.2002 13.6143 44.1582 13.4832 44.1148 13.3482C44.0851 13.2602 44.0554 13.1722 44.0248 13.0815C43.5127 11.1305 43.8454 8.86538 45.0553 7.15335C45.3244 6.8139 45.6002 6.50974 45.9746 6.24809C47.0615 6.14158 47.6151 6.29991 48.5106 6.8161C48.6828 6.95541 48.8527 7.09681 49.0178 7.2421C49.0265 7.16595 49.0352 7.08981 49.0442 7.01135C49.4055 4.91458 50.8141 3.29001 52.5682 1.84603C52.7093 1.7243 52.8503 1.60257 52.9955 1.47715C53.6113 0.947929 54.2259 0.441985 54.9352 0ZM49.8632 25.5604C49.7038 25.5899 49.5445 25.6195 49.3803 25.65C43.8255 26.7503 38.8619 29.4832 34.816 32.8025C34.6951 32.9011 34.5742 32.9997 34.4497 33.1014C32.9615 34.3195 31.5132 35.5311 30.2512 36.9205C30.1289 37.0476 30.0067 37.1746 29.8807 37.3055C28.4129 38.8531 27.1354 40.5154 25.8554 42.1746C25.7789 42.2738 25.7024 42.373 25.6235 42.4752C22.3286 46.7965 19.5746 51.7627 17.7355 56.6516C17.5829 57.0536 17.4122 57.4452 17.2329 57.8392C16.794 58.838 16.4809 59.8675 16.1498 60.8942C16.0082 61.3296 15.86 61.7632 15.7113 62.1969C15.6604 62.3465 15.6095 62.4961 15.5571 62.6503C15.4643 62.923 15.3715 63.1957 15.2774 63.4681C14.7152 65.0964 14.2514 66.7284 13.8621 68.3917C13.8336 68.5125 13.8051 68.6333 13.7757 68.7577C11.3232 79.1997 10.4839 89.9129 11.4584 100.531C11.4848 100.825 11.5096 101.118 11.534 101.412C12.1296 108.518 13.6038 115.666 16.0895 122.478C16.2004 122.782 16.3086 123.087 16.4153 123.393C17.6124 126.738 19.0959 130.007 20.7833 133.198C20.9039 133.428 20.9039 133.428 21.027 133.663C22.2053 135.904 23.5169 138.051 25.0101 140.156C25.0836 140.26 25.1572 140.364 25.233 140.472C27.3115 143.394 29.7113 146.151 32.4563 148.656C32.7563 148.932 33.0411 149.215 33.3261 149.501C38.602 154.551 46.3663 157.974 54.3173 158.454C55.031 158.486 55.7424 158.483 56.4568 158.474C56.6292 158.474 56.8016 158.473 56.9792 158.473C62.8645 158.27 68.4416 156.076 73.0256 153.078C73.1759 152.982 73.3263 152.886 73.4813 152.787C76.0647 151.102 78.4385 149.124 80.4646 146.972C80.6141 146.821 80.764 146.671 80.9143 146.521C84.033 143.375 86.6456 139.762 88.737 136.069C88.9439 135.709 89.1584 135.352 89.373 134.996C90.6966 132.77 91.7676 130.49 92.7953 128.16C93.0285 127.632 93.2701 127.108 93.5232 126.587C93.7846 126.044 93.9997 125.499 94.1908 124.935C94.2615 124.728 94.3322 124.522 94.4028 124.315C94.443 124.197 94.4831 124.079 94.5244 123.957C94.6944 123.46 94.8676 122.963 95.0408 122.467C95.1427 122.174 95.2446 121.882 95.3464 121.589C95.4134 121.397 95.4805 121.204 95.5477 121.012C96.0955 119.442 96.6195 117.876 96.9593 116.264C97.0759 115.713 97.1994 115.173 97.3655 114.632C97.5952 113.88 97.7323 113.116 97.8787 112.35C98.0677 111.372 98.2634 110.396 98.4764 109.421C98.9965 107.015 99.2833 104.589 99.5342 102.154C99.5594 101.911 99.585 101.669 99.611 101.427C99.8503 99.1866 99.9817 96.9559 100.024 94.7065C100.029 94.4681 100.029 94.4681 100.033 94.2248C100.268 82.1762 98.626 69.9867 85.1985 42.0326C85.1256 41.9367 85.0527 41.8408 84.9776 41.7421C82.672 38.7303 80.0381 35.9496 77.0832 33.3705C76.9564 33.2581 76.8295 33.1457 76.6988 33.0299C75.8224 32.2698 74.8575 31.6127 73.8709 30.9564C73.7116 30.847 73.5523 30.7375 73.3881 30.6247C70.815 28.8969 68.0264 27.5422 64.9576 26.5392C64.6248 26.4297 64.295 26.3137 63.9659 26.1966C61.1965 25.2645 58.2256 25.0817 55.2733 25.0722C55.101 25.0709 55.101 25.0709 54.9251 25.0696C53.1783 25.061 51.5597 25.244 49.8632 25.5604Z" fill="#A97240"/>
<path d="M54.9352 0C57.8094 1.64158 60.2729 3.99614 60.9794 6.91372C60.9934 7.02209 61.0073 7.13045 61.0217 7.2421C61.1751 7.13081 61.3285 7.01951 61.4866 6.90485C62.0904 6.46686 62.6245 6.18787 63.4415 6.20371C63.986 6.26851 64.1915 6.35324 64.5781 6.68852C66.1373 8.61815 66.2986 11.137 65.8098 13.392C65.6954 13.8095 65.5716 14.2179 65.4175 14.6262C65.9613 14.8278 66.3965 14.9494 66.9919 14.9457C67.1098 14.9464 67.2277 14.9472 67.3492 14.9479C67.8212 14.9165 67.8212 14.9165 68.4099 14.7715C69.1856 14.6008 69.9444 14.5637 70.7431 14.5375C70.8822 14.532 71.0212 14.5265 71.1645 14.5208C71.503 14.5076 71.8416 14.4958 72.1802 14.4842C72.534 13.4942 72.75 12.7015 72.233 11.7418C71.9113 11.2582 71.6217 11.0046 70.9967 10.7922C70.3174 10.6495 69.8134 10.6418 69.137 10.7922C69.1928 10.8829 69.2486 10.9737 69.306 11.0673C69.5314 11.647 69.5846 12.1759 69.4751 12.7802C69.2109 13.0731 69.2109 13.0731 68.7988 13.2062C68.1358 13.2771 67.7533 13.2682 67.161 13.0021C66.4733 12.362 66.0598 11.627 66.0303 10.7567C66.1488 9.76186 66.5323 9.37214 67.4311 8.74422C68.79 7.88234 70.2004 7.88526 71.8421 7.95211C72.3271 8.01098 72.7235 8.10649 73.1946 8.23612C73.3934 8.28883 73.5921 8.34155 73.7969 8.39587C74.7614 8.83774 75.3327 9.4756 75.8892 10.2596C76.3049 11.492 76.1879 12.5025 75.4579 13.6239C75.2358 13.9008 75.0004 14.1107 74.7162 14.3422C74.869 14.3667 74.869 14.3667 75.0249 14.3916C78.05 14.8852 80.9967 15.4637 83.5078 17.0402C83.6303 17.1157 83.7528 17.1911 83.879 17.2688C85.1693 18.1341 86.3026 19.4798 86.5511 20.8743C86.566 21.3867 86.5459 21.8987 86.5314 22.411C86.5201 23.2616 86.6351 23.7387 87.2273 24.4243C88.1402 25.1911 89.4659 25.7154 90.7566 25.7467C91.3688 25.7415 91.6023 25.7121 92.1515 25.4539C92.5406 25.1309 92.5406 25.1309 92.4685 24.5663C92.3185 24.5341 92.1686 24.5019 92.0141 24.4687C91.3599 24.251 91.0383 24.0393 90.6087 23.5723C90.503 23.1375 90.503 23.1375 90.6087 22.7203C90.9046 22.3831 90.9046 22.3831 91.454 22.1523C92.515 22.027 93.6003 22.0327 94.5382 22.5073C95.3466 23.0867 95.7811 23.748 95.9357 24.6301C95.9958 26.1875 95.519 27.1582 94.2912 28.2972C93.4454 28.9859 92.5504 29.3404 91.3801 29.4477C89.8625 29.3135 88.8796 28.8043 87.7345 27.9744C88.2658 28.5774 88.806 29.1716 89.365 29.7567C95.7898 36.518 100.407 44.6385 103.627 52.8247C103.686 52.9744 103.746 53.124 103.807 53.2781C104.596 55.269 105.325 57.2619 105.929 59.298C106.098 59.8687 106.289 60.4322 106.487 60.9965C106.857 62.0764 107.154 63.1666 107.44 64.2642C107.526 64.592 107.613 64.9196 107.7 65.2471C108.18 67.0685 108.624 68.8966 108.942 70.7436C108.962 70.8607 108.983 70.9777 109.004 71.0984C109.048 71.3553 109.092 71.6123 109.136 71.8693C109.21 72.2985 109.287 72.7272 109.365 73.156C111.178 83.4045 111.338 93.841 110.231 104.15C110.218 104.276 110.204 104.402 110.191 104.532C109.991 106.382 109.705 108.215 109.375 110.052C109.34 110.252 109.305 110.452 109.269 110.653C108.336 115.9 107.207 121.185 105.256 126.243C105.154 126.51 105.056 126.779 104.958 127.047C104.746 127.632 104.526 128.214 104.303 128.796C104.247 128.944 104.19 129.092 104.132 129.245C102.715 132.937 101.094 136.534 99.116 140.043C98.9002 140.427 98.6884 140.813 98.4777 141.2C97.4399 143.088 96.2595 144.896 95.0045 146.688C94.9067 146.828 94.8089 146.967 94.7082 147.111C93.4338 148.921 92.1011 150.679 90.6087 152.368C90.52 152.469 90.4314 152.569 90.34 152.673C89.0868 154.088 87.776 155.452 86.382 156.77C86.2351 156.91 86.0882 157.049 85.9369 157.192C84.2123 158.799 82.428 160.397 80.3972 161.733C80.0979 161.931 79.8047 162.136 79.5175 162.347C75.9534 164.956 71.7071 166.921 67.2772 168.272C67.1537 168.311 67.0301 168.351 66.9028 168.391C64.0369 169.295 60.878 169.935 57.8094 169.976C57.6622 169.98 57.5149 169.983 57.3633 169.987C50.7767 170.132 44.6893 169.049 38.8737 166.426C38.7135 166.356 38.7135 166.356 38.5502 166.284C35.6665 165.014 33.0143 163.42 30.5893 161.598C30.4448 161.491 30.3003 161.383 30.1515 161.273C29.7312 160.958 29.3149 160.639 28.8986 160.32C28.6561 160.139 28.6561 160.139 28.4086 159.954C27.2899 159.113 26.2474 158.23 25.2528 157.285C25.0016 157.046 24.7479 156.809 24.4943 156.573C18.5852 151.007 14.0723 144.3 10.6392 137.458C10.5503 137.282 10.4615 137.105 10.3726 136.929C10.0969 136.381 9.82356 135.832 9.55084 135.284C9.46692 135.115 9.383 134.947 9.29654 134.773C8.85078 133.868 8.44591 132.96 8.08639 132.028C7.94869 131.673 7.80281 131.323 7.6508 130.973C6.89594 129.228 6.28709 127.461 5.70709 125.67C5.57936 125.283 5.44607 124.897 5.30893 124.512C2.48078 116.55 1.08164 108.109 0.495099 99.8274C0.487992 99.7332 0.480885 99.6389 0.473563 99.5419C0.286736 97.0091 0.285309 94.4739 0.283763 91.9374C0.283613 91.825 0.283463 91.7126 0.283309 91.5967C0.278998 87.9335 0.405818 84.3021 0.803847 80.6522C0.845469 80.257 0.879292 79.8614 0.912487 79.4657C1.06307 77.729 1.32395 76.003 1.58348 74.2759C1.60098 74.1584 1.61848 74.0408 1.63651 73.9197C1.86938 72.3659 2.16385 70.8336 2.52392 69.297C2.60086 68.952 2.67748 68.607 2.75375 68.2619C3.65254 64.2582 4.71042 60.2947 6.19188 56.4119C6.51136 55.5743 6.81298 54.7331 7.10991 53.8898C7.45863 52.9052 7.83544 51.9385 8.27226 50.9787C8.33481 50.8323 8.39736 50.6858 8.4618 50.535C11.6751 43.1031 15.976 35.0606 22.3717 29.1631C23.0854 28.5427 23.0854 28.5427 23.328 27.7442C23.2439 27.4231 23.14 27.1383 22.9812 26.8384C22.9071 26.9207 22.833 27.0031 22.7567 27.088C21.7486 28.1309 20.6029 28.6876 19.0927 29.1104C17.6643 29.1917 16.7091 28.9454 15.595 28.1785C14.4671 27.2917 13.9267 26.2395 13.8093 24.9569C13.8942 23.887 14.2767 23.0378 15.2041 22.2943C16.1644 21.8104 17.1406 21.7206 18.2473 21.8683C18.7567 22.0568 18.9048 22.1953 19.2617 22.5783C19.305 23.1594 19.1436 23.3768 18.7122 23.8297C18.2447 24.1421 17.9882 24.2401 17.402 24.2823C17.447 24.699 17.447 24.699 17.571 25.1344C18.3018 25.5436 18.9111 25.4981 19.7689 25.4184C20.9264 25.1843 22.0642 24.8093 22.8122 23.9983C23.2959 23.2337 23.3661 22.6854 23.3088 21.8328C23.2587 20.164 23.8249 18.9833 25.1791 17.7502C25.2846 17.654 25.3901 17.5577 25.4988 17.4585C27.9763 15.4173 31.8113 14.6287 35.1542 14.3422C35.0849 14.2496 35.0156 14.157 34.9442 14.0615C34.1535 12.9844 33.5963 12.0827 33.8016 10.7922C34.1537 9.82357 34.7476 9.00927 35.7354 8.41362C37.326 7.7619 39.4106 7.49561 41.1158 7.96043C42.1886 8.37758 43.238 8.88102 43.7767 9.79814C43.9879 10.7185 43.886 11.5941 43.315 12.4074C42.8616 12.8949 42.3666 13.1544 41.6528 13.2861C41.0217 13.1638 40.7777 12.9275 40.3953 12.4962C40.3047 11.8655 40.3107 11.6087 40.7334 11.0762C40.7334 10.9356 40.7334 10.795 40.7334 10.6502C39.5804 10.5443 39.5804 10.5443 38.4986 10.8199C37.8676 11.2668 37.4021 11.6956 37.3072 12.4063C37.3124 13.1077 37.3606 13.6848 37.6902 14.3422C37.882 14.3334 38.0738 14.3246 38.2714 14.3156C39.092 14.3145 39.875 14.4182 40.6806 14.5375C40.8643 14.5643 40.8643 14.5643 41.0517 14.5917C41.5998 14.6763 42.1018 14.7728 42.6295 14.928C43.121 15.0577 43.4203 15.0631 43.9246 14.999C44.0567 14.9832 44.1888 14.9675 44.3248 14.9513C44.4229 14.9377 44.521 14.9242 44.622 14.9102C44.57 14.751 44.57 14.751 44.517 14.5885C44.4715 14.4486 44.4259 14.3088 44.379 14.1647C44.3113 13.9571 44.3113 13.9571 44.2423 13.7453C44.2002 13.6143 44.1582 13.4832 44.1148 13.3482C44.0851 13.2602 44.0554 13.1722 44.0248 13.0815C43.5127 11.1305 43.8454 8.86538 45.0553 7.15335C45.3244 6.8139 45.6002 6.50974 45.9746 6.24809C47.0615 6.14158 47.6151 6.29991 48.5106 6.8161C48.6828 6.95541 48.8527 7.09681 49.0178 7.2421C49.0265 7.16595 49.0352 7.08981 49.0442 7.01135C49.4055 4.91458 50.8141 3.29001 52.5682 1.84603C52.7093 1.7243 52.8503 1.60257 52.9955 1.47715C53.6113 0.947929 54.2259 0.441985 54.9352 0ZM60.173 19.1409C59.6228 19.6559 59.6769 20.1654 59.687 20.8332C59.651 21.7754 59.0891 22.5593 58.2849 23.1996C56.9086 24.0746 55.4544 24.3146 53.7517 24.1403C52.6181 23.8935 51.6215 23.3352 50.8776 22.5783C50.3057 21.744 50.006 21.003 50.0217 20.04C50.0174 19.6557 50.0174 19.6557 49.8632 19.3123C49.252 18.8859 48.5789 18.6788 47.8343 18.4603C47.5434 18.3727 47.5434 18.3727 47.2465 18.2833C45.3725 17.7604 44.3493 17.9109 42.5932 18.6023C42.4705 18.6503 42.3479 18.6983 42.2215 18.7478C38.9296 20.0504 35.9555 21.6548 33.1254 23.5723C33.0264 23.6388 32.9275 23.7053 32.8255 23.7738C32.1146 24.2551 31.4325 24.7591 30.7584 25.2764C30.6187 25.3825 30.4791 25.4886 30.3352 25.5979C29.8685 25.9566 29.4095 26.3211 28.9515 26.6875C28.8036 26.8008 28.6558 26.9141 28.5035 27.0309C27.4194 27.9174 27.0669 28.709 26.8698 29.9624C26.7059 29.9097 26.542 29.857 26.3732 29.8027C25.8964 29.7523 25.7336 29.7903 25.3462 30.0373C24.9234 30.4213 24.5389 30.823 24.1647 31.2404C24.0823 31.332 23.9998 31.4236 23.9148 31.518C20.1818 35.7021 17.0157 40.1972 14.3951 44.9374C14.1722 45.3294 13.9361 45.7149 13.6996 46.1013C13.0978 47.1081 12.6047 48.1461 12.1186 49.1948C12.0713 49.2963 12.024 49.3978 11.9753 49.5023C9.45282 54.9237 7.38831 60.4943 6.03561 66.206C5.9313 66.6342 5.82309 67.0613 5.71258 67.4883C5.19804 69.4907 4.78807 71.4922 4.45765 73.5215C4.42033 73.747 4.42033 73.747 4.38226 73.9771C3.61163 78.6547 3.09795 83.3628 2.94614 88.0842C2.93603 88.3962 2.92501 88.7082 2.9139 89.0203C2.64022 96.986 3.40864 104.874 4.79182 112.746C4.81382 112.874 4.83581 113.001 4.85848 113.132C4.99074 113.871 5.17408 114.582 5.39809 115.306C5.46024 115.563 5.51933 115.821 5.57442 116.079C6.30395 119.422 7.22145 122.714 8.44133 125.956C8.56138 126.281 8.68117 126.607 8.8006 126.932C8.87971 127.146 8.87971 127.146 8.96042 127.364C9.13431 127.848 9.29494 128.335 9.45574 128.822C9.68716 129.508 9.95205 130.163 10.2822 130.819C10.4883 131.247 10.671 131.68 10.8525 132.116C11.3085 133.193 11.8013 134.258 12.3088 135.319C12.3536 135.413 12.3984 135.507 12.4445 135.603C13.0379 136.843 13.6333 138.077 14.3426 139.274C14.5788 139.674 14.8101 140.076 15.0423 140.478C18.0901 145.716 21.7637 150.684 26.3626 155.066C26.4713 155.17 26.5799 155.274 26.6919 155.38C27.668 156.302 28.6848 157.185 29.7228 158.057C29.8778 158.189 30.0328 158.321 30.1924 158.457C31.2296 159.33 32.3075 160.128 33.4635 160.888C33.594 160.974 33.7245 161.06 33.859 161.149C35.6612 162.32 37.5192 163.348 39.5171 164.267C39.8644 164.427 40.2087 164.592 40.5525 164.757C41.9583 165.424 43.3909 165.9 44.9242 166.319C45.3498 166.441 45.7679 166.576 46.1879 166.711C47.1747 167.014 48.1684 167.204 49.1974 167.376C49.3684 167.406 49.5394 167.436 49.7155 167.467C55.4912 168.457 62.6551 168.144 67.9826 165.913C68.3622 165.757 68.7392 165.616 69.1291 165.479C74.019 163.757 78.1271 161.028 81.9756 158.013C82.1527 157.874 82.1527 157.874 82.3333 157.733C83.0164 157.192 83.6507 156.63 84.2621 156.031C84.5794 155.72 84.91 155.42 85.2408 155.119C89.807 150.862 93.3239 145.825 96.357 140.724C96.4398 140.586 96.5226 140.448 96.6078 140.306C97.8917 138.158 98.9655 135.952 100.004 133.715C100.214 133.265 100.428 132.818 100.643 132.37C101.083 131.457 101.497 130.54 101.862 129.603C101.912 129.478 101.961 129.353 102.012 129.224C102.369 128.306 102.693 127.382 102.989 126.449C103.178 125.855 103.385 125.269 103.606 124.683C107.41 114.36 108.778 103.148 108.773 92.3812C108.773 92.2264 108.773 92.2264 108.773 92.0686C108.776 85.0418 108.073 78.0733 106.67 71.143C106.638 70.9812 106.638 70.9812 106.604 70.8162C106.038 68.035 105.448 65.2335 104.572 62.508C104.452 62.1343 104.337 61.7598 104.221 61.3854C103.694 59.6919 103.123 58.0114 102.507 56.3393C102.446 56.174 102.385 56.0086 102.323 55.8383C101.673 54.0966 100.924 52.3857 100.161 50.677C100.099 50.5377 100.038 50.3984 99.9742 50.2548C99.2361 48.5995 98.4082 46.9947 97.4877 45.4051C97.389 45.2343 97.2904 45.0635 97.1918 44.8927C96.9991 44.5595 96.8061 44.2264 96.6128 43.8935C96.4062 43.5373 96.2009 43.1806 95.9964 42.8236C93.1695 37.9284 89.5698 33.3874 85.3676 29.2524C84.8949 29.4069 84.4534 29.5671 84.0045 29.7672C83.5078 29.9624 83.5078 29.9624 82.8315 29.9624C82.6516 29.3258 82.4892 28.723 82.5046 28.0654C82.5229 27.1471 82.4326 26.5453 81.6821 25.8731C81.237 25.5138 80.7726 25.1791 80.2955 24.8503C80.1421 24.7398 79.9887 24.6292 79.8306 24.5153C79.3728 24.1927 78.9058 23.8823 78.4358 23.5723C78.255 23.4488 78.0745 23.3251 77.8942 23.2012C73.1047 19.9352 66.2387 15.8427 60.173 19.1409Z" fill="#DA905F"/>
<path d="M61.4817 22.9865C62.1204 23.1262 62.754 23.2773 63.3883 23.4303C63.7124 23.4984 64.0364 23.5664 64.3605 23.6344C65.3307 23.8601 66.2024 24.2004 67.1079 24.5663C67.3822 24.6721 67.6568 24.7777 67.9314 24.883C69.7236 25.576 71.418 26.299 73.0253 27.2643C73.1357 27.3306 73.2462 27.3969 73.36 27.4652C74.7876 28.3299 76.1319 29.2385 77.421 30.2463C77.6353 30.4008 77.8502 30.5546 78.0656 30.7079C79.5304 31.7806 80.9163 32.965 82.155 34.2224C82.2289 34.296 82.3028 34.3695 82.3789 34.4453C88.0334 40.0807 92.5224 46.9069 95.3582 53.8736C95.4795 54.1674 95.6191 54.4559 95.765 54.7417C96.8387 56.8459 97.5505 59.0692 98.2764 61.2713C98.385 61.6004 98.4942 61.9292 98.6035 62.2581C99.8229 65.9393 100.699 69.6455 101.429 73.415C101.462 73.5876 101.496 73.7603 101.53 73.9382C101.97 76.2662 102.236 78.6025 102.475 80.9499C102.489 81.0906 102.504 81.2312 102.518 81.3762C102.614 82.3194 102.701 83.2629 102.781 84.2071C102.791 84.3189 102.8 84.4308 102.81 84.546C103.01 87.0116 102.991 89.485 102.993 91.9551C102.993 92.0679 102.993 92.1807 102.993 92.2969C102.996 95.9101 102.903 99.4974 102.476 103.096C102.446 103.357 102.417 103.618 102.388 103.879C102.271 104.947 102.112 106.007 101.936 107.069C101.899 107.299 101.862 107.528 101.825 107.758C100.96 113.102 99.6709 118.36 97.8784 123.542C97.8421 123.647 97.8059 123.753 97.7686 123.862C97.2149 125.459 96.5278 127.017 95.8395 128.576C95.7024 128.888 95.5674 129.2 95.4335 129.512C92.5796 136.08 88.6916 142.339 83.5075 147.824C83.3846 147.955 83.2617 148.086 83.135 148.221C80.9041 150.556 78.3841 152.808 75.5613 154.64C75.3158 154.807 75.3158 154.807 75.0653 154.978C71.1149 157.645 66.5855 159.414 61.6977 160.462C61.5815 160.488 61.4654 160.514 61.3457 160.541C54.2851 162.061 46.056 160.244 39.9103 157.226C38.0866 156.299 36.4308 155.237 34.8157 154.072C34.6848 153.979 34.5538 153.886 34.4188 153.79C34.0959 153.556 33.7792 153.318 33.4632 153.078C33.3135 152.967 33.1637 152.856 33.0095 152.741C30.9963 151.235 29.2249 149.579 27.5935 147.777C27.3883 147.553 27.1786 147.331 26.9686 147.11C24.1441 144.111 21.7175 140.775 19.7653 137.323C19.5847 137.006 19.3994 136.69 19.2139 136.375C17.5994 133.609 16.156 130.75 14.9914 127.827C14.8478 127.474 14.6975 127.122 14.5467 126.771C10.7212 117.816 9.06583 108.285 8.27196 98.8333C8.26282 98.7298 8.25367 98.6263 8.24425 98.5196C8.05441 96.3376 8.06087 94.1507 8.06062 91.964C8.0606 91.8637 8.06057 91.7635 8.06055 91.6603C8.06255 82.9378 9.04304 74.0981 11.4843 65.6048C11.5349 65.4278 11.5349 65.4278 11.5865 65.2472C13.4903 58.6213 16.1287 52.2495 19.7686 46.1506C19.8578 46.0004 19.947 45.8503 20.0388 45.6956C21.1739 43.7935 22.3796 41.9564 23.7765 40.1808C23.9703 39.9343 24.1611 39.6861 24.3513 39.4376C26.623 36.5029 29.3113 33.8332 32.2797 31.3824C32.4131 31.2698 32.5465 31.1572 32.6839 31.0412C34.825 29.251 37.1213 27.7154 39.7187 26.4123C39.8147 26.3637 39.9106 26.315 40.0094 26.265C41.8148 25.3562 43.68 24.6466 45.6361 23.9983C45.8083 23.9399 45.9805 23.8815 46.1579 23.8213C47.0557 23.5303 47.9705 23.3127 48.9013 23.1107C49.0146 23.0858 49.128 23.0609 49.2448 23.0352C49.9143 22.8962 50.527 22.8019 51.2154 22.8622C51.5258 23.0336 51.5258 23.0336 51.786 23.2616C52.8711 24.0997 53.9441 24.2222 55.3998 24.1896C56.534 24.0877 57.4154 23.7907 58.2106 23.1019C59.1414 22.3837 60.3661 22.7663 61.4817 22.9865ZM49.8629 25.5603C49.7035 25.5899 49.5442 25.6194 49.38 25.6499C43.8252 26.7502 38.8616 29.4831 34.8157 32.8024C34.6948 32.901 34.5739 32.9997 34.4494 33.1013C32.9612 34.3195 31.5129 35.531 30.2509 36.9204C30.1286 37.0475 30.0064 37.1745 29.8804 37.3054C28.4126 38.853 27.1351 40.5153 25.8551 42.1745C25.7786 42.2737 25.7021 42.3729 25.6232 42.4751C22.3283 46.7964 19.5743 51.7627 17.7352 56.6515C17.5826 57.0535 17.4119 57.4451 17.2326 57.8391C16.7937 58.8379 16.4807 59.8675 16.1495 60.8942C16.0079 61.3295 15.8597 61.7631 15.711 62.1968C15.6601 62.3464 15.6092 62.4961 15.5568 62.6502C15.464 62.9229 15.3712 63.1956 15.2771 63.468C14.7149 65.0963 14.2511 66.7283 13.8618 68.3916C13.8333 68.5124 13.8048 68.6332 13.7754 68.7577C11.3229 79.1996 10.4836 89.9128 11.4581 100.531C11.4845 100.824 11.5093 101.118 11.5337 101.411C12.1293 108.518 13.6035 115.666 16.0892 122.478C16.2001 122.782 16.3083 123.087 16.415 123.392C17.6121 126.738 19.0956 130.007 20.783 133.198C20.9036 133.428 20.9036 133.428 21.0267 133.663C22.205 135.904 23.5166 138.051 25.0098 140.156C25.0833 140.26 25.1569 140.364 25.2327 140.472C27.3112 143.394 29.711 146.15 32.456 148.655C32.756 148.932 33.0408 149.215 33.3258 149.501C38.6017 154.551 46.366 157.974 54.317 158.454C55.0307 158.486 55.7421 158.483 56.4565 158.474C56.6289 158.474 56.8013 158.473 56.9789 158.473C62.8642 158.27 68.4413 156.076 73.0253 153.078C73.1756 152.982 73.326 152.886 73.4809 152.787C76.0644 151.102 78.4382 149.124 80.4643 146.972C80.6138 146.821 80.7637 146.671 80.914 146.52C84.0327 143.375 86.6453 139.762 88.7367 136.069C88.9436 135.709 89.1581 135.352 89.3727 134.996C90.6963 132.77 91.7673 130.49 92.795 128.16C93.0282 127.632 93.2699 127.108 93.5229 126.587C93.7843 126.044 93.9994 125.499 94.1905 124.935C94.2612 124.728 94.3318 124.522 94.4025 124.315C94.4427 124.197 94.4828 124.078 94.5241 123.957C94.6941 123.459 94.8673 122.963 95.0405 122.467C95.1424 122.174 95.2443 121.881 95.3461 121.589C95.4131 121.396 95.4802 121.204 95.5474 121.012C96.0951 119.442 96.6192 117.876 96.959 116.264C97.0756 115.713 97.1991 115.173 97.3652 114.632C97.5949 113.88 97.732 113.116 97.8784 112.35C98.0674 111.372 98.2631 110.395 98.4761 109.421C98.9962 107.015 99.283 104.588 99.5339 102.153C99.5591 101.911 99.5847 101.669 99.6107 101.427C99.85 99.1865 99.9814 96.9558 100.023 94.7064C100.028 94.468 100.028 94.468 100.033 94.2248C100.268 82.1761 98.6257 69.9866 85.1982 42.0325C85.1253 41.9366 85.0524 41.8408 84.9773 41.742C82.6717 38.7302 80.0378 35.9495 77.0829 33.3704C76.9561 33.258 76.8292 33.1456 76.6985 33.0298C75.8221 32.2697 74.8572 31.6127 73.8706 30.9564C73.7113 30.8469 73.552 30.7374 73.3878 30.6246C70.8147 28.8968 68.0261 27.5421 64.9573 26.5391C64.6245 26.4296 64.2947 26.3137 63.9656 26.1965C61.1962 25.2644 58.2253 25.0816 55.273 25.0721C55.1007 25.0708 55.1007 25.0708 54.9248 25.0695C53.178 25.0609 51.5594 25.2439 49.8629 25.5603Z" fill="#7B5231"/>
<path d="M48.1818 18.5373C48.6951 18.7495 49.0936 18.9975 49.5251 19.3111C49.3774 19.3431 49.3774 19.3431 49.2266 19.3758C42.7318 20.7943 36.9831 23.2327 31.942 26.9792C31.8158 27.0728 31.6896 27.1663 31.5596 27.2627C29.3397 28.9232 27.1527 30.6697 25.3483 32.6593C25.1794 32.8353 25.0101 33.0109 24.8404 33.1863C21.4515 36.7214 18.7323 40.6101 16.2761 44.6419C16.0768 44.9688 15.8758 45.2949 15.6744 45.6209C13.3356 49.4369 11.4791 53.556 9.96305 57.6517C9.92461 57.755 9.88618 57.8583 9.84657 57.9647C9.28538 59.4858 8.8197 61.0248 8.37003 62.5714C8.2809 62.8765 8.19029 63.1813 8.09868 63.4859C7.95894 63.9507 7.82127 64.4158 7.68442 64.8811C7.5924 65.1902 7.49715 65.4984 7.40193 65.8068C5.89177 70.7944 5.13112 75.9976 4.59512 81.1175C4.58012 81.2607 4.58012 81.2607 4.56481 81.4067C4.32568 83.7259 4.18767 86.0391 4.18632 88.3668C4.18577 88.5957 4.1852 88.8246 4.18461 89.0535C4.18361 89.531 4.18329 90.0084 4.18339 90.4858C4.1834 90.9628 4.18225 91.4397 4.17992 91.9167C4.16748 94.5077 4.1999 97.0905 4.36992 99.6781C4.37686 99.7844 4.38381 99.8906 4.39096 100C4.5813 102.842 4.93297 105.669 5.3982 108.488C5.42514 108.652 5.45208 108.816 5.47984 108.984C6.43209 114.637 7.844 120.267 9.97469 125.691C10.1462 126.133 10.3123 126.576 10.4775 127.02C10.5655 127.255 10.5655 127.255 10.6552 127.494C10.7673 127.794 10.8788 128.094 10.9896 128.394C11.3176 129.264 11.697 130.103 12.1233 130.943C12.4271 131.542 12.7103 132.148 12.9957 132.753C16.4905 140.117 21.1751 146.864 27.4326 152.808C27.6368 153.002 27.8391 153.198 28.0402 153.395C28.684 154.018 29.345 154.579 30.0954 155.112C30.4076 155.34 30.6935 155.578 30.9804 155.828C31.7508 156.484 32.6052 157.049 33.4636 157.621C33.6329 157.736 33.8023 157.85 33.9767 157.968C35.3694 158.899 36.8381 159.697 38.3666 160.461C38.4762 160.517 38.5858 160.572 38.6988 160.629C46.0015 164.305 54.6996 165.514 63.0059 163.891C68.6739 162.688 73.7897 160.318 78.2668 157.195C78.3671 157.125 78.4675 157.056 78.5708 156.984C80.7754 155.444 82.8207 153.767 84.6914 151.941C84.8383 151.801 84.9852 151.661 85.1365 151.516C89.6743 147.107 93.6406 141.762 96.2911 136.369C96.5115 135.925 96.7523 135.494 97.0017 135.06C97.6064 133.972 98.1019 132.848 98.6074 131.725C98.9496 130.966 99.2996 130.212 99.6751 129.464C100.005 128.804 100.307 128.143 100.573 127.463C100.615 127.357 100.657 127.25 100.7 127.141C101.132 126.024 101.494 124.891 101.853 123.756C102.009 123.265 102.172 122.777 102.347 122.291C103.957 117.8 105.076 113.097 105.711 108.441C105.792 107.848 105.889 107.259 105.992 106.668C107.87 95.7489 107.342 84.4424 105.487 73.5559C105.457 73.3804 105.428 73.2049 105.397 73.0241C105.056 71.0424 104.6 69.0917 104.071 67.1397C103.967 66.7453 103.868 66.3502 103.771 65.9543C102.867 62.281 101.565 58.7237 100.116 55.1808C99.9391 54.7468 99.7645 54.3121 99.5912 53.877C98.5092 51.1848 97.2596 48.5223 95.6809 46.0075C95.5234 45.7439 95.368 45.4795 95.2126 45.215C94.9213 44.7204 94.6248 44.2279 94.3283 43.7355C94.2595 43.6206 94.1906 43.5057 94.1196 43.3874C93.0086 41.5421 91.8002 39.7788 90.4397 38.0554C90.3512 37.943 90.2627 37.8306 90.1715 37.7148C87.025 33.5056 87.025 33.5056 82.8316 30.1033C82.9336 30.0775 83.0356 30.0517 83.1407 30.0251C84.1598 29.7597 84.1598 29.7597 85.0295 29.2513C85.5265 29.436 85.8342 29.6158 86.1754 29.9702C86.3039 30.1028 86.3039 30.1028 86.435 30.238C86.5256 30.3341 86.6163 30.4303 86.7097 30.5293C86.8055 30.6299 86.9014 30.7305 87.0002 30.8341C88.7942 32.7343 90.4328 34.7208 91.9614 36.7774C92.0579 36.907 92.0579 36.907 92.1564 37.0392C93.8899 39.38 95.4337 41.8235 96.8643 44.3035C96.9319 44.4197 96.9995 44.5359 97.0691 44.6557C97.9226 46.1263 98.7468 47.5953 99.4383 49.1258C99.587 49.4543 99.7383 49.7819 99.8898 50.1095C102.173 55.0715 103.952 60.141 105.372 65.3254C105.444 65.5913 105.518 65.8569 105.594 66.1223C106.193 68.2489 106.571 70.4009 106.945 72.5619C106.97 72.7046 106.995 72.8474 107.02 72.9945C107.587 76.2825 108.094 79.57 108.393 82.8836C108.415 83.1268 108.415 83.1268 108.437 83.3749C108.687 86.2428 108.764 89.102 108.763 91.9765C108.763 92.2849 108.763 92.5932 108.763 92.9016C108.765 95.7876 108.617 98.6521 108.361 101.53C108.353 101.624 108.344 101.718 108.336 101.815C107.593 110.155 106.066 118.705 102.896 126.659C102.705 127.144 102.527 127.632 102.349 128.12C101.666 129.977 100.909 131.799 100.056 133.605C100.008 133.706 99.96 133.808 99.9108 133.912C97.28 139.483 94.2028 144.888 90.1016 149.811C90.0342 149.893 89.9669 149.974 89.8975 150.058C87.8495 152.533 85.5769 154.843 83.1275 157.044C82.9629 157.193 82.9629 157.193 82.7949 157.344C82.1488 157.919 81.4784 158.453 80.7637 158.967C80.4142 159.22 80.0812 159.485 79.7461 159.751C76.1236 162.482 71.8814 164.626 67.3454 166.095C66.9508 166.224 66.5597 166.36 66.1718 166.503C62.9017 167.656 59.1725 167.899 55.6644 167.898C55.4858 167.899 55.4858 167.899 55.3035 167.899C53.635 167.899 52.0196 167.782 50.3705 167.561C50.1542 167.532 50.1542 167.532 49.9335 167.503C46.7632 167.05 43.7038 166.149 40.8785 164.863C40.5566 164.718 40.2322 164.577 39.9067 164.437C37.5329 163.41 35.3955 162.123 33.2945 160.745C33.201 160.684 33.1075 160.622 33.0111 160.559C31.4948 159.55 30.1315 158.402 28.7614 157.257C28.6707 157.182 28.5801 157.106 28.4867 157.029C27.3044 156.043 26.2126 155.029 25.1792 153.929C25.006 153.751 24.8323 153.573 24.6582 153.395C19.7301 148.312 15.8117 142.458 12.8489 136.405C12.6614 136.023 12.4702 135.643 12.2785 135.262C11.4561 133.618 10.7375 131.96 10.0898 130.262C9.77058 129.428 9.43546 128.602 9.06488 127.783C8.56417 126.613 8.20875 125.417 7.84507 124.213C7.66321 123.612 7.47035 123.014 7.26716 122.418C6.4977 120.159 5.9086 117.873 5.45628 115.555C5.4187 115.363 5.4187 115.363 5.38037 115.168C5.35919 115.057 5.33801 114.946 5.31618 114.832C5.24701 114.53 5.16033 114.232 5.06774 113.935C4.85383 113.228 4.73554 112.513 4.61692 111.791C4.59248 111.645 4.56803 111.499 4.54285 111.349C2.31446 97.95 2.28166 84.4031 5.90541 66.7398C5.95456 66.5479 6.0037 66.356 6.05285 66.1641C7.30847 61.273 7.30847 61.273 8.1033 59.0717C8.1923 58.8193 8.28123 58.5669 8.37011 58.3145C8.88473 56.8643 9.42802 55.4226 9.99475 53.9862C10.049 53.8483 10.1032 53.7103 10.1591 53.5682C10.4583 52.8176 10.7826 52.0807 11.1385 51.3478C11.331 50.9454 11.5126 50.5401 11.6934 50.1339C12.902 47.4462 14.3416 44.8794 15.8805 42.3154C15.964 42.1757 16.0476 42.0359 16.1336 41.8919C18.4297 38.0733 21.2426 34.4926 24.3339 31.0973C24.4405 30.9773 24.4405 30.9773 24.5493 30.8549C25.4497 29.8487 25.4497 29.8487 26.0305 29.7766C26.3627 29.8104 26.3627 29.8104 26.8699 29.9613C26.884 29.8482 26.898 29.7351 26.9125 29.6186C27.1967 28.1206 28.0589 27.3616 29.3214 26.3757C29.4992 26.2311 29.6767 26.0861 29.8537 25.9408C30.9494 25.0498 32.0976 24.2235 33.2945 23.4292C33.4073 23.3536 33.52 23.2781 33.6361 23.2002C43.1443 16.8896 43.1443 16.8896 48.1818 18.5373Z" fill="#A97241"/>
<path d="M68.4604 18.46C68.6906 18.5439 68.6906 18.5439 68.9255 18.6295C73.74 20.4165 77.8617 22.941 81.6477 25.9861C81.7772 26.0767 81.9066 26.1673 82.04 26.2607C82.433 26.6668 82.4144 26.9588 82.4296 27.4771C82.4779 28.4192 82.6232 29.3204 82.8312 30.2462C82.9299 30.2597 83.0286 30.2733 83.1304 30.2872C85.94 31.0394 88.8527 35.7483 90.3903 37.7698C90.5433 37.9708 90.6973 38.1711 90.8521 38.371C92.4308 40.4135 93.7707 42.5382 95.0736 44.7101C95.29 45.0696 95.5093 45.4275 95.7319 45.7843C97.3808 48.4457 98.7485 51.2664 99.9071 54.1025C99.972 54.261 100.037 54.4195 100.104 54.5829C100.971 56.7099 101.805 58.8419 102.505 61.0128C102.608 61.3313 102.714 61.6492 102.82 61.967C106.975 74.6074 107.958 88.0731 106.511 104.309C106.498 104.43 106.485 104.551 106.471 104.675C106.301 106.176 106.069 107.662 105.775 109.149C105.669 109.685 105.578 110.223 105.49 110.761C104.806 114.972 103.688 119.215 102.19 123.271C101.965 123.879 101.759 124.49 101.556 125.103C100.618 127.924 99.3404 130.621 98.0474 133.34C97.9877 133.465 97.9281 133.591 97.8667 133.72C94.653 140.456 90.1664 146.975 84.3528 152.368C84.2679 152.447 84.1829 152.527 84.0954 152.608C82.2745 154.306 80.4059 155.922 78.2663 157.338C78.0771 157.47 77.8882 157.602 77.6997 157.735C70.9427 162.454 62.088 165.267 53.2442 164.722C50.9001 164.518 48.5593 164.191 46.3123 163.586C46.184 163.552 46.0556 163.518 45.9233 163.482C44.059 162.98 42.2919 162.393 40.5684 161.611C40.208 161.448 39.8455 161.288 39.4829 161.128C36.796 159.926 34.3863 158.464 32.1106 156.77C31.9635 156.66 31.8164 156.551 31.6648 156.438C31.3881 156.23 31.1125 156.021 30.8379 155.811C30.5416 155.585 30.2433 155.36 29.9437 155.137C29.1383 154.533 28.3745 153.929 27.6798 153.235C27.3229 152.883 26.9484 152.547 26.5736 152.208C22.6107 148.552 19.4897 144.281 16.7359 139.934C16.6742 139.837 16.6125 139.739 16.5489 139.639C15.4435 137.894 14.4813 136.112 13.5711 134.29C13.4293 134.007 13.2866 133.724 13.1438 133.441C12.6109 132.379 12.1183 131.312 11.6649 130.223C11.5209 129.878 11.3727 129.534 11.218 129.192C10.2145 126.964 9.3384 124.708 8.61003 122.405C8.56042 122.25 8.51082 122.095 8.4597 121.936C7.68611 119.497 7.03602 117.043 6.44384 114.569C6.41192 114.436 6.37999 114.304 6.3471 114.168C5.89442 112.283 5.52552 110.396 5.22866 108.489C5.21221 108.384 5.19575 108.279 5.1788 108.171C5.07368 107.493 4.97486 106.816 4.87995 106.137C4.85857 105.985 4.85857 105.985 4.83675 105.83C4.55159 103.786 4.35426 101.74 4.21425 99.6852C4.19944 99.501 4.18463 99.3168 4.16938 99.127C3.99541 96.8132 4.0135 94.495 4.01385 92.1777C4.01386 91.6939 4.01269 91.2102 4.01038 90.7265C3.99653 87.7807 4.06913 84.8713 4.38332 81.9349C4.40417 81.7227 4.42477 81.5104 4.44502 81.2981C4.73732 78.3235 5.20969 75.3717 5.73586 72.4208C5.76853 72.2357 5.80119 72.0506 5.83485 71.86C6.56556 67.779 7.57943 63.6576 9.10667 59.7293C9.38853 58.9945 9.66265 58.2598 9.91053 57.5163C10.9744 54.3476 12.4414 51.2894 14.0202 48.2804C14.0926 48.1416 14.165 48.0029 14.2396 47.8599C15.2042 46.0172 16.2486 44.2229 17.4016 42.4583C17.4751 42.3445 17.5486 42.2307 17.6243 42.1134C20.0556 38.3632 22.9635 34.8249 26.3018 31.604C26.4638 31.4474 26.6246 31.2899 26.7846 31.1318C27.5801 30.3528 28.4272 29.6214 29.2911 28.8959C29.5305 28.6946 29.7685 28.492 30.0065 28.2895C31.0493 27.4118 32.1357 26.6122 33.2941 25.8441C33.4773 25.719 33.6605 25.5939 33.8435 25.4686C37.6298 22.9616 41.9322 21.0332 46.5342 19.8356C46.7402 19.7813 46.7402 19.7813 46.9504 19.7259C47.9227 19.4826 48.851 19.3762 49.8628 19.312C49.8628 19.7338 49.8628 20.1555 49.8628 20.59C49.6477 20.6281 49.4326 20.6662 49.211 20.7054C40.7265 22.2661 32.7973 26.8522 27.4097 32.5531C27.0285 32.9548 26.633 33.3438 26.2354 33.7341C18.2319 41.8007 12.8925 52.1927 9.96258 62.3386C9.93025 62.4501 9.89793 62.5617 9.86462 62.6766C8.10333 68.7554 6.84661 74.7508 6.11989 80.978C6.07721 81.3397 6.03287 81.7012 5.9879 82.0628C4.69335 92.5913 5.44394 103.673 8.02947 114.015C8.12905 114.417 8.22103 114.821 8.31218 115.225C11.2499 128.081 17.3695 141.522 27.8839 151.374C27.9598 151.446 28.0357 151.517 28.1139 151.591C29.9284 153.303 31.8189 154.93 33.9703 156.344C34.097 156.433 34.2236 156.522 34.354 156.614C38.6455 159.617 43.7816 161.782 49.2288 162.778C49.4248 162.815 49.6209 162.851 49.8229 162.888C54.0536 163.629 58.8763 163.581 63.0501 162.592C63.2515 162.546 63.4529 162.499 63.6604 162.452C69.485 161.052 74.7315 158.35 79.1262 154.882C79.5042 154.587 79.8865 154.303 80.2773 154.021C80.9612 153.521 81.5897 152.987 82.2077 152.43C82.3176 152.331 82.4274 152.232 82.5405 152.13C83.4629 151.29 84.3117 150.416 85.1311 149.504C85.3815 149.228 85.6367 148.955 85.8929 148.683C87.2992 147.179 88.5554 145.611 89.763 143.99C89.8318 143.898 89.9005 143.806 89.9714 143.712C93.5128 138.961 96.381 133.781 98.5116 128.469C98.6599 128.102 98.8123 127.737 98.9726 127.373C99.5795 125.987 100.061 124.587 100.511 123.159C100.681 122.619 100.866 122.085 101.064 121.551C102.079 118.8 102.753 115.931 103.302 113.091C103.414 112.511 103.553 111.938 103.698 111.363C104.33 108.733 104.628 106.042 104.979 103.377C105.004 103.19 105.004 103.19 105.029 102.999C106.077 94.9015 105.919 86.32 104.703 78.2469C104.644 77.8358 104.592 77.4246 104.543 77.0125C104.026 72.7829 102.977 68.5963 101.83 64.4598C101.792 64.3224 101.755 64.1851 101.716 64.0435C101.236 62.3103 100.674 60.6153 100.014 58.9245C99.7916 58.3474 99.5922 57.7644 99.3893 57.1822C97.9086 53.01 95.8917 48.8706 93.4825 45.0144C93.4004 44.8817 93.3183 44.7491 93.2337 44.6124C91.4162 41.6854 89.4594 38.8161 87.1033 36.1678C86.8629 35.897 86.6256 35.6243 86.3882 35.3516C85.432 34.2594 84.4405 33.2265 83.3384 32.2342C83.1437 32.0485 82.95 31.8622 82.7572 31.6751C81.1924 30.1571 81.1924 30.1571 79.4525 28.7851C79.22 28.6194 78.9929 28.4482 78.7709 28.2726C76.5912 26.5507 74.1177 25.0737 71.5036 23.8561C71.4038 23.8084 71.304 23.7608 71.2012 23.7117C68.8928 22.6112 66.4651 21.6914 63.8922 21.1281C63.5481 21.0516 63.2071 20.9647 62.8699 20.869C62.415 20.7434 61.9774 20.6548 61.5074 20.5812C61.0025 20.5012 60.5042 20.4148 60.0069 20.306C59.9627 19.9116 59.9627 19.9116 60.0069 19.454C60.9074 18.5738 62.3872 18.2985 63.6736 18.034C63.8241 18.0028 63.9746 17.9716 64.1297 17.9394C65.7947 17.6286 66.9205 17.8885 68.4604 18.46Z" fill="#7B5230"/>
<path d="M86.7201 27.2656C87.4118 27.6922 87.9268 28.178 88.4425 28.7478C88.5232 28.8357 88.6038 28.9236 88.6869 29.0142C88.8534 29.1957 89.0194 29.3775 89.1852 29.5595C89.4044 29.799 89.6266 30.0362 89.8505 30.2726C96.0458 36.8777 100.498 44.8713 103.627 52.826C103.686 52.9756 103.746 53.1252 103.807 53.2794C104.596 55.2702 105.325 57.2631 105.929 59.2993C106.098 59.87 106.289 60.4335 106.487 60.9978C106.857 62.0777 107.154 63.1678 107.44 64.2654C107.526 64.5932 107.613 64.9208 107.7 65.2484C108.18 67.0698 108.624 68.8978 108.942 70.7449C108.962 70.8619 108.983 70.979 109.004 71.0996C109.048 71.3565 109.092 71.6135 109.136 71.8705C109.21 72.2998 109.287 72.7285 109.365 73.1572C111.178 83.4057 111.338 93.8422 110.231 104.151C110.218 104.277 110.204 104.403 110.191 104.533C109.991 106.383 109.705 108.217 109.375 110.053C109.34 110.253 109.305 110.454 109.269 110.654C108.336 115.902 107.207 121.186 105.256 126.244C105.154 126.512 105.056 126.78 104.958 127.049C104.746 127.633 104.526 128.215 104.303 128.797C104.247 128.945 104.19 129.093 104.132 129.246C102.715 132.938 101.094 136.535 99.116 140.044C98.9002 140.429 98.6884 140.815 98.4777 141.201C97.4399 143.09 96.2595 144.897 95.0045 146.689C94.9067 146.829 94.8089 146.969 94.7082 147.113C93.4338 148.923 92.1011 150.68 90.6087 152.369C90.52 152.47 90.4314 152.571 90.34 152.674C89.0868 154.089 87.776 155.453 86.382 156.771C86.2351 156.911 86.0882 157.05 85.9369 157.194C84.2123 158.8 82.428 160.398 80.3972 161.734C80.0979 161.932 79.8047 162.137 79.5175 162.348C75.9534 164.958 71.7071 166.922 67.2772 168.274C67.1537 168.313 67.0301 168.352 66.9028 168.392C64.0369 169.296 60.878 169.936 57.8094 169.978C57.6622 169.981 57.5149 169.985 57.3633 169.988C50.7767 170.133 44.6893 169.05 38.8737 166.428C38.7669 166.381 38.6602 166.334 38.5502 166.285C35.6665 165.015 33.0143 163.421 30.5893 161.6C30.4448 161.492 30.3003 161.385 30.1515 161.274C29.7312 160.959 29.3149 160.64 28.8986 160.321C28.6561 160.14 28.6561 160.14 28.4086 159.955C27.2899 159.114 26.2474 158.231 25.2528 157.286C25.0016 157.047 24.7479 156.811 24.4943 156.574C18.5852 151.008 14.0723 144.301 10.6392 137.459C10.5503 137.283 10.4615 137.106 10.3726 136.93C10.0969 136.382 9.82356 135.834 9.55084 135.285C9.46692 135.116 9.383 134.948 9.29654 134.775C8.85078 133.869 8.44591 132.961 8.08639 132.029C7.94869 131.675 7.80281 131.324 7.6508 130.974C6.89594 129.229 6.28709 127.463 5.70709 125.672C5.57936 125.284 5.44607 124.898 5.30893 124.513C2.48078 116.552 1.08164 108.11 0.495099 99.8286C0.487992 99.7344 0.480885 99.6402 0.473563 99.5431C0.286736 97.0104 0.285309 94.4752 0.283763 91.9387C0.283613 91.8262 0.283463 91.7138 0.283309 91.598C0.278998 87.9347 0.405818 84.3034 0.803847 80.6534C0.845469 80.2582 0.879292 79.8626 0.912487 79.4669C1.06307 77.7302 1.32395 76.0043 1.58348 74.2772C1.60098 74.1596 1.61848 74.0421 1.63651 73.921C1.86938 72.3672 2.16385 70.8348 2.52392 69.2982C2.60086 68.9532 2.67748 68.6082 2.75375 68.2632C3.65254 64.2594 4.71042 60.2959 6.19188 56.4131C6.51136 55.5756 6.81298 54.7343 7.10991 53.891C7.45863 52.9065 7.83544 51.9397 8.27226 50.98C8.33481 50.8335 8.39736 50.6871 8.4618 50.5362C11.4196 43.6953 15.3462 37.1345 20.4452 31.2417C20.52 31.1551 20.5947 31.0686 20.6717 30.9794C21.5674 29.9478 22.5159 28.9566 23.4884 27.9756C24.0396 28.4257 24.5404 28.8844 25.0101 29.3957C24.8682 29.5332 24.8682 29.5332 24.7234 29.6736C22.6415 31.7286 20.7871 33.9207 19.0927 36.2118C18.9965 36.341 18.9965 36.341 18.8983 36.4729C17.7843 37.977 16.7806 39.532 15.7822 41.0917C15.5656 41.4293 15.3472 41.7661 15.1281 42.1026C13.2679 44.9794 11.6231 48.0516 10.4503 51.1752C10.2899 51.576 10.0992 51.9586 9.89954 52.3467C8.95217 54.2253 8.30147 56.1821 7.67854 58.1505C7.52487 58.6341 7.36438 59.1149 7.19114 59.5938C4.3193 67.5601 2.88538 76.053 2.35485 84.3504C2.34438 84.5021 2.34438 84.5021 2.33369 84.6569C2.16788 87.0922 2.15166 89.5268 2.15409 91.9653C2.15415 92.118 2.15416 92.118 2.15422 92.2737C2.156 95.4626 2.20285 98.6377 2.52392 101.817C2.5354 101.933 2.54687 102.049 2.5587 102.169C2.87655 105.379 3.2599 108.576 3.87647 111.757C3.90895 111.925 3.94142 112.093 3.97488 112.266C4.8348 116.696 4.8348 116.696 6.08229 121.058C6.22609 121.501 6.35173 121.946 6.47091 122.395C6.87065 123.895 7.40376 125.356 7.95026 126.823C8.11268 127.261 8.27205 127.699 8.43142 128.138C8.78316 129.098 9.15291 130.053 9.52971 131.007C9.59215 131.167 9.65459 131.327 9.71892 131.493C10.079 132.404 10.4735 133.293 10.9219 134.177C11.1679 134.662 11.4059 135.149 11.6431 135.636C11.7289 135.812 11.8147 135.988 11.9006 136.163C12.0311 136.43 12.1614 136.697 12.2911 136.964C12.8191 138.051 13.3772 139.115 14.0206 140.157C14.1235 140.331 14.2259 140.504 14.3277 140.678C14.6732 141.263 15.0225 141.846 15.3731 142.429C15.4471 142.553 15.521 142.676 15.5972 142.803C18.4132 147.484 21.8761 151.853 26.0245 155.777C26.2448 155.986 26.2448 155.986 26.4696 156.2C28.3258 157.928 30.2545 159.605 32.4491 161.031C32.629 161.154 32.8086 161.277 32.988 161.4C40.364 166.433 49.7025 169.233 59.2359 168.46C61.9734 168.204 64.7029 167.676 67.2772 166.854C67.3872 166.819 67.4972 166.784 67.6106 166.748C71.4715 165.517 75.0542 163.773 78.2667 161.6C78.4245 161.494 78.5823 161.389 78.7448 161.281C81.7013 159.288 84.5746 157.026 86.8892 154.499C87.0449 154.338 87.2013 154.177 87.3581 154.017C88.5447 152.798 89.6492 151.541 90.7107 150.244C90.8604 150.061 91.0107 149.878 91.1618 149.696C93.9591 146.322 96.4098 142.619 98.2967 138.826C98.5088 138.403 98.7314 137.988 98.9604 137.571C99.4024 136.759 99.7913 135.932 100.172 135.098C100.877 133.556 100.877 133.556 101.249 132.886C101.713 132.023 102.053 131.122 102.407 130.224C102.527 129.919 102.648 129.614 102.77 129.31C103.285 128.014 103.732 126.713 104.134 125.389C104.197 125.188 104.261 124.986 104.324 124.785C104.373 124.63 104.422 124.475 104.472 124.315C104.678 123.663 104.896 123.017 105.127 122.371C107.223 116.185 108.228 109.68 108.9 103.29C108.914 103.154 108.929 103.017 108.943 102.877C109.292 99.5392 109.407 96.2202 109.407 92.8711C109.407 92.4364 109.408 92.0018 109.41 91.5671C109.432 87.445 109.244 83.3399 108.731 79.2384C108.717 79.1235 108.703 79.0087 108.688 78.8904C108.477 77.1555 108.221 75.4268 107.928 73.7003C107.902 73.5509 107.902 73.5509 107.877 73.3986C107.633 71.9767 107.335 70.5661 107.008 69.1562C106.974 69.0078 106.94 68.8594 106.905 68.7066C106.069 65.0871 105.185 61.4795 103.844 57.9657C103.557 57.214 103.286 56.4597 103.025 55.7015C102.524 54.2578 102.02 52.8142 101.261 51.4492C101.062 51.0652 100.903 50.6753 100.742 50.2788C98.9562 46.033 96.5479 41.9287 93.821 38.0578C93.7415 37.9443 93.6621 37.8307 93.5802 37.7138C91.3304 34.513 88.747 31.5119 85.8748 28.6856C86.1086 28.1776 86.3746 27.7274 86.7201 27.2656Z" fill="#AB7544"/>
<path d="M76.2965 22.162C78.1949 23.3278 79.9507 24.6222 81.6481 25.9875C81.7773 26.0772 81.9066 26.1669 82.0397 26.2593C82.4398 26.6756 82.4208 26.9938 82.4406 27.5229C82.4543 27.7862 82.4543 27.7862 82.4684 28.0548C82.4766 28.2161 82.4849 28.3774 82.4935 28.5435C82.5375 28.878 82.5966 29.2055 82.6625 29.5375C82.0591 29.1135 81.4759 28.6907 80.9296 28.2151C80.3045 27.682 79.6244 27.2177 78.9298 26.7502C78.6098 26.5321 78.2941 26.3093 77.9841 26.0812C74.8978 23.8223 71.243 22.1228 67.4562 20.8528C67.1467 20.7466 66.8414 20.6316 66.5369 20.5154C65.7359 20.2433 64.9204 20.0584 64.0861 19.8725C63.9268 19.8362 63.7675 19.7999 63.6033 19.7624C62.6348 19.5436 61.6642 19.3481 60.6836 19.1714C61.4087 18.5955 62.1094 18.4213 63.0506 18.2218C63.2519 18.1766 63.2519 18.1766 63.4574 18.1305C67.981 17.1268 72.7414 20.0286 76.2965 22.162Z" fill="#A97241"/>
<path d="M55.8233 2.37891C56.6699 2.42631 57.0928 2.63983 57.6513 3.17378C60.093 6.0473 60.4188 9.09261 59.739 12.5196C59.3847 14.1241 58.6795 15.5264 57.7174 16.9352C57.4233 17.3932 57.4233 17.3932 57.3026 17.8926C57.6542 18.2907 57.6542 18.2907 57.9241 18.5228C58.4756 19.0693 58.5608 19.5554 58.539 20.2529C58.4155 21.0421 58.0278 21.5709 57.3132 22.0817C56.7947 22.295 56.5164 22.3626 55.9501 22.2947C55.6487 22.0416 55.7751 21.7046 55.7749 21.3682C55.7954 20.4186 55.7954 20.4186 55.33 19.5922C54.9807 19.4205 54.6356 19.2948 54.2594 19.1706C53.9736 18.9856 53.6899 18.7981 53.4141 18.6026C53.4458 18.3453 53.4458 18.3453 53.5831 18.0346C54.2415 17.6518 54.7204 17.4467 55.5169 17.4489C55.7153 17.4483 55.7153 17.4483 55.9177 17.4478C56.2882 17.4666 56.2882 17.4666 56.7954 17.6086C56.8242 17.5189 56.853 17.4292 56.8826 17.3368C57.185 16.3994 57.5028 15.4666 57.8323 14.5356C58.8032 11.3765 58.1354 8.06977 56.2882 5.25445C56.0975 4.99254 55.9043 4.73191 55.7071 4.47344C55.222 3.82802 55.1191 3.31733 55.1047 2.55641C55.2738 2.41441 55.2738 2.41441 55.8233 2.37891Z" fill="#E6AF91"/>
<path d="M40.5231 17.4035C40.7398 17.408 40.9564 17.4125 41.1796 17.4171C41.7079 17.4287 42.2354 17.445 42.7633 17.4657C42.847 17.6062 42.847 17.6062 42.9324 17.7497C42.7338 17.8254 42.5353 17.9012 42.3307 17.9793C38.6115 19.417 35.2313 21.1953 32.112 23.4297C31.9227 23.5624 31.7334 23.695 31.544 23.8275C30.1973 24.7761 28.9385 25.7773 27.7162 26.8378C27.2823 26.2912 27.2849 25.924 27.209 25.2758C27.352 25.2446 27.4949 25.2135 27.6422 25.1815C29.0826 24.8433 30.2453 24.5035 31.0976 23.4297C31.3775 22.7244 31.2751 22.1547 31.0976 21.4417C32.2609 20.6704 33.4395 19.9225 34.6586 19.214C34.7619 19.1535 34.8652 19.0929 34.9716 19.0305C35.1874 18.9064 35.4052 18.7846 35.6247 18.665C35.9032 18.5128 36.1772 18.3547 36.4484 18.1936C37.8214 17.4324 38.902 17.3389 40.5231 17.4035Z" fill="#AB7442"/>
<path d="M71.3059 15.2999C71.6067 15.299 71.6067 15.299 71.9135 15.2981C72.2339 15.3001 72.2339 15.3001 72.5607 15.3021C72.7769 15.3029 72.9931 15.3038 73.2159 15.3047C74.6495 15.3174 76.0163 15.3692 77.4214 15.6216C77.5849 15.6459 77.7484 15.6703 77.9168 15.6954C80.2049 16.0904 82.2396 17.0454 83.8461 18.4616C83.9964 18.5863 83.9964 18.5863 84.1498 18.7135C84.9615 19.4323 85.487 20.2763 85.5698 21.2739C85.5182 22.1929 85.2193 22.8652 84.5223 23.5737C84.3801 23.728 84.3801 23.728 84.235 23.8854C83.6814 24.2502 83.2729 24.2125 82.578 24.2038C82.3566 24.2037 82.1352 24.2035 81.907 24.2033C81.3034 24.141 81.0646 24.0637 80.6337 23.7157C80.7318 23.7207 80.8299 23.7256 80.9309 23.7307C81.8044 23.7561 82.4428 23.7441 83.1698 23.2897C83.7345 22.6602 83.967 21.9963 83.9233 21.2118C83.6425 19.9902 82.7384 18.983 81.5742 18.2575C78.1293 16.3244 73.9949 16.0381 69.9824 15.6216C70.4372 15.2396 70.6707 15.301 71.3059 15.2999Z" fill="#E6AF90"/>
<path d="M63.2934 7.38477C63.9286 7.59298 64.088 7.87728 64.4029 8.37878C65.2092 10.3766 64.5624 12.3699 63.547 14.2275C62.6868 15.6007 61.4316 16.6374 60.0071 17.6089C59.8955 17.562 59.7839 17.5152 59.6689 17.4669C59.7465 17.3981 59.8241 17.3293 59.9041 17.2583C61.6955 15.6146 62.2471 13.7579 62.2334 11.5594C62.2103 11.1667 62.1642 10.8477 62.0359 10.4733C61.7656 9.62205 61.7179 8.85432 62.0887 8.02377C62.4297 7.59956 62.6643 7.38477 63.2934 7.38477Z" fill="#E6AF90"/>
<path d="M67.9531 17.4656C72.7418 17.3705 75.1245 18.2964 78.8404 20.7004C79.0656 20.8443 79.2961 20.9823 79.5277 21.1188C79.6136 21.1785 79.6995 21.2382 79.7879 21.2996C79.7879 21.3934 79.7879 21.4871 79.7879 21.5836C79.6624 21.6159 79.5369 21.6481 79.4075 21.6813C78.855 21.9028 78.6313 22.1722 78.2663 22.5777C78.1512 22.5019 78.0362 22.4261 77.9176 22.348C76.616 21.5077 75.2688 20.7592 73.8632 20.0472C73.6525 19.9405 73.4422 19.8331 73.2326 19.7248C71.5478 18.8561 69.7841 18.224 67.9531 17.6076C67.9531 17.5607 67.9531 17.5139 67.9531 17.4656Z" fill="#AB7443"/>
<path d="M44.4521 12.6367C44.6195 12.8476 44.6195 12.8476 44.7903 13.0627C46.2195 14.7928 47.6417 16.1433 49.7765 17.259C50.5823 17.6884 51.0918 18.0354 51.553 18.7428C51.7204 18.6959 51.8878 18.6491 52.0602 18.6008C52.0044 18.7795 51.9487 18.9581 51.8912 19.1422C51.6441 20.0956 51.484 21.0334 52.0074 21.929C52.8656 22.7277 53.6109 23.1567 54.8921 23.2336C55.0586 23.2442 55.2252 23.2549 55.3967 23.2658C55.5231 23.2727 55.6495 23.2797 55.7797 23.2869C55.322 23.6713 54.9741 23.6696 54.3446 23.7173C53.4374 23.7078 52.6839 23.4361 51.9229 23.0384C51.0778 22.3083 50.833 21.8041 50.8028 20.793C50.827 20.0875 50.909 19.6086 51.384 19.0268C51.1649 18.9735 51.1649 18.9735 50.9415 18.9192C48.189 18.0703 45.8351 15.8186 44.6318 13.6396C44.4521 13.2047 44.4521 13.2047 44.4521 12.6367Z" fill="#AD7543"/>
<path d="M93.2726 22.8086C93.8221 22.8618 93.8221 22.8618 94.287 23.1636C95.0014 23.9303 95.0475 24.6339 95.0835 25.5771C94.9598 26.2257 94.6485 26.7446 94.0627 27.1764C93.7643 27.3545 93.4605 27.5151 93.1458 27.6722C93.0416 27.7274 92.9374 27.7827 92.8301 27.8397C91.869 28.3386 91.0658 28.5058 89.9335 28.3999C88.9825 28.0804 88.9825 28.0804 88.75 27.6899C89.0164 27.674 89.0164 27.674 89.2882 27.6577C90.7421 27.5513 91.8647 27.4178 92.9767 26.5539C93.0667 26.4845 93.1567 26.4151 93.2495 26.3437C93.8159 25.8438 94.0062 25.3922 93.9911 24.7079C93.5901 24.2414 93.0632 23.9909 92.4695 23.7139C92.6477 22.8802 92.6477 22.8802 93.2726 22.8086Z" fill="#E6AF90"/>
<path d="M50.3708 8.51953C50.4266 8.51953 50.4823 8.51953 50.5398 8.51953C50.5493 8.71063 50.5493 8.71063 50.559 8.9056C50.7435 11.8478 51.6005 14.3809 53.4421 16.9107C53.5831 17.1817 53.5831 17.1817 53.414 17.6077C51.5061 16.3722 50.6095 14.8622 50.0326 12.9216C49.9999 12.8141 49.9672 12.7067 49.9336 12.596C49.8294 12.0242 49.8255 11.4579 49.8213 10.8803C49.8178 10.7632 49.8143 10.646 49.8107 10.5253C49.8048 9.74613 49.9472 9.21411 50.3708 8.51953Z" fill="#AC7442"/>
<path d="M73.2161 8.87544C75.3146 10.4081 75.3146 10.4081 75.4563 11.6179C75.4338 12.2823 75.1643 12.8055 74.7166 13.3485C74.2517 13.7035 74.2517 13.7035 73.8712 13.9165C73.8155 13.8228 73.7597 13.7291 73.7022 13.6325C73.8336 13.4062 73.8336 13.4062 74.0298 13.1355C74.4592 12.4479 74.5011 11.8397 74.3785 11.0765C74.1143 10.411 73.5502 10.1325 72.8383 9.81676C72.0273 9.55074 71.1871 9.44263 70.3314 9.32641C70.1605 9.29474 69.9896 9.26307 69.8136 9.23045C69.7578 9.13673 69.702 9.043 69.6445 8.94644C70.8323 8.65086 72.0563 8.40786 73.2161 8.87544Z" fill="#E6AE8E"/>
<path d="M85.0302 24.5664C85.6544 24.6647 85.6544 24.6647 85.8755 24.8504C86.1022 27.2873 86.1022 27.2873 85.297 28.2862C84.8593 28.7065 84.3819 29.0641 83.8467 29.3945C83.8467 28.9685 83.8467 28.9685 84.0111 28.5907C84.2532 27.9296 84.2504 27.2938 84.2657 26.6063C84.2969 25.8958 84.3966 25.0985 85.0302 24.5664Z" fill="#E6AF90"/>
<path d="M32.8297 17.315C33.1435 17.3194 33.1435 17.3194 33.4637 17.3239C32.8987 17.5854 32.3292 17.7273 31.7096 17.8741C30.1404 18.2771 29.0615 18.9528 28.204 20.1395C27.8736 20.7208 27.7987 21.2324 27.8844 21.8679C28.037 22.2202 28.037 22.2202 28.3916 22.4359C29.001 22.5514 29.001 22.5514 29.5751 22.5779C29.5193 22.6716 29.4635 22.7654 29.406 22.8619C28.1849 22.9488 28.1849 22.9488 27.5568 22.5335C26.9586 21.8788 26.9142 21.2452 27.0391 20.4479C27.4789 19.2803 28.5287 18.6371 29.7442 18.0339C30.7337 17.6322 31.7198 17.2994 32.8297 17.315Z" fill="#AE7543"/>
<path d="M25.1786 23.5723C25.1786 23.9983 25.1786 23.9983 25.0128 24.3211C24.4727 25.5343 24.7845 27.0815 25.3476 28.2583C25.6008 28.6564 25.8777 29.0291 26.193 29.3943C25.0779 29.1673 24.4728 28.3339 23.8366 27.5927C23.5107 26.7394 23.4238 25.7697 23.8234 24.9241C24.195 24.4106 24.6429 23.9722 25.1786 23.5723Z" fill="#AD7442"/>
<path d="M14.866 24.1406C15.0351 24.4246 15.0351 24.4246 14.94 24.7974C14.8227 25.5569 15.0172 26.1469 15.4789 26.8032C16.6835 27.7617 17.8223 27.7658 19.3939 27.7384C20.1141 27.7076 20.7667 27.5705 21.4597 27.4067C20.8482 28.0058 20.0142 28.3107 19.0927 28.4007C18.9833 28.4115 18.8739 28.4223 18.7612 28.4334C17.6406 28.4945 16.8038 28.2161 15.8804 27.6907C15.1476 27.1335 14.5812 26.5268 14.4975 25.6788C14.4764 25.0751 14.5032 24.6739 14.866 24.1406Z" fill="#B37846"/>
<path d="M37.1833 8.94721C36.9532 9.06583 36.9532 9.06583 36.7184 9.18684C35.9907 9.62176 35.5035 10.1034 35.1545 10.7932C34.9364 11.9833 35.331 12.88 35.9999 13.9173C35.4152 13.7536 35.3563 13.6609 35.0488 13.2339C34.9769 13.1363 34.905 13.0388 34.8309 12.9382C34.4548 12.3258 34.4229 11.7622 34.4782 11.0772C34.8378 10.1713 35.357 9.52492 36.2746 8.95609C36.6761 8.80521 36.6761 8.80521 37.1833 8.94721Z" fill="#B07745"/>
<path d="M65.0785 14.7676C66.2197 14.8918 66.2197 14.8918 66.6001 15.0516C66.6001 15.1453 66.6001 15.239 66.6001 15.3356C66.3578 15.4111 66.1146 15.4847 65.871 15.5575C65.668 15.6192 65.668 15.6192 65.4609 15.6823C65.0785 15.7616 65.0785 15.7616 64.5713 15.6196C64.7387 15.3384 64.906 15.0573 65.0785 14.7676Z" fill="#AE7644"/>
<path d="M33.4628 17.3243C32.984 17.541 32.534 17.6817 32.0046 17.7858C31.8734 17.8129 31.7422 17.84 31.607 17.8679C31.4941 17.876 31.3812 17.884 31.2649 17.8923C31.1533 17.7986 31.0417 17.7049 30.9268 17.6083C31.8133 17.3601 32.5284 17.2968 33.4628 17.3243Z" fill="#B77B49"/>
<path d="M44.4532 15.0508C44.788 15.1211 44.788 15.1211 45.1295 15.1928C45.1853 15.3802 45.2411 15.5677 45.2986 15.7608C44.9638 15.6671 44.6291 15.5733 44.2842 15.4768C44.34 15.3362 44.3958 15.1956 44.4532 15.0508Z" fill="#AD7543"/>
<ellipse cx="55.3166" cy="92.2028" rx="66.8473" ry="44.6609" transform="rotate(90 55.3166 92.2028)" fill="url(#paint0_radial_5402_3614)"/>
<path d="M42.726 53.2139C41.1394 53.2139 39.9994 54.2472 39.306 56.3139C39.2927 56.3539 39.2527 56.3739 39.186 56.3739C39.1194 56.3606 39.086 56.3339 39.086 56.2939C39.1394 55.7606 39.1994 55.0739 39.266 54.2339C39.3327 53.3806 39.366 52.7406 39.366 52.3139C39.366 52.2472 39.3994 52.2139 39.466 52.2139C39.546 52.2139 39.586 52.2472 39.586 52.3139C39.586 52.6072 39.966 52.7539 40.726 52.7539C41.8727 52.7939 43.2127 52.8139 44.746 52.8139C45.5327 52.8139 46.366 52.8006 47.246 52.7739L48.606 52.7539C49.1127 52.7539 49.4794 52.7206 49.706 52.6539C49.946 52.5872 50.0994 52.4539 50.166 52.2539C50.1794 52.2006 50.2194 52.1739 50.286 52.1739C50.366 52.1739 50.406 52.2006 50.406 52.2539C50.366 52.6539 50.3194 53.2939 50.266 54.1739C50.226 55.0539 50.206 55.7606 50.206 56.2939C50.206 56.3339 50.1727 56.3539 50.106 56.3539C50.0394 56.3539 49.9994 56.3339 49.986 56.2939C49.786 55.2672 49.4127 54.5006 48.866 53.9939C48.3194 53.4739 47.646 53.2139 46.846 53.2139C46.4594 53.2139 46.1994 53.3006 46.066 53.4739C45.946 53.6339 45.886 53.9472 45.886 54.4139V63.6339C45.886 64.0472 45.926 64.3472 46.006 64.5339C46.086 64.7206 46.2394 64.8472 46.466 64.9139C46.6927 64.9806 47.0527 65.0139 47.546 65.0139C47.586 65.0139 47.606 65.0539 47.606 65.1339C47.606 65.2139 47.586 65.2539 47.546 65.2539C47.066 65.2539 46.686 65.2472 46.406 65.2339L44.746 65.2139L43.126 65.2339C42.846 65.2472 42.4594 65.2539 41.966 65.2539C41.926 65.2539 41.906 65.2139 41.906 65.1339C41.906 65.0539 41.926 65.0139 41.966 65.0139C42.446 65.0139 42.7994 64.9806 43.026 64.9139C43.266 64.8472 43.426 64.7206 43.506 64.5339C43.5994 64.3339 43.646 64.0339 43.646 63.6339V54.3739C43.646 53.9206 43.586 53.6139 43.466 53.4539C43.346 53.2939 43.0994 53.2139 42.726 53.2139ZM59.1545 57.5539C59.1545 57.1539 59.1211 56.8606 59.0545 56.6739C58.9878 56.4739 58.8678 56.3339 58.6945 56.2539C58.5211 56.1739 58.2478 56.1339 57.8745 56.1339C57.8345 56.1339 57.8145 56.0939 57.8145 56.0139C57.8145 55.9339 57.8345 55.8939 57.8745 55.8939L58.8345 55.9139C59.3678 55.9406 59.8145 55.9539 60.1745 55.9539C60.4945 55.9539 60.9345 55.9406 61.4945 55.9139L62.4545 55.8939C62.4945 55.8939 62.5145 55.9339 62.5145 56.0139C62.5145 56.0939 62.4945 56.1339 62.4545 56.1339C62.0811 56.1339 61.8011 56.1739 61.6145 56.2539C61.4411 56.3206 61.3211 56.4472 61.2545 56.6339C61.1878 56.8206 61.1545 57.1139 61.1545 57.5139V63.6339C61.1545 64.0339 61.1878 64.3339 61.2545 64.5339C61.3211 64.7206 61.4411 64.8472 61.6145 64.9139C61.7878 64.9806 62.0678 65.0139 62.4545 65.0139C62.4945 65.0139 62.5145 65.0539 62.5145 65.1339C62.5145 65.2139 62.4945 65.2539 62.4545 65.2539C62.0411 65.2539 61.7211 65.2472 61.4945 65.2339L60.1745 65.2139L58.8345 65.2339C58.6078 65.2472 58.2878 65.2539 57.8745 65.2539C57.8345 65.2539 57.8145 65.2139 57.8145 65.1339C57.8145 65.0539 57.8345 65.0139 57.8745 65.0139C58.2478 65.0139 58.5211 64.9806 58.6945 64.9139C58.8678 64.8472 58.9878 64.7206 59.0545 64.5339C59.1211 64.3339 59.1545 64.0339 59.1545 63.6339V57.5539ZM53.2945 60.2739H60.0745V60.7939H53.2945V60.2739ZM52.3545 57.5139C52.3545 57.1139 52.3211 56.8206 52.2545 56.6339C52.1878 56.4472 52.0611 56.3206 51.8745 56.2539C51.7011 56.1739 51.4345 56.1339 51.0745 56.1339C51.0345 56.1339 51.0145 56.0939 51.0145 56.0139C51.0145 55.9339 51.0345 55.8939 51.0745 55.8939L52.0345 55.9139C52.5678 55.9406 53.0011 55.9539 53.3345 55.9539C53.6945 55.9539 54.1411 55.9406 54.6745 55.9139L55.6345 55.8939C55.6611 55.8939 55.6745 55.9339 55.6745 56.0139C55.6745 56.0939 55.6611 56.1339 55.6345 56.1339C55.1011 56.1339 54.7478 56.2272 54.5745 56.4139C54.4145 56.6006 54.3345 56.9806 54.3345 57.5539V63.6339C54.3345 64.0339 54.3678 64.3272 54.4345 64.5139C54.5011 64.7006 54.6211 64.8339 54.7945 64.9139C54.9811 64.9806 55.2611 65.0139 55.6345 65.0139C55.6611 65.0139 55.6745 65.0539 55.6745 65.1339C55.6745 65.2139 55.6611 65.2539 55.6345 65.2539C55.2211 65.2539 54.9011 65.2472 54.6745 65.2339L53.3345 65.2139L52.0345 65.2339C51.7945 65.2472 51.4611 65.2539 51.0345 65.2539C51.0078 65.2539 50.9945 65.2139 50.9945 65.1339C50.9945 65.0539 51.0078 65.0139 51.0345 65.0139C51.4211 65.0139 51.7011 64.9806 51.8745 64.9139C52.0611 64.8472 52.1878 64.7206 52.2545 64.5339C52.3211 64.3339 52.3545 64.0339 52.3545 63.6339V57.5139ZM63.6712 65.2539C63.6445 65.2539 63.6312 65.2139 63.6312 65.1339C63.6312 65.0539 63.6445 65.0139 63.6712 65.0139C64.0578 65.0139 64.3378 64.9806 64.5112 64.9139C64.6845 64.8472 64.8045 64.7206 64.8712 64.5339C64.9378 64.3339 64.9712 64.0339 64.9712 63.6339V57.5139C64.9712 57.1139 64.9378 56.8206 64.8712 56.6339C64.8045 56.4472 64.6778 56.3206 64.4912 56.2539C64.3178 56.1739 64.0445 56.1339 63.6712 56.1339C63.6445 56.1339 63.6312 56.0939 63.6312 56.0139C63.6312 55.9339 63.6445 55.8939 63.6712 55.8939H70.8312C70.9645 55.8939 71.0312 55.9472 71.0312 56.0539L71.0512 57.2939C71.0645 57.5472 71.0712 57.8672 71.0712 58.2539C71.0712 58.2939 71.0312 58.3139 70.9512 58.3139C70.8845 58.3139 70.8445 58.2939 70.8312 58.2539C70.5778 57.6672 70.1912 57.1739 69.6712 56.7739C69.1512 56.3606 68.6245 56.1539 68.0912 56.1539H67.9512C67.6578 56.1539 67.4378 56.1939 67.2912 56.2739C67.1578 56.3406 67.0645 56.4672 67.0112 56.6539C66.9712 56.8406 66.9512 57.1339 66.9512 57.5339V63.5539C66.9512 63.9539 66.9712 64.2472 67.0112 64.4339C67.0645 64.6206 67.1578 64.7539 67.2912 64.8339C67.4378 64.9006 67.6578 64.9339 67.9512 64.9339H68.1712C68.7978 64.9339 69.4178 64.7139 70.0312 64.2739C70.6445 63.8206 71.0978 63.2606 71.3912 62.5939C71.4178 62.5539 71.4645 62.5339 71.5312 62.5339C71.5978 62.5339 71.6312 62.5539 71.6312 62.5939C71.5378 63.5539 71.4912 64.3406 71.4912 64.9539C71.4912 65.0606 71.4712 65.1406 71.4312 65.1939C71.3912 65.2339 71.3112 65.2539 71.1912 65.2539H63.6712ZM70.0112 60.9739C69.9445 60.9739 69.6178 60.9339 69.0312 60.8539C68.4578 60.7739 67.4712 60.7339 66.0712 60.7339V60.2339C67.4712 60.2339 68.4578 60.2006 69.0312 60.1339C69.6178 60.0539 69.9445 60.0139 70.0112 60.0139C70.1045 60.0139 70.1512 60.1606 70.1512 60.4539C70.1512 60.5872 70.1378 60.7072 70.1112 60.8139C70.0845 60.9206 70.0512 60.9739 70.0112 60.9739ZM30.0263 89.4939C28.5063 89.4939 27.1863 89.2139 26.0663 88.6539C24.9463 88.0806 24.0863 87.3072 23.4863 86.3339C22.8863 85.3606 22.5863 84.2806 22.5863 83.0939C22.5863 81.8272 22.9197 80.6939 23.5863 79.6939C24.2663 78.6939 25.1997 77.9206 26.3863 77.3739C27.573 76.8139 28.9063 76.5339 30.3863 76.5339C31.0263 76.5339 31.6663 76.5872 32.3063 76.6939C32.9463 76.7872 33.4597 76.9139 33.8463 77.0739C33.993 77.1272 34.073 77.1739 34.0863 77.2139C34.113 77.2406 34.133 77.3472 34.1463 77.5339L34.4063 80.3139C34.4063 80.3539 34.3663 80.3806 34.2863 80.3939C34.2197 80.4072 34.1797 80.3872 34.1663 80.3339C33.993 79.8939 33.713 79.4139 33.3263 78.8939C32.9397 78.3739 32.433 77.9206 31.8063 77.5339C31.1797 77.1472 30.453 76.9539 29.6263 76.9539C28.773 76.9539 27.993 77.1872 27.2863 77.6539C26.5797 78.1206 26.0197 78.7872 25.6063 79.6539C25.2063 80.5206 25.0063 81.5272 25.0063 82.6739C25.0063 83.9272 25.2397 85.0472 25.7063 86.0339C26.1863 87.0206 26.8463 87.7872 27.6863 88.3339C28.5263 88.8806 29.473 89.1539 30.5263 89.1539C31.073 89.1539 31.493 89.0939 31.7863 88.9739C32.0797 88.8539 32.293 88.6206 32.4263 88.2739C32.5597 87.9272 32.6263 87.4139 32.6263 86.7339C32.6263 86.0406 32.5863 85.5606 32.5063 85.2939C32.4263 85.0139 32.253 84.8272 31.9863 84.7339C31.733 84.6406 31.2797 84.5939 30.6263 84.5939C30.5463 84.5939 30.5063 84.5406 30.5063 84.4339C30.5063 84.3939 30.513 84.3606 30.5263 84.3339C30.553 84.2939 30.5797 84.2739 30.6063 84.2739C31.7397 84.3406 32.6597 84.3739 33.3663 84.3739C34.0463 84.3739 34.753 84.3539 35.4863 84.3139C35.5397 84.3139 35.5663 84.3606 35.5663 84.4539C35.5797 84.5472 35.553 84.5939 35.4863 84.5939C35.2463 84.5806 35.073 84.6272 34.9663 84.7339C34.873 84.8272 34.813 85.0272 34.7863 85.3339C34.7597 85.6406 34.7463 86.1739 34.7463 86.9339C34.7463 87.5339 34.7663 87.9606 34.8063 88.2139C34.8597 88.4672 34.8863 88.6272 34.8863 88.6939C34.8863 88.7739 34.873 88.8272 34.8463 88.8539C34.8197 88.8806 34.7597 88.9072 34.6663 88.9339C32.9463 89.3072 31.3997 89.4939 30.0263 89.4939ZM39.8352 84.4739H43.4952L43.6352 84.9939H39.5352L39.8352 84.4739ZM47.3752 89.0139C47.4419 89.0139 47.4752 89.0539 47.4752 89.1339C47.4752 89.2139 47.4419 89.2539 47.3752 89.2539C47.0952 89.2539 46.6752 89.2406 46.1152 89.2139C45.5286 89.1872 45.1152 89.1739 44.8752 89.1739C44.6486 89.1739 44.2952 89.1872 43.8152 89.2139C43.3619 89.2406 43.0419 89.2539 42.8552 89.2539C42.8019 89.2539 42.7752 89.2139 42.7752 89.1339C42.7752 89.0539 42.8019 89.0139 42.8552 89.0139C43.1619 89.0139 43.3752 88.9806 43.4952 88.9139C43.6286 88.8339 43.6952 88.7206 43.6952 88.5739C43.6952 88.3872 43.5819 88.0539 43.3552 87.5739L40.8152 82.1139L41.6952 80.5739L39.0752 86.7939C38.8352 87.3539 38.7152 87.7939 38.7152 88.1139C38.7152 88.4339 38.8286 88.6672 39.0552 88.8139C39.2819 88.9472 39.6352 89.0139 40.1152 89.0139C40.1819 89.0139 40.2152 89.0539 40.2152 89.1339C40.2152 89.2139 40.1819 89.2539 40.1152 89.2539C39.9286 89.2539 39.6619 89.2406 39.3152 89.2139C38.9419 89.1872 38.5952 89.1739 38.2752 89.1739C37.9419 89.1739 37.5486 89.1872 37.0952 89.2139C36.6952 89.2406 36.3686 89.2539 36.1152 89.2539C36.0486 89.2539 36.0152 89.2139 36.0152 89.1339C36.0152 89.0539 36.0486 89.0139 36.1152 89.0139C36.5286 89.0139 36.8619 88.9539 37.1152 88.8339C37.3686 88.7139 37.6019 88.4872 37.8152 88.1539C38.0419 87.8206 38.3019 87.3072 38.5952 86.6139L41.5952 79.5939C41.6219 79.5406 41.6619 79.5139 41.7152 79.5139C41.7686 79.5139 41.8086 79.5406 41.8352 79.5939L45.0352 86.5139C45.3686 87.2339 45.6419 87.7672 45.8552 88.1139C46.0819 88.4606 46.3086 88.7006 46.5352 88.8339C46.7619 88.9539 47.0419 89.0139 47.3752 89.0139ZM52.9085 89.3339C52.5485 89.3339 52.1352 89.3139 51.6685 89.2739C51.5085 89.2606 51.3085 89.2472 51.0685 89.2339C50.8285 89.2206 50.5552 89.2139 50.2485 89.2139L48.9485 89.2339C48.7085 89.2472 48.3752 89.2539 47.9485 89.2539C47.9219 89.2539 47.9085 89.2139 47.9085 89.1339C47.9085 89.0539 47.9219 89.0139 47.9485 89.0139C48.3485 89.0139 48.6352 88.9806 48.8085 88.9139C48.9952 88.8472 49.1152 88.7206 49.1685 88.5339C49.2352 88.3339 49.2685 88.0339 49.2685 87.6339V81.5139C49.2685 81.1139 49.2352 80.8206 49.1685 80.6339C49.1152 80.4472 48.9952 80.3206 48.8085 80.2539C48.6352 80.1739 48.3619 80.1339 47.9885 80.1339C47.9485 80.1339 47.9285 80.0939 47.9285 80.0139C47.9285 79.9339 47.9485 79.8939 47.9885 79.8939L48.9485 79.9139C49.4819 79.9406 49.9152 79.9539 50.2485 79.9539C50.6619 79.9539 51.0752 79.9339 51.4885 79.8939C52.0219 79.8672 52.4219 79.8539 52.6885 79.8539C53.8085 79.8539 54.7752 80.0539 55.5885 80.4539C56.4019 80.8539 57.0219 81.4072 57.4485 82.1139C57.8752 82.8206 58.0885 83.6206 58.0885 84.5139C58.0885 85.4339 57.8685 86.2606 57.4285 86.9939C56.9885 87.7272 56.3752 88.3006 55.5885 88.7139C54.8019 89.1272 53.9085 89.3339 52.9085 89.3339ZM52.6885 88.8939C53.6619 88.8939 54.4219 88.5339 54.9685 87.8139C55.5152 87.0939 55.7885 86.0672 55.7885 84.7339C55.7885 83.4406 55.5152 82.3739 54.9685 81.5339C54.4219 80.6806 53.6019 80.2539 52.5085 80.2539C52.0552 80.2539 51.7285 80.3472 51.5285 80.5339C51.3419 80.7206 51.2485 81.0606 51.2485 81.5539V87.4139C51.2485 87.9606 51.3419 88.3472 51.5285 88.5739C51.7285 88.7872 52.1152 88.8939 52.6885 88.8939ZM64.5162 89.4939C63.4495 89.4939 62.5162 89.2739 61.7162 88.8339C60.9295 88.3806 60.3295 87.7872 59.9162 87.0539C59.5028 86.3206 59.2962 85.5472 59.2962 84.7339C59.2962 83.6939 59.5295 82.7939 59.9962 82.0339C60.4762 81.2606 61.1495 80.6739 62.0162 80.2739C62.8828 79.8606 63.9028 79.6539 65.0762 79.6539C65.6628 79.6539 66.2228 79.7072 66.7562 79.8139C67.3028 79.9206 67.7562 80.0739 68.1162 80.2739C68.2095 80.3139 68.2628 80.3606 68.2762 80.4139C68.3028 80.4672 68.3228 80.5672 68.3362 80.7139L68.4362 82.5939C68.4362 82.6339 68.3962 82.6606 68.3162 82.6739C68.2495 82.6739 68.2095 82.6539 68.1962 82.6139C67.1695 80.9339 65.9762 80.0939 64.6162 80.0939C63.6695 80.0939 62.9228 80.4739 62.3762 81.2339C61.8428 81.9939 61.5762 83.0739 61.5762 84.4739C61.5762 85.8339 61.8828 86.9339 62.4962 87.7739C63.1095 88.6139 63.9428 89.0339 64.9962 89.0339C65.5295 89.0339 65.9162 88.9806 66.1562 88.8739C66.4095 88.7539 66.5762 88.5406 66.6562 88.2339C66.7495 87.9139 66.7962 87.4139 66.7962 86.7339C66.7962 86.3872 66.7695 86.1472 66.7162 86.0139C66.6628 85.8672 66.5495 85.7739 66.3762 85.7339C66.2028 85.6806 65.9028 85.6539 65.4762 85.6539C65.3962 85.6539 65.3562 85.6006 65.3562 85.4939C65.3562 85.4539 65.3628 85.4206 65.3762 85.3939C65.4028 85.3539 65.4295 85.3339 65.4562 85.3339C66.1495 85.3872 66.8495 85.4139 67.5562 85.4139C67.8762 85.4139 68.4095 85.4006 69.1562 85.3739C69.1828 85.3739 69.2028 85.3939 69.2162 85.4339C69.2428 85.4606 69.2562 85.4872 69.2562 85.5139C69.2562 85.6072 69.2228 85.6539 69.1562 85.6539C68.9562 85.6406 68.8162 85.6606 68.7362 85.7139C68.6562 85.7672 68.6028 85.8806 68.5762 86.0539C68.5495 86.2139 68.5362 86.5072 68.5362 86.9339C68.5362 87.5339 68.5495 87.9539 68.5762 88.1939C68.6162 88.4339 68.6362 88.6006 68.6362 88.6939C68.6362 88.7739 68.6228 88.8272 68.5962 88.8539C68.5695 88.8672 68.5028 88.8939 68.3962 88.9339C67.5028 89.3072 66.2095 89.4939 64.5162 89.4939ZM70.3118 89.2539C70.2851 89.2539 70.2718 89.2139 70.2718 89.1339C70.2718 89.0539 70.2851 89.0139 70.3118 89.0139C70.6985 89.0139 70.9785 88.9806 71.1518 88.9139C71.3251 88.8472 71.4451 88.7206 71.5118 88.5339C71.5785 88.3339 71.6118 88.0339 71.6118 87.6339V81.5139C71.6118 81.1139 71.5785 80.8206 71.5118 80.6339C71.4451 80.4472 71.3185 80.3206 71.1318 80.2539C70.9585 80.1739 70.6851 80.1339 70.3118 80.1339C70.2851 80.1339 70.2718 80.0939 70.2718 80.0139C70.2718 79.9339 70.2851 79.8939 70.3118 79.8939H77.4718C77.6051 79.8939 77.6718 79.9472 77.6718 80.0539L77.6918 81.2939C77.7051 81.5472 77.7118 81.8672 77.7118 82.2539C77.7118 82.2939 77.6718 82.3139 77.5918 82.3139C77.5251 82.3139 77.4851 82.2939 77.4718 82.2539C77.2185 81.6672 76.8318 81.1739 76.3118 80.7739C75.7918 80.3606 75.2651 80.1539 74.7318 80.1539H74.5918C74.2985 80.1539 74.0785 80.1939 73.9318 80.2739C73.7985 80.3406 73.7051 80.4672 73.6518 80.6539C73.6118 80.8406 73.5918 81.1339 73.5918 81.5339V87.5539C73.5918 87.9539 73.6118 88.2472 73.6518 88.4339C73.7051 88.6206 73.7985 88.7539 73.9318 88.8339C74.0785 88.9006 74.2985 88.9339 74.5918 88.9339H74.8118C75.4385 88.9339 76.0585 88.7139 76.6718 88.2739C77.2851 87.8206 77.7385 87.2606 78.0318 86.5939C78.0585 86.5539 78.1051 86.5339 78.1718 86.5339C78.2385 86.5339 78.2718 86.5539 78.2718 86.5939C78.1785 87.5539 78.1318 88.3406 78.1318 88.9539C78.1318 89.0606 78.1118 89.1406 78.0718 89.1939C78.0318 89.2339 77.9518 89.2539 77.8318 89.2539H70.3118ZM76.6518 84.9739C76.5851 84.9739 76.2585 84.9339 75.6718 84.8539C75.0985 84.7739 74.1118 84.7339 72.7118 84.7339V84.2339C74.1118 84.2339 75.0985 84.2006 75.6718 84.1339C76.2585 84.0539 76.5851 84.0139 76.6518 84.0139C76.7451 84.0139 76.7918 84.1606 76.7918 84.4539C76.7918 84.5872 76.7785 84.7072 76.7518 84.8139C76.7251 84.9206 76.6918 84.9739 76.6518 84.9739ZM82.2492 80.2939C81.7425 80.2939 81.2558 80.5072 80.7892 80.9339C80.3358 81.3606 79.9758 81.9406 79.7092 82.6739C79.6958 82.7139 79.6558 82.7339 79.5892 82.7339C79.5225 82.7339 79.4892 82.7139 79.4892 82.6739C79.5425 82.2472 79.6025 81.6939 79.6692 81.0139C79.7358 80.3206 79.7692 79.8006 79.7692 79.4539C79.7692 79.3872 79.8025 79.3539 79.8692 79.3539C79.9492 79.3539 79.9892 79.3872 79.9892 79.4539C79.9892 79.6272 80.0892 79.7406 80.2892 79.7939C80.4892 79.8339 80.7425 79.8539 81.0492 79.8539C82.1958 79.8806 83.2025 79.8939 84.0692 79.8939L85.8092 79.8739C86.0358 79.8606 86.3425 79.8539 86.7292 79.8539C87.2492 79.8539 87.6358 79.8272 87.8892 79.7739C88.1558 79.7072 88.3225 79.5739 88.3892 79.3739C88.4025 79.3339 88.4425 79.3139 88.5092 79.3139C88.5892 79.3139 88.6292 79.3339 88.6292 79.3739L88.5692 80.3739C88.4892 81.5472 88.4492 82.3139 88.4492 82.6739C88.4492 82.7139 88.4092 82.7339 88.3292 82.7339C88.2492 82.7339 88.2092 82.7139 88.2092 82.6739C88.1425 82.2606 87.9892 81.8739 87.7492 81.5139C87.5092 81.1406 87.2225 80.8472 86.8892 80.6339C86.5692 80.4072 86.2425 80.2939 85.9092 80.2939C85.5892 80.2939 85.3758 80.3806 85.2692 80.5539C85.1625 80.7139 85.1092 81.0339 85.1092 81.5139V87.6339C85.1092 88.0339 85.1425 88.3339 85.2092 88.5339C85.2892 88.7206 85.4292 88.8472 85.6292 88.9139C85.8292 88.9806 86.1492 89.0139 86.5892 89.0139C86.6292 89.0139 86.6492 89.0539 86.6492 89.1339C86.6492 89.2139 86.6292 89.2539 86.5892 89.2539C86.1492 89.2539 85.8025 89.2472 85.5492 89.2339L84.0492 89.2139L82.5892 89.2339C82.3358 89.2472 81.9758 89.2539 81.5092 89.2539C81.4825 89.2539 81.4692 89.2139 81.4692 89.1339C81.4692 89.0539 81.4825 89.0139 81.5092 89.0139C81.9625 89.0139 82.2892 88.9806 82.4892 88.9139C82.7025 88.8472 82.8425 88.7206 82.9092 88.5339C82.9892 88.3339 83.0292 88.0339 83.0292 87.6339V81.4739C83.0292 80.9806 82.9825 80.6606 82.8892 80.5139C82.7958 80.3672 82.5825 80.2939 82.2492 80.2939ZM26.4228 113.494C24.9028 113.494 23.5828 113.214 22.4628 112.654C21.3428 112.081 20.4828 111.307 19.8828 110.334C19.2828 109.361 18.9828 108.281 18.9828 107.094C18.9828 105.827 19.3162 104.694 19.9828 103.694C20.6628 102.694 21.5962 101.921 22.7828 101.374C23.9695 100.814 25.3028 100.534 26.7828 100.534C27.4228 100.534 28.0628 100.587 28.7028 100.694C29.3428 100.787 29.8562 100.914 30.2428 101.074C30.3895 101.127 30.4695 101.174 30.4828 101.214C30.5095 101.241 30.5295 101.347 30.5428 101.534L30.8028 104.314C30.8028 104.354 30.7628 104.381 30.6828 104.394C30.6162 104.407 30.5762 104.387 30.5628 104.334C30.3895 103.894 30.1095 103.414 29.7228 102.894C29.3362 102.374 28.8295 101.921 28.2028 101.534C27.5762 101.147 26.8495 100.954 26.0228 100.954C25.1695 100.954 24.3895 101.187 23.6828 101.654C22.9762 102.121 22.4162 102.787 22.0028 103.654C21.6028 104.521 21.4028 105.527 21.4028 106.674C21.4028 107.927 21.6362 109.047 22.1028 110.034C22.5828 111.021 23.2428 111.787 24.0828 112.334C24.9228 112.881 25.8695 113.154 26.9228 113.154C27.4695 113.154 27.8895 113.094 28.1828 112.974C28.4762 112.854 28.6895 112.621 28.8228 112.274C28.9562 111.927 29.0228 111.414 29.0228 110.734C29.0228 110.041 28.9828 109.561 28.9028 109.294C28.8228 109.014 28.6495 108.827 28.3828 108.734C28.1295 108.641 27.6762 108.594 27.0228 108.594C26.9428 108.594 26.9028 108.541 26.9028 108.434C26.9028 108.394 26.9095 108.361 26.9228 108.334C26.9495 108.294 26.9762 108.274 27.0028 108.274C28.1362 108.341 29.0562 108.374 29.7628 108.374C30.4428 108.374 31.1495 108.354 31.8828 108.314C31.9362 108.314 31.9628 108.361 31.9628 108.454C31.9762 108.547 31.9495 108.594 31.8828 108.594C31.6428 108.581 31.4695 108.627 31.3628 108.734C31.2695 108.827 31.2095 109.027 31.1828 109.334C31.1562 109.641 31.1428 110.174 31.1428 110.934C31.1428 111.534 31.1628 111.961 31.2028 112.214C31.2562 112.467 31.2828 112.627 31.2828 112.694C31.2828 112.774 31.2695 112.827 31.2428 112.854C31.2162 112.881 31.1562 112.907 31.0628 112.934C29.3428 113.307 27.7962 113.494 26.4228 113.494ZM36.2317 108.474H39.8917L40.0317 108.994H35.9317L36.2317 108.474ZM43.7717 113.014C43.8384 113.014 43.8717 113.054 43.8717 113.134C43.8717 113.214 43.8384 113.254 43.7717 113.254C43.4917 113.254 43.0717 113.241 42.5117 113.214C41.9251 113.187 41.5117 113.174 41.2717 113.174C41.0451 113.174 40.6917 113.187 40.2117 113.214C39.7584 113.241 39.4384 113.254 39.2517 113.254C39.1984 113.254 39.1717 113.214 39.1717 113.134C39.1717 113.054 39.1984 113.014 39.2517 113.014C39.5584 113.014 39.7717 112.981 39.8917 112.914C40.0251 112.834 40.0917 112.721 40.0917 112.574C40.0917 112.387 39.9784 112.054 39.7517 111.574L37.2117 106.114L38.0917 104.574L35.4717 110.794C35.2317 111.354 35.1117 111.794 35.1117 112.114C35.1117 112.434 35.2251 112.667 35.4517 112.814C35.6784 112.947 36.0317 113.014 36.5117 113.014C36.5784 113.014 36.6117 113.054 36.6117 113.134C36.6117 113.214 36.5784 113.254 36.5117 113.254C36.3251 113.254 36.0584 113.241 35.7117 113.214C35.3384 113.187 34.9917 113.174 34.6717 113.174C34.3384 113.174 33.9451 113.187 33.4917 113.214C33.0917 113.241 32.7651 113.254 32.5117 113.254C32.4451 113.254 32.4117 113.214 32.4117 113.134C32.4117 113.054 32.4451 113.014 32.5117 113.014C32.9251 113.014 33.2584 112.954 33.5117 112.834C33.7651 112.714 33.9984 112.487 34.2117 112.154C34.4384 111.821 34.6984 111.307 34.9917 110.614L37.9917 103.594C38.0184 103.541 38.0584 103.514 38.1117 103.514C38.1651 103.514 38.2051 103.541 38.2317 103.594L41.4317 110.514C41.7651 111.234 42.0384 111.767 42.2517 112.114C42.4784 112.461 42.7051 112.701 42.9317 112.834C43.1584 112.954 43.4384 113.014 43.7717 113.014ZM47.525 111.554C47.525 111.914 47.5583 112.181 47.625 112.354C47.6917 112.527 47.8183 112.654 48.005 112.734C48.205 112.801 48.4983 112.834 48.885 112.834H49.105C49.865 112.834 50.5583 112.587 51.185 112.094C51.8117 111.601 52.2717 110.934 52.565 110.094C52.5783 110.067 52.6183 110.061 52.685 110.074C52.765 110.074 52.805 110.087 52.805 110.114C52.7117 110.821 52.665 111.767 52.665 112.954C52.665 113.061 52.6383 113.141 52.585 113.194C52.545 113.234 52.465 113.254 52.345 113.254H44.345C44.3183 113.254 44.305 113.214 44.305 113.134C44.305 113.054 44.3183 113.014 44.345 113.014C44.6917 113.014 44.945 112.981 45.105 112.914C45.265 112.847 45.3717 112.721 45.425 112.534C45.4917 112.334 45.525 112.034 45.525 111.634V105.514C45.525 105.114 45.4917 104.821 45.425 104.634C45.3717 104.447 45.265 104.321 45.105 104.254C44.945 104.174 44.6917 104.134 44.345 104.134C44.3183 104.134 44.305 104.094 44.305 104.014C44.305 103.934 44.3183 103.894 44.345 103.894L45.325 103.914C45.885 103.941 46.3183 103.954 46.625 103.954C46.9717 103.954 47.425 103.941 47.985 103.914L48.905 103.894C48.945 103.894 48.965 103.934 48.965 104.014C48.965 104.094 48.945 104.134 48.905 104.134C48.505 104.134 48.205 104.174 48.005 104.254C47.8183 104.321 47.6917 104.454 47.625 104.654C47.5583 104.841 47.525 105.134 47.525 105.534V111.554ZM56.8805 111.554C56.8805 111.914 56.9138 112.181 56.9805 112.354C57.0471 112.527 57.1738 112.654 57.3605 112.734C57.5605 112.801 57.8538 112.834 58.2405 112.834H58.4605C59.2205 112.834 59.9138 112.587 60.5405 112.094C61.1671 111.601 61.6271 110.934 61.9205 110.094C61.9338 110.067 61.9738 110.061 62.0405 110.074C62.1205 110.074 62.1605 110.087 62.1605 110.114C62.0671 110.821 62.0205 111.767 62.0205 112.954C62.0205 113.061 61.9938 113.141 61.9405 113.194C61.9005 113.234 61.8205 113.254 61.7005 113.254H53.7005C53.6738 113.254 53.6605 113.214 53.6605 113.134C53.6605 113.054 53.6738 113.014 53.7005 113.014C54.0471 113.014 54.3005 112.981 54.4605 112.914C54.6205 112.847 54.7271 112.721 54.7805 112.534C54.8471 112.334 54.8805 112.034 54.8805 111.634V105.514C54.8805 105.114 54.8471 104.821 54.7805 104.634C54.7271 104.447 54.6205 104.321 54.4605 104.254C54.3005 104.174 54.0471 104.134 53.7005 104.134C53.6738 104.134 53.6605 104.094 53.6605 104.014C53.6605 103.934 53.6738 103.894 53.7005 103.894L54.6805 103.914C55.2405 103.941 55.6738 103.954 55.9805 103.954C56.3271 103.954 56.7805 103.941 57.3405 103.914L58.2605 103.894C58.3005 103.894 58.3205 103.934 58.3205 104.014C58.3205 104.094 58.3005 104.134 58.2605 104.134C57.8605 104.134 57.5605 104.174 57.3605 104.254C57.1738 104.321 57.0471 104.454 56.9805 104.654C56.9138 104.841 56.8805 105.134 56.8805 105.534V111.554ZM63.0559 113.254C63.0293 113.254 63.0159 113.214 63.0159 113.134C63.0159 113.054 63.0293 113.014 63.0559 113.014C63.4426 113.014 63.7226 112.981 63.8959 112.914C64.0693 112.847 64.1893 112.721 64.2559 112.534C64.3226 112.334 64.3559 112.034 64.3559 111.634V105.514C64.3559 105.114 64.3226 104.821 64.2559 104.634C64.1893 104.447 64.0626 104.321 63.8759 104.254C63.7026 104.174 63.4293 104.134 63.0559 104.134C63.0293 104.134 63.0159 104.094 63.0159 104.014C63.0159 103.934 63.0293 103.894 63.0559 103.894H70.2159C70.3493 103.894 70.4159 103.947 70.4159 104.054L70.4359 105.294C70.4493 105.547 70.4559 105.867 70.4559 106.254C70.4559 106.294 70.4159 106.314 70.3359 106.314C70.2693 106.314 70.2293 106.294 70.2159 106.254C69.9626 105.667 69.5759 105.174 69.0559 104.774C68.5359 104.361 68.0093 104.154 67.4759 104.154H67.3359C67.0426 104.154 66.8226 104.194 66.6759 104.274C66.5426 104.341 66.4493 104.467 66.3959 104.654C66.3559 104.841 66.3359 105.134 66.3359 105.534V111.554C66.3359 111.954 66.3559 112.247 66.3959 112.434C66.4493 112.621 66.5426 112.754 66.6759 112.834C66.8226 112.901 67.0426 112.934 67.3359 112.934H67.5559C68.1826 112.934 68.8026 112.714 69.4159 112.274C70.0293 111.821 70.4826 111.261 70.7759 110.594C70.8026 110.554 70.8493 110.534 70.9159 110.534C70.9826 110.534 71.0159 110.554 71.0159 110.594C70.9226 111.554 70.8759 112.341 70.8759 112.954C70.8759 113.061 70.8559 113.141 70.8159 113.194C70.7759 113.234 70.6959 113.254 70.5759 113.254H63.0559ZM69.3959 108.974C69.3293 108.974 69.0026 108.934 68.4159 108.854C67.8426 108.774 66.8559 108.734 65.4559 108.734V108.234C66.8559 108.234 67.8426 108.201 68.4159 108.134C69.0026 108.054 69.3293 108.014 69.3959 108.014C69.4893 108.014 69.5359 108.161 69.5359 108.454C69.5359 108.587 69.5226 108.707 69.4959 108.814C69.4693 108.921 69.4359 108.974 69.3959 108.974ZM76.9333 113.014C76.96 113.014 76.9733 113.054 76.9733 113.134C76.9733 113.214 76.96 113.254 76.9333 113.254C76.5333 113.254 76.22 113.247 75.9933 113.234L74.6333 113.214L73.3333 113.234C73.0933 113.247 72.76 113.254 72.3333 113.254C72.3066 113.254 72.2933 113.214 72.2933 113.134C72.2933 113.054 72.3066 113.014 72.3333 113.014C72.7066 113.014 72.98 112.981 73.1533 112.914C73.3266 112.847 73.4466 112.721 73.5133 112.534C73.58 112.334 73.6133 112.034 73.6133 111.634V105.514C73.6133 105.114 73.58 104.821 73.5133 104.634C73.46 104.447 73.3466 104.321 73.1733 104.254C73 104.174 72.7333 104.134 72.3733 104.134C72.3333 104.134 72.3133 104.094 72.3133 104.014C72.3133 103.934 72.3333 103.894 72.3733 103.894L73.3533 103.914C73.8866 103.941 74.3133 103.954 74.6333 103.954C74.8866 103.954 75.12 103.947 75.3333 103.934C75.5466 103.921 75.7333 103.907 75.8933 103.894C76.3333 103.854 76.7466 103.834 77.1333 103.834C78.1733 103.834 78.9666 104.001 79.5133 104.334C80.06 104.667 80.3333 105.147 80.3333 105.774C80.3333 106.321 80.14 106.827 79.7533 107.294C79.38 107.761 78.86 108.134 78.1933 108.414C77.54 108.681 76.82 108.814 76.0333 108.814C75.6066 108.814 75.24 108.787 74.9333 108.734L74.9133 108.294C75.2466 108.387 75.6666 108.434 76.1733 108.434C76.9333 108.434 77.46 108.261 77.7533 107.914C78.0466 107.554 78.1933 107.021 78.1933 106.314C78.1933 104.927 77.6866 104.234 76.6733 104.234C76.3933 104.234 76.1866 104.267 76.0533 104.334C75.92 104.401 75.8266 104.527 75.7733 104.714C75.72 104.887 75.6933 105.167 75.6933 105.554V111.634C75.6933 112.047 75.72 112.347 75.7733 112.534C75.84 112.721 75.9533 112.847 76.1133 112.914C76.2866 112.981 76.56 113.014 76.9333 113.014ZM83.0533 113.014C83.0933 113.014 83.1133 113.054 83.1133 113.134C83.1133 113.214 83.0933 113.254 83.0533 113.254H79.7733C79.5733 113.254 79.2066 112.841 78.6733 112.014C78.14 111.174 77.5133 110.041 76.7933 108.614L78.3933 108.194C79.1266 109.434 79.7533 110.401 80.2733 111.094C80.8066 111.787 81.2866 112.281 81.7133 112.574C82.1533 112.867 82.6 113.014 83.0533 113.014ZM89.8308 105.914C90.0308 105.554 90.1308 105.234 90.1308 104.954C90.1308 104.701 90.0441 104.501 89.8708 104.354C89.7108 104.207 89.4575 104.134 89.1108 104.134C89.0708 104.134 89.0508 104.094 89.0508 104.014C89.0508 103.934 89.0708 103.894 89.1108 103.894L90.0708 103.914C90.6041 103.941 91.0908 103.954 91.5308 103.954C91.6908 103.954 91.8908 103.941 92.1308 103.914L92.6108 103.894C92.6508 103.894 92.6708 103.934 92.6708 104.014C92.6708 104.094 92.6508 104.134 92.6108 104.134C91.7975 104.134 91.0575 104.734 90.3908 105.934L88.4108 109.494L87.9708 109.334L89.8308 105.914ZM84.5908 105.554C84.2708 105.047 83.9641 104.687 83.6708 104.474C83.3908 104.247 83.0975 104.134 82.7908 104.134C82.7508 104.134 82.7308 104.094 82.7308 104.014C82.7308 103.934 82.7508 103.894 82.7908 103.894L83.5308 103.914L84.3308 103.954C84.7308 103.954 85.3575 103.941 86.2108 103.914L87.4708 103.894C87.4975 103.894 87.5108 103.934 87.5108 104.014C87.5108 104.094 87.4975 104.134 87.4708 104.134C86.8175 104.134 86.4908 104.301 86.4908 104.634C86.4908 104.794 86.5775 105.001 86.7508 105.254L88.8708 108.554L87.1108 109.474L84.5908 105.554ZM88.8708 108.514V111.634C88.8708 112.047 88.9041 112.347 88.9708 112.534C89.0375 112.721 89.1708 112.847 89.3708 112.914C89.5708 112.981 89.8975 113.014 90.3508 113.014C90.3775 113.014 90.3908 113.054 90.3908 113.134C90.3908 113.214 90.3775 113.254 90.3508 113.254C89.9108 113.254 89.5641 113.247 89.3108 113.234L87.8108 113.214L86.3908 113.234C86.1241 113.247 85.7575 113.254 85.2908 113.254C85.2508 113.254 85.2308 113.214 85.2308 113.134C85.2308 113.054 85.2508 113.014 85.2908 113.014C85.7308 113.014 86.0508 112.981 86.2508 112.914C86.4641 112.847 86.6041 112.721 86.6708 112.534C86.7508 112.334 86.7908 112.034 86.7908 111.634V108.694L88.8708 108.514Z" fill="#F1C57C"/>
<defs>
<radialGradient id="paint0_radial_5402_3614" cx="0" cy="0" r="1" gradientUnits="userSpaceOnUse" gradientTransform="translate(55.3166 92.2028) rotate(90) scale(44.6609 66.8473)">
<stop stop-color="#4C331F"/>
<stop offset="0.9999" stop-color="#261B12"/>
</radialGradient>
</defs>
</svg>
